<svg width="50" height="70" viewBox="0 0 50 70" fill="none" xmlns="http://www.w3.org/2000/svg">
<path d="M24.2044 58.7846L24.6047 59.3195L25.0051 58.7846C33.8035 47.0273 38.2232 39.37 40.4422 34.1952C42.6717 28.9961 42.6795 26.301 42.6795 24.5C42.6795 19.7254 40.7747 15.1468 37.3848 11.7713C33.9949 8.39591 29.3978 6.5 24.6047 6.5C19.8117 6.5 15.2145 8.39591 11.8247 11.7713C8.43475 15.1468 6.52992 19.7254 6.52992 24.5C6.52992 26.301 6.5378 28.9961 8.76724 34.1952C10.9863 39.37 15.406 47.0273 24.2044 58.7846ZM24.6047 16.25C26.8034 16.25 28.9115 17.1197 30.4656 18.6671C32.0195 20.2145 32.8921 22.3127 32.8921 24.5C32.8921 25.5831 32.6779 26.6557 32.2616 27.6564C31.8453 28.6572 31.235 29.5667 30.4656 30.3329C29.6961 31.0991 28.7825 31.7069 27.7769 32.1217C26.7713 32.5365 25.6933 32.75 24.6047 32.75C22.4061 32.75 20.2979 31.8803 18.7439 30.3329C17.1899 28.7855 16.3173 26.6873 16.3173 24.5C16.3173 22.3127 17.1899 20.2145 18.7439 18.6671C20.2979 17.1197 22.4061 16.25 24.6047 16.25ZM24.6047 0.5C30.9984 0.5 37.1298 3.02908 41.6501 7.53019C46.1704 12.0312 48.7095 18.1355 48.7095 24.5C48.7095 28.9922 47.2028 34.0579 44.909 39.1562C42.6182 44.2479 39.5593 49.3351 36.4932 53.8602C33.428 58.3838 30.3619 62.3366 28.0617 65.1587C26.9118 66.5695 25.9538 67.6971 25.2839 68.4714C25.0054 68.7932 24.7767 69.054 24.6047 69.2487C24.4327 69.054 24.204 68.7932 23.9256 68.4714C23.2556 67.6971 22.2977 66.5695 21.1478 65.1587C18.8476 62.3366 15.7814 58.3838 12.7163 53.8602C9.65018 49.3351 6.59129 44.2479 4.30046 39.1562C2.00667 34.0579 0.5 28.9922 0.5 24.5C0.5 18.1355 3.03908 12.0312 7.55936 7.53019C12.0797 3.02908 18.2111 0.5 24.6047 0.5Z" fill="#FCD9D9" stroke="black"/>
<path d="M33.126 24.4997C33.126 29.1829 29.3127 32.983 24.6043 32.983C19.8958 32.983 16.0825 29.1829 16.0825 24.4997C16.0825 19.8165 19.8958 16.0164 24.6043 16.0164C29.3127 16.0164 33.126 19.8165 33.126 24.4997Z" fill="#FFB9B9" stroke="black"/>
</svg>
