<svg width="23" height="27" viewBox="0 0 23 27" fill="none" xmlns="http://www.w3.org/2000/svg">
<path d="M22.0456 18.1236C21.9483 18.0064 21.8528 17.8893 21.759 17.7762C20.47 16.217 19.6901 15.276 19.6901 10.8621C19.6901 8.57695 19.1434 6.70195 18.0659 5.2957C17.2714 4.25684 16.1973 3.46875 14.7817 2.88633C14.7635 2.87619 14.7472 2.8629 14.7337 2.84707C14.2245 1.14199 12.8311 0 11.2596 0C9.68815 0 8.29538 1.14199 7.7862 2.84531C7.77261 2.86056 7.75657 2.87343 7.73874 2.8834C4.43522 4.24336 2.82975 6.85254 2.82975 10.8604C2.82975 15.276 2.05104 16.217 0.760807 17.7744C0.667057 17.8875 0.571549 18.0023 0.474283 18.1219C0.223034 18.4249 0.0638465 18.7935 0.0155608 19.1842C-0.0327249 19.5748 0.0319121 19.9711 0.201822 20.3262C0.563346 21.0879 1.33385 21.5607 2.21335 21.5607H20.3124C21.1878 21.5607 21.953 21.0885 22.3157 20.3303C22.4863 19.9751 22.5516 19.5785 22.5037 19.1874C22.4558 18.7963 22.2968 18.4271 22.0456 18.1236Z" fill="#393939"/>
<path d="M11.2597 26.25C12.1064 26.2493 12.9371 26.0195 13.6637 25.5849C14.3904 25.1503 14.9859 24.5271 15.387 23.7814C15.4059 23.7457 15.4152 23.7057 15.4141 23.6653C15.413 23.6249 15.4014 23.5855 15.3805 23.5508C15.3596 23.5162 15.3302 23.4876 15.295 23.4677C15.2598 23.4479 15.22 23.4375 15.1796 23.4375H7.34091C7.30044 23.4374 7.26062 23.4477 7.22533 23.4675C7.19004 23.4873 7.16048 23.516 7.13954 23.5506C7.11859 23.5852 7.10697 23.6247 7.10581 23.6651C7.10465 23.7056 7.11398 23.7457 7.1329 23.7814C7.534 24.527 8.12938 25.1501 8.85592 25.5847C9.58245 26.0193 10.4131 26.2492 11.2597 26.25Z" fill="#393939"/>
</svg>
