<svg width="110" height="68" viewBox="0 0 110 68" fill="none" xmlns="http://www.w3.org/2000/svg">
<path d="M13.2927 67.0557L13.1039 67.0132C15.2087 57.6529 20.4982 49.153 27.9981 43.0791C33.6682 38.4941 40.4119 35.4277 47.5943 34.1685C54.7767 32.9093 62.1614 33.4988 69.053 35.8814C75.9447 38.2641 82.1166 42.3615 86.9876 47.7878C91.8586 53.2142 95.2684 59.791 96.896 66.8989L96.7074 66.9418C92.2519 47.379 75.1066 33.716 55.0129 33.716C35.1826 33.716 17.6367 47.7373 13.2927 67.0557Z" fill="#3F3D56"/>
<path d="M40.3559 11.9693C43.258 11.9693 45.6107 9.61662 45.6107 6.71449C45.6107 3.81236 43.258 1.45972 40.3559 1.45972C37.4538 1.45972 35.1011 3.81236 35.1011 6.71449C35.1011 9.61662 37.4538 11.9693 40.3559 11.9693Z" fill="#FCD9D9"/>
<path d="M17.7171 65.862C17.881 66.4678 18.4423 66.843 18.4423 66.843C18.4423 66.843 18.7379 66.2359 18.5741 65.6301C18.4102 65.0243 17.8488 64.6491 17.8488 64.6491C17.8488 64.6491 17.5532 65.2562 17.7171 65.862Z" fill="#3F3D56"/>
<path d="M17.9579 65.7318C18.4076 66.1695 18.4626 66.8425 18.4626 66.8425C18.4626 66.8425 17.7884 66.8056 17.3387 66.3679C16.889 65.9301 16.834 65.2572 16.834 65.2572C16.834 65.2572 17.5082 65.294 17.9579 65.7318Z" fill="#235952"/>
<path d="M30.1973 65.862C30.3612 66.4678 30.9225 66.843 30.9225 66.843C30.9225 66.843 31.2181 66.2359 31.0543 65.6301C30.8904 65.0243 30.3291 64.6491 30.3291 64.6491C30.3291 64.6491 30.0334 65.2562 30.1973 65.862Z" fill="#3F3D56"/>
<path d="M30.4382 65.7318C30.8879 66.1695 30.9428 66.8425 30.9428 66.8425C30.9428 66.8425 30.2686 66.8056 29.8189 66.3679C29.3692 65.9301 29.3143 65.2572 29.3143 65.2572C29.3143 65.2572 29.9885 65.294 30.4382 65.7318Z" fill="#235952"/>
<path d="M32.672 17.6066L30.6961 16.0258L41.7613 6.14618H69.8194V14.8403L51.6409 27.091L32.672 17.6066Z" fill="#3F3D56"/>
<path d="M74.9351 11.6881V6.34354H71.2098V7.65242L69.8195 6.14618L60.7302 16.0258L57.1735 18.3969L51.6588 58.688L59.9757 67.0048H79.3039V16.421L74.9351 11.6881Z" fill="#CCCCCC"/>
<path d="M60.7302 16.0258H30.6961V67.0047H60.7302V16.0258Z" fill="#F2F2F2"/>
<path d="M47.8867 54.5564H42.3541V67.0047H47.8867V54.5564Z" fill="#CCCCCC"/>
<path d="M36.4262 58.113V56.1371H34.0552V58.113H36.2287H36.4262Z" fill="#3F3D56"/>
<path d="M36.2287 59.6937H34.0552V61.6697H36.4262V59.6937H36.2287Z" fill="#3F3D56"/>
<path d="M40.3781 56.1371H38.007V58.1131H40.3781V56.1371Z" fill="#3F3D56"/>
<path d="M40.3781 59.6938H38.007V61.6697H40.3781V59.6938Z" fill="#3F3D56"/>
<path d="M52.6289 58.113V56.1371H50.2578V58.113H52.4313H52.6289Z" fill="#3F3D56"/>
<path d="M52.4313 59.6937H50.2578V61.6697H52.6289V59.6937H52.4313Z" fill="#3F3D56"/>
<path d="M56.5807 56.1371H54.2097V58.1131H56.5807V56.1371Z" fill="#3F3D56"/>
<path d="M56.5807 59.6938H54.2097V61.6697H56.5807V59.6938Z" fill="#3F3D56"/>
<path d="M69.2266 18.5945V16.6186H66.8555V18.5945H69.0291H69.2266Z" fill="#3F3D56"/>
<path d="M69.0291 20.1753H66.8555V22.1511H69.2266V20.1753H69.0291Z" fill="#3F3D56"/>
<path d="M73.1786 16.6186H70.8074V18.5945H73.1786V16.6186Z" fill="#3F3D56"/>
<path d="M73.1786 20.1752H70.8074V22.1512H73.1786V20.1752Z" fill="#3F3D56"/>
<path d="M69.2266 29.6597V27.6837H66.8555V29.6597H69.0291H69.2266Z" fill="#3F3D56"/>
<path d="M69.0291 31.2404H66.8555V33.2163H69.2266V31.2404H69.0291Z" fill="#3F3D56"/>
<path d="M73.1786 27.6837H70.8074V29.6597H73.1786V27.6837Z" fill="#3F3D56"/>
<path d="M73.1786 31.2404H70.8074V33.2163H73.1786V31.2404Z" fill="#3F3D56"/>
<path d="M69.2266 40.7249V38.749H66.8555V40.7249H69.0291H69.2266Z" fill="#3F3D56"/>
<path d="M69.0291 42.3056H66.8555V44.2815H69.2266V42.3056H69.0291Z" fill="#3F3D56"/>
<path d="M73.1786 38.749H70.8074V40.7249H73.1786V38.749Z" fill="#3F3D56"/>
<path d="M73.1786 42.3056H70.8074V44.2815H73.1786V42.3056Z" fill="#3F3D56"/>
<path d="M69.2266 51.7901V49.8141H66.8555V51.7901H69.0291H69.2266Z" fill="#3F3D56"/>
<path d="M69.0291 53.3708H66.8555V55.3468H69.2266V53.3708H69.0291Z" fill="#3F3D56"/>
<path d="M73.1786 49.8141H70.8074V51.7901H73.1786V49.8141Z" fill="#3F3D56"/>
<path d="M73.1786 53.3708H70.8074V55.3468H73.1786V53.3708Z" fill="#3F3D56"/>
<path d="M56.9759 18.5945H34.0552V23.3367H56.9759V18.5945Z" fill="#3F3D56"/>
<path d="M56.9759 28.0789H34.0552V32.8212H56.9759V28.0789Z" fill="#3F3D56"/>
<path d="M56.9759 37.5634H34.0552V42.3056H56.9759V37.5634Z" fill="#3F3D56"/>
<path d="M56.9759 47.0479H34.0552V51.7901H56.9759V47.0479Z" fill="#3F3D56"/>
<path d="M110 66.8058H0V66.9992H110V66.8058Z" fill="#3F3D56"/>
<path d="M18.9893 44.4658H18.4209V66.9161H18.9893V44.4658Z" fill="#3F3D56"/>
<path d="M24.2345 47.3269C24.2707 55.1771 18.7476 61.5666 18.7476 61.5666C18.7476 61.5666 13.1659 55.2283 13.1297 47.378C13.0935 39.5277 18.6166 33.1382 18.6166 33.1382C18.6166 33.1382 24.1984 39.4766 24.2345 47.3269Z" fill="#235952"/>
<path opacity="0.1" d="M24.2345 47.3269C24.2707 55.1771 18.7476 61.5666 18.7476 61.5666C18.7476 61.5666 13.1659 55.2283 13.1297 47.378C13.0935 39.5277 18.6166 33.1382 18.6166 33.1382C18.6166 33.1382 24.1984 39.4766 24.2345 47.3269Z" fill="black"/>
<path d="M11.6006 44.4658H11.0322V66.9161H11.6006V44.4658Z" fill="#3F3D56"/>
<path d="M16.8459 47.3269C16.8821 55.1771 11.359 61.5666 11.359 61.5666C11.359 61.5666 5.77726 55.2283 5.74108 47.378C5.70491 39.5277 11.228 33.1382 11.228 33.1382C11.228 33.1382 16.8097 39.4766 16.8459 47.3269Z" fill="#235952"/>
<path d="M91.4784 15.9941C87.0014 16.0147 83.3572 16.0808 83.3572 16.0808C83.3572 16.0808 87.6889 10.3431 91.4622 12.4689C95.2355 14.5947 99.5702 16.0061 99.5702 16.0061C99.5702 16.0061 95.9555 15.9734 91.4784 15.9941Z" fill="#F2F2F2"/>
<path d="M16.8874 27.0231C12.4103 27.0437 8.76617 27.1099 8.76617 27.1099C8.76617 27.1099 13.0978 21.3721 16.8712 23.4979C20.6445 25.6237 24.9791 27.0352 24.9791 27.0352C24.9791 27.0352 21.3645 27.0025 16.8874 27.0231Z" fill="#F2F2F2"/>
<path d="M33.1407 3.99757C28.6636 4.01821 25.0195 4.08435 25.0195 4.08435C25.0195 4.08435 29.3511 -1.65338 33.1245 0.472407C36.8978 2.5982 41.2324 4.00963 41.2324 4.00963C41.2324 4.00963 37.6178 3.97694 33.1407 3.99757Z" fill="#F2F2F2"/>
<path d="M100.703 44.4658H100.135V66.9161H100.703V44.4658Z" fill="#3F3D56"/>
<path d="M105.949 47.3269C105.985 55.1771 100.462 61.5666 100.462 61.5666C100.462 61.5666 94.8802 55.2283 94.844 47.378C94.8078 39.5277 100.331 33.1382 100.331 33.1382C100.331 33.1382 105.913 39.4766 105.949 47.3269Z" fill="#235952"/>
<path d="M79.7831 52.9808H85.5191V51.5963H88.6837V52.9808H94.6174V59.1124H88.6837V66.8263H85.5191V59.1124H79.7831L76.8162 55.7499L79.7831 52.9808Z" fill="#3F3D56"/>
</svg>
