<svg width="380" height="300" viewBox="0 0 380 300" fill="none" xmlns="http://www.w3.org/2000/svg">
<g clip-path="url(#clip0)">
<path d="M379.794 0H16.1851V240.436H379.794V0Z" fill="url(#paint0_linear)"/>
<path d="M375.703 28.407H19.3667V233.164H375.703V28.407Z" fill="white"/>
<path d="M375.703 4.99963H19.3667V28.4069H375.703V4.99963Z" fill="#235952"/>
<path d="M371.613 43.1786H24.3662V221.801H371.613V43.1786Z" fill="url(#paint1_linear)"/>
<path opacity="0.5" d="M70.4991 46.3601H28.6841V79.7667H70.4991V46.3601Z" fill="#235952"/>
<path d="M112.769 46.3601H70.9536V79.7667H112.769V46.3601Z" fill="white"/>
<path opacity="0.2" d="M155.038 46.3601H113.223V79.7667H155.038V46.3601Z" fill="#235952"/>
<path d="M197.308 46.3601H155.493V79.7667H197.308V46.3601Z" fill="white"/>
<path d="M239.577 46.3601H197.762V79.7667H239.577V46.3601Z" fill="white"/>
<path opacity="0.5" d="M281.847 46.3601H240.032V79.7667H281.847V46.3601Z" fill="#235952"/>
<path d="M324.116 46.3601H282.301V79.7667H324.116V46.3601Z" fill="white"/>
<path opacity="0.2" d="M366.386 46.3601H324.571V79.7667H366.386V46.3601Z" fill="#235952"/>
<path opacity="0.2" d="M70.4991 80.4485H28.6841V113.855H70.4991V80.4485Z" fill="#235952"/>
<path opacity="0.2" d="M112.769 80.4485H70.9536V113.855H112.769V80.4485Z" fill="#235952"/>
<path d="M155.038 80.4485H113.223V113.855H155.038V80.4485Z" fill="white"/>
<path opacity="0.5" d="M197.308 80.4485H155.493V113.855H197.308V80.4485Z" fill="#235952"/>
<path d="M239.577 80.4485H197.762V113.855H239.577V80.4485Z" fill="white"/>
<path opacity="0.2" d="M281.847 80.4485H240.032V113.855H281.847V80.4485Z" fill="#235952"/>
<path opacity="0.5" d="M324.116 80.4485H282.301V113.855H324.116V80.4485Z" fill="#235952"/>
<path d="M366.386 80.4485H324.571V113.855H366.386V80.4485Z" fill="white"/>
<path d="M70.4991 114.082H28.6841V147.489H70.4991V114.082Z" fill="white"/>
<path d="M112.769 114.082H70.9536V147.489H112.769V114.082Z" fill="white"/>
<path opacity="0.2" d="M155.038 114.082H113.223V147.489H155.038V114.082Z" fill="#235952"/>
<path d="M197.308 114.082H155.493V147.489H197.308V114.082Z" fill="white"/>
<path opacity="0.2" d="M239.577 114.082H197.762V147.489H239.577V114.082Z" fill="#235952"/>
<path d="M281.847 114.082H240.032V147.489H281.847V114.082Z" fill="white"/>
<path d="M324.116 114.082H282.301V147.489H324.116V114.082Z" fill="white"/>
<path opacity="0.2" d="M366.386 114.082H324.571V147.489H366.386V114.082Z" fill="#235952"/>
<path d="M70.4991 147.716H28.6841V181.123H70.4991V147.716Z" fill="white"/>
<path opacity="0.5" d="M112.769 147.716H70.9536V181.123H112.769V147.716Z" fill="#235952"/>
<path opacity="0.5" d="M155.038 147.716H113.223V181.123H155.038V147.716Z" fill="#235952"/>
<path d="M197.308 147.716H155.493V181.123H197.308V147.716Z" fill="white"/>
<path d="M239.577 147.716H197.762V181.123H239.577V147.716Z" fill="white"/>
<path opacity="0.5" d="M281.847 147.716H240.032V181.123H281.847V147.716Z" fill="#235952"/>
<path d="M324.116 147.716H282.301V181.123H324.116V147.716Z" fill="white"/>
<path opacity="0.5" d="M366.386 147.716H324.571V181.123H366.386V147.716Z" fill="#235952"/>
<path opacity="0.5" d="M70.4991 181.804H28.6841V215.211H70.4991V181.804Z" fill="#235952"/>
<path opacity="0.2" d="M112.769 181.804H70.9536V215.211H112.769V181.804Z" fill="#235952"/>
<path d="M155.038 181.804H113.223V215.211H155.038V181.804Z" fill="white"/>
<path opacity="0.5" d="M197.308 181.804H155.493V215.211H197.308V181.804Z" fill="#235952"/>
<path opacity="0.2" d="M239.577 181.804H197.762V215.211H239.577V181.804Z" fill="#235952"/>
<path d="M281.847 181.804H240.032V215.211H281.847V181.804Z" fill="white"/>
<path opacity="0.2" d="M324.116 181.804H282.301V215.211H324.116V181.804Z" fill="#235952"/>
<path d="M366.386 181.804H324.571V215.211H366.386V181.804Z" fill="white"/>
<path d="M44.8193 117.264H32.093V129.99H44.8193V117.264Z" fill="#69F0AE"/>
<path d="M171.174 49.9962H158.447V62.7225H171.174V49.9962Z" fill="#69F0AE"/>
<path d="M169.81 117.264H157.083V129.99H169.81V117.264Z" fill="#69F0AE"/>
<path d="M212.989 149.534H200.262V162.26H212.989V149.534Z" fill="#69F0AE"/>
<path d="M297.073 117.264H284.347V129.99H297.073V117.264Z" fill="#69F0AE"/>
<path d="M77.9714 300C121.034 300 155.943 265.091 155.943 222.029C155.943 178.966 121.034 144.057 77.9714 144.057C34.909 144.057 0 178.966 0 222.029C0 265.091 34.909 300 77.9714 300Z" fill="url(#paint2_linear)"/>
<path d="M77.9715 297.896C119.872 297.896 153.838 263.929 153.838 222.029C153.838 180.128 119.872 146.162 77.9715 146.162C36.0713 146.162 2.10449 180.128 2.10449 222.029C2.10449 263.929 36.0713 297.896 77.9715 297.896Z" fill="#235952"/>
<path d="M77.9713 283.67C112.015 283.67 139.612 256.072 139.612 222.029C139.612 187.985 112.015 160.388 77.9713 160.388C43.9281 160.388 16.3306 187.985 16.3306 222.029C16.3306 256.072 43.9281 283.67 77.9713 283.67Z" fill="white"/>
<path d="M77.9715 225.715C80.0073 225.715 81.6576 224.064 81.6576 222.029C81.6576 219.993 80.0073 218.343 77.9715 218.343C75.9357 218.343 74.2854 219.993 74.2854 222.029C74.2854 224.064 75.9357 225.715 77.9715 225.715Z" fill="url(#paint3_linear)"/>
<path d="M79.3622 222.483L77.0896 221.72L97.5426 173.85L99.8152 174.919L79.3622 222.483Z" fill="url(#paint4_linear)"/>
<path d="M97.7856 174.29L77.7661 221.706L79.2232 222.322L99.2427 174.906L97.7856 174.29Z" fill="#2196F3"/>
<path d="M90.725 247.481L77.5442 222.938L79.3622 222.029L92.9976 246.118L90.725 247.481Z" fill="url(#paint5_linear)"/>
<path d="M79.1862 222.193L77.7964 222.948L90.9669 247.185L92.3567 246.43L79.1862 222.193Z" fill="#2196F3"/>
<path d="M135.399 225.192C136.272 225.192 136.981 224.484 136.981 223.611C136.981 222.737 136.272 222.029 135.399 222.029C134.525 222.029 133.817 222.737 133.817 223.611C133.817 224.484 134.525 225.192 135.399 225.192Z" fill="#235952"/>
<path d="M30.2842 194.656C30.8516 193.674 30.5149 192.417 29.5323 191.85C28.5497 191.283 27.2932 191.619 26.7259 192.602C26.1586 193.585 26.4953 194.841 27.4779 195.408C28.4605 195.976 29.7169 195.639 30.2842 194.656Z" fill="url(#paint6_linear)"/>
<path d="M30.0582 253.886C31.0408 253.319 31.3774 252.063 30.8101 251.08C30.2428 250.097 28.9864 249.761 28.0038 250.328C27.0212 250.895 26.6845 252.152 27.2518 253.134C27.8191 254.117 29.0756 254.454 30.0582 253.886Z" fill="url(#paint7_linear)"/>
<path d="M20.5485 225.665C21.6831 225.665 22.6029 224.745 22.6029 223.61C22.6029 222.476 21.6831 221.556 20.5485 221.556C19.4139 221.556 18.4941 222.476 18.4941 223.61C18.4941 224.745 19.4139 225.665 20.5485 225.665Z" fill="url(#paint8_linear)"/>
<path d="M50.4976 174.335C51.4802 173.768 51.8169 172.512 51.2496 171.529C50.6823 170.546 49.4258 170.21 48.4432 170.777C47.4606 171.344 47.124 172.601 47.6913 173.583C48.2586 174.566 49.515 174.903 50.4976 174.335Z" fill="url(#paint9_linear)"/>
<path d="M78.9473 166.962C79.9299 166.395 80.2666 165.139 79.6993 164.156C79.132 163.173 77.8755 162.837 76.8929 163.404C75.9103 163.971 75.5737 165.228 76.141 166.21C76.7083 167.193 77.9647 167.53 78.9473 166.962Z" fill="url(#paint10_linear)"/>
<path d="M107.397 174.338C108.379 173.77 108.716 172.514 108.149 171.531C107.581 170.549 106.325 170.212 105.342 170.779C104.36 171.347 104.023 172.603 104.59 173.586C105.158 174.568 106.414 174.905 107.397 174.338Z" fill="url(#paint11_linear)"/>
<path d="M128.47 195.412C129.452 194.845 129.789 193.588 129.222 192.606C128.654 191.623 127.398 191.287 126.415 191.854C125.433 192.421 125.096 193.678 125.663 194.66C126.231 195.643 127.487 195.98 128.47 195.412Z" fill="url(#paint12_linear)"/>
<path d="M127.945 253.891C128.927 253.324 129.264 252.067 128.697 251.085C128.13 250.102 126.873 249.765 125.89 250.333C124.908 250.9 124.571 252.156 125.139 253.139C125.706 254.122 126.962 254.458 127.945 253.891Z" fill="url(#paint13_linear)"/>
<path d="M106.343 274.436C107.325 273.869 107.662 272.612 107.095 271.63C106.527 270.647 105.271 270.311 104.288 270.878C103.306 271.445 102.969 272.702 103.536 273.684C104.104 274.667 105.36 275.003 106.343 274.436Z" fill="url(#paint14_linear)"/>
<path d="M78.9451 280.761C79.9277 280.194 80.2644 278.937 79.6971 277.955C79.1298 276.972 77.8733 276.635 76.8907 277.203C75.9081 277.77 75.5715 279.027 76.1388 280.009C76.7061 280.992 77.9625 281.328 78.9451 280.761Z" fill="url(#paint15_linear)"/>
<path d="M51.5516 274.438C52.5342 273.871 52.8708 272.615 52.3035 271.632C51.7362 270.649 50.4798 270.313 49.4972 270.88C48.5146 271.447 48.1779 272.704 48.7452 273.686C49.3125 274.669 50.569 275.006 51.5516 274.438Z" fill="url(#paint16_linear)"/>
<path d="M77.9713 166.71C78.8449 166.71 79.553 166.002 79.553 165.128C79.553 164.255 78.8449 163.547 77.9713 163.547C77.0978 163.547 76.3896 164.255 76.3896 165.128C76.3896 166.002 77.0978 166.71 77.9713 166.71Z" fill="#69F0AE"/>
<path d="M107.791 173.541C108.228 172.784 107.969 171.817 107.212 171.38C106.456 170.943 105.488 171.203 105.052 171.959C104.615 172.716 104.874 173.683 105.631 174.12C106.387 174.557 107.354 174.297 107.791 173.541Z" fill="#69F0AE"/>
<path d="M128.037 194.949C128.793 194.512 129.052 193.545 128.616 192.788C128.179 192.032 127.212 191.772 126.455 192.209C125.698 192.646 125.439 193.613 125.876 194.37C126.313 195.126 127.28 195.385 128.037 194.949Z" fill="#69F0AE"/>
<path d="M128.286 252.899C128.723 252.142 128.464 251.175 127.707 250.738C126.951 250.302 125.983 250.561 125.547 251.317C125.11 252.074 125.369 253.041 126.126 253.478C126.882 253.915 127.85 253.655 128.286 252.899Z" fill="#69F0AE"/>
<path d="M106.106 273.919C106.863 273.482 107.122 272.515 106.685 271.758C106.248 271.002 105.281 270.742 104.525 271.179C103.768 271.616 103.509 272.583 103.946 273.34C104.382 274.096 105.35 274.355 106.106 273.919Z" fill="#69F0AE"/>
<path d="M50.3114 174.125C51.0679 173.688 51.3271 172.721 50.8903 171.964C50.4535 171.208 49.4862 170.948 48.7296 171.385C47.9731 171.822 47.7139 172.789 48.1507 173.546C48.5875 174.302 49.5548 174.562 50.3114 174.125Z" fill="#69F0AE"/>
<path d="M30.068 194.371C30.5048 193.614 30.2456 192.647 29.4891 192.21C28.7326 191.773 27.7652 192.033 27.3284 192.789C26.8917 193.546 27.1509 194.513 27.9074 194.95C28.6639 195.387 29.6312 195.127 30.068 194.371Z" fill="#69F0AE"/>
<path d="M136.376 225.443C137.359 224.876 137.695 223.619 137.128 222.637C136.561 221.654 135.304 221.318 134.322 221.885C133.339 222.452 133.002 223.709 133.57 224.691C134.137 225.674 135.393 226.011 136.376 225.443Z" fill="#69F0AE"/>
<path d="M29.8219 253.477C30.5784 253.04 30.8376 252.073 30.4008 251.316C29.964 250.56 28.9967 250.301 28.2402 250.737C27.4836 251.174 27.2244 252.142 27.6612 252.898C28.098 253.655 29.0653 253.914 29.8219 253.477Z" fill="#69F0AE"/>
<path d="M51.9967 273.342C52.4335 272.585 52.1743 271.618 51.4178 271.181C50.6613 270.744 49.6939 271.003 49.2572 271.76C48.8204 272.516 49.0796 273.484 49.8361 273.92C50.5926 274.357 51.5599 274.098 51.9967 273.342Z" fill="#69F0AE"/>
<path d="M20.5485 225.192C21.422 225.192 22.1302 224.484 22.1302 223.611C22.1302 222.737 21.422 222.029 20.5485 222.029C19.6749 222.029 18.9668 222.737 18.9668 223.611C18.9668 224.484 19.6749 225.192 20.5485 225.192Z" fill="#69F0AE"/>
<path d="M77.9713 280.506C78.8449 280.506 79.553 279.798 79.553 278.924C79.553 278.051 78.8449 277.343 77.9713 277.343C77.0978 277.343 76.3896 278.051 76.3896 278.924C76.3896 279.798 77.0978 280.506 77.9713 280.506Z" fill="#69F0AE"/>
<path opacity="0.2" d="M19.4938 227.824C19.4979 214.241 23.9878 201.039 32.2659 190.27C40.5441 179.501 52.1471 171.767 65.2723 168.27C78.3976 164.773 92.3103 165.709 104.849 170.932C117.388 176.155 127.851 185.373 134.612 197.153C131.294 189.446 126.438 182.497 120.341 176.733C114.243 170.968 107.033 166.509 99.1523 163.628C91.2713 160.747 82.8851 159.505 74.5074 159.979C66.1297 160.452 57.9369 162.631 50.4307 166.382C42.9245 170.132 36.263 175.376 30.8541 181.791C25.4453 188.206 21.4029 195.658 18.9747 203.69C16.5465 211.722 15.7835 220.165 16.7324 228.503C17.6814 236.84 20.3223 244.895 24.4935 252.176C21.1846 244.484 19.4833 236.197 19.4938 227.824V227.824Z" fill="#235952"/>
<path d="M77.9714 224.665C79.4273 224.665 80.6075 223.485 80.6075 222.029C80.6075 220.573 79.4273 219.393 77.9714 219.393C76.5155 219.393 75.3352 220.573 75.3352 222.029C75.3352 223.485 76.5155 224.665 77.9714 224.665Z" fill="#69F0AE"/>
</g>
<defs>
<linearGradient id="paint0_linear" x1="197.989" y1="240.436" x2="197.989" y2="0" gradientUnits="userSpaceOnUse">
<stop stop-color="#808080" stop-opacity="0.25"/>
<stop offset="0.54" stop-color="#808080" stop-opacity="0.12"/>
<stop offset="1" stop-color="#808080" stop-opacity="0.1"/>
</linearGradient>
<linearGradient id="paint1_linear" x1="151288" y1="87211.1" x2="151288" y2="17012.3" gradientUnits="userSpaceOnUse">
<stop stop-color="#808080" stop-opacity="0.25"/>
<stop offset="0.54" stop-color="#808080" stop-opacity="0.12"/>
<stop offset="1" stop-color="#808080" stop-opacity="0.1"/>
</linearGradient>
<linearGradient id="paint2_linear" x1="26752" y1="103074" x2="26752" y2="49570.1" gradientUnits="userSpaceOnUse">
<stop stop-color="#808080" stop-opacity="0.25"/>
<stop offset="0.54" stop-color="#808080" stop-opacity="0.12"/>
<stop offset="1" stop-color="#808080" stop-opacity="0.1"/>
</linearGradient>
<linearGradient id="paint3_linear" x1="1338.98" y1="3879.43" x2="1338.98" y2="3759.78" gradientUnits="userSpaceOnUse">
<stop stop-color="#808080" stop-opacity="0.25"/>
<stop offset="0.54" stop-color="#808080" stop-opacity="0.12"/>
<stop offset="1" stop-color="#808080" stop-opacity="0.1"/>
</linearGradient>
<linearGradient id="paint4_linear" x1="4499.71" y1="23979.6" x2="4499.71" y2="18775.9" gradientUnits="userSpaceOnUse">
<stop stop-color="#808080" stop-opacity="0.25"/>
<stop offset="0.54" stop-color="#808080" stop-opacity="0.12"/>
<stop offset="1" stop-color="#808080" stop-opacity="0.1"/>
</linearGradient>
<linearGradient id="paint5_linear" x1="2976.75" y1="14081" x2="2976.75" y2="12655.6" gradientUnits="userSpaceOnUse">
<stop stop-color="#808080" stop-opacity="0.25"/>
<stop offset="0.54" stop-color="#808080" stop-opacity="0.12"/>
<stop offset="1" stop-color="#808080" stop-opacity="0.1"/>
</linearGradient>
<linearGradient id="paint6_linear" x1="-1665.69" y1="3447.99" x2="-1633.55" y2="3429.44" gradientUnits="userSpaceOnUse">
<stop stop-color="#808080" stop-opacity="0.25"/>
<stop offset="0.54" stop-color="#808080" stop-opacity="0.12"/>
<stop offset="1" stop-color="#808080" stop-opacity="0.1"/>
</linearGradient>
<linearGradient id="paint7_linear" x1="1038.02" y1="3040.61" x2="1038.02" y2="3003.51" gradientUnits="userSpaceOnUse">
<stop stop-color="#808080" stop-opacity="0.25"/>
<stop offset="0.54" stop-color="#808080" stop-opacity="0.12"/>
<stop offset="1" stop-color="#808080" stop-opacity="0.1"/>
</linearGradient>
<linearGradient id="paint8_linear" x1="-321.546" y1="3516.65" x2="-302.974" y2="3484.48" gradientUnits="userSpaceOnUse">
<stop stop-color="#808080" stop-opacity="0.25"/>
<stop offset="0.54" stop-color="#808080" stop-opacity="0.12"/>
<stop offset="1" stop-color="#808080" stop-opacity="0.1"/>
</linearGradient>
<linearGradient id="paint9_linear" x1="-2806.79" y1="2654.78" x2="-2769.65" y2="2654.78" gradientUnits="userSpaceOnUse">
<stop stop-color="#808080" stop-opacity="0.25"/>
<stop offset="0.54" stop-color="#808080" stop-opacity="0.12"/>
<stop offset="1" stop-color="#808080" stop-opacity="0.1"/>
</linearGradient>
<linearGradient id="paint10_linear" x1="-2542.26" y1="2616.59" x2="-2505.11" y2="2616.59" gradientUnits="userSpaceOnUse">
<stop stop-color="#808080" stop-opacity="0.25"/>
<stop offset="0.54" stop-color="#808080" stop-opacity="0.12"/>
<stop offset="1" stop-color="#808080" stop-opacity="0.1"/>
</linearGradient>
<linearGradient id="paint11_linear" x1="-2292.41" y1="2711.68" x2="-2255.31" y2="2711.68" gradientUnits="userSpaceOnUse">
<stop stop-color="#808080" stop-opacity="0.25"/>
<stop offset="0.54" stop-color="#808080" stop-opacity="0.12"/>
<stop offset="1" stop-color="#808080" stop-opacity="0.1"/>
</linearGradient>
<linearGradient id="paint12_linear" x1="-2122.99" y1="2923.29" x2="-2085.85" y2="2923.29" gradientUnits="userSpaceOnUse">
<stop stop-color="#808080" stop-opacity="0.25"/>
<stop offset="0.54" stop-color="#808080" stop-opacity="0.12"/>
<stop offset="1" stop-color="#808080" stop-opacity="0.1"/>
</linearGradient>
<linearGradient id="paint13_linear" x1="-2186.25" y1="3451.37" x2="-2149.1" y2="3451.37" gradientUnits="userSpaceOnUse">
<stop stop-color="#808080" stop-opacity="0.25"/>
<stop offset="0.54" stop-color="#808080" stop-opacity="0.12"/>
<stop offset="1" stop-color="#808080" stop-opacity="0.1"/>
</linearGradient>
<linearGradient id="paint14_linear" x1="-2402.04" y1="3615.58" x2="-2364.93" y2="3615.58" gradientUnits="userSpaceOnUse">
<stop stop-color="#808080" stop-opacity="0.25"/>
<stop offset="0.54" stop-color="#808080" stop-opacity="0.12"/>
<stop offset="1" stop-color="#808080" stop-opacity="0.1"/>
</linearGradient>
<linearGradient id="paint15_linear" x1="-2656.05" y1="3645.28" x2="-2618.91" y2="3645.28" gradientUnits="userSpaceOnUse">
<stop stop-color="#808080" stop-opacity="0.25"/>
<stop offset="0.54" stop-color="#808080" stop-opacity="0.12"/>
<stop offset="1" stop-color="#808080" stop-opacity="0.1"/>
</linearGradient>
<linearGradient id="paint16_linear" x1="-2897.36" y1="3560.75" x2="-2860.26" y2="3560.75" gradientUnits="userSpaceOnUse">
<stop stop-color="#808080" stop-opacity="0.25"/>
<stop offset="0.54" stop-color="#808080" stop-opacity="0.12"/>
<stop offset="1" stop-color="#808080" stop-opacity="0.1"/>
</linearGradient>
<clipPath id="clip0">
<rect width="379.794" height="300" fill="white"/>
</clipPath>
</defs>
</svg>
