<svg width="451" height="300" viewBox="0 0 451 300" fill="none" xmlns="http://www.w3.org/2000/svg">
<g clip-path="url(#clip0)">
<path d="M260.993 52.6736C260.057 52.6423 259.103 52.6265 258.159 52.6265V51.6765C259.114 51.6765 260.078 51.6925 261.024 51.7241L260.993 52.6736Z" fill="#E6E6E6"/>
<path d="M258.158 220.774C256.881 220.774 255.594 220.745 254.331 220.689L254.373 219.74C256.265 219.824 258.201 219.845 260.103 219.802L260.125 220.752C259.472 220.767 258.816 220.774 258.158 220.774ZM265.91 220.424L265.824 219.477C267.722 219.305 269.634 219.065 271.508 218.764L271.658 219.702C269.763 220.006 267.829 220.249 265.91 220.424ZM248.555 220.235C246.64 220.018 244.712 219.733 242.824 219.387L242.995 218.453C244.862 218.795 246.768 219.077 248.662 219.291L248.555 220.235ZM277.344 218.588L277.129 217.662C278.982 217.232 280.844 216.732 282.662 216.176L282.94 217.084C281.101 217.647 279.218 218.153 277.344 218.588ZM237.164 218.147C235.301 217.671 233.43 217.123 231.603 216.519L231.9 215.617C233.708 216.214 235.557 216.756 237.399 217.226L237.164 218.147ZM288.419 215.197L288.078 214.311C289.854 213.63 291.627 212.879 293.348 212.079L293.748 212.941C292.007 213.749 290.214 214.509 288.419 215.197H288.419ZM226.159 214.509C224.374 213.778 222.594 212.977 220.869 212.127L221.288 211.275C222.994 212.115 224.754 212.907 226.519 213.629L226.159 214.509ZM298.911 210.322L298.453 209.49C300.118 208.572 301.773 207.585 303.37 206.556L303.884 207.354C302.269 208.395 300.596 209.393 298.911 210.322V210.322ZM215.756 209.388C214.09 208.42 212.437 207.384 210.845 206.306L211.378 205.519C212.952 206.584 214.586 207.61 216.234 208.567L215.756 209.388ZM308.643 204.053L308.075 203.292C309.601 202.155 311.105 200.951 312.548 199.713L313.167 200.434C311.707 201.686 310.185 202.904 308.643 204.053H308.643ZM206.157 202.895C204.641 201.712 203.146 200.46 201.713 199.174L202.348 198.467C203.765 199.738 205.243 200.976 206.742 202.147L206.157 202.895ZM317.435 196.515L316.769 195.837C318.125 194.503 319.453 193.106 320.716 191.682L321.426 192.313C320.149 193.752 318.806 195.166 317.435 196.515V196.515ZM197.534 195.159C196.192 193.779 194.882 192.335 193.639 190.869L194.363 190.255C195.592 191.705 196.888 193.132 198.215 194.496L197.534 195.159ZM325.123 187.848L324.371 187.267C325.533 185.763 326.659 184.197 327.717 182.613L328.507 183.141C327.436 184.743 326.298 186.326 325.123 187.848H325.123ZM190.045 186.325C188.904 184.776 187.802 183.168 186.771 181.547L187.572 181.037C188.592 182.64 189.681 184.23 190.81 185.762L190.045 186.325ZM331.561 178.212L330.737 177.739C331.684 176.087 332.586 174.381 333.417 172.669L334.271 173.084C333.431 174.816 332.519 176.541 331.561 178.212H331.561ZM183.832 176.558C182.913 174.869 182.042 173.127 181.242 171.38L182.106 170.985C182.897 172.712 183.758 174.434 184.666 176.104L183.832 176.558ZM336.622 167.78L335.741 167.426C336.452 165.659 337.111 163.844 337.698 162.032L338.602 162.325C338.008 164.158 337.342 165.993 336.622 167.78V167.78ZM179.016 166.038C178.337 164.238 177.713 162.391 177.16 160.549L178.07 160.276C178.617 162.097 179.234 163.923 179.905 165.704L179.016 166.038ZM340.198 156.754L339.276 156.524C339.736 154.678 340.138 152.792 340.47 150.921L341.405 151.087C341.069 152.98 340.663 154.886 340.198 156.754V156.754ZM175.689 154.944C175.265 153.068 174.901 151.153 174.607 149.252L175.546 149.107C175.837 150.987 176.197 152.88 176.616 154.735L175.689 154.944ZM342.221 145.351L341.276 145.249C341.479 143.361 341.619 141.439 341.693 139.536L342.642 139.573C342.568 141.497 342.426 143.441 342.221 145.351ZM173.918 143.499C173.755 141.586 173.656 139.639 173.623 137.713L174.573 137.697C174.605 139.601 174.704 141.526 174.865 143.419L173.918 143.499ZM341.722 133.806C341.668 131.902 341.548 129.978 341.366 128.088L342.311 127.996C342.496 129.908 342.617 131.854 342.672 133.779L341.722 133.806ZM340.621 122.407C340.308 120.528 339.927 118.639 339.487 116.791L340.411 116.572C340.856 118.44 341.242 120.351 341.558 122.251L340.621 122.407ZM337.968 111.268C337.402 109.454 336.765 107.637 336.075 105.867L336.96 105.522C337.658 107.312 338.302 109.15 338.875 110.984L337.968 111.268ZM333.813 100.609C333.001 98.8885 332.12 97.1754 331.194 95.5178L332.023 95.0544C332.96 96.7311 333.851 98.4636 334.672 100.204L333.813 100.609ZM328.231 90.6165C327.191 89.0215 326.083 87.4441 324.94 85.9285L325.698 85.3565C326.854 86.8891 327.975 88.4843 329.027 90.0974L328.231 90.6165ZM321.335 81.4752C320.089 80.0384 318.778 78.6259 317.436 77.2768L318.11 76.607C319.466 77.9714 320.793 79.3999 322.053 80.8527L321.335 81.4752ZM313.259 73.3537C311.827 72.0978 310.334 70.8762 308.824 69.7233L309.4 68.9681C310.928 70.134 312.437 71.3693 313.885 72.6393L313.259 73.3537ZM304.151 66.4034C302.56 65.354 300.915 64.3471 299.261 63.4113L299.728 62.5842C301.401 63.531 303.065 64.5489 304.674 65.6107L304.151 66.4034ZM294.175 60.7615C292.457 59.9395 290.688 59.1679 288.919 58.4675L289.269 57.5843C291.058 58.2926 292.847 59.0733 294.585 59.9043L294.175 60.7615ZM283.517 56.5415C281.704 55.9652 279.848 55.445 278 54.995L278.225 54.0719C280.094 54.527 281.971 55.0532 283.804 55.6361L283.517 56.5415ZM272.39 53.8328C270.517 53.5118 268.607 53.2514 266.713 53.0589L266.809 52.1135C268.725 52.3083 270.656 52.5718 272.55 52.8963L272.39 53.8328Z" fill="#E6E6E6"/>
<path d="M174.673 131.828L173.725 131.778C173.774 130.821 173.84 129.859 173.921 128.919L174.867 129.001C174.788 129.929 174.722 130.88 174.673 131.828Z" fill="#E6E6E6"/>
<path d="M330.595 299.05H90.7236V192.177L210.659 246.089L330.595 192.177V299.05Z" fill="#3F3D56"/>
<path d="M90.7236 192.177H330.595L210.897 253.926L90.7236 192.177Z" fill="#235952"/>
<path d="M210.897 263.901C216.406 263.901 220.872 259.435 220.872 253.926C220.872 248.417 216.406 243.951 210.897 243.951C205.388 243.951 200.922 248.417 200.922 253.926C200.922 259.435 205.388 263.901 210.897 263.901Z" fill="#E6E6E6"/>
<path d="M31.4189 298.823C31.3099 298.645 28.7396 294.353 27.8486 285.441C27.0312 277.265 27.5568 263.484 34.7039 244.26C48.244 207.842 31.5835 178.458 31.4133 178.165L32.2353 177.688C32.2784 177.763 36.5775 185.254 39.1171 197.184C42.4728 213 41.2508 229.445 35.5946 244.591C22.0777 280.947 32.1267 298.158 32.2297 298.328L31.4189 298.823Z" fill="#3F3D56"/>
<path d="M26.1246 176.027C29.5349 176.027 32.2995 173.262 32.2995 169.852C32.2995 166.442 29.5349 163.677 26.1246 163.677C22.7143 163.677 19.9497 166.442 19.9497 169.852C19.9497 173.262 22.7143 176.027 26.1246 176.027Z" fill="#235952"/>
<path d="M45.5992 198.827C49.0095 198.827 51.7741 196.062 51.7741 192.652C51.7741 189.241 49.0095 186.477 45.5992 186.477C42.1889 186.477 39.4243 189.241 39.4243 192.652C39.4243 196.062 42.1889 198.827 45.5992 198.827Z" fill="#235952"/>
<path d="M32.2994 214.026C35.7097 214.026 38.4743 211.262 38.4743 207.851C38.4743 204.441 35.7097 201.677 32.2994 201.677C28.8891 201.677 26.1245 204.441 26.1245 207.851C26.1245 211.262 28.8891 214.026 32.2994 214.026Z" fill="#235952"/>
<path d="M48.4493 226.851C51.8596 226.851 54.6242 224.086 54.6242 220.676C54.6242 217.266 51.8596 214.501 48.4493 214.501C45.039 214.501 42.2744 217.266 42.2744 220.676C42.2744 224.086 45.039 226.851 48.4493 226.851Z" fill="#235952"/>
<path d="M27.5494 246.801C30.9597 246.801 33.7243 244.036 33.7243 240.626C33.7243 237.216 30.9597 234.451 27.5494 234.451C24.1391 234.451 21.3745 237.216 21.3745 240.626C21.3745 244.036 24.1391 246.801 27.5494 246.801Z" fill="#235952"/>
<path d="M35.1496 299.05C35.1496 299.05 28.9747 283.85 47.4994 272.45L35.1496 299.05Z" fill="#3F3D56"/>
<path d="M27.5553 298.774C27.5553 298.774 24.745 282.611 2.99414 282.749L27.5553 298.774Z" fill="#3F3D56"/>
<path d="M132.286 65.5912C132.266 52.5618 136.621 39.903 144.653 29.6437C136.027 28.3726 127.227 29.048 118.896 31.6205C110.566 34.1931 102.917 38.5974 96.5101 44.5107C90.1034 50.424 85.1013 57.6962 81.8707 65.7941C78.6401 73.892 77.2629 82.6103 77.8401 91.3097C78.4172 100.009 80.9341 108.469 85.2062 116.069C89.4783 123.669 95.3972 130.217 102.529 135.232C109.661 140.247 117.825 143.602 126.422 145.052C135.019 146.501 143.832 146.008 152.213 143.609C163.276 148.415 175.378 150.335 187.385 149.19L168.719 135.908C173.82 132.463 178.348 128.238 182.137 123.387C168.279 121.329 155.622 114.361 146.472 103.753C137.321 93.1439 132.287 79.6009 132.286 65.5912V65.5912Z" fill="#3F3D56"/>
<path d="M264.808 59.4162C264.808 47.2499 261.01 35.3872 253.944 25.4834C246.878 15.5795 236.896 8.12869 225.391 4.17053C213.887 0.212374 201.434 -0.0556195 189.77 3.40394C178.106 6.8635 167.813 13.878 160.327 23.4687C170.433 24.9665 179.97 29.0882 187.985 35.4226C196.001 41.757 202.215 50.0826 206.008 59.5687C209.801 69.0549 211.041 79.3699 209.602 89.4845C208.164 99.5991 204.099 109.16 197.811 117.212C206.067 118.429 214.487 117.874 222.512 115.584C233.575 120.39 245.676 122.31 257.684 121.165L239.017 107.884C246.962 102.54 253.47 95.324 257.968 86.8718C262.465 78.4195 264.815 68.9906 264.808 59.4162Z" fill="#235952"/>
<path d="M152.252 26.3187C145.967 34.3721 141.904 43.9325 140.466 54.0465C139.029 64.1605 140.269 74.4745 144.062 83.9599C147.854 93.4452 154.068 101.77 162.082 108.105C170.096 114.44 179.632 118.563 189.736 120.063C196.024 112.01 200.089 102.449 201.527 92.3345C202.966 82.2199 201.727 71.9049 197.933 62.4188C194.14 52.9327 187.926 44.607 179.91 38.2726C171.895 31.9382 162.358 27.8165 152.252 26.3187V26.3187Z" fill="#E6E6E6"/>
<path d="M389 300L0 299.05V300H389Z" fill="#3F3D56"/>
</g>
<defs>
<clipPath id="clip0">
<rect width="450.768" height="300" fill="white"/>
</clipPath>
</defs>
</svg>
