<?xml version="1.0" encoding="utf-8"?>
<!-- Generator: Adobe Illustrator 16.0.0, SVG Export Plug-In . SVG Version: 6.00 Build 0)  -->
<!DOCTYPE svg PUBLIC "-//W3C//DTD SVG 1.1//EN" "http://www.w3.org/Graphics/SVG/1.1/DTD/svg11.dtd">
<svg version="1.1" id="Layer_1" xmlns="http://www.w3.org/2000/svg" xmlns:xlink="http://www.w3.org/1999/xlink" x="0px" y="0px"
	 width="150px" height="221.085px" viewBox="0 0 150 221.085" enable-background="new 0 0 150 221.085" xml:space="preserve">
<g>
	<g>
		<path fill="#245952" d="M130.412,151.845c-0.644,0.179-2.383,0.456-4.771,0.734c-3.765,0.425-9.188,0.855-14.981,1.151
			c-5.558,0.289-11.424,0.444-16.472,0.331c-0.442-0.002-0.88-0.008-1.319-0.014c-4.689-0.134-8.289-0.306-11.043-0.477
			c-1.043-0.113-1.985-0.161-2.79-0.268c-3.093-0.298-4.326-0.574-4.326-0.574c-0.72-3.199,5.719-42.372,7.76-49.368
			c2.038-6.965,9.371-17.008,9.371-17.008c0.068-1.058,0.159-2.253,0.294-3.516c0.306-3.107,0.798-6.724,1.253-10.037
			c0.802-5.623,1.6-10.394,1.6-10.394c13.32,0.378,19.333-1.235,19.341-1.239c0,0,0.613,1.312,1.339,2.998c0,0,0,0,0.004,0.002
			c1.082,2.555,2.401,5.944,2.148,7.024c-0.328,1.257-1.969,3.221-2.89,4.192c-0.372,0.419-0.602,0.648-0.602,0.648
			c0.22,2.921,3.841,27.767,6.665,37.451C123.804,123.166,130.412,151.845,130.412,151.845z"/>
		<path fill="#152A17" d="M117.82,71.192c-0.328,1.257-1.969,3.221-2.89,4.192c-3.81,1.228-4.345,0.122-4.345,0.122
			c5.3-1.518,5.188-9.576,5.086-11.338C116.754,66.723,118.073,70.112,117.82,71.192z"/>
		<path fill="#0A351C" d="M100.853,75.506c0,0-2.987,3.616-6.666,1.993c0,0-0.31,9.614-1.035,11.434
			c-0.722,1.823-6.723,13.341-10.083,32.605c-2.438,14.188-3.596,26.338-4.034,31.766c-3.093-0.298-4.326-0.574-4.326-0.574
			c-0.72-3.199,5.719-42.372,7.76-49.368c2.038-6.965,9.371-17.008,9.371-17.008c0.068-1.058,0.159-2.253,0.294-3.516
			c0.306-3.107,0.798-6.724,1.253-10.037C94.633,74.067,97.107,75.892,100.853,75.506z"/>
		<path fill="#F0B5AB" d="M84.59,99.121c0,0-0.64,2.481-1.521,2.757c-0.879,0.25-5.521-4.439-11.364-10.323
			c-5.799-5.918-11.199-13.762-11.199-13.762c1.318-4.677,12.959-18.6,12.959-18.6s2.788,1.458,5.204,4.399
			c0.523,0.658,1.003,1.267,1.369,1.833c1.538,2.332,1.828,3.81,1.828,3.81c-2.838,3.8-8.626,7.681-8.626,7.681
			s4.096,7.172,6.38,11.409c0.004,0.004,0.004,0.008,0.004,0.008c0.123,0.157,0.205,0.312,0.285,0.471
			C82.312,93.235,84.59,99.121,84.59,99.121z"/>
		<path fill="#F58A7C" d="M114.329,61.168c0,0-1.137,0.301-3.506,0.606c-0.22,0.048-0.443,0.062-0.676,0.116
			c-2.716,0.31-6.812,0.607-12.387,0.583c-0.261,0-0.49-0.026-0.719-0.026c-0.662-0.023-1.371-0.029-2.053-0.041
			c0,0-0.801,4.826-1.606,10.466c-0.427,2.939-0.819,6.101-1.157,8.942c-0.018,0.356-0.073,0.674-0.089,1.022
			c-0.062-0.22-0.125-0.445-0.155-0.713c-1.584-6.61-4.523-19.052-4.523-19.052c-1.4,1.989-5.591,6.162-5.591,6.162
			s-0.65-1.484-1.595-3.166c-0.494-0.853-1.021-1.723-1.603-2.477c-1.709-2.266-5.429-4.11-5.429-4.11
			c0.603-0.742,8.788-11.758,12.732-14.13c1.762-1.078,3.902-2.136,5.964-3.072c0.219-0.09,0.439-0.189,0.658-0.292
			c2.326-0.996,4.455-1.76,5.768-2.041c0,0,3.589,0.285,5.349,0.643c0.579,0.125,1.241,0.284,1.911,0.519
			c0.278,0.088,0.537,0.208,0.799,0.326c1.165,0.504,2.271,1.29,2.99,2.522c1.261,2.207,2.194,2.551,2.302,5.641
			C111.849,52.685,114.321,61.158,114.329,61.168z"/>
		<g>
			<path fill="#90D7E9" d="M97.76,62.474c-0.038,0.151-0.128,0.294-0.279,0.313c-0.015,0.004-0.064,0.004-0.078,0.004
				c-0.151,0-0.298-0.088-0.354-0.239l-0.009-0.104L91.937,42.28c0.219-0.09,0.439-0.189,0.658-0.292l5.128,20.365
				C97.76,62.406,97.76,62.421,97.76,62.474z"/>
		</g>
		<path fill="#F0B5AB" d="M115.714,33.793c-2.399,2.476-7.09,3.198-11.186,1.965c-0.374-0.108-0.748-0.229-1.114-0.379
			c-0.208-0.087-0.378-0.182-0.583-0.27c-2.946-1.34-5.146-3.951-6.295-5.502c-0.53-0.748-0.865-1.263-0.865-1.263
			c-0.822-0.031-1.541-0.344-2.079-0.827c-2.34-2.018-2.398-7.145-0.558-8.009c2.315-1.043,2.637,1.765,2.637,1.765
			s0.997-4.38,3.058-7.065c0.165-0.254,0.37-0.481,0.583-0.694c1.958-2.004,4.993-4.807,6.212-5.883c0,0,0,0,0.003,0
			c0.301-0.293,0.468-0.451,0.468-0.451c6.8,1.481,9.187,0.522,9.187,0.522s0.09,0.252,0.236,0.677
			c0.06,0.204,0.148,0.436,0.228,0.718c0.834,2.483,2.573,7.691,3.496,10.769C120.378,24.028,118.446,30.987,115.714,33.793z"/>
		<path fill="#F58A7C" d="M92.508,176.613c-0.438,11.119,0,43.538,0,43.538s-0.75,0-1.39,0h-0.729
			c-0.24-0.012-11.081-36.055-11.521-44.699c-0.442-8.638,4.76-15.283,4.76-15.283l-1.801-6.597c0.86,0.031,1.761,0.06,2.778,0.165
			c2.274,0.137,5.03,0.27,8.265,0.312c0.438,0.006,0.877,0.012,1.319,0.014C93.886,157.12,92.878,167.34,92.508,176.613z"/>
		<path fill="#F58A7C" d="M139.712,217.777l-2.472,0.552l-0.12,0.01c0,0-8.804-14.763-13.752-21.802
			c-4.922-7.042-9.855-15.845-10.659-22.404c-0.798-6.484,1.152-15.244,1.152-15.244l-3.202-5.157
			c1.464-0.114,2.892-0.151,4.313-0.269c4.114-0.28,7.841-0.585,10.668-0.883c0.485,3.236,2.242,14.755,3.829,24.194
			C131.288,188.014,139.712,217.777,139.712,217.777z"/>
		<path fill="#F0B5AB" d="M91.751,99.48c-0.643,0.358-3.281-1.604-5.242-0.963c0,0,3.521,1.841,3.082,2.918
			c-0.366,0.881-3.371-0.44-4.127-0.869c0.599,0.513,2.345,2.781,1.928,3.332c-0.442,0.622-3.244-2.014-3.244-2.014
			s1.16,2.354,0.442,3.075c-0.72,0.719-1.521-3.081-1.521-3.081s0.799-1.809,1.521-2.757c1.017-1.339,2.277-3.603,3.797-3.003
			C89.871,96.757,92.361,99.121,91.751,99.48z"/>
		<path fill="#F0B5AB" d="M132.384,77.875c-0.423,3.88-1.914,5.627-4.169,6.056c-1.055,0.174-2.252,0.088-3.6-0.217
			c-4.157-0.999-5.728-6.438-7.142-11.642c-1.412-5.202-4.842-16.157-5.478-20.197c-0.604-4.045-0.36-6.526-0.36-6.526
			s-0.959-0.078-1.642-0.721c-0.072-0.036-0.126-0.094-0.131-0.163c-0.021-0.352,0.723-0.73,1.38-1.018
			c-1.028,0.364-2.613,0.809-2.93,0.402c-0.515-0.607,2.359-2.957,2.518-3.085c-0.167,0.063-3.526,1.499-3.958,1.064
			c-0.388-0.425,3-2.555,3.422-2.807c-0.437,0.18-4.254,1.791-4.673,1.129c-0.43-0.72,3.792-3.29,5.132-3.802
			c1.374-0.509,2.563,0.803,2.563,0.803s1.957-0.36,1.863,1.149c0,0,1.761,0.891,1.411,2.898c-0.356,2.03-1.317,4.15-1.317,4.15
			c0.157,0.27,7.825,12.246,11.103,16.922C129.637,66.952,132.996,72.152,132.384,77.875z"/>
		<path fill="#D24D27" d="M137.118,218.336l0.996,2.748H150C150,221.084,144.114,214.86,137.118,218.336z"/>
		<path fill="#F0B5AB" d="M104.528,35.758l-0.145,2.126l-0.312,4.985c-1.959,0.979-5.645-1.48-5.645-2.361
			c0-0.42-0.414-2.694-0.809-5.052c-0.511-2.853-1.083-5.85-1.083-5.85c1.149,1.551,3.349,4.162,6.295,5.502
			C103.397,35.382,103.941,35.6,104.528,35.758z"/>
		<g>
			<path fill="#721914" d="M120.276,5.227c0,0.055,0,0.1-0.004,0.139c-0.108,1.745-2.505,2.853-4.854,3.015
				c-0.146-0.425-0.236-0.677-0.236-0.677s-2.387,0.959-9.187-0.522c0,0-4.204,3.789-6.683,6.333
				c-1.446,1.47-2.413,3.833-2.996,5.552c-0.431,1.291-0.646,2.207-0.646,2.207s-0.297-2.441-2.199-1.92
				c-0.144,0.04-0.25,0.086-0.438,0.156c-0.909,0.434-1.35,1.964-1.271,3.642c0.068,1.26,0.445,2.641,1.171,3.657
				c0.172,0.248,0.392,0.5,0.658,0.71c-0.284,0.5-0.579,1.199-0.88,2.089c-1.682,4.82,3.521,8.863,6.241,11.422
				c2.066,1.949,4.109,6.605,2.794,10.12c0,0.008,0,0.008,0,0.008c-0.384,1.09-1.112,2.094-2.275,2.835
				c-4.842,3.163-9.441,1.159-9.441,1.159c2.759-2.12,1-6.882-2.882-9.086c-3.878-2.216-5.641-3.888-5.719-9.813
				c-0.118-5.948,6.959-10.745,6.959-10.745l1.904-3.672c0.004-0.026,0.008-0.061,0.015-0.072c0.007-0.032,0.015-0.064,0.058-0.076
				l0.909-1.821c-0.462-2.275-1.682-8.025,0.479-12.686c2.13-4.676,8.361-7.843,16.64-7.062
				C116.686,0.906,120.276,3.214,120.276,5.227z"/>
			<path fill="#993322" d="M96.316,19.066c-0.431,1.291-0.646,2.207-0.646,2.207s-0.322-2.808-2.637-1.765
				c-1.633,0.778-1.774,4.972-0.1,7.299c-1.76-1.047-3.733-2.77-2.641-4.972c0.004-0.026,0.008-0.061,0.015-0.072
				c0.007-0.032,0.015-0.064,0.058-0.076C92.06,18.486,95.438,18.829,96.316,19.066z"/>
		</g>
		<g>
			<path fill="#90D7E9" d="M110.823,61.758c0,0.004,0.004,0.01,0,0.017c0.05,0.199-0.078,0.353-0.248,0.41
				c-0.044,0.004-0.057,0.004-0.067,0.004c-0.191,0-0.339-0.129-0.356-0.284l-0.004-0.014l-4.525-20.781
				c0.278,0.088,0.537,0.208,0.799,0.326L110.823,61.758z"/>
		</g>
		<path fill="#F6958E" d="M73.24,76.916c0,0,4.096,7.172,6.38,11.409c-3.657-5.106-8.354-10.25-8.354-10.25
			c2.491-1.847,7.022-9.523,8.771-12.65c1.538,2.332,1.828,3.81,1.828,3.81C79.028,73.035,73.24,76.916,73.24,76.916z"/>
		<path fill="#F6958E" d="M91.751,99.48c-0.643,0.358-3.281-1.604-5.242-0.963c0,0,3.521,1.841,3.082,2.918
			c-0.366,0.881-3.371-0.44-4.127-0.869c0.599,0.513,2.345,2.781,1.928,3.332c-0.442,0.622-3.244-2.014-3.244-2.014
			s1.16,2.354,0.442,3.075c-0.72,0.719-1.521-3.081-1.521-3.081s0.799-1.809,1.521-2.757c1.017-1.339,2.277-3.603,3.797-3.003
			C89.871,96.757,92.361,99.121,91.751,99.48z"/>
		<path fill="#F6958E" d="M128.215,83.931c-1.055,0.174-2.252,0.088-3.6-0.217c-4.157-0.999-5.728-6.438-7.142-11.642
			c-1.412-5.202-4.842-16.157-5.478-20.197c-0.604-4.045-0.36-6.526-0.36-6.526s-0.959-0.078-1.642-0.721
			c-0.072-0.036-0.126-0.094-0.131-0.163c0.594,0.155,2.431,0.513,3.84-0.856c0,0-0.994,4.17,0,9.29
			c0.997,5.12,4.518,12.909,8.22,18.729C124.465,75.54,126.896,80.584,128.215,83.931z"/>
		<path fill="#F6958E" d="M104.528,35.758l-0.145,2.126c-3.009-0.014-5.353-1.331-6.765-2.428c-0.511-2.853-1.083-5.85-1.083-5.85
			c1.149,1.551,3.349,4.162,6.295,5.502C103.397,35.382,103.941,35.6,104.528,35.758z"/>
		<path fill="#F6958E" d="M103.414,35.379c-0.208-0.087-0.378-0.182-0.583-0.27c-2.946-1.34-5.146-3.951-6.295-5.502
			c-0.53-0.748-0.865-1.263-0.865-1.263c-0.822-0.031-1.541-0.344-2.079-0.827c-2.34-2.018-2.398-7.145-0.558-8.009
			c2.315-1.043,2.637,1.765,2.637,1.765s0.997-4.38,3.058-7.065c-1.397,3.509-1.688,7.076-0.658,12.313
			C98.79,30.059,101.353,33.268,103.414,35.379z"/>
		<path fill="#F6958E" d="M115.646,9.099c-3.092,0.257-7.748-0.521-10.119-1.467c0.301-0.293,0.468-0.451,0.468-0.451
			c6.8,1.481,9.187,0.522,9.187,0.522s0.09,0.252,0.236,0.677C115.478,8.584,115.566,8.816,115.646,9.099z"/>
		<g>
			<path fill="#993322" d="M68.919,79.108c-0.161,0-0.348-0.141-0.357-0.317c-0.011-0.196,0.134-0.391,0.303-0.401
				c2.339-0.227,5.094-2.412,5.107-2.424c0.149-0.132,0.37-0.086,0.504,0.063c0.097,0.149,0.085,0.37-0.063,0.505
				c-0.132,0.084-2.922,2.299-5.476,2.573C68.931,79.106,68.925,79.108,68.919,79.108z"/>
		</g>
		<g>
			<path fill="#993322" d="M109.868,26.1c-0.167,0-0.373-0.002-0.584-0.006c-0.085-0.002-0.161-0.079-0.159-0.168
				c0.002-0.115,0.082-0.189,0.165-0.188c2.528,0.106,3.5-0.422,3.789-0.61c-0.767-1.459-2.423-7.021-2.416-7.319
				c0.002-0.1,0.083-0.177,0.166-0.167c0.121,0.006,0.193,0.084,0.193,0.168c0.028,0.421,1.695,6.022,2.424,7.257
				c0.029,0.069,0.023,0.147-0.013,0.213C113.388,25.302,112.658,26.1,109.868,26.1z"/>
		</g>
		<path fill="#721914" d="M98.952,16.417c0.813-0.951,2.938-3.879,7.176-2.517c0,0-0.366,0.545-3.583,1.295
			C99.326,15.971,98.952,16.417,98.952,16.417z"/>
		<path fill="#721914" d="M110.74,14.37c0,0,1.817-1.404,4.101-1.029c2.29,0.373,2.484,1.627,2.484,1.627
			S115.373,14.508,110.74,14.37z"/>
		<path fill="#FFFFFF" d="M102.539,28.149c0.38,0.066,2.333,1.449,6.152,1.458c3.816,0.012,5.877-0.97,5.877-0.97
			s-1.784,4.173-6.015,4.469C104.358,33.401,102.539,28.149,102.539,28.149z"/>
		<g>
			<path fill="#993322" d="M94.484,26.1c-0.004,0-0.006,0-0.01,0c-0.123-0.007-0.192-0.088-0.151-0.177
				c0.225-1.963-1.312-4.672-1.318-4.702c-0.061-0.094-0.046-0.189,0.069-0.25c0.078-0.041,0.168-0.011,0.229,0.069
				c0.07,0.129,1.61,2.847,1.341,4.908C94.641,26.036,94.564,26.1,94.484,26.1z"/>
		</g>
		<g>
			<path fill="#993322" d="M93.822,24.6c-0.346,0-0.714-0.09-0.823-0.423c-0.279-0.643,0.608-1.447,0.695-1.529
				c0.075-0.07,0.201-0.065,0.271,0.009c0.069,0.076,0.065,0.202-0.008,0.266c-0.215,0.168-0.793,0.767-0.648,1.112
				c0.139,0.304,0.804,0.214,1.026,0.145c0.083-0.029,0.206,0.015,0.217,0.119c0.014,0.098-0.013,0.184-0.133,0.216
				C94.408,24.527,94.124,24.6,93.822,24.6z"/>
		</g>
		<path fill="#1E1725" d="M104.238,18.624c0,1.004-0.323,1.807-0.762,1.807c-0.437,0-0.797-0.802-0.797-1.807
			c0-0.983,0.36-1.787,0.797-1.787C103.915,16.836,104.238,17.641,104.238,18.624z"/>
		<path fill="#1E1725" d="M114.329,18.267c0,1.195-0.359,2.163-0.796,2.163s-0.791-0.968-0.791-2.163c0-1.183,0.354-2.14,0.791-2.14
			S114.329,17.084,114.329,18.267z"/>
		<path fill="#7D463F" d="M93.382,72.874c-0.427,2.939-0.819,6.101-1.157,8.942l-0.244,0.31c-1.584-6.61-4.523-19.052-4.523-19.052
			c-1.4,1.989-5.591,6.162-5.591,6.162s-0.65-1.484-1.595-3.166c2.26-1.823,7.268-6.212,8.116-9.729
			C88.388,56.34,88.763,67.527,93.382,72.874z"/>
		<path fill="#661715" d="M98.952,41.029c2.066,1.949,4.109,6.605,2.794,10.12c-0.1-2.656-0.977-7.129-5.21-9.16
			c-6.226-2.945-8.935-12.094-5.506-17.578c0.24-0.422,0.51-0.832,0.733-1.26c0.068,1.26,0.445,2.641,1.171,3.657
			c0.172,0.248,0.392,0.5,0.658,0.71c-0.284,0.5-0.579,1.199-0.88,2.089C91.029,34.427,96.232,38.47,98.952,41.029z"/>
		<path fill="#661715" d="M120.272,5.366c-0.108,1.745-2.505,2.853-4.854,3.015c-0.146-0.425-0.236-0.677-0.236-0.677
			s-2.387,0.959-9.187-0.522c0,0-4.204,3.789-6.683,6.333c-1.446,1.47-2.413,3.833-2.996,5.552
			c-0.431,1.291-0.646,2.207-0.646,2.207s-0.297-2.441-2.199-1.92c1.586-3.877,2.753-7.608,5.999-10.197
			C104.076,5.505,110.798,2.309,120.272,5.366z"/>
		<path fill="#F58A7C" d="M125.188,192.522c4.896,9.673,9.615,20.685,12.052,25.807l-0.12,0.01c0,0-8.804-14.763-13.752-21.802
			c-4.922-7.042-9.855-15.845-10.659-22.404c-0.798-6.484,1.152-15.244,1.152-15.244l-3.202-5.157
			c1.464-0.114,2.892-0.151,4.313-0.269l1.264,5.705C114.284,166.21,118.516,179.418,125.188,192.522z"/>
		<path fill="#7B1917" d="M138.83,219.15c-0.078-0.029-0.096-0.05-0.118-0.075C138.747,219.104,138.83,219.15,138.83,219.15z"/>
		<path fill="#F58A7C" d="M91.118,220.151h-0.729c-0.24-0.012-11.081-36.055-11.521-44.699c-0.442-8.638,4.76-15.283,4.76-15.283
			l-1.801-6.597c0.86,0.031,1.761,0.06,2.778,0.165c0.008,3.246-0.014,8.791-0.014,8.791s-3.28,4.08-1.521,18.324
			C84.655,193.454,89.886,215.252,91.118,220.151z"/>
		<path fill="#D24D27" d="M89.072,216.155c-0.816,2.622-1.241,4.664-1.241,4.664s4.761,0,7.078-0.44l-2.398-4.522L89.072,216.155z"
			/>
	</g>
	<g>
		<path fill="#EA6C25" d="M12.006,138.976L9.664,219.69c0,0-1.598-0.008-3.492-0.012c-2.52-0.01-5.644-0.012-6.127,0.012
			c-0.768,0.105,8.754-60.505,11.318-76.755C11.781,140.434,12.006,138.976,12.006,138.976z"/>
		<polygon fill="#EA6C25" points="39.273,219.69 28.134,219.69 26.073,215.015 26.483,206.75 36.179,206.75 		"/>
		<path opacity="0.4" fill="#855958" d="M11.362,142.935c0.419-2.501,0.644-3.959,0.644-3.959L9.664,219.69
			c0,0-1.598-0.008-3.492-0.012L11.362,142.935z"/>
		<polygon opacity="0.4" fill="#855958" points="32.352,219.69 28.134,219.69 26.073,215.015 26.483,206.75 30.689,206.75 		"/>
		<polygon fill="#F5A42A" points="61.214,219.535 43.944,219.535 43.944,206.75 26.483,206.75 25.85,219.69 9.664,219.69 
			12.006,138.976 48.848,138.976 		"/>
		<path fill="#EA6C25" d="M43.568,147.62c0,0.566-0.44,1.005-1.006,1.005H20.937c-0.566,0-1.005-0.438-1.005-1.005v-2.629
			c0-0.492,0.439-0.933,1.005-0.933h21.625c0.566,0,1.006,0.44,1.006,0.933V147.62z"/>
		<polygon fill="#F8983A" points="61.214,219.535 46.784,219.535 47.831,138.976 48.848,138.976 		"/>
		<polygon fill="#94D6E8" points="14.704,187.155 51.768,187.155 31.733,159.613 		"/>
		<g>
			<path fill="#3C69B1" d="M47.896,185.261c-0.001,0-0.003,0-0.005,0H18.319c-0.081,0-0.159-0.023-0.217-0.136
				c-0.022-0.04-0.02-0.16,0.003-0.199l13.611-21.97c0.058-0.107,0.132-0.129,0.21-0.131c0.079,0.002,0.153,0.018,0.213,0.123
				l15.906,21.876c0.065,0.094,0.083,0.129,0.083,0.24C48.128,185.207,48.036,185.261,47.896,185.261z M18.759,184.795h28.633
				l-15.454-21.26L18.759,184.795z"/>
		</g>
		<g>
			<path fill="#FFC515" d="M58.886,217.158c0.003,0.035-0.006,0.144-0.063,0.173c-0.026,0.038-0.096,0.113-0.167,0.113H45.694
				c-0.141,0-0.27-0.127-0.27-0.269v-12.188H23.799v12.345c0,0.139-0.128,0.268-0.263,0.268H12.006c-0.07,0-0.139-0.014-0.196-0.111
				c-0.027-0.021-0.073-0.067-0.066-0.16l2.638-78.353h0.494l-2.633,78.112h11.053v-12.369c0-0.143,0.131-0.271,0.24-0.271h22.159
				c0.142,0,0.233,0.128,0.233,0.271v12.187h12.438l-11.632-77.93h0.501L58.886,217.158z"/>
		</g>
		<path fill="#FFC515" d="M17.726,146.306c0,1.011-0.425,1.854-0.932,1.854c-0.513,0-0.906-0.844-0.906-1.854
			c0-0.938,0.394-1.781,0.906-1.781C17.301,144.525,17.726,145.369,17.726,146.306z"/>
		<path fill="#FFC515" d="M46.696,146.306c0,1.011-0.414,1.854-0.923,1.854c-0.511,0-0.938-0.844-0.938-1.854
			c0-0.938,0.427-1.781,0.938-1.781C46.283,144.525,46.696,145.369,46.696,146.306z"/>
		<polygon fill="#436EB4" points="31.733,180.269 29.215,170.444 36.023,170.444 33.238,180.269 		"/>
		<path fill="#436EB4" d="M31.362,182.59c0-0.706,0.57-1.273,1.239-1.273c0.671,0,1.236,0.567,1.236,1.273
			c0,0.637-0.565,1.2-1.236,1.2C31.932,183.791,31.362,183.227,31.362,182.59z"/>
	</g>
</g>
<g>
	<g>
		<path fill="#245952" d="M130.413,151.845c-0.644,0.179-2.384,0.455-4.771,0.733c-3.766,0.426-9.189,0.855-14.982,1.152
			c-5.558,0.288-11.423,0.443-16.473,0.33c-0.441-0.002-0.88-0.006-1.318-0.012c-4.69-0.136-8.29-0.307-11.043-0.478
			c-1.043-0.113-1.985-0.161-2.79-0.267c-3.094-0.299-4.326-0.575-4.326-0.575c-0.719-3.198,5.72-42.373,7.761-49.368
			c2.039-6.966,9.371-17.008,9.371-17.008c0.068-1.058,0.159-2.254,0.294-3.516c0.306-3.107,0.797-6.725,1.253-10.037
			c0.801-5.624,1.599-10.394,1.599-10.394c13.32,0.378,19.333-1.235,19.341-1.239c0,0,0.614,1.311,1.339,2.997c0,0,0,0,0.004,0.002
			c1.083,2.554,2.401,5.944,2.148,7.024c-0.328,1.256-1.968,3.221-2.89,4.192c-0.372,0.419-0.602,0.647-0.602,0.647
			c0.22,2.922,3.841,27.767,6.666,37.452C123.804,123.166,130.413,151.845,130.413,151.845z"/>
		<path fill="#152A17" d="M117.82,71.192c-0.328,1.256-1.968,3.221-2.89,4.192c-3.81,1.228-4.345,0.123-4.345,0.123
			c5.3-1.518,5.188-9.576,5.086-11.339C116.755,66.722,118.073,70.112,117.82,71.192z"/>
		<path fill="#0A351C" d="M100.853,75.506c0,0-2.986,3.616-6.666,1.992c0,0-0.309,9.614-1.034,11.435
			c-0.722,1.822-6.724,13.341-10.083,32.604c-2.438,14.188-3.596,26.339-4.034,31.768c-3.094-0.299-4.326-0.575-4.326-0.575
			c-0.719-3.198,5.72-42.373,7.761-49.368c2.039-6.966,9.371-17.008,9.371-17.008c0.068-1.058,0.159-2.254,0.294-3.516
			c0.306-3.107,0.797-6.725,1.253-10.037C94.633,74.067,97.108,75.891,100.853,75.506z"/>
		<path fill="#F0B5AB" d="M84.59,99.121c0,0-0.64,2.481-1.521,2.758c-0.879,0.249-5.522-4.44-11.364-10.324
			c-5.8-5.918-11.2-13.762-11.2-13.762c1.318-4.677,12.959-18.599,12.959-18.599s2.788,1.458,5.203,4.398
			c0.524,0.659,1.004,1.268,1.37,1.833c1.538,2.332,1.829,3.81,1.829,3.81c-2.839,3.8-8.626,7.68-8.626,7.68s4.096,7.172,6.38,11.41
			c0.004,0.004,0.004,0.008,0.004,0.008c0.123,0.156,0.204,0.312,0.285,0.471C82.311,93.235,84.59,99.121,84.59,99.121z"/>
		<path fill="#F58A7C" d="M114.329,61.168c0,0-1.137,0.301-3.505,0.605c-0.22,0.048-0.444,0.062-0.677,0.117
			c-2.715,0.309-6.811,0.606-12.387,0.583c-0.261,0-0.49-0.026-0.719-0.026c-0.662-0.022-1.371-0.029-2.053-0.04
			c0,0-0.801,4.825-1.605,10.466c-0.428,2.938-0.819,6.101-1.158,8.942c-0.018,0.356-0.073,0.673-0.089,1.022
			c-0.062-0.22-0.125-0.445-0.154-0.713c-1.584-6.61-4.524-19.052-4.524-19.052c-1.4,1.988-5.59,6.161-5.59,6.161
			s-0.651-1.484-1.595-3.166c-0.494-0.853-1.021-1.723-1.604-2.477c-1.709-2.265-5.428-4.109-5.428-4.109
			c0.603-0.742,8.789-11.759,12.732-14.131c1.763-1.078,3.902-2.136,5.964-3.072c0.219-0.09,0.439-0.189,0.658-0.291
			c2.326-0.996,4.455-1.761,5.768-2.042c0,0,3.589,0.285,5.349,0.643c0.58,0.125,1.242,0.284,1.911,0.52
			c0.278,0.088,0.537,0.208,0.799,0.326c1.166,0.504,2.272,1.29,2.99,2.522c1.261,2.207,2.194,2.552,2.301,5.64
			C111.849,52.684,114.321,61.157,114.329,61.168z"/>
		<g>
			<path fill="#90D7E9" d="M97.76,62.473c-0.038,0.151-0.127,0.294-0.278,0.313c-0.015,0.004-0.065,0.004-0.079,0.004
				c-0.15,0-0.298-0.087-0.354-0.239l-0.009-0.104l-5.104-20.168c0.219-0.09,0.439-0.189,0.658-0.291l5.128,20.365
				C97.76,62.406,97.76,62.42,97.76,62.473z"/>
		</g>
		<path fill="#F0B5AB" d="M115.714,33.792c-2.399,2.476-7.089,3.199-11.186,1.966c-0.374-0.108-0.748-0.23-1.114-0.38
			c-0.208-0.087-0.378-0.182-0.584-0.27c-2.945-1.34-5.146-3.951-6.294-5.501c-0.53-0.749-0.865-1.264-0.865-1.264
			c-0.822-0.031-1.541-0.343-2.079-0.826c-2.339-2.018-2.398-7.144-0.558-8.009c2.315-1.043,2.637,1.765,2.637,1.765
			s0.997-4.381,3.059-7.065c0.165-0.254,0.37-0.48,0.583-0.693c1.958-2.004,4.994-4.808,6.212-5.883c0,0,0,0,0.003,0
			c0.302-0.293,0.468-0.451,0.468-0.451c6.801,1.481,9.187,0.521,9.187,0.521s0.09,0.252,0.237,0.677
			c0.06,0.204,0.147,0.436,0.227,0.718c0.834,2.484,2.573,7.692,3.496,10.769C120.378,24.027,118.446,30.986,115.714,33.792z"/>
		<path fill="#F58A7C" d="M92.508,176.614c-0.438,11.119,0,43.537,0,43.537s-0.75,0-1.39,0h-0.73
			c-0.24-0.011-11.08-36.055-11.521-44.699c-0.443-8.638,4.76-15.283,4.76-15.283l-1.802-6.597c0.859,0.032,1.762,0.06,2.778,0.165
			c2.275,0.138,5.03,0.269,8.265,0.313c0.438,0.006,0.876,0.01,1.318,0.012C93.886,157.119,92.878,167.34,92.508,176.614z"/>
		<path fill="#F58A7C" d="M139.713,217.777l-2.473,0.551l-0.12,0.011c0,0-8.803-14.762-13.752-21.801
			c-4.922-7.042-9.855-15.846-10.659-22.405c-0.798-6.483,1.152-15.245,1.152-15.245l-3.202-5.156
			c1.464-0.113,2.893-0.151,4.313-0.269c4.114-0.28,7.842-0.585,10.669-0.884c0.485,3.237,2.242,14.756,3.828,24.196
			C131.288,188.015,139.713,217.777,139.713,217.777z"/>
		<path fill="#F0B5AB" d="M91.751,99.48c-0.643,0.359-3.28-1.604-5.242-0.963c0,0,3.521,1.841,3.083,2.917
			c-0.366,0.881-3.371-0.439-4.128-0.87c0.6,0.514,2.346,2.781,1.929,3.333c-0.442,0.623-3.244-2.015-3.244-2.015
			s1.16,2.355,0.442,3.076c-0.72,0.72-1.521-3.08-1.521-3.08s0.799-1.811,1.521-2.758c1.018-1.34,2.278-3.604,3.798-3.004
			C89.871,96.757,92.362,99.121,91.751,99.48z"/>
		<path fill="#F0B5AB" d="M132.385,77.875c-0.423,3.88-1.915,5.627-4.169,6.056c-1.056,0.174-2.252,0.088-3.601-0.218
			c-4.156-0.998-5.728-6.437-7.142-11.642c-1.411-5.201-4.842-16.157-5.477-20.197c-0.604-4.045-0.361-6.526-0.361-6.526
			s-0.959-0.078-1.642-0.72c-0.072-0.037-0.126-0.093-0.13-0.163c-0.021-0.352,0.722-0.729,1.38-1.018
			c-1.029,0.364-2.614,0.809-2.931,0.402c-0.515-0.607,2.36-2.956,2.518-3.084c-0.167,0.062-3.526,1.498-3.957,1.063
			c-0.388-0.425,3-2.556,3.422-2.807c-0.436,0.18-4.254,1.792-4.673,1.129c-0.43-0.719,3.793-3.29,5.133-3.802
			c1.374-0.509,2.563,0.803,2.563,0.803s1.957-0.36,1.863,1.149c0,0,1.761,0.891,1.412,2.898c-0.357,2.029-1.318,4.15-1.318,4.15
			c0.157,0.27,7.825,12.247,11.103,16.923C129.637,66.952,132.996,72.152,132.385,77.875z"/>
		<path fill="#D24D27" d="M137.118,218.336l0.997,2.749H150C150,221.085,144.115,214.861,137.118,218.336z"/>
		<path fill="#F0B5AB" d="M104.528,35.758l-0.145,2.125l-0.312,4.986c-1.959,0.979-5.644-1.481-5.644-2.362
			c0-0.419-0.415-2.694-0.809-5.052c-0.511-2.852-1.083-5.849-1.083-5.849c1.149,1.551,3.349,4.162,6.294,5.501
			C103.397,35.382,103.941,35.599,104.528,35.758z"/>
		<g>
			<path fill="#721914" d="M120.276,5.226c0,0.056,0,0.101-0.004,0.138c-0.108,1.746-2.505,2.853-4.854,3.015
				c-0.147-0.425-0.237-0.677-0.237-0.677s-2.386,0.96-9.187-0.521c0,0-4.204,3.788-6.683,6.333
				c-1.445,1.47-2.413,3.833-2.995,5.552c-0.431,1.291-0.646,2.207-0.646,2.207s-0.297-2.442-2.198-1.921
				c-0.144,0.04-0.251,0.087-0.439,0.156c-0.908,0.434-1.35,1.964-1.271,3.642c0.068,1.26,0.444,2.641,1.17,3.657
				c0.173,0.249,0.392,0.5,0.659,0.71c-0.285,0.5-0.579,1.199-0.88,2.09c-1.682,4.819,3.521,8.862,6.241,11.421
				c2.066,1.95,4.11,6.606,2.794,10.119c0,0.009,0,0.009,0,0.009c-0.384,1.09-1.112,2.094-2.275,2.835
				c-4.842,3.164-9.441,1.16-9.441,1.16c2.759-2.121,0.999-6.883-2.883-9.087c-3.878-2.216-5.641-3.887-5.72-9.813
				c-0.117-5.947,6.96-10.744,6.96-10.744l1.904-3.672c0.004-0.026,0.008-0.061,0.015-0.071c0.007-0.032,0.015-0.065,0.058-0.077
				l0.908-1.82c-0.461-2.275-1.681-8.025,0.479-12.686c2.131-4.677,8.362-7.843,16.641-7.063
				C116.686,0.905,120.276,3.213,120.276,5.226z"/>
			<path fill="#993322" d="M96.317,19.066c-0.431,1.291-0.646,2.207-0.646,2.207s-0.322-2.808-2.637-1.765
				c-1.632,0.778-1.773,4.972-0.101,7.298c-1.759-1.047-3.732-2.769-2.641-4.972c0.004-0.026,0.008-0.061,0.015-0.071
				c0.007-0.032,0.015-0.065,0.058-0.077C92.061,18.485,95.438,18.828,96.317,19.066z"/>
		</g>
		<g>
			<path fill="#90D7E9" d="M110.824,61.757c0,0.004,0.004,0.01,0,0.017c0.05,0.199-0.079,0.353-0.249,0.41
				c-0.044,0.004-0.057,0.004-0.067,0.004c-0.191,0-0.338-0.129-0.356-0.285l-0.004-0.013l-4.525-20.782
				c0.278,0.088,0.537,0.208,0.799,0.326L110.824,61.757z"/>
		</g>
		<path fill="#F6958E" d="M73.24,76.915c0,0,4.096,7.172,6.38,11.41c-3.658-5.106-8.354-10.25-8.354-10.25
			c2.491-1.847,7.022-9.523,8.771-12.65c1.538,2.332,1.829,3.81,1.829,3.81C79.028,73.034,73.24,76.915,73.24,76.915z"/>
		<path fill="#F6958E" d="M91.751,99.48c-0.643,0.359-3.28-1.604-5.242-0.963c0,0,3.521,1.841,3.083,2.917
			c-0.366,0.881-3.371-0.439-4.128-0.87c0.6,0.514,2.346,2.781,1.929,3.333c-0.442,0.623-3.244-2.015-3.244-2.015
			s1.16,2.355,0.442,3.076c-0.72,0.72-1.521-3.08-1.521-3.08s0.799-1.811,1.521-2.758c1.018-1.34,2.278-3.604,3.798-3.004
			C89.871,96.757,92.362,99.121,91.751,99.48z"/>
		<path fill="#F6958E" d="M128.216,83.931c-1.056,0.174-2.252,0.088-3.601-0.218c-4.156-0.998-5.728-6.437-7.142-11.642
			c-1.411-5.201-4.842-16.157-5.477-20.197c-0.604-4.045-0.361-6.526-0.361-6.526s-0.959-0.078-1.642-0.72
			c-0.072-0.037-0.126-0.093-0.13-0.163c0.593,0.155,2.43,0.513,3.839-0.856c0,0-0.994,4.171,0,9.29
			c0.997,5.121,4.518,12.91,8.22,18.73C124.466,75.54,126.896,80.584,128.216,83.931z"/>
		<path fill="#F6958E" d="M104.528,35.758l-0.145,2.125c-3.009-0.014-5.353-1.331-6.764-2.428c-0.511-2.852-1.083-5.849-1.083-5.849
			c1.149,1.551,3.349,4.162,6.294,5.501C103.397,35.382,103.941,35.599,104.528,35.758z"/>
		<path fill="#F6958E" d="M103.414,35.378c-0.208-0.087-0.378-0.182-0.584-0.27c-2.945-1.34-5.146-3.951-6.294-5.501
			c-0.53-0.749-0.865-1.264-0.865-1.264c-0.822-0.031-1.541-0.343-2.079-0.826c-2.339-2.018-2.398-7.144-0.558-8.009
			c2.315-1.043,2.637,1.765,2.637,1.765s0.997-4.381,3.059-7.065c-1.397,3.509-1.688,7.077-0.658,12.313
			C98.79,30.059,101.353,33.268,103.414,35.378z"/>
		<path fill="#F6958E" d="M115.646,9.098c-3.092,0.257-7.747-0.521-10.119-1.466c0.302-0.293,0.468-0.451,0.468-0.451
			c6.801,1.481,9.187,0.521,9.187,0.521s0.09,0.252,0.237,0.677C115.479,8.583,115.566,8.815,115.646,9.098z"/>
		<g>
			<path fill="#993322" d="M68.919,79.108c-0.161,0-0.348-0.141-0.357-0.317c-0.011-0.196,0.133-0.391,0.304-0.402
				c2.338-0.227,5.093-2.411,5.107-2.423c0.149-0.132,0.37-0.086,0.504,0.063c0.096,0.148,0.085,0.37-0.064,0.505
				c-0.132,0.083-2.922,2.299-5.476,2.572C68.931,79.106,68.925,79.108,68.919,79.108z"/>
		</g>
		<g>
			<path fill="#993322" d="M109.868,26.1c-0.167,0-0.373-0.002-0.584-0.006c-0.084-0.002-0.161-0.079-0.159-0.168
				c0.002-0.115,0.083-0.189,0.165-0.188c2.528,0.106,3.5-0.423,3.789-0.611c-0.766-1.459-2.423-7.021-2.416-7.319
				c0.002-0.101,0.083-0.177,0.166-0.167c0.121,0.006,0.193,0.083,0.193,0.168c0.028,0.42,1.695,6.022,2.425,7.257
				c0.028,0.07,0.022,0.147-0.014,0.213C113.389,25.301,112.658,26.1,109.868,26.1z"/>
		</g>
		<path fill="#721914" d="M98.952,16.416c0.813-0.951,2.939-3.879,7.176-2.517c0,0-0.366,0.545-3.583,1.295
			C99.326,15.97,98.952,16.416,98.952,16.416z"/>
		<path fill="#721914" d="M110.74,14.37c0,0,1.817-1.404,4.102-1.029c2.29,0.373,2.483,1.628,2.483,1.628
			S115.374,14.508,110.74,14.37z"/>
		<path fill="#FFFFFF" d="M102.539,28.148c0.38,0.066,2.333,1.449,6.152,1.458c3.815,0.011,5.878-0.97,5.878-0.97
			s-1.785,4.173-6.016,4.469C104.358,33.401,102.539,28.148,102.539,28.148z"/>
		<g>
			<path fill="#993322" d="M94.483,26.1c-0.003,0-0.005,0-0.009,0c-0.123-0.007-0.193-0.088-0.151-0.177
				c0.225-1.962-1.312-4.672-1.318-4.702c-0.062-0.093-0.047-0.189,0.069-0.25c0.079-0.041,0.169-0.011,0.229,0.068
				c0.071,0.129,1.611,2.847,1.342,4.908C94.641,26.036,94.564,26.1,94.483,26.1z"/>
		</g>
		<g>
			<path fill="#993322" d="M93.822,24.6c-0.345,0-0.714-0.091-0.823-0.423c-0.279-0.644,0.608-1.446,0.695-1.529
				c0.075-0.07,0.201-0.065,0.271,0.009c0.069,0.076,0.065,0.202-0.008,0.266c-0.216,0.169-0.793,0.768-0.648,1.113
				c0.139,0.304,0.804,0.214,1.026,0.145c0.083-0.029,0.205,0.015,0.217,0.119c0.014,0.098-0.013,0.183-0.132,0.216
				C94.408,24.527,94.124,24.6,93.822,24.6z"/>
		</g>
		<path fill="#1E1725" d="M104.239,18.623c0,1.004-0.323,1.807-0.762,1.807c-0.437,0-0.797-0.803-0.797-1.807
			c0-0.983,0.36-1.788,0.797-1.788C103.916,16.835,104.239,17.64,104.239,18.623z"/>
		<path fill="#1E1725" d="M114.329,18.266c0,1.195-0.359,2.164-0.796,2.164s-0.79-0.968-0.79-2.164c0-1.183,0.354-2.14,0.79-2.14
			S114.329,17.083,114.329,18.266z"/>
		<path fill="#7D463F" d="M93.382,72.874c-0.428,2.938-0.819,6.101-1.158,8.942l-0.244,0.309c-1.584-6.61-4.524-19.052-4.524-19.052
			c-1.4,1.988-5.59,6.161-5.59,6.161s-0.651-1.484-1.595-3.166c2.26-1.822,7.268-6.212,8.116-9.729
			C88.388,56.339,88.763,67.526,93.382,72.874z"/>
		<path fill="#661715" d="M98.952,41.028c2.066,1.95,4.11,6.606,2.794,10.119c-0.1-2.655-0.977-7.129-5.21-9.159
			c-6.226-2.946-8.935-12.094-5.507-17.578c0.241-0.422,0.51-0.833,0.733-1.26c0.068,1.26,0.444,2.641,1.17,3.657
			c0.173,0.249,0.392,0.5,0.659,0.71c-0.285,0.5-0.579,1.199-0.88,2.09C91.029,34.426,96.232,38.469,98.952,41.028z"/>
		<path fill="#661715" d="M120.272,5.364c-0.108,1.746-2.505,2.853-4.854,3.015c-0.147-0.425-0.237-0.677-0.237-0.677
			s-2.386,0.96-9.187-0.521c0,0-4.204,3.788-6.683,6.333c-1.445,1.47-2.413,3.833-2.995,5.552c-0.431,1.291-0.646,2.207-0.646,2.207
			s-0.297-2.442-2.198-1.921c1.585-3.876,2.752-7.608,5.999-10.197C104.076,5.505,110.799,2.308,120.272,5.364z"/>
		<path fill="#F58A7C" d="M125.188,192.523c4.897,9.673,9.616,20.685,12.052,25.805l-0.12,0.011c0,0-8.803-14.762-13.752-21.801
			c-4.922-7.042-9.855-15.846-10.659-22.405c-0.798-6.483,1.152-15.245,1.152-15.245l-3.202-5.156
			c1.464-0.113,2.893-0.151,4.313-0.269l1.264,5.706C114.284,166.21,118.516,179.418,125.188,192.523z"/>
		<path fill="#7B1917" d="M138.83,219.15c-0.077-0.028-0.096-0.05-0.118-0.074C138.748,219.104,138.83,219.15,138.83,219.15z"/>
		<path fill="#F58A7C" d="M91.119,220.151h-0.73c-0.24-0.011-11.08-36.055-11.521-44.699c-0.443-8.638,4.76-15.283,4.76-15.283
			l-1.802-6.597c0.859,0.032,1.762,0.06,2.778,0.165c0.008,3.247-0.014,8.791-0.014,8.791s-3.28,4.081-1.521,18.325
			C84.656,193.455,89.886,215.252,91.119,220.151z"/>
		<path fill="#D24D27" d="M89.072,216.156c-0.816,2.622-1.241,4.663-1.241,4.663s4.761,0,7.077-0.439l-2.398-4.522L89.072,216.156z"
			/>
	</g>
	<g>
		<path fill="#EA6C25" d="M12.006,138.975l-2.344,80.716c0,0-1.597-0.008-3.491-0.012c-2.52-0.01-5.644-0.012-6.127,0.012
			c-0.768,0.105,8.754-60.505,11.318-76.757C11.781,140.433,12.006,138.975,12.006,138.975z"/>
		<polygon fill="#EA6C25" points="39.273,219.691 28.134,219.691 26.073,215.016 26.482,206.75 36.179,206.75 		"/>
		<path opacity="0.4" fill="#855958" d="M11.362,142.934c0.419-2.501,0.645-3.959,0.645-3.959l-2.344,80.716
			c0,0-1.597-0.008-3.491-0.012L11.362,142.934z"/>
		<polygon opacity="0.4" fill="#855958" points="32.352,219.691 28.134,219.691 26.073,215.016 26.482,206.75 30.689,206.75 		"/>
		<polygon fill="#F5A42A" points="61.214,219.536 43.944,219.536 43.944,206.75 26.482,206.75 25.85,219.691 9.663,219.691 
			12.006,138.975 48.848,138.975 		"/>
		<path fill="#EA6C25" d="M43.568,147.62c0,0.566-0.439,1.005-1.006,1.005H20.936c-0.566,0-1.005-0.438-1.005-1.005v-2.628
			c0-0.494,0.439-0.934,1.005-0.934h21.626c0.566,0,1.006,0.439,1.006,0.934V147.62z"/>
		<polygon fill="#F8983A" points="61.214,219.536 46.784,219.536 47.83,138.975 48.848,138.975 		"/>
		<polygon fill="#94D6E8" points="14.704,187.156 51.769,187.156 31.733,159.614 		"/>
		<g>
			<path fill="#3C69B1" d="M47.895,185.261c0,0-0.002,0-0.004,0H18.319c-0.081,0-0.159-0.023-0.218-0.135
				c-0.022-0.04-0.02-0.161,0.003-0.199l13.612-21.972c0.058-0.107,0.132-0.127,0.21-0.129c0.079,0.002,0.153,0.016,0.214,0.121
				l15.906,21.878c0.065,0.094,0.083,0.128,0.083,0.239C48.129,185.206,48.036,185.261,47.895,185.261z M18.759,184.796h28.633
				l-15.454-21.262L18.759,184.796z"/>
		</g>
		<g>
			<path fill="#FFC515" d="M58.887,217.159c0.003,0.035-0.006,0.143-0.064,0.173c-0.026,0.038-0.096,0.113-0.168,0.113h-12.96
				c-0.142,0-0.271-0.127-0.271-0.269v-12.188H23.799v12.345c0,0.14-0.128,0.267-0.264,0.267H12.006
				c-0.071,0-0.139-0.014-0.197-0.111c-0.027-0.021-0.073-0.067-0.066-0.159l2.638-78.354h0.494l-2.633,78.113h11.052V204.72
				c0-0.144,0.131-0.271,0.24-0.271h22.16c0.141,0,0.232,0.127,0.232,0.271v12.186h12.439l-11.632-77.931h0.501L58.887,217.159z"/>
		</g>
		<path fill="#FFC515" d="M17.725,146.306c0,1.011-0.425,1.854-0.931,1.854c-0.513,0-0.906-0.844-0.906-1.854
			c0-0.937,0.393-1.78,0.906-1.78C17.3,144.526,17.725,145.37,17.725,146.306z"/>
		<path fill="#FFC515" d="M46.696,146.306c0,1.011-0.414,1.854-0.923,1.854c-0.511,0-0.938-0.844-0.938-1.854
			c0-0.937,0.427-1.78,0.938-1.78C46.282,144.526,46.696,145.37,46.696,146.306z"/>
		<polygon fill="#436EB4" points="31.733,180.27 29.215,170.444 36.023,170.444 33.238,180.27 		"/>
		<path fill="#436EB4" d="M31.362,182.589c0-0.704,0.57-1.272,1.239-1.272c0.671,0,1.236,0.568,1.236,1.272
			c0,0.637-0.565,1.202-1.236,1.202C31.932,183.792,31.362,183.226,31.362,182.589z"/>
	</g>
</g>
</svg>
