<?xml version="1.0" encoding="utf-8"?>
<!-- Generator: Adobe Illustrator 16.0.0, SVG Export Plug-In . SVG Version: 6.00 Build 0)  -->
<!DOCTYPE svg PUBLIC "-//W3C//DTD SVG 1.1//EN" "http://www.w3.org/Graphics/SVG/1.1/DTD/svg11.dtd">
<svg version="1.1" id="Layer_1" xmlns="http://www.w3.org/2000/svg" xmlns:xlink="http://www.w3.org/1999/xlink" x="0px" y="0px"
	 width="72.832px" height="108.51px" viewBox="0 0 72.832 108.51" enable-background="new 0 0 72.832 108.51" xml:space="preserve">
<g>
	<g>
		<path fill="#245952" d="M63.227,74.535c-0.332,0.104-1.178,0.232-2.357,0.361c-1.842,0.201-4.506,0.408-7.352,0.555
			c-2.725,0.141-5.607,0.221-8.083,0.182c-0.218-0.002-0.433-0.008-0.647-0.014c-2.303-0.059-4.075-0.156-5.412-0.252
			c-0.521-0.039-0.979-0.08-1.373-0.119c-1.527-0.148-2.126-0.275-2.126-0.275c-0.347-1.559,2.811-20.818,3.808-24.234
			c0.994-3.422,4.598-8.356,4.598-8.356c0.031-0.512,0.084-1.098,0.146-1.727c0.156-1.518,0.388-3.293,0.619-4.928
			c0.392-2.751,0.779-5.099,0.779-5.099c6.534,0.191,9.493-0.602,9.497-0.605c0,0,0.305,0.641,0.658,1.469c0,0,0,0,0.004,0.002
			c0.531,1.25,1.18,2.923,1.051,3.445c-0.154,0.623-0.973,1.58-1.418,2.066c-0.178,0.195-0.295,0.313-0.295,0.313
			c0.107,1.43,1.887,13.633,3.271,18.395C59.979,60.473,63.227,74.535,63.227,74.535z"/>
		<path fill="#152A17" d="M57.035,34.939c-0.154,0.623-0.973,1.58-1.418,2.066c-1.863,0.594-2.137,0.049-2.137,0.049
			c2.613-0.736,2.549-4.693,2.504-5.56C56.516,32.744,57.164,34.417,57.035,34.939z"/>
		<path fill="#0A351C" d="M48.707,37.054c0,0-1.458,1.787-3.272,0.984c0,0-0.159,4.729-0.513,5.617
			c-0.35,0.891-3.293,6.545-4.938,16.01c-1.207,6.955-1.769,12.914-1.982,15.582c-1.527-0.148-2.126-0.275-2.126-0.275
			c-0.347-1.559,2.811-20.818,3.808-24.234c0.994-3.422,4.598-8.356,4.598-8.356c0.031-0.512,0.084-1.098,0.146-1.727
			c0.156-1.518,0.388-3.293,0.619-4.928C45.656,36.359,46.863,37.251,48.707,37.054z"/>
		<path fill="#F0B5AB" d="M40.723,48.66c0,0-0.305,1.213-0.738,1.34c-0.432,0.129-2.725-2.165-5.584-5.065
			c-2.854-2.898-5.494-6.752-5.494-6.752c0.646-2.291,6.359-9.128,6.359-9.128s1.371,0.713,2.556,2.162
			c0.263,0.322,0.481,0.623,0.661,0.9c0.755,1.139,0.896,1.871,0.896,1.871c-1.385,1.861-4.227,3.765-4.227,3.765
			s2.008,3.518,3.136,5.592c0.004,0.004,0.004,0.008,0.004,0.008c0.048,0.082,0.093,0.162,0.136,0.242
			C39.6,45.757,40.723,48.66,40.723,48.66z"/>
		<path fill="#F58A7C" d="M55.322,30.023c0,0-0.557,0.152-1.717,0.305c-0.107,0.014-0.221,0.027-0.34,0.045
			c-1.336,0.16-3.344,0.309-6.084,0.285c-0.113,0-0.23-0.004-0.348-0.004c-0.326-0.008-0.662-0.014-1.009-0.025
			c0,0-0.391,2.365-0.786,5.134c-0.203,1.447-0.408,3.006-0.561,4.393c-0.018,0.17-0.035,0.338-0.052,0.5
			c-0.024-0.107-0.052-0.221-0.08-0.34c-0.765-3.254-2.212-9.357-2.212-9.357c-0.691,0.982-2.756,3.029-2.756,3.029
			s-0.315-0.738-0.775-1.563c-0.232-0.408-0.498-0.838-0.782-1.209c-0.852-1.109-2.669-2.021-2.669-2.021
			c0.305-0.369,4.313-5.768,6.244-6.934c0.867-0.525,1.926-1.055,2.943-1.506c0.107-0.053,0.215-0.096,0.322-0.143
			c1.133-0.492,2.181-0.865,2.822-1c0,0,1.762,0.139,2.627,0.311c0.281,0.057,0.607,0.135,0.941,0.258
			c0.129,0.045,0.262,0.096,0.389,0.156c0.568,0.25,1.115,0.639,1.461,1.238c0.627,1.088,1.076,1.246,1.143,2.77
			C54.107,25.865,55.318,30.014,55.322,30.023z"/>
		<g>
			<path fill="#90D7E9" d="M47.182,30.658c-0.002,0.076-0.055,0.145-0.131,0.164c-0.014,0.004-0.027,0.004-0.041,0.004
				c-0.076,0-0.148-0.051-0.167-0.127l-0.009-0.045l-2.494-9.898c0.107-0.053,0.215-0.096,0.322-0.143l2.518,9.998
				C47.182,30.627,47.182,30.643,47.182,30.658z"/>
		</g>
		<path fill="#F0B5AB" d="M55.998,16.592c-1.174,1.211-3.473,1.561-5.48,0.961c-0.188-0.055-0.375-0.117-0.555-0.193
			c-0.096-0.039-0.191-0.08-0.285-0.121c-1.453-0.668-2.533-1.939-3.088-2.705c-0.27-0.374-0.418-0.626-0.418-0.626
			c-0.412-0.008-0.758-0.16-1.035-0.401c-1.146-0.991-1.168-3.508-0.26-3.927c1.122-0.52,1.295,0.866,1.295,0.866
			s0.475-2.153,1.492-3.476c0.09-0.118,0.184-0.229,0.285-0.334c0.957-0.988,2.457-2.364,3.043-2.891c0,0,0,0,0.002,0
			c0.152-0.145,0.244-0.225,0.244-0.225c3.332,0.733,4.5,0.259,4.5,0.259s0.041,0.126,0.113,0.337
			c0.031,0.097,0.074,0.214,0.117,0.35c0.414,1.216,1.266,3.776,1.719,5.287C58.289,11.789,57.34,15.206,55.998,16.592z"/>
		<path fill="#F58A7C" d="M44.613,86.699c-0.215,5.451,0,21.373,0,21.373s-0.377,0-0.682,0h-0.356
			c-0.128-0.002-5.45-17.693-5.667-21.938c-0.219-4.238,2.336-7.527,2.336-7.527l-0.869-3.24c0.412,0.031,0.866,0.059,1.361,0.09
			c1.118,0.063,2.457,0.121,4.051,0.162c0.215,0.006,0.43,0.012,0.647,0.014C45.282,77.125,44.797,82.125,44.613,86.699z"/>
		<path fill="#F58A7C" d="M67.77,106.906l-1.207,0.254l-0.047,0.01c0,0-4.328-7.23-6.752-10.689
			c-2.424-3.463-4.848-7.791-5.238-10.994s0.564-7.488,0.564-7.488l-1.572-2.547c0.721-0.039,1.428-0.076,2.113-0.119
			c2.025-0.131,3.859-0.287,5.238-0.436c0.246,1.596,1.107,7.225,1.879,11.889C63.656,92.283,67.77,106.906,67.77,106.906z"/>
		<path fill="#F0B5AB" d="M44.232,48.833c-0.311,0.172-1.606-0.783-2.561-0.479c0,0,1.73,0.909,1.516,1.426
			c-0.18,0.434-1.655-0.217-2.039-0.422c0.301,0.256,1.152,1.363,0.959,1.633c-0.219,0.307-1.604-0.986-1.604-0.986
			s0.564,1.16,0.219,1.508C40.375,51.859,39.984,50,39.984,50s0.389-0.877,0.738-1.34c0.495-0.668,1.121-1.775,1.858-1.475
			C43.318,47.49,44.541,48.66,44.232,48.833z"/>
		<path fill="#F0B5AB" d="M64.176,38.228c-0.205,1.904-0.941,2.756-2.029,2.961c-0.52,0.1-1.119,0.051-1.779-0.105
			c-2.033-0.477-2.813-3.156-3.504-5.713c-0.693-2.554-2.381-7.919-2.684-9.906c-0.301-1.994-0.172-3.207-0.172-3.207
			s-0.475-0.041-0.82-0.348c-0.035-0.025-0.053-0.057-0.057-0.088c-0.018-0.166,0.35-0.357,0.672-0.496
			c-0.506,0.178-1.271,0.398-1.439,0.197c-0.254-0.293,1.166-1.447,1.25-1.512c-0.092,0.033-1.736,0.727-1.943,0.516
			c-0.201-0.201,1.471-1.25,1.67-1.375c-0.213,0.09-2.092,0.881-2.287,0.555c-0.207-0.348,1.854-1.611,2.521-1.863
			c0.668-0.248,1.254,0.393,1.254,0.393s0.955-0.174,0.91,0.559c0,0,0.865,0.438,0.691,1.432c-0.172,0.992-0.646,2.031-0.646,2.031
			c0.082,0.131,3.85,6.018,5.449,8.309C62.836,32.861,64.48,35.414,64.176,38.228z"/>
		<path fill="#D24D27" d="M66.514,107.168l0.477,1.342h5.842C72.833,108.51,69.932,105.479,66.514,107.168z"/>
		<path fill="#F0B5AB" d="M50.518,17.553l-0.07,1.045l-0.162,2.449c-0.953,0.477-2.773-0.734-2.773-1.168
			c0-0.197-0.19-1.314-0.398-2.479c-0.25-1.398-0.523-2.867-0.523-2.867c0.555,0.765,1.635,2.037,3.088,2.705
			C49.949,17.363,50.229,17.469,50.518,17.553z"/>
		<g>
			<path fill="#721914" d="M58.248,2.569c0,0.021,0,0.045-0.004,0.066c-0.055,0.852-1.236,1.398-2.393,1.481
				c-0.072-0.211-0.113-0.337-0.113-0.337s-1.168,0.475-4.5-0.259c0,0-2.078,1.862-3.289,3.115c-0.7,0.721-1.183,1.877-1.467,2.726
				c-0.207,0.627-0.311,1.084-0.311,1.084s-0.148-1.205-1.08-0.945c-0.069,0.018-0.139,0.045-0.215,0.079
				c-0.461,0.212-0.679,0.959-0.637,1.779c0.03,0.626,0.221,1.299,0.574,1.794c0.098,0.132,0.205,0.249,0.322,0.354
				c-0.135,0.249-0.28,0.585-0.433,1.027c-0.824,2.359,1.731,4.351,3.071,5.605c1.021,0.955,2.021,3.248,1.377,4.973
				c0,0.004,0,0.004,0,0.004c-0.197,0.535-0.553,1.018-1.119,1.387c-2.381,1.559-4.631,0.563-4.631,0.563
				c1.343-1.039,0.478-3.377-1.428-4.459c-1.902-1.082-2.77-1.906-2.811-4.816c-0.044-2.915,3.417-5.266,3.417-5.266l0.935-1.808
				c0.004-0.011,0.008-0.023,0.015-0.034c0.007-0.015,0.015-0.027,0.021-0.039l0.461-0.889c-0.238-1.119-0.824-3.94,0.221-6.232
				c1.046-2.292,4.107-3.849,8.172-3.462C56.477,0.448,58.248,1.576,58.248,2.569z"/>
			<path fill="#993322" d="M46.482,9.362c-0.207,0.627-0.311,1.084-0.311,1.084S45.999,9.06,44.877,9.58
				c-0.813,0.374-0.879,2.438-0.063,3.573c-0.865-0.509-1.831-1.354-1.299-2.438c0.004-0.011,0.008-0.023,0.015-0.034
				c0.007-0.015,0.015-0.027,0.021-0.039C44.389,9.078,46.051,9.238,46.482,9.362z"/>
		</g>
		<g>
			<path fill="#90D7E9" d="M53.605,30.314c0,0.004,0.004,0.01,0,0.014c0.014,0.09-0.041,0.17-0.133,0.189
				c-0.01,0.004-0.023,0.004-0.033,0.004c-0.08,0-0.152-0.055-0.17-0.135l-0.004-0.014l-2.213-10.191
				c0.129,0.045,0.262,0.096,0.389,0.156L53.605,30.314z"/>
		</g>
		<path fill="#F6958E" d="M35.152,37.753c0,0,2.008,3.518,3.136,5.592c-1.793-2.496-4.103-5.029-4.103-5.029
			c1.223-0.902,3.442-4.675,4.297-6.199c0.755,1.139,0.896,1.871,0.896,1.871C37.994,35.849,35.152,37.753,35.152,37.753z"/>
		<path fill="#F6958E" d="M44.232,48.833c-0.311,0.172-1.606-0.783-2.561-0.479c0,0,1.73,0.909,1.516,1.426
			c-0.18,0.434-1.655-0.217-2.039-0.422c0.301,0.256,1.152,1.363,0.959,1.633c-0.219,0.307-1.604-0.986-1.604-0.986
			s0.564,1.16,0.219,1.508C40.375,51.859,39.984,50,39.984,50s0.389-0.877,0.738-1.34c0.495-0.668,1.121-1.775,1.858-1.475
			C43.318,47.49,44.541,48.66,44.232,48.833z"/>
		<path fill="#F6958E" d="M62.146,41.189c-0.52,0.1-1.119,0.051-1.779-0.105c-2.033-0.477-2.813-3.156-3.504-5.713
			c-0.693-2.554-2.381-7.919-2.684-9.906c-0.301-1.994-0.172-3.207-0.172-3.207s-0.475-0.041-0.82-0.348
			c-0.035-0.025-0.053-0.057-0.057-0.088c0.295,0.08,1.197,0.252,1.887-0.412c0,0-0.492,2.047,0,4.557
			c0.488,2.51,2.219,6.34,4.037,9.183C60.291,37.085,61.498,39.558,62.146,41.189z"/>
		<path fill="#F6958E" d="M50.518,17.553l-0.07,1.045c-1.48-0.014-2.631-0.66-3.334-1.197c-0.25-1.398-0.523-2.867-0.523-2.867
			c0.555,0.765,1.635,2.037,3.088,2.705C49.949,17.363,50.229,17.469,50.518,17.553z"/>
		<path fill="#F6958E" d="M49.963,17.359c-0.096-0.039-0.191-0.08-0.285-0.121c-1.453-0.668-2.533-1.939-3.088-2.705
			c-0.27-0.374-0.418-0.626-0.418-0.626c-0.412-0.008-0.758-0.16-1.035-0.401c-1.146-0.991-1.168-3.508-0.26-3.927
			c1.122-0.52,1.295,0.866,1.295,0.866s0.475-2.153,1.492-3.476c-0.688,1.724-0.83,3.479-0.322,6.044
			C47.688,14.759,48.945,16.33,49.963,17.359z"/>
		<path fill="#F6958E" d="M55.969,4.466c-1.523,0.125-3.797-0.26-4.975-0.721c0.152-0.145,0.244-0.225,0.244-0.225
			c3.332,0.733,4.5,0.259,4.5,0.259s0.041,0.126,0.113,0.337C55.883,4.213,55.926,4.331,55.969,4.466z"/>
		<g>
			<path fill="#993322" d="M33.031,38.828c-0.087,0-0.162-0.066-0.171-0.156c-0.011-0.096,0.06-0.182,0.154-0.189
				c1.146-0.115,2.483-1.182,2.497-1.193c0.074-0.059,0.184-0.049,0.243,0.025s0.048,0.184-0.026,0.244
				c-0.058,0.047-1.431,1.143-2.68,1.268C33.043,38.826,33.037,38.828,33.031,38.828z"/>
		</g>
		<g>
			<path fill="#993322" d="M53.135,12.816c-0.092,0-0.186-0.002-0.285-0.005c-0.047-0.002-0.086-0.042-0.084-0.09
				s0.045-0.084,0.09-0.083c1.229,0.045,1.711-0.211,1.85-0.31c-0.371-0.713-1.191-3.441-1.186-3.59
				c0.004-0.048,0.047-0.085,0.092-0.082c0.047,0.002,0.082,0.039,0.082,0.083c0.027,0.206,0.838,2.962,1.195,3.565
				c0.02,0.032,0.016,0.072-0.01,0.102C54.865,12.423,54.508,12.816,53.135,12.816z"/>
		</g>
		<path fill="#721914" d="M47.775,8.056c0.402-0.467,1.447-1.903,3.521-1.234c0,0-0.18,0.27-1.756,0.641
			C47.963,7.834,47.775,8.056,47.775,8.056z"/>
		<path fill="#721914" d="M53.561,7.053c0,0,0.889-0.693,2.012-0.507s1.217,0.805,1.217,0.805S55.836,7.117,53.561,7.053z"/>
		<path fill="#FFFFFF" d="M49.535,13.821c0.193,0.029,1.141,0.704,3.02,0.713c1.877,0.009,2.893-0.482,2.893-0.482
			s-0.887,2.048-2.955,2.193C50.422,16.389,49.535,13.821,49.535,13.821z"/>
		<g>
			<path fill="#993322" d="M45.582,12.816c-0.004,0-0.006,0-0.01,0c-0.048-0.006-0.082-0.05-0.076-0.096
				c0.113-0.962-0.641-2.292-0.647-2.305c-0.023-0.041-0.009-0.094,0.032-0.118s0.094-0.01,0.117,0.032
				c0.033,0.057,0.79,1.393,0.67,2.41C45.664,12.784,45.625,12.816,45.582,12.816z"/>
		</g>
		<g>
			<path fill="#993322" d="M45.256,12.073c-0.161,0-0.342-0.041-0.412-0.209c-0.131-0.309,0.309-0.702,0.358-0.746
				c0.036-0.032,0.09-0.028,0.122,0.008c0.031,0.037,0.027,0.091-0.008,0.122c-0.104,0.09-0.383,0.385-0.313,0.549
				c0.064,0.154,0.394,0.102,0.504,0.07c0.046-0.013,0.094,0.014,0.105,0.06c0.014,0.046-0.013,0.094-0.059,0.106
				C45.543,12.037,45.408,12.073,45.256,12.073z"/>
		</g>
		<ellipse fill="#1E1725" cx="49.989" cy="9.144" rx="0.388" ry="0.881"/>
		<ellipse fill="#1E1725" cx="54.936" cy="8.97" rx="0.387" ry="1.055"/>
		<path fill="#7D463F" d="M45.039,35.763c-0.203,1.447-0.408,3.006-0.561,4.393l-0.132,0.16c-0.765-3.254-2.212-9.357-2.212-9.357
			c-0.691,0.982-2.756,3.029-2.756,3.029s-0.315-0.738-0.775-1.563c1.104-0.891,3.576-3.043,3.978-4.77
			C42.581,27.656,42.77,33.139,45.039,35.763z"/>
		<path fill="#661715" d="M47.775,20.139c1.021,0.955,2.021,3.248,1.377,4.973c-0.063-1.313-0.492-3.512-2.563-4.498
			c-3.057-1.453-4.386-5.941-2.71-8.628c0.128-0.207,0.249-0.415,0.36-0.626c0.03,0.626,0.221,1.299,0.574,1.794
			c0.098,0.132,0.205,0.249,0.322,0.354c-0.135,0.249-0.28,0.585-0.433,1.027C43.88,16.893,46.436,18.885,47.775,20.139z"/>
		<path fill="#661715" d="M58.244,2.635c-0.055,0.852-1.236,1.398-2.393,1.481c-0.072-0.211-0.113-0.337-0.113-0.337
			s-1.168,0.475-4.5-0.259c0,0-2.078,1.862-3.289,3.115c-0.7,0.721-1.183,1.877-1.467,2.726c-0.207,0.627-0.311,1.084-0.311,1.084
			s-0.148-1.205-1.08-0.945c0.766-1.901,1.336-3.732,2.941-5.01C50.289,2.701,53.582,1.135,58.244,2.635z"/>
		<path fill="#F58A7C" d="M60.645,94.488c2.416,4.746,4.74,10.16,5.918,12.672l-0.047,0.01c0,0-4.328-7.23-6.752-10.689
			c-2.424-3.463-4.848-7.791-5.238-10.994s0.564-7.488,0.564-7.488l-1.572-2.547c0.721-0.039,1.428-0.076,2.113-0.119l0.627,2.797
			C55.305,81.592,57.383,88.084,60.645,94.488z"/>
		<path fill="#7B1917" d="M67.336,107.572c-0.014-0.004-0.027-0.014-0.049-0.039C67.318,107.563,67.336,107.572,67.336,107.572z"/>
		<path fill="#F58A7C" d="M43.932,108.072h-0.356c-0.128-0.002-5.45-17.693-5.667-21.938c-0.219-4.238,2.336-7.527,2.336-7.527
			l-0.869-3.24c0.412,0.031,0.866,0.059,1.361,0.09c0.008,1.605-0.014,4.316-0.014,4.316s-1.603,1.992-0.738,9.002
			C40.75,94.963,43.333,105.65,43.932,108.072z"/>
		<path fill="#D24D27" d="M42.93,106.104c-0.406,1.28-0.607,2.278-0.607,2.278s2.337,0,3.461-0.217l-1.168-2.211L42.93,106.104z"/>
	</g>
	<g>
		<path fill="#EA6C25" d="M5.891,68.229L4.742,107.85c0,0-0.777-0.008-1.706-0.012c-1.248-0.01-2.77-0.012-3.015,0.012
			c-0.372,0.031,4.303-29.703,5.562-37.676C5.778,68.941,5.891,68.229,5.891,68.229z"/>
		<polygon fill="#EA6C25" points="19.287,107.85 13.815,107.85 12.798,105.555 12.999,101.473 17.758,101.473 		"/>
		<path opacity="0.4" fill="#855958" d="M5.583,70.174c0.195-1.232,0.309-1.945,0.309-1.945L4.742,107.85
			c0,0-0.777-0.008-1.706-0.012L5.583,70.174z"/>
		<polygon opacity="0.4" fill="#855958" points="15.875,107.85 13.815,107.85 12.798,105.555 12.999,101.473 15.065,101.473 		"/>
		<polygon fill="#F5A42A" points="30.041,107.77 21.571,107.77 21.571,101.473 12.999,101.473 12.687,107.85 4.742,107.85 
			5.891,68.229 23.976,68.229 		"/>
		<path fill="#EA6C25" d="M21.381,72.473c0,0.268-0.217,0.482-0.484,0.482H10.272c-0.268,0-0.483-0.215-0.483-0.482v-1.287
			c0-0.268,0.216-0.484,0.483-0.484h10.625c0.268,0,0.484,0.217,0.484,0.484V72.473z"/>
		<polygon fill="#F8983A" points="30.041,107.77 22.958,107.77 23.481,68.229 23.976,68.229 		"/>
		<polygon fill="#94D6E8" points="7.213,91.871 25.405,91.871 15.584,78.35 		"/>
		<g>
			<path fill="#3C69B1" d="M23.508,90.947c-0.001,0-0.003,0-0.005,0H8.997c-0.043,0-0.084-0.023-0.105-0.063
				s-0.02-0.084,0.003-0.123l6.676-10.783c0.021-0.033,0.058-0.055,0.099-0.057c0.041,0.002,0.078,0.018,0.102,0.049l7.814,10.764
				c0.027,0.02,0.045,0.055,0.045,0.092C23.629,90.895,23.575,90.947,23.508,90.947z M9.213,90.705h14.053L15.68,80.26L9.213,90.705
				z"/>
		</g>
		<g>
			<path fill="#FFC515" d="M28.906,106.586c0.003,0.035-0.006,0.068-0.026,0.098c-0.025,0.023-0.059,0.039-0.093,0.039h-6.36
				c-0.066,0-0.121-0.053-0.121-0.119v-5.998H11.68v6.08c0,0.064-0.054,0.119-0.121,0.119H5.891c-0.033,0-0.064-0.014-0.087-0.037
				c-0.024-0.021-0.036-0.055-0.034-0.086l1.295-38.453h0.242l-1.291,38.336h5.422v-6.078c0-0.068,0.057-0.121,0.121-0.121h10.867
				c0.067,0,0.121,0.053,0.121,0.121v5.996h6.1l-5.703-38.254h0.24L28.906,106.586z"/>
		</g>
		<ellipse fill="#FFC515" cx="8.249" cy="71.83" rx="0.453" ry="0.885"/>
		<ellipse fill="#FFC515" cx="22.467" cy="71.83" rx="0.453" ry="0.885"/>
		<polygon fill="#436EB4" points="15.584,88.49 14.336,83.662 17.677,83.662 16.309,88.49 		"/>
		<circle fill="#436EB4" cx="16.006" cy="89.619" r="0.604"/>
	</g>
</g>
</svg>
