<?xml version="1.0" encoding="utf-8"?>
<!-- Generator: Adobe Illustrator 16.0.0, SVG Export Plug-In . SVG Version: 6.00 Build 0)  -->
<!DOCTYPE svg PUBLIC "-//W3C//DTD SVG 1.1//EN" "http://www.w3.org/Graphics/SVG/1.1/DTD/svg11.dtd">
<svg version="1.1" xmlns="http://www.w3.org/2000/svg" xmlns:xlink="http://www.w3.org/1999/xlink" x="0px" y="0px"
	 width="390.28px" height="437.55px" viewBox="0 0 390.28 437.55" enable-background="new 0 0 390.28 437.55" xml:space="preserve">
<g id="BACKGROUND">
</g>
<g id="OBJECTS">
	<g>
		<path fill="#680957" d="M199.419,227.965c0,0,24.625-24.677,48.681-24.4c24.057,0.277,20.387,7.853,24.684,11.662
			c4.297,3.811,12.893-1.631,17.699,1.229c4.805,2.861-0.895,12.871,4.787,14.162c5.68,1.289,21.514-10.963,24.59-4.561
			c3.078,6.4-0.008,8.574,6.033,7.682c6.041-0.895,20.014-12.002,24.4-3.67c4.387,8.334-22.66,22.166-28.498,25.291
			c-5.838,3.127,0.791,8.531-3.963,10.957c-4.756,2.426-21.824-0.48-21.998,2.174c-0.176,2.654-3.291,13.004-11.879,9.871
			s-16.805-11.176-19.344-7.107c-2.541,4.066-10.686,1.709-17.079-3.789c-6.395-5.496-20.605-5.996-30.476-17.873
			C207.188,237.715,199.419,227.965,199.419,227.965z"/>
		<g>
			<path fill="#A83B90" d="M257.351,238.461l35.236-15.352c0.033-0.98,0.045-1.957-0.053-2.865l-38.746,16.883l16.115,33.906
				c1.189,0.543,2.512,1.283,3.932,2.107L257.351,238.461z"/>
			<path fill="#A83B90" d="M236.901,262.225c-6.643-9.826-14.74-28.473-16.66-32.979c2.02-1.316,7.641-4.746,17.613-9.203
				c6.718-3.002,18.104-9.362,26.221-14.235c-0.979-0.391-2.119-0.744-3.459-1.05c-7.277,4.339-16.762,9.705-23.842,12.869
				c-13.086,5.848-18.719,9.889-18.953,10.059l-0.846,0.613l0.402,0.967c0.43,1.033,8.102,19.389,15.35,31.289
				C234.149,261.158,235.548,261.705,236.901,262.225z"/>
			<path fill="#A83B90" d="M239.561,234.984l39.977-18.51c-1.99,0.245-3.879,0.283-5.432-0.402l-38.09,17.637l0.582,1.209
				c0.016,0.035,1.669,3.475,3.548,7.633c1.254,2.771,9.946,18.863,15.987,29.99c1.199,0.404,2.35,0.654,3.41,0.732
				c-6.006-11.057-15.702-28.977-16.985-31.813C241.338,238.758,240.211,236.357,239.561,234.984z"/>
			<path fill="#A83B90" d="M299.237,246.184l22.16-15.379c-0.143-0.762-0.342-1.67-0.707-2.732l-24.637,17.098l8.029,22.129
				c0.922,0.016,1.875,0.037,2.834,0.051L299.237,246.184z"/>
			<path fill="#A83B90" d="M322.124,255.186c0.631-0.336,1.447-0.768,2.406-1.281l-7.48-8.361l28.533-18.531
				c-2.186-0.154-4.758,0.586-7.371,1.633l-25.193,16.361L322.124,255.186z"/>
			<path fill="#A83B90" d="M313.521,224.646c-5.574,1.473-13.162,6.051-17.297,6.059l-21.943,11.471l15.357,36.24
				c0.842-0.357,1.59-0.871,2.244-1.49l-14.213-33.535L313.521,224.646z"/>
		</g>
		<path fill="#1A074F" d="M297.46,104.956c0,0,10.561-15.467,19.531-19.074s28.789-2.095,35.287-5.398
			c0,0-2.727,13.955-12.236,18.806S297.46,104.956,297.46,104.956z"/>
		<path fill="#1A074F" d="M283.915,105.3c0,0,0.764-12.991-2.885-21.799c-3.648-8.808-18.551-21.791-23.936-25.731
			c-5.385-3.94-6.168-5.509-6.168-5.509s3.08,21.865,10.822,34.187C269.491,98.769,283.915,105.3,283.915,105.3z"/>
		<path fill="#FF3416" d="M354.245,121.425c0,0,10.355-11.309,17.322-8.487s6.936,5.147,13.299,5.758
			c6.365,0.611,6.121,9.279,1.725,16.734c-4.398,7.455-5.557,15.086-18.121,17.083c-12.563,1.998-31.668-2.96-31.668-2.96
			s2.684-8.448,3.592-9.196S354.245,121.425,354.245,121.425z"/>
		<path fill="#FC7E09" d="M362.884,116.782c2.99-8.131-1.254-16.049-4.266-20.275c-1.211-1.697-3.68-1.832-5.084-0.291
			c-4.477,4.917-14.133,14.879-22.699,19.383c-11.611,6.106-14.205,12.546-14.205,12.546l-4.133,31.161
			c0,0,1.121,1.461,16.279-5.279C343.935,147.288,358.493,128.724,362.884,116.782z"/>
		<path fill="#FF4603" d="M326.009,152.208c0,0,11.27-8.82,19.789-21.835c8.518-13.015,13.861-20.916,11.521-18.564
			s-28.297,35.937-30.766,37.752s-5.963,2.706-7.912,3.304s12.971-16.375,19.34-23.592s11.914-18.635,11.203-18.102
			s-11.23,14.004-14.461,18.133s-16.811,19.399-17.281,17.153c-0.469-2.246,5.729-9.897,11.996-17.158s13.002-15.04,11.332-13.96
			s-19.859,21.444-21.924,23.435c-2.063,1.991-4.148,1.809-2.66-0.792c1.486-2.601,14.588-17.597,13.441-16.892
			c-1.146,0.705-13.875,12.619-15.467,16.016c-1.59,3.397-2.527,14.167-2.527,14.167l1.91,4.192L326.009,152.208z"/>
		<path fill="#FC7E09" d="M389.817,161.235c-4.252-4.525-13.832-13.87-22.924-16.786c-12.156-3.898-30.676-0.103-42.432,6.585
			c-11.756,6.688-8.166,11.204-8.166,11.204s17.869,10.967,29.197,11.371c9.824,0.351,34-7.732,43.406-9.538
			C390.218,163.818,390.737,162.214,389.817,161.235z"/>
		<path fill="#FF4603" d="M324.907,152.281c0,0,13.793-3.813,29.322-2.921c15.529,0.893,25.059,1.296,21.777,1.778
			c-3.283,0.483-45.721,1.375-48.646,2.279c-2.928,0.905-5.723,3.184-7.363,4.396c-1.639,1.211,20.879-0.688,30.469-1.516
			s22.066,1.506,21.215,1.761s-17.938,0.699-23.178,0.84s-25.594,1.977-24.068,3.69c1.527,1.713,11.365,1.283,20.93,0.562
			s19.822-1.506,17.961-0.807c-1.859,0.7-29.051,3.211-31.877,3.686c-2.828,0.475-3.922,2.258-0.947,2.61s22.824-1.262,21.574-0.76
			c-1.248,0.502-18.396,3.649-22.074,2.908c-3.676-0.742-12.893-6.393-12.893-6.393l-2.232-4.029L324.907,152.281z"/>
		<path fill="#7C48D3" d="M89.142,324.145c0,0,6.802-11.084,14.644-15.199s8.378-2.074,13.045,0.074
			c4.666,2.148,9.906-2.516,18.084-1.576c8.179,0.938,5.712,2.717,12.987,6.072c7.275,3.355,17.082,5.326,16.999,9.797
			c-0.083,4.473-7.822,4.756-8.49,8.109c-0.668,3.355-6.342,4.359-13.948,1.463c-7.605-2.895-12.948-2.35-15.802,1.033
			c-2.854,3.385-13.008,4.295-20.924,0.971C97.822,331.563,89.142,324.145,89.142,324.145z"/>
		<path fill="#163B1C" d="M68.305,338.26c5.014-6.586,12.93-11.645,23.527-15.033c8.375-2.676,18.446-4.426,29.946-4.908
			c22.617-0.947,36.247,4.156,36.417,4.18l0,0c-0.168-0.023-17.076-2.471-36.325-1.496c-17.583,0.891-40.778,4.889-51.43,18.885
			L68.305,338.26z"/>
		<g>
			<path fill="#48C39C" d="M44.969,213.43c-0.632-0.565-20.166-45.288,7.219-93.677c0,0-1.251,14.374,6.848,34.843
				c8.1,20.469,8.76,32.453,9.446,47.081c0.686,14.628,2.156,33.528,0.328,33.694C66.983,235.537,44.969,213.43,44.969,213.43z"/>
			<path fill="#35A87E" d="M49.369,131.946c0.131,4.741,0.217,9.476,0.412,14.209c0.154,4.733,0.336,9.463,0.573,14.187
				c0.267,4.722,0.492,9.445,0.917,14.147c0.4,4.702,0.864,9.397,1.626,14.03c0.753,4.647,1.719,9.273,2.716,13.893
				c0.971,4.626,2.085,9.225,3.15,13.836l3.338,13.807l3.381,13.809c-3.012-8.992-5.762-18.072-8.22-27.236
				c-2.466-9.16-4.708-18.389-6.322-27.786c-1.451-9.454-1.937-18.957-2.127-28.446C48.624,150.904,48.822,141.414,49.369,131.946z"
				/>
			<path fill="#35A87E" d="M64.301,217.414c-0.419-1.059-10.012-18.08-33.107-33.637S2.358,157.839,2.358,157.839
				s-3.313,9.679,9.359,32.421c12.673,22.742,55.159,64.436,62.106,77.436C80.771,280.697,64.301,217.414,64.301,217.414z"/>
			<path fill="#48C39C" d="M6.964,169.104c2.763,4.061,5.559,8.091,8.489,12.021c2.899,3.951,5.884,7.836,8.957,11.641
				c3.093,3.788,6.249,7.524,9.619,11.046c3.383,3.574,6.647,7.271,9.844,11.009c3.179,3.755,6.268,7.581,9.318,11.438
				c3.022,3.877,6.009,7.781,8.904,11.754c5.774,7.949,11.399,16.045,16.179,24.639c-2.729-4.084-5.556-8.088-8.514-12.002
				c-2.921-3.936-5.902-7.828-8.902-11.703c-3.033-3.852-6.038-7.723-9.137-11.518c-3.083-3.807-6.173-7.609-9.361-11.325
				c-3.155-3.747-6.383-7.413-9.701-11.013c-3.338-3.645-6.492-7.441-9.462-11.371C17.227,185.885,11.813,177.648,6.964,169.104z"/>
			<path fill="#3EBA90" d="M84.201,305.871c0,0,4.891-16.727,0.979-45.492c-9.297-68.365,0.326-87.889,3.911-94.818
				c0,0-35.711,12.907-29.805,54.654c5.907,41.746,27.095,64.127,19.226,92.574L84.201,305.871z"/>
			<path fill="#35A87E" d="M78.284,183.4c-0.574,2.678-1.01,5.379-1.435,8.078c-0.382,2.707-0.721,5.418-0.965,8.139
				c-0.524,5.432-0.836,10.883-0.825,16.332c-0.037,1.361,0.034,2.723,0.058,4.082c0.033,1.361,0.04,2.723,0.142,4.08l0.237,4.072
				l0.407,4.059c0.074,0.674,0.122,1.354,0.216,2.025l0.285,2.018c0.202,1.344,0.354,2.693,0.595,4.029
				c0.522,2.67,1.004,5.318,1.586,8.02c2.218,10.762,3.755,21.68,4.315,32.66c0.292,5.486,0.334,10.99,0.061,16.479
				c-0.336,5.477-0.838,10.977-2.181,16.299c0.9-5.404,1.202-10.871,1.208-16.328c0.041-5.457-0.211-10.912-0.634-16.35
				c-0.459-5.434-1.013-10.861-1.85-16.252c-0.802-5.393-1.71-10.773-2.861-16.105c-0.557-2.654-1.043-5.395-1.555-8.102
				c-0.238-1.357-0.385-2.73-0.582-4.096l-0.277-2.051c-0.095-0.682-0.125-1.373-0.191-2.059l-0.342-4.119l-0.17-4.129
				c-0.077-1.375-0.07-2.754-0.067-4.129c0.014-1.377-0.018-2.754,0.057-4.128c0.123-5.503,0.648-10.985,1.407-16.425
				C75.745,194.072,76.74,188.662,78.284,183.4z"/>
		</g>
		<path d="M314.14,291.926c0,0-35.67,18.209-74.163,11.453l-0.926,2.139C239.051,305.518,281.194,311.693,314.14,291.926z"/>
		<path fill="#F1DF1B" d="M153.013,280.207c3.654,0.77,7.604,2.025,14.865-1.461c7.261-3.484,11.073-8.463,10.333-11.707
			c-0.74-3.246,2.871-7.531,4.424-11.344c1.553-3.813-0.084-9.883-4.47-10.025c-4.385-0.145-8.377,8.85-10.309,10.158
			c-1.931,1.309-6.005,0.813-10.313,6.258C153.236,267.533,149.932,279.559,153.013,280.207z"/>
		<path d="M301.712,71.189l-1.832,0.97c-2.469,23.936-27.859,83.128-70.527,117.295c-34.854,27.91-134.354,68.165-160.04,138.634
			c-22.564,61.906,18.142,100.43,28.37,108.879c1.176,0.971,2.935,0.697,3.763-0.584c0.655-1.012,0.509-2.344-0.347-3.193
			c-8.225-8.162-46.931-50.459-24.866-103.859c27.522-66.605,100.353-92.975,154.476-134.902
			C292.769,146.353,301.712,71.189,301.712,71.189z"/>
		<path d="M88.154,301.893c0,0,15.795-20.945,58.497-18.25s78.241,17.205,78.241,17.205s-54.078-15.211-78.377-15.314
			c-43.886-0.186-59.818,19.725-59.818,19.725L88.154,301.893z"/>
		<path d="M115.67,274.816c0,0,21.126-49.252,18.355-96.66c-2.771-47.409,3.575-124.209,9.679-135.605
			c0,0-18.652,50.419-13.264,136.684c2.355,37.716-21.362,96.62-21.362,96.62L115.67,274.816z"/>
		<path d="M166.263,237.357l4.537-4.488c-0.271-2.352,6.397-4.186,15.59-6.109c8.431-1.764,20.974-1.803,38.06,1.691
			c7.932,1.621,15.974,3.785,24.492,6.074c26.383,7.096,52.084,14.768,80.174,8.424l0,0c-11.848,3.949-25.123,4.939-40.586,3.027
			c-13.59-1.68-27.16-5.33-40.286-8.859c-8.477-2.279-16.482-4.432-24.332-6.037c-16.576-3.391-29.782-2.082-37.942-0.389
			C177.125,232.525,166.313,237.33,166.263,237.357z"/>
		<path d="M91.185,428.137c-0.019-0.027-0.051-0.072-0.094-0.131c-3.107-4.301-5.306-9.65-6.191-15.066
			c-1.768-10.822,1.419-21.619,9.472-32.09c8.547-11.113,21.648-18.754,38.937-22.713c13.323-3.049,26.243-3.229,34.735-2.842
			c13.763,0.625,24.296-5.088,24.401-5.145l0,0c-0.453,0.25-9.971,8.486-24.523,7.824c-15.272-0.693-52.804,0.303-71.423,24.512
			c-16.74,21.766-6.707,39.141-3.233,43.947c0.083,0.115,0.14,0.195,0.167,0.236L91.185,428.137z"/>
		<path d="M219.964,200.859l-0.707-2.588c0.391-0.107,39.453-10.865,75.807-28.268l1.158,2.421
			C259.644,189.934,220.356,200.752,219.964,200.859z"/>
		<path d="M248.168,171.723c0.018-0.086,2.37-11.278-0.338-27.514c-2.502-15.002-9.342-39.688-27.73-72.092
			c-11.217-19.766-7.307-44.972-7.248-46.042l0,0c-0.014,0.254-1.24,25.648,9.582,44.717c18.646,32.859,25.56,57.938,28.08,73.19
			c2.748,16.649,1.057,25.406,0.982,25.771L248.168,171.723z"/>
		<path d="M74.746,406.365c-0.163-0.318-18.76-30.176-36.629-63.553l0,0c22.354,29.955,38.854,62.01,39.018,62.33L74.746,406.365z"
			/>
		<path d="M68.416,340.92c0.006-0.088,0.581-9.064-1.354-21.119c-1.778-11.076-4.483-25.879-14.483-42.199l0,0
			c10.865,13.918,15.32,30.438,17.145,41.846c1.973,12.342,1.396,21.281,1.37,21.654L68.416,340.92z"/>
		<path d="M100.011,250.191c0,0-3.028,30.859-8.337,43.572l6.16-7.471C97.833,286.293,103.452,266.109,100.011,250.191z"/>
		<path fill="#7691E7" d="M127.082,229.547c0,0,4.043-38.609-24.588-65.921c0,0,0.793,11.199,7.824,29.872
			C117.349,212.172,127.082,229.547,127.082,229.547z"/>
		<path fill="#48B899" d="M131.965,209.727c0,0,21.971-21.939,29.02-39.573c7.049-17.632,5.53-40.225,5.53-40.225
			s-5.27,9.709-9.277,21.427S131.965,209.727,131.965,209.727z"/>
		<path fill="#89D4D6" d="M132.766,188.725c0,0-9.106-37.284-19.183-50.712C103.507,124.583,96.512,119.8,96.512,119.8
			s4.377,15.641,12.945,33.974C118.026,172.106,132.766,188.725,132.766,188.725z"/>
		<path fill="#7691E7" d="M132.425,181.85c0,0,14.937-30.675,20.688-47.779c5.75-17.105,3.587-29.155,3.587-29.155
			s-10.074,21.082-14.929,34.48S132.425,181.85,132.425,181.85z"/>
		<path fill="#76DBE4" d="M131.135,143.856c0,0-8.628-30.057-15.174-41.957s-12.023-17.489-12.023-17.489s0.661,11.984,5.84,26.364
			C114.958,125.154,131.135,143.856,131.135,143.856z"/>
		<path fill="#48B899" d="M131.704,137.815c0,0,19.076-23.472,24.07-60.499C155.774,77.316,135.891,105.453,131.704,137.815z"/>
		<path fill="#7691E7" d="M132.353,111.239c0,0,1.986-35.21-14.966-50.543c0,0,1.812,18.332,5.634,29.541
			C126.844,101.445,132.353,111.239,132.353,111.239z"/>
		<path fill="#89D4D6" d="M134.536,98.392c0,0,21.247-25.955,24.542-49.917C159.079,48.475,140.712,65.858,134.536,98.392z"/>
		<path fill="#76DBE4" d="M137.15,71.659c0,0-2.535-22.514,2.301-34.02c4.835-11.506,14.589-18.835,14.589-18.835
			s-3.815,21.306-7.001,30.017C143.852,57.531,137.15,71.659,137.15,71.659z"/>
		<g>
			<path fill="#89D4D6" d="M247.682,149.411c0,0-4.229-11.442-14.468-12.561c-10.238-1.119-14.838-2.203-15.264,0.132
				c-0.428,2.335,4.57,7.229,9.52,9.761C232.417,149.274,247.682,149.411,247.682,149.411z"/>
			<path d="M250.093,151.005c0,0-8.231-7.56-14.637-9.651c-6.406-2.091-12.201-2.441-12.201-2.441s9.943,1.125,17.685,6.434
				C248.684,150.655,250.093,151.005,250.093,151.005z"/>
		</g>
		<g>
			<path fill="#89D4D6" d="M252.733,148.466c0,0-0.82-12.172,8.066-17.379s12.643-8.078,13.986-6.121s-1.217,8.466-4.697,12.8
				S252.733,148.466,252.733,148.466z"/>
			<path d="M251.187,150.906c0,0,4.42-10.265,9.41-14.792c4.99-4.528,10.137-7.216,10.137-7.216s-8.613,5.092-13.51,13.103
				S251.187,150.906,251.187,150.906z"/>
		</g>
		<g>
			<path fill="#89D4D6" d="M249.506,134.299c0,0-0.818-12.172,8.069-17.379c8.887-5.208,12.641-8.078,13.984-6.121
				s-1.217,8.466-4.695,12.8C263.384,127.932,249.506,134.299,249.506,134.299z"/>
			<path d="M247.961,136.739c0,0,4.418-10.265,9.411-14.792c4.99-4.528,10.137-7.216,10.137-7.216s-8.613,5.092-13.51,13.103
				C249.102,135.844,247.961,136.739,247.961,136.739z"/>
		</g>
		<g>
			<path fill="#89D4D6" d="M244.997,118.542c0,0-2.225-11.995,6-18.197c8.223-6.202,11.619-9.488,13.182-7.7
				c1.561,1.788-0.229,8.55-3.182,13.258C258.042,110.61,244.997,118.542,244.997,118.542z"/>
			<path d="M243.745,121.145c0,0,3.199-10.708,7.631-15.783c4.434-5.076,9.232-8.342,9.232-8.342s-7.965,6.056-11.901,14.58
				C244.774,120.124,243.745,121.145,243.745,121.145z"/>
		</g>
		<g>
			<path fill="#89D4D6" d="M240.01,104.993c0,0-3.244-11.76,4.418-18.645c7.661-6.884,10.764-10.449,12.473-8.802
				c1.709,1.647,0.506,8.538-2.033,13.481C252.327,95.972,240.01,104.993,240.01,104.993z"/>
			<path d="M238.985,107.694c0,0,2.27-10.942,6.252-16.379c3.98-5.437,8.483-9.103,8.483-9.103s-7.418,6.717-10.608,15.547
				S238.985,107.694,238.985,107.694z"/>
		</g>
		<g>
			<path fill="#89D4D6" d="M234.11,88.68c0,0-4.711-11.253,2.014-19.055c6.726-7.801,9.351-11.731,11.255-10.314
				c1.902,1.417,1.586,8.404-0.307,13.631C245.182,78.168,234.11,88.68,234.11,88.68z"/>
			<path d="M233.126,93.373c0,0,1.172-13.026,4.432-18.924c3.257-5.898,7.257-10.106,7.257-10.106s-6.504,7.604-8.546,16.768
				C234.226,90.273,233.126,93.373,233.126,93.373z"/>
		</g>
		<g>
			<path fill="#89D4D6" d="M225.397,71.65c0,0-4.711-11.253,2.016-19.055c6.725-7.801,9.35-11.731,11.253-10.314
				c1.904,1.417,1.586,8.405-0.305,13.631C236.47,61.138,225.397,71.65,225.397,71.65z"/>
			<path d="M224.415,76.343c0,0,1.172-13.026,4.43-18.925c3.26-5.898,7.26-10.106,7.26-10.106s-6.504,7.604-8.547,16.767
				S224.415,76.343,224.415,76.343z"/>
		</g>
		<g>
			<path fill="#89D4D6" d="M218.007,55.336c0,0-2.762-11.883,5.174-18.449s11.18-10.001,12.82-8.286
				c1.641,1.716,0.158,8.551-2.58,13.388C230.681,46.825,218.007,55.336,218.007,55.336z"/>
			<path d="M216.251,59.799c0,0,3.336-12.647,7.535-17.917s8.848-8.75,8.848-8.75s-7.686,6.409-11.232,15.102
				C217.854,56.926,216.251,59.799,216.251,59.799z"/>
		</g>
		<g>
			<path fill="#89D4D6" d="M215.188,41.804c0,0-2.762-11.883,5.174-18.449c7.936-6.566,11.182-10.002,12.822-8.286
				c1.639,1.715,0.158,8.551-2.582,13.388C227.864,33.293,215.188,41.804,215.188,41.804z"/>
			<path d="M213.435,46.267c0,0,3.334-12.647,7.533-17.917c4.201-5.27,8.848-8.75,8.848-8.75s-7.686,6.409-11.232,15.101
				C215.036,43.395,213.435,46.267,213.435,46.267z"/>
		</g>
		<g>
			<path fill="#89D4D6" d="M212.708,31.84c0,0-7.324-9.756-2.715-18.968c4.609-9.211,6.191-13.665,8.385-12.757
				c2.193,0.907,3.598,7.76,3.043,13.29C220.868,18.936,212.708,31.84,212.708,31.84z"/>
			<path d="M212.905,36.631c0,0-2.055-12.917-0.342-19.434c1.715-6.517,4.563-11.577,4.563-11.577s-4.443,8.966-4.18,18.351
				C213.212,33.356,212.905,36.631,212.905,36.631z"/>
		</g>
		<g>
			<path fill="#89D4D6" d="M244.674,134.07c0,0-4.23-11.442-14.468-12.561c-10.24-1.119-14.84-2.203-15.266,0.132
				s4.572,7.229,9.52,9.761C229.407,133.934,244.674,134.07,244.674,134.07z"/>
			<path d="M247.083,135.665c0,0-8.23-7.56-14.636-9.651c-6.406-2.091-12.201-2.44-12.201-2.44s9.943,1.125,17.687,6.433
				C245.676,135.314,247.083,135.665,247.083,135.665z"/>
		</g>
		<g>
			<path fill="#89D4D6" d="M241.465,119.588c0,0-4.23-11.443-14.468-12.562c-10.24-1.119-14.84-2.202-15.266,0.132
				c-0.426,2.335,4.572,7.229,9.52,9.761S241.465,119.588,241.465,119.588z"/>
			<path d="M243.874,121.182c0,0-8.228-7.56-14.634-9.651c-6.406-2.091-12.201-2.44-12.201-2.44s9.941,1.125,17.686,6.434
				C242.467,120.833,243.874,121.182,243.874,121.182z"/>
		</g>
		<g>
			<path fill="#89D4D6" d="M235.778,107c0,0-3.166-11.781-13.26-13.83c-10.096-2.049-14.576-3.549-15.215-1.263
				c-0.637,2.287,3.893,7.616,8.588,10.589C220.589,105.47,235.778,107,235.778,107z"/>
			<path d="M238.032,108.808c0,0-7.505-8.281-13.693-10.948c-6.189-2.667-11.928-3.544-11.928-3.544s9.799,2.028,17.025,8.022
				S238.032,108.808,238.032,108.808z"/>
		</g>
		<g>
			<path fill="#89D4D6" d="M228.565,90.565c0,0-3.168-11.781-13.262-13.831s-14.576-3.549-15.215-1.262
				c-0.637,2.286,3.893,7.616,8.59,10.589C213.374,89.035,228.565,90.565,228.565,90.565z"/>
			<path d="M230.817,92.373c0,0-7.506-8.28-13.693-10.948s-11.928-3.545-11.928-3.545s9.799,2.028,17.025,8.022
				S230.817,92.373,230.817,92.373z"/>
		</g>
		<g>
			<path fill="#89D4D6" d="M220.071,73.168c0,0-4.525-11.329-14.791-12.18c-10.265-0.851-14.892-1.814-15.256,0.531
				c-0.365,2.345,4.759,7.107,9.77,9.509C204.808,73.43,220.071,73.168,220.071,73.168z"/>
			<path d="M222.522,74.699c0,0-8.426-7.343-14.883-9.266c-6.459-1.924-12.262-2.122-12.262-2.122s9.969,0.865,17.848,5.97
				C221.106,74.386,222.522,74.699,222.522,74.699z"/>
		</g>
		<g>
			<path fill="#89D4D6" d="M213.567,57.637c0,0-2.342-11.973-12.27-14.717c-9.928-2.745-14.294-4.551-15.089-2.315
				c-0.794,2.236,3.354,7.868,7.833,11.16C198.521,55.057,213.567,57.637,213.567,57.637z"/>
			<path d="M215.69,59.597c0,0-6.914-8.781-12.902-11.872c-5.988-3.09-11.652-4.364-11.652-4.364s9.634,2.704,16.427,9.184
				S215.69,59.597,215.69,59.597z"/>
		</g>
		<g>
			<path fill="#89D4D6" d="M211.487,44.625c0,0,1.111-12.148-7.646-17.569c-8.758-5.421-12.442-8.381-13.833-6.457
				c-1.391,1.923,1.012,8.493,4.386,12.91C197.768,37.925,211.487,44.625,211.487,44.625z"/>
			<path d="M212.974,47.102c0,0-4.17-10.368-9.051-15.015c-4.879-4.647-9.959-7.458-9.959-7.458s8.488,5.298,13.189,13.425
				C211.854,46.18,212.974,47.102,212.974,47.102z"/>
		</g>
		<path fill="#A6194D" d="M56.35,282.912c0,0-5.656-23.176-14.159-27.855c-8.503-4.678-9.157,5.275-6.619,9.885
			C38.109,269.549,56.35,282.912,56.35,282.912z"/>
		<path fill="#A6194D" d="M58.506,286.461c0,0-7.152-24.873-1.351-26.115c5.802-1.24,8.881,8.574,6.483,14.262
			S58.506,286.461,58.506,286.461z"/>
		<path fill="#A6194D" d="M64.455,300.744c0,0,0.151-28.381,6.401-28.799c6.25-0.416,6.451,10.824,2.328,16.66
			C69.06,294.441,64.455,300.744,64.455,300.744z"/>
		<path fill="#A6194D" d="M67.884,311.908c0,0,5.353-27.873,11.573-27.137s4.357,11.824-0.767,16.805S67.884,311.908,67.884,311.908
			z"/>
		<path fill="#A6194D" d="M57.994,287.711c0,0-17.183-14.945-23.192-14.914c-6.008,0.031-5.172,7.217,2.021,10.867
			C44.017,287.314,57.994,287.711,57.994,287.711z"/>
		<path fill="#A6194D" d="M62.708,299.768c0,0-21.855-13.521-28.555-12.953s-4.479,7.736,4.203,10.771
			C47.038,300.619,62.708,299.768,62.708,299.768z"/>
		<path fill="#A6194D" d="M65.708,312.604c0,0-21.854-13.521-28.555-12.953c-6.701,0.568-4.479,7.734,4.203,10.77
			C50.038,313.455,65.708,312.604,65.708,312.604z"/>
		<path fill="#283D46" d="M43.092,349.643c0,0-1.243-16.199-14.891-24.658s-17.98-9.262-17.98-9.262s7.113,20.131,14.593,26.006
			C32.293,347.604,43.092,349.643,43.092,349.643z"/>
		<path fill="#283D46" d="M48.421,357.313c0,0-7.67-16.186-6.557-25.063c1.114-8.877,8.438-19.938,8.602-19.867
			c0.164,0.072,6.068,17.057,4.053,28.467S48.421,357.313,48.421,357.313z"/>
		<path fill="#283D46" d="M48.583,361.871c0,0-14.903-14.064-28.978-17.035S0,344.734,0,344.734s9.716,9.082,22.15,13.686
			S48.583,361.871,48.583,361.871z"/>
		<path fill="#283D46" d="M56.705,376.105c0,0-14.47-9.586-22.905-9.918c-8.435-0.332-19.481,7.168-19.481,7.168
			s18.604,9.031,25.378,9.039C46.472,382.402,56.705,376.105,56.705,376.105z"/>
		<path fill="#283D46" d="M56.004,368.848c0,0-1.99-7.025,2.321-15.854c4.311-8.826,24.32-19.465,24.32-19.465
			s-2.298,18.074-9.623,25.828C65.697,367.111,56.004,368.848,56.004,368.848z"/>
		<path d="M88.064,371.359c0,0-0.336,20.23-1.593,26.51c0,0,0.798-2.969,1.315-3.037S90.342,377.807,88.064,371.359z"/>
		<path d="M108.354,390.848c0,0-18.083,9.072-23.198,12.928c0,0,1.475-2.535,1.313-3.031
			C86.307,400.248,101.558,391.588,108.354,390.848z"/>
		<path d="M134.614,375.393c0,0-19.359-5.877-25.722-6.605c0,0,2.815-0.822,3.039-1.293S129.177,371.248,134.614,375.393z"/>
		<path d="M167.967,370.51c0,0-17.333-10.436-23.325-12.697c0,0,2.931-0.109,3.263-0.512S163.708,365.16,167.967,370.51z"/>
		<path d="M111.689,353.699c0,0-8.405,18.402-12.071,23.654c0,0,1.92-2.4,2.421-2.256
			C102.541,375.242,111.197,360.518,111.689,353.699z"/>
		<path d="M143.141,342.621c0,0-13.185,15.346-18.165,19.373c0,0,2.511-1.773,2.953-1.496S140.775,349.035,143.141,342.621z"/>
		<path d="M170.434,343.906c0,0-12.235,10.307-21.965,13.443c0,0,4.057-0.689,4.43-0.324
			C153.271,357.389,166.77,349.678,170.434,343.906z"/>
		<path fill="#A83B90" d="M168.97,218.584c0,0,12.708,0.384,19.08-12.65c6.372-13.034,1.761-12.982,7.802-22.65
			c6.042-9.668,6.436-15.931,4.29-24.172c-2.146-8.241-2.266-14.044-0.275-18.641c1.99-4.598-2.273-14.34-8.874-20.708
			c-6.602-6.368-5.569-19.561-4.534-27.354c1.035-7.794-12.471-19.492-15.637-9.31c-3.166,10.182-0.841,25.444-3.994,31.867
			c-3.153,6.422-4.322,17.772-0.433,28.443s0.484,16.509-1.722,22.28c-2.206,5.771-4.044,7.315-2.023,13.455
			c2.021,6.14,1.564,15.3-0.848,19.521C159.39,202.884,160.862,214.416,168.97,218.584z"/>
		<path d="M160.729,237.934l-2.088-1.215c0.239-0.41,23.89-41.395,25.218-69.568c0.581-12.319-1.502-21.301-3.706-30.811
			c-2.922-12.605-5.944-25.64-3.201-47.677l0,0c-1.076,16.866,2.679,34.732,5.554,47.132c2.243,9.677,4.362,18.817,3.766,31.469
			c-0.57,12.096-5.045,27.671-13.302,46.294C166.839,227.387,160.79,237.83,160.729,237.934z"/>
		<path fill="#0E587A" d="M290.841,173.522c0,0,2.352,2.675,13.771,0.616c10.164-1.833,20.826-1.04,27.787,3.145
			c6.963,4.184,19.83-6.623,19.83-6.623s-6.195-1.902-12.309-6.694c-6.115-4.792-15.986-3.607-15.986-3.607
			s10.896-1.302,11.941-12.268c0,0-11.707-4.487-16.75,1.758c0,0,4.334-8.66,1.926-14.355s-2.904-10.402-1.391-13.448
			c0,0-7.377-1.877-10.184,8.437c-2.809,10.313-2.434,22.197-7.613,28.912S288.673,169.841,290.841,173.522z"/>
		<path d="M140.527,284.502c0,0,20.016-6.152,36.967-31.568c0,0-9.275,20.07-33.621,31.943L140.527,284.502z"/>
		<path fill="#F1DF1B" d="M201.743,290.402c3.172,1.971,6.457,4.5,14.471,3.701c8.016-0.799,13.297-4.176,13.709-7.479
			s5.27-6.1,8.029-9.152c2.762-3.053,3.293-9.318-0.779-10.951c-4.072-1.631-10.895,5.461-13.156,6.033
			c-2.262,0.57-5.922-1.287-11.83,2.363C206.278,278.566,199.069,288.742,201.743,290.402z"/>
		<path fill="#F1DF1B" d="M216.833,299.289c1.037,3.588,1.785,7.664,8.273,12.436s12.676,5.799,15.191,3.621
			c2.518-2.178,7.996-1.004,12.092-1.424c4.094-0.422,8.684-4.719,6.75-8.658c-1.934-3.938-11.749-3.234-13.811-4.326
			c-2.063-1.09-3.539-4.92-10.371-6.162C228.126,293.531,215.96,296.266,216.833,299.289z"/>
		<path d="M188.542,290.18c0,0,20.914,1.047,45.521-17.059c0,0-15.566,15.701-42.504,18.555L188.542,290.18z"/>
		<path fill="#F1DF1B" d="M254.011,297.949c3.551,1.156,7.344,2.828,14.936,0.139s11.916-7.23,11.529-10.537
			c-0.389-3.305,3.658-7.18,5.611-10.805c1.951-3.623,0.973-9.834-3.373-10.445c-4.346-0.613-9.275,7.904-11.336,8.998
			s-6.059,0.164-10.924,5.119S251.017,296.975,254.011,297.949z"/>
		<path d="M241.137,300.885c0,0,20.559-3.977,40.133-27.434c0,0-11.369,18.963-36.846,28.166L241.137,300.885z"/>
		<path fill="#F1DF1B" d="M144.753,289.115c3.588-1.033,7.438-2.572,14.932,0.377c7.495,2.951,11.658,7.639,11.156,10.93
			c-0.502,3.289,3.409,7.303,5.234,10.992c1.826,3.688,0.633,9.861-3.73,10.324c-4.363,0.461-8.997-8.221-11.018-9.387
			c-2.021-1.164-6.049-0.373-10.74-5.492C145.895,301.738,141.727,289.986,144.753,289.115z"/>
		<path d="M131.989,285.736c0,0,20.41,4.686,39.159,28.805c0,0-10.706-19.344-35.849-29.422L131.989,285.736z"/>
		<path fill="#F1DF1B" d="M189.767,295.369c3.577-0.096,7.517-0.6,13.762,3.936c6.244,4.535,8.982,9.885,7.727,12.816
			c-1.258,2.932,1.408,7.594,2.217,11.455c0.807,3.861-1.781,9.301-5.939,8.682s-6.373-9.785-7.969-11.352
			c-1.595-1.566-5.522-1.799-8.645-7.674C187.795,307.355,186.75,295.451,189.767,295.369z"/>
		<path d="M178.736,289.172c0,0,17.81,9.246,29.414,36.123c0,0-5.287-20.516-26.194-35.902L178.736,289.172z"/>
		<path fill="#F1DF1B" d="M271.216,309.16c3.412-1.076,7.063-2.643,14.314,0.002c7.25,2.645,11.352,7.035,10.949,10.199
			c-0.4,3.164,3.443,6.914,5.281,10.404s0.844,9.434-3.324,9.98c-4.17,0.547-8.818-7.658-10.783-8.725
			c-1.963-1.066-5.803-0.213-10.422-5.004C272.614,321.227,268.337,310.068,271.216,309.16z"/>
		<path d="M258.905,306.234c0,0,19.666,3.992,38.211,26.646c0,0-10.723-18.273-35.055-27.32L258.905,306.234z"/>
		<path fill="#35A87E" d="M252.194,189.155c0,0,26.672-13.866,35.049-23.756c8.375-9.89,10.941-26.173,14.076-33.861
			c3.133-7.689,5.482-10.413,5.482-10.413s-11.314,0.462-19.848,11.166c-8.535,10.703-11.523,24.812-16.846,34.4
			C264.788,176.28,252.194,189.155,252.194,189.155z"/>
		<path fill="#35A87E" d="M263.909,185.063c0,0,20.783-3.87,36.854,2.698c16.068,6.566,36.561,17.779,45.885,18.307
			c0,0-10.73,4.518-26.6,1.546c-15.871-2.972-32.73-13.976-38.146-16.126C276.485,189.34,263.909,185.063,263.909,185.063z"/>
		<path d="M196.611,292.99c0,0,24.291,16.172,46.765,50.273c0,0-21.06-35.342-44.39-49.977L196.611,292.99z"/>
		<g>
			<path fill="#E94625" d="M239.907,338.92c0,0-8.072-7.145-5.822-17.826c1.551-7.361,12.191-16.363,13.623-15.332
				c1.43,1.029,7.03,12.926,5.713,19.234C251.483,334.285,239.907,338.92,239.907,338.92z"/>
			<path fill="#E94625" d="M240.911,337.211c0,0,7.387,7.803,5.137,18.484c-1.551,7.361-11.505,15.703-12.935,14.674
				c-1.432-1.029-6.77-12.207-5.455-18.516C229.597,342.564,240.911,337.211,240.911,337.211z"/>
			<path fill="#E94625" d="M240.282,338.676c0,0,6.51-7.109,17.192-4.859c7.359,1.551,16.996,11.229,15.967,12.658
				s-12.004,5.715-18.313,4.398C245.838,348.936,240.282,338.676,240.282,338.676z"/>
			<path fill="#E94625" d="M240.153,339.295c0,0-7.91,7.889-18.591,5.639c-7.359-1.549-15.598-12.01-14.568-13.439
				c1.031-1.43,12.268-7.053,18.576-5.738C234.858,327.695,240.153,339.295,240.153,339.295z"/>
			<circle fill="#660463" cx="239.723" cy="338.722" r="6.977"/>
		</g>
		<g>
			<path fill="#E94625" d="M207.146,258.42c0,0-9.849-4.381-10.921-15.244c-0.739-7.486,6.697-19.275,8.371-18.725
				c1.674,0.553,10.598,10.209,11.242,16.621C216.788,250.514,207.146,258.42,207.146,258.42z"/>
			<path fill="#E94625" d="M207.587,256.488c0,0,9.395,5.215,10.467,16.078c0.74,7.486-6.24,18.441-7.914,17.889
				c-1.674-0.551-10.133-9.602-10.777-16.012C198.412,265,207.587,256.488,207.587,256.488z"/>
			<path fill="#E94625" d="M207.429,258.074c0,0,4.066-8.74,14.93-9.813c7.484-0.738,19.589,5.586,19.039,7.26
				s-9.726,9.066-16.136,9.713C215.817,266.184,207.429,258.074,207.429,258.074z"/>
			<path fill="#E94625" d="M207.493,258.703c0,0-5.166,9.906-16.029,10.979c-7.485,0.738-18.491-6.754-17.94-8.428
				s9.572-10.422,15.984-11.066C198.95,249.238,207.493,258.703,207.493,258.703z"/>
			<circle fill="#660463" cx="206.911" cy="258.286" r="6.978"/>
		</g>
		<g>
			<path fill="#E94625" d="M314.292,292.148c0,0-6.941-8.248-3.154-18.486c2.609-7.055,14.451-14.404,15.717-13.176
				c1.264,1.227,5.064,13.814,2.842,19.863C326.421,289.256,314.292,292.148,314.292,292.148z"/>
			<path fill="#E94625" d="M315.534,290.604c0,0,6.168,8.801,2.381,19.039c-2.609,7.055-13.678,13.852-14.941,12.625
				c-1.264-1.229-4.914-13.066-2.689-19.113C303.56,294.246,315.534,290.604,315.534,290.604z"/>
			<path fill="#E94625" d="M314.698,291.961c0,0,7.479-6.08,17.717-2.293c7.055,2.607,15.174,13.59,13.947,14.855
				c-1.229,1.264-12.713,3.898-18.76,1.676C318.696,302.924,314.698,291.961,314.698,291.961z"/>
			<path fill="#E94625" d="M314.479,292.555c0,0-8.977,6.65-19.215,2.863c-7.055-2.609-13.676-14.16-12.447-15.424
				c1.227-1.266,13.166-5.188,19.213-2.963C310.938,280.307,314.479,292.555,314.479,292.555z"/>
			<circle fill="#660463" cx="314.14" cy="291.926" r="6.978"/>
		</g>
		<path d="M206.911,258.287c0,0-16.654,20.334-46.47,27.953l6.04,0.236C166.481,286.477,191.808,279.992,206.911,258.287z"/>
		<path d="M300.124,75.683c3.23-0.333,8.285-3.323,9.67-7.635c1.383-4.312-3.535-8.488-8.254-9.07
			c-4.721-0.582-9.424,3.811-9.73,5.585C291.294,67.556,294.476,76.265,300.124,75.683z"/>
		<path d="M300.274,63.926c0,0-0.15-13.165,5.494-24.174s14.75-19.204,15.693-17.333c0.945,1.871,2.746,13.584-3.553,23.742
			c-6.299,10.158-15.066,19.815-15.73,19.381C301.517,65.109,300.274,63.926,300.274,63.926z"/>
		<path d="M297.784,62.848c0.078-0.783-10.018-14.952-10.867-23.8c-0.848-8.849,4.932-22.871,6.951-21.119
			s9.293,12.929,9.844,19.031c0.549,6.102-2.486,24.767-2.486,24.767L297.784,62.848z"/>
		<path d="M302.179,65.542c0,0,5.352,2.902,14.148-3.233c8.799-6.134,18.504-19.771,17.822-21.237
			c-0.682-1.465-12.529,0.57-17.141,4.13c-4.613,3.56-15.617,19.729-15.617,19.729L302.179,65.542z"/>
		<path d="M299.962,62.283c0,0-10.803-19.633-14.213-21.548c-3.412-1.916-13.818-8.615-15.395-6.665
			c-1.576,1.95,1.26,13.64,6.086,18.029c4.826,4.389,17.795,13.538,18.371,12.751C295.388,64.064,299.962,62.283,299.962,62.283z"/>
		<path d="M305.601,71.214c0,0,8.707-1.2,16.18-3.936s13.58-15.153,11.184-15.021c-2.396,0.132-22.748,9.308-24.586,10.851
			C306.54,64.652,305.601,71.214,305.601,71.214z"/>
		<path d="M297.995,64.462c0,0-21.479-10.176-25.492-11.037c-4.014-0.861-0.93,3.838,3.02,7.887c3.949,4.05,15.883,7.9,18.719,8.104
			C297.077,69.621,297.995,64.462,297.995,64.462z"/>
		<path d="M206.673,208.732c0,0,15.457-34.349,11.361-57.764c0,0,6.691,14.205-8.182,55.339L206.673,208.732z"/>
		<path fill="#8333FF" d="M217.649,175.218c0,0-10.664-8.572-10.928-12.734c-0.262-4.163,2.502-6.545,6.232-2.709
			C216.683,163.609,217.649,175.218,217.649,175.218z"/>
		<path fill="#8333FF" d="M215.085,186.151c0,0-6.232-17.126-9.592-17.021c-3.361,0.105-5.063,6.289-1.924,11.646
			c3.141,5.356,11.088,7.043,11.275,6.832C215.034,187.396,215.085,186.151,215.085,186.151z"/>
		<path fill="#8333FF" d="M219.413,158.219c0,0-4.73-8.995-6.316-12.411c-1.584-3.416,3.977-6.857,6.699-1.974
			S219.413,158.219,219.413,158.219z"/>
		<path fill="#8333FF" d="M218.19,172.677c0.105-0.246,5.6-18.339,9.396-19.23c3.799-0.89,4.521,3.518,2.662,7.587
			S218.19,172.677,218.19,172.677z"/>
		<path fill="#8333FF" d="M215.495,186.134c0,0,10.627-17.82,14.814-16.007c4.188,1.813,1.604,8.005-2.414,11.432
			C223.876,184.986,215.495,186.134,215.495,186.134z"/>
		<path d="M289.101,113.46c0,0,13.576-17.485,33.338-21.698s25.732-7.099,25.732-7.099s-11.527,6.915-22.377,8.13
			c-16.904,1.893-37.846,23.325-37.846,23.325L289.101,113.46z"/>
		<path d="M286.21,116.897c0,0-2.359-9.896-12.705-29.649c-5.338-10.193-13.02-19.576-13.02-19.576s8.66,9.665,15.988,20.066
			c7.33,10.401,10.295,27.869,10.295,27.869L286.21,116.897z"/>
		<path fill="#FF8010" d="M107.039,187.215c0,0,4.538-6.323,5.35-10.277c0.812-3.954-1.988-5.596-4.031-3.79
			c0,0-0.108-3.814-3.624-4.475s-6.323,7.487-6.323,7.487s-3.273-3.462-4.728,0.106c-1.455,3.568-0.175,7.889,3.673,11.063
			C101.205,190.5,107.039,187.215,107.039,187.215z"/>
		<path fill="#FF4603" d="M107.525,199.42c0,0,5.148-7.173,6.069-11.658c0.92-4.485-2.256-6.349-4.573-4.299
			c0,0-0.123-4.327-4.111-5.077s-7.173,8.493-7.173,8.493s-3.712-3.927-5.363,0.121c-1.65,4.047-0.198,8.949,4.167,12.549
			S107.525,199.42,107.525,199.42z"/>
		<path fill="#FF8010" d="M108.53,212.563c0,0,6.15-8.568,7.25-13.928c1.1-5.357-2.694-7.584-5.463-5.137
			c0,0-0.146-5.168-4.911-6.064c-4.765-0.896-8.57,10.147-8.57,10.147s-4.435-4.692-6.407,0.144
			c-1.971,4.835-0.236,10.691,4.979,14.992C100.623,217.017,108.53,212.563,108.53,212.563z"/>
		<path fill="#FF4603" d="M107.795,227.922c0,0,6.734-9.383,7.938-15.25c1.204-5.866-2.95-8.305-5.981-5.623
			c0,0-0.16-5.66-5.377-6.641s-9.383,11.109-9.383,11.109s-4.856-5.137-7.015,0.158c-2.158,5.293-0.259,11.705,5.451,16.414
			C99.138,232.797,107.795,227.922,107.795,227.922z"/>
		<path fill="#FF8010" d="M106.897,240.693c0,0,6.734-9.383,7.938-15.248c1.205-5.867-2.95-8.306-5.981-5.625
			c0,0-0.16-5.659-5.377-6.641c-5.217-0.98-9.383,11.109-9.383,11.109s-4.856-5.137-7.015,0.158
			c-2.158,5.293-0.259,11.707,5.451,16.414C98.24,245.57,106.897,240.693,106.897,240.693z"/>
		<path fill="#FF4603" d="M104.646,251.418c0,0,4.379-5.609,4.98-9.25c0.601-3.639-2.459-5.354-4.497-3.799
			c0,0-0.36-3.568-4.111-4.412c-3.751-0.844-6.187,6.582-6.187,6.582s-3.676-3.443-4.98-0.207
			c-1.304,3.238,0.325,7.355,4.589,10.566C98.704,254.109,104.646,251.418,104.646,251.418z"/>
		<path fill="#35A87E" d="M100.372,257.463c-0.022-0.398-9.526-3.441-6.282-7.105c3.244-3.666,11.579-2.201,12.652-0.176
			C107.815,252.205,100.372,257.463,100.372,257.463z"/>
		
			<ellipse transform="matrix(0.9177 0.3973 -0.3973 0.9177 155.2138 -4.3617)" fill="#160048" cx="88.134" cy="372.414" rx="7.694" ry="8.007"/>
		
			<ellipse transform="matrix(-0.7559 -0.6546 0.6546 -0.7559 -67.5782 757.2883)" fill="#160048" cx="107.375" cy="391.241" rx="7.693" ry="8.007"/>
		
			<ellipse transform="matrix(-0.0971 -0.9953 0.9953 -0.0971 -226.6274 544.4065)" fill="#160048" cx="133.633" cy="375.003" rx="7.694" ry="8.007"/>
		
			<ellipse transform="matrix(0.1494 -0.9888 0.9888 0.1494 -223.5945 479.871)" fill="#160048" cx="167.11" cy="369.892" rx="7.693" ry="8.007"/>
		
			<ellipse transform="matrix(0.1494 -0.9888 0.9888 0.1494 -180.9201 488.5824)" fill="#160048" cx="193.51" cy="349.444" rx="7.693" ry="8.007"/>
		
			<ellipse transform="matrix(0.6819 0.7314 -0.7314 0.6819 294.8369 31.3859)" fill="#160048" cx="111.331" cy="354.693" rx="7.693" ry="8.006"/>
		
			<ellipse transform="matrix(0.452 0.892 -0.892 0.452 384.5034 61.106)" fill="#160048" cx="142.521" cy="343.477" rx="7.694" ry="8.007"/>
		
			<ellipse transform="matrix(0.254 0.9672 -0.9672 0.254 459.8623 92.991)" fill="#160048" cx="169.648" cy="344.611" rx="7.694" ry="8.007"/>
		<circle fill="#FF8010" cx="172.962" cy="177.853" r="1.525"/>
		<circle fill="#FF8010" cx="177.326" cy="182.398" r="1.525"/>
		<circle fill="#FF8010" cx="188.525" cy="184.117" r="1.525"/>
		<circle fill="#FF8010" cx="175.602" cy="192.708" r="1.525"/>
		<circle fill="#FF8010" cx="173.107" cy="188.305" r="1.525"/>
		<circle fill="#FF8010" cx="184.921" cy="195.082" r="1.525"/>
		<circle fill="#FF8010" cx="169.99" cy="203.18" r="1.525"/>
		<circle fill="#FF8010" cx="177.68" cy="174.629" r="1.525"/>
		<circle fill="#FF8010" cx="178.554" cy="154.281" r="1.524"/>
		<circle fill="#FF8010" cx="180.263" cy="158.007" r="1.525"/>
		<circle fill="#FF8010" cx="175.412" cy="159.229" r="1.525"/>
		<circle fill="#FF8010" cx="180.089" cy="149.129" r="1.524"/>
		<circle fill="#FF8010" cx="189.645" cy="170.018" r="1.525"/>
		<circle fill="#FF8010" cx="194.736" cy="165.935" r="1.525"/>
		<circle fill="#FF8010" cx="193.068" cy="175.449" r="1.525"/>
		<circle fill="#FF8010" cx="176.311" cy="144.17" r="1.525"/>
		<circle fill="#FF8010" cx="174.215" cy="150.056" r="1.525"/>
		<circle fill="#FF8010" cx="180.061" cy="169.131" r="1.525"/>
		<circle fill="#FF8010" cx="174.567" cy="169.1" r="1.524"/>
		<circle fill="#FF8010" cx="188.523" cy="177.662" r="1.525"/>
		<circle fill="#FF8010" cx="178.314" cy="164.284" r="1.525"/>
		<circle fill="#FF8010" cx="190.627" cy="160.548" r="1.525"/>
		<circle fill="#FF8010" cx="192.585" cy="157.32" r="1.525"/>
		<circle fill="#FF8010" cx="189.893" cy="153.374" r="1.525"/>
		<circle fill="#FF8010" cx="193.453" cy="148.988" r="1.525"/>
		<circle fill="#FF8010" cx="189.256" cy="147.17" r="1.525"/>
		<circle fill="#FF8010" cx="187.16" cy="140.015" r="1.525"/>
		<circle fill="#FF8010" cx="175.142" cy="133.665" r="1.525"/>
		<circle fill="#FF8010" cx="185.555" cy="134.273" r="1.525"/>
		<circle fill="#FF8010" cx="174.797" cy="127.841" r="1.525"/>
		<circle fill="#FF8010" cx="173.969" cy="119.719" r="1.525"/>
		<circle fill="#FF8010" cx="191.005" cy="133.197" r="1.525"/>
		<circle fill="#FF8010" cx="186.676" cy="127.817" r="1.525"/>
		<circle fill="#FF8010" cx="182.668" cy="120.122" r="1.525"/>
		<circle fill="#FF8010" cx="180.178" cy="111.575" r="1.525"/>
		<circle fill="#FF8010" cx="185.216" cy="189.138" r="1.524"/>
		<circle fill="#FF8010" cx="188.868" cy="190.876" r="1.525"/>
		<circle fill="#FF8010" cx="171.073" cy="196.839" r="1.524"/>
		<circle fill="#FF8010" cx="180.975" cy="201.555" r="1.525"/>
		<circle fill="#FF8010" cx="186.14" cy="199.939" r="1.525"/>
		<circle fill="#FF8010" cx="179.611" cy="207.345" r="1.525"/>
		<path d="M136.059,252.865c0,0,7.652-32.846,9.013-28.959c1.361,3.889-5.639,27.549-5.639,27.549L136.059,252.865z"/>
		<path fill="#160048" d="M144.471,223.434c0,0-7.581-7.035-3.803-12.643s5.844-12.044,9.184-6.992
			c3.341,5.051,5.338,10.43,1.694,14.406C147.902,222.182,144.471,223.434,144.471,223.434z"/>
		<path fill="#FF4603" d="M139.882,225.439c0,0,6.436,3.453,9.146-0.033c2.711-3.486,7.466-8.638,3.775-9.273
			c-3.69-0.637-7.198,3.025-9.332,1.014c-2.133-2.013-6.228-2.824-5.39,1.625C138.92,223.219,139.882,225.439,139.882,225.439z"/>
	</g>
</g>
<g id="DESIGNED_BY_FREEPIK">
</g>
</svg>
