<svg width="352" height="300" viewBox="0 0 352 300" fill="none" xmlns="http://www.w3.org/2000/svg">
<g clip-path="url(#clip0)">
<path d="M316.712 166.85C316.654 171.327 316.449 176.342 315.99 181.626L328.884 165.548L328.975 165.799C327.919 162.171 326.358 158.709 324.336 155.516L324.438 155.753L316.712 166.85Z" fill="#57B894"/>
<path d="M316.72 166.065L324.205 155.315C322.053 152.073 319.476 149.563 316.533 148.032C316.38 147.953 316.226 147.878 316.072 147.805C316.187 149.016 316.811 156.133 316.72 166.065Z" fill="#57B894"/>
<path d="M330.497 197.27C330.813 195.396 331.059 193.525 331.235 191.659L311.789 206.932L311.763 206.797C311.471 207.899 311.166 208.981 310.848 210.045L330.451 196.973L330.497 197.27Z" fill="#57B894"/>
<path d="M314.007 196.648L331.411 180.518L331.479 180.798C331.255 175.81 330.441 170.867 329.055 166.071L315.914 182.456C315.461 187.406 314.825 192.137 314.007 196.648Z" fill="#57B894"/>
<path d="M315.584 182.177L292.305 159.043L292.406 158.761C290.518 161.774 288.939 164.97 287.693 168.301L314.185 193.425C314.816 189.498 315.266 185.705 315.584 182.177Z" fill="#57B894"/>
<path d="M313.577 196.94C313.755 195.981 313.922 195.028 314.078 194.081L287.489 168.864L287.587 168.579C287.147 169.752 286.735 170.964 286.349 172.212L286.445 171.927L313.577 196.94Z" fill="#57B894"/>
<path d="M311.928 206.156L331.211 191.011L331.268 191.3C331.572 187.917 331.648 184.518 331.495 181.125L313.856 197.472C313.294 200.477 312.651 203.372 311.928 206.156Z" fill="#57B894"/>
<path d="M284.501 195.913L306.305 221.19C307.784 217.874 309.064 214.473 310.136 211.003L283.895 186.453C283.838 189.715 283.999 192.977 284.378 196.218L284.501 195.913Z" fill="#57B894"/>
<path d="M315.701 147.804L315.878 147.712C311.301 145.597 306.509 146.13 302.041 148.801L316.362 166.068C316.458 155.322 315.712 147.91 315.701 147.804Z" fill="#57B894"/>
<path d="M310.292 211.853C309.305 214.975 308.149 218.042 306.829 221.039L326.611 209.308L326.648 209.6C328.035 206.916 329.075 204.066 329.745 201.12C330.003 199.962 330.233 198.801 330.434 197.64L310.597 210.867C310.496 211.196 310.396 211.527 310.292 211.853Z" fill="#57B894"/>
<path d="M316.353 166.868L301.704 149.205L301.816 148.935C298.464 150.999 295.301 154.269 292.556 158.528L315.646 181.473C316.097 176.249 316.298 171.292 316.353 166.868Z" fill="#57B894"/>
<path d="M310.324 210.395C311.597 206.183 312.643 201.905 313.456 197.58L286.258 172.506C285.743 174.2 285.282 175.958 284.874 177.78C284.314 180.391 283.992 183.047 283.914 185.716L310.305 210.407L310.324 210.395Z" fill="#57B894"/>
<path d="M338.34 237.524C335.44 240.935 332.084 244.667 328.359 248.443L348.545 244.284L348.455 244.536C349.956 241.068 350.962 237.406 351.441 233.657L351.369 233.905L338.34 237.524Z" fill="#57B894"/>
<path d="M350.204 222.916C350.137 222.757 350.066 222.602 349.995 222.447C349.31 223.454 345.251 229.333 338.847 236.924L351.468 233.419C351.878 229.55 351.495 225.973 350.204 222.916Z" fill="#57B894"/>
<path d="M309.049 265.134C308.122 265.796 307.196 266.435 306.272 267.052L329.708 269.487L329.554 269.745C330.993 268.504 332.376 267.22 333.701 265.894L308.984 265.255L309.049 265.134Z" fill="#57B894"/>
<path d="M317.252 258.749L340.943 257.426L340.818 257.685C343.826 253.701 346.352 249.374 348.343 244.796L327.773 249.034C324.266 252.558 320.759 255.796 317.252 258.749Z" fill="#57B894"/>
<path d="M309.586 264.746L334.097 265.38L333.956 265.639C336.349 263.228 338.575 260.658 340.621 257.947L316.61 259.287C314.26 261.243 311.919 263.062 309.586 264.746Z" fill="#57B894"/>
<path d="M280.409 278.547C280.572 278.361 280.737 278.173 280.907 277.976C285.837 276.893 290.618 275.219 295.148 272.992L294.794 255.41C294.966 254.951 295.131 254.488 295.289 254.023L295.666 272.738C298.92 271.128 302.075 269.324 305.113 267.336L300.957 234.787C301.126 234.686 301.298 234.583 301.473 234.477L305.624 266.985L305.646 266.987C309.313 264.555 312.847 261.927 316.232 259.115L311.905 227.101C312.072 226.963 312.239 226.824 312.406 226.684L316.733 258.699C317.482 258.074 318.219 257.447 318.943 256.817L315.025 224.382C315.191 224.229 315.357 224.074 315.522 223.919L319.443 256.38C322.434 253.758 325.2 251.124 327.695 248.609L324.521 215.944L324.779 215.791C323.885 216.08 322.98 216.409 322.068 216.768C323.702 214.668 325.152 212.43 326.401 210.081L306.429 221.924C305.166 224.704 303.72 227.398 302.102 229.988C301.747 230.363 301.394 230.744 301.046 231.135L301.097 231.533C300.942 231.763 300.786 231.992 300.629 232.219L300.562 231.69C300.363 231.919 300.167 232.153 299.97 232.386C302.333 229.029 304.375 225.456 306.068 221.716L284.423 196.624C284.695 198.955 285.059 201.296 285.488 203.614C283.444 200.693 281.016 198.06 278.27 195.786L278.44 195.979L274.522 208.922C275.851 213.197 277.207 218.03 278.403 223.197L285.595 204.187C285.65 204.475 285.705 204.762 285.762 205.048L278.588 224.009C279.687 228.858 280.544 233.553 281.161 238.096L290.157 221.98C290.227 222.2 290.296 222.419 290.366 222.636L281.272 238.927C281.666 241.958 281.949 244.91 282.122 247.781L293.296 231.121C293.372 231.327 293.448 231.528 293.522 231.726L282.23 248.562L282.164 248.442C282.226 249.58 282.27 250.704 282.297 251.814L295.054 235.661C295.138 235.87 295.217 236.064 295.29 236.241L282.312 252.673C282.318 253.018 282.325 253.363 282.327 253.705C282.354 256.98 282.202 260.253 281.873 263.511L283.112 262.102C282.893 262.634 282.679 263.158 282.471 263.675L281.767 264.477C281.711 264.962 281.649 265.443 281.585 265.921C281.344 266.541 281.113 267.145 280.892 267.735C281.072 266.627 281.227 265.512 281.358 264.39L253.018 247.217C261.181 264.998 275.573 281.528 276.494 282.577C277.112 281.24 277.671 279.873 278.169 278.476C278.338 278.45 278.507 278.422 278.676 278.394C278.617 278.562 278.56 278.731 278.5 278.897C278.412 278.912 278.323 278.928 278.235 278.942C278.308 278.958 278.385 278.975 278.465 278.992C278.111 279.971 277.733 280.927 277.33 281.861C277.897 281.288 278.747 280.404 279.776 279.259C286.286 280.525 303.75 283.021 318.229 277L295.293 273.383C290.566 275.716 285.566 277.451 280.409 278.547V278.547ZM294.665 248.965L295.176 248.383L295.193 249.209L294.681 249.79L294.665 248.965Z" fill="#57B894"/>
<path d="M349.709 222.209L349.904 222.252C347.728 217.703 343.697 215.057 338.552 214.265L338.57 236.698C345.497 228.483 349.65 222.298 349.709 222.209Z" fill="#57B894"/>
<path d="M304.692 268.09C301.94 269.865 299.094 271.49 296.166 272.956L318.884 276.538L318.726 276.787C321.506 275.604 324.125 274.073 326.52 272.231C327.458 271.503 328.374 270.756 329.27 269.99L305.555 267.525C305.267 267.714 304.979 267.905 304.692 268.09Z" fill="#57B894"/>
<path d="M328.192 248.106C331.871 244.37 335.187 240.681 338.052 237.309L338.035 214.362L338.293 214.225C334.396 213.676 329.874 214.178 325.043 215.707L328.192 248.106Z" fill="#57B894"/>
<path d="M278.083 195.635C275.035 193.217 271.808 191.627 268.536 191.08C268.365 191.052 268.196 191.029 268.027 191.006C268.511 192.123 271.304 198.699 274.288 208.172L278.083 195.635Z" fill="#57B894"/>
<path d="M278.187 223.847L248.897 209.041L248.906 208.741C248.042 212.191 247.528 215.718 247.373 219.271L280.333 234.977C279.719 231.047 278.975 227.3 278.187 223.847Z" fill="#57B894"/>
<path d="M280.435 235.633L247.353 219.869L247.358 219.568C247.303 220.82 247.285 222.099 247.304 223.406L247.307 223.105L280.842 238.507C280.715 237.54 280.579 236.582 280.435 235.633Z" fill="#57B894"/>
<path d="M281.916 252.945L249.372 237.708C250.326 240.828 251.488 243.881 252.85 246.846L252.872 246.517L281.421 263.817C281.804 260.206 281.969 256.576 281.916 252.945V252.945Z" fill="#57B894"/>
<path d="M267.674 191.12L267.814 190.978C262.807 190.382 258.414 192.369 254.991 196.291L273.948 208.285C270.718 198.037 267.717 191.218 267.674 191.12Z" fill="#57B894"/>
<path d="M274.187 209.049L254.795 196.78L254.818 196.488C252.268 199.487 250.271 203.574 248.977 208.473L278.029 223.158C276.842 218.05 275.501 213.274 274.187 209.049Z" fill="#57B894"/>
<path d="M281.907 252.308C281.816 247.909 281.488 243.517 280.925 239.153L247.308 223.713C247.342 225.484 247.447 227.298 247.622 229.157C247.896 231.813 248.411 234.439 249.162 237.001L281.893 252.326L281.907 252.308Z" fill="#57B894"/>
<path d="M254.513 174.371L156.877 162.064C152.451 125.253 159.137 89.3168 170.551 53.579L268.188 65.8863C253.455 100.947 249.13 137.134 254.513 174.371Z" fill="#F2F2F2"/>
<path d="M243.859 74.091L184.193 66.5698L183.385 72.9803L243.051 80.5014L243.859 74.091Z" fill="#235952"/>
<path opacity="0.3" d="M251.271 90.8049L170.4 80.611L169.996 83.8162L250.867 94.0101L251.271 90.8049Z" fill="#235952"/>
<path opacity="0.3" d="M249.966 101.16L169.095 90.9663L168.691 94.1715L249.562 104.365L249.966 101.16Z" fill="#235952"/>
<path opacity="0.3" d="M248.66 111.516L167.79 101.322L167.386 104.527L248.256 114.721L248.66 111.516Z" fill="#235952"/>
<path opacity="0.3" d="M247.355 121.871L166.484 111.677L166.08 114.882L246.951 125.076L247.355 121.871Z" fill="#235952"/>
<path opacity="0.3" d="M246.05 132.226L165.179 122.032L164.775 125.238L245.645 135.432L246.05 132.226Z" fill="#235952"/>
<path opacity="0.3" d="M244.744 142.582L163.874 132.388L163.47 135.593L244.34 145.787L244.744 142.582Z" fill="#235952"/>
<path opacity="0.3" d="M243.439 152.937L162.568 142.743L162.164 145.948L243.035 156.142L243.439 152.937Z" fill="#235952"/>
<path d="M208.277 138.106L116.933 101.494C121.966 64.7619 137.527 31.6865 157.613 0L248.958 36.6123C225.832 66.8038 212.492 100.719 208.277 138.106Z" fill="#E6E6E6"/>
<path d="M223.345 38.394L167.523 16.0198L165.12 22.0171L220.941 44.3913L223.345 38.394Z" fill="#235952"/>
<path opacity="0.3" d="M226.286 56.4394L150.626 26.114L149.425 29.1127L225.084 59.4381L226.286 56.4394Z" fill="#235952"/>
<path opacity="0.3" d="M222.403 66.1275L146.744 35.8021L145.542 38.8008L221.201 69.1262L222.403 66.1275Z" fill="#235952"/>
<path opacity="0.3" d="M218.519 75.8156L142.86 45.4902L141.658 48.4889L217.318 78.8143L218.519 75.8156Z" fill="#235952"/>
<path opacity="0.3" d="M214.636 85.5036L138.977 55.1782L137.775 58.1769L213.434 88.5023L214.636 85.5036Z" fill="#235952"/>
<path opacity="0.3" d="M210.753 95.1916L135.094 64.8662L133.892 67.8649L209.551 98.1903L210.753 95.1916Z" fill="#235952"/>
<path opacity="0.3" d="M206.87 104.88L131.211 74.5543L130.009 77.553L205.668 107.878L206.87 104.88Z" fill="#235952"/>
<path opacity="0.3" d="M202.987 114.568L127.328 84.2423L126.126 87.241L201.785 117.566L202.987 114.568Z" fill="#235952"/>
<path d="M185.687 146.924H87.2784C78.2844 110.956 80.4231 74.4655 87.2784 37.5808H185.687C175.455 74.2085 175.69 110.652 185.687 146.924Z" fill="#F2F2F2"/>
<path d="M162.576 48.7637H102.438V55.2249H162.576V48.7637Z" fill="#235952"/>
<path opacity="0.3" d="M172.02 64.4197H90.5093V67.6503H172.02V64.4197Z" fill="#235952"/>
<path opacity="0.3" d="M172.02 74.8569H90.5093V78.0875H172.02V74.8569Z" fill="#235952"/>
<path opacity="0.3" d="M172.02 85.2942H90.5093V88.5248H172.02V85.2942Z" fill="#235952"/>
<path opacity="0.3" d="M172.02 95.7316H90.5093V98.9622H172.02V95.7316Z" fill="#235952"/>
<path opacity="0.3" d="M172.02 106.169H90.5093V109.399H172.02V106.169Z" fill="#235952"/>
<path opacity="0.3" d="M172.02 116.606H90.5093V119.837H172.02V116.606Z" fill="#235952"/>
<path opacity="0.3" d="M172.02 127.043H90.5093V130.274H172.02V127.043Z" fill="#235952"/>
<path d="M119.355 125.095L85.4515 98.7381C85.1123 98.1482 84.6235 97.6581 84.0345 97.3173C83.4455 96.9765 82.777 96.7971 82.0965 96.7971H63.7983C62.7719 96.7971 61.7875 97.2049 61.0617 97.9306C60.336 98.6564 59.9282 99.6408 59.9282 100.667V262.169C59.9282 265.498 61.2508 268.691 63.605 271.046C65.9591 273.4 69.1521 274.722 72.4814 274.722H260.319C261.968 274.722 263.6 274.398 265.123 273.767C266.646 273.136 268.03 272.211 269.196 271.046C270.361 269.88 271.286 268.496 271.917 266.973C272.548 265.45 272.872 263.818 272.872 262.169V136.505C272.872 133.479 271.67 130.577 269.531 128.437C267.391 126.297 264.489 125.095 261.463 125.095H119.355Z" fill="#3F3D56"/>
<path d="M266.484 162.549H232.413V174.474H266.484V162.549Z" fill="#235952"/>
<path d="M0 299.259C0 299.259 155.827 210.142 343.996 299.259Z" fill="#F2F2F2"/>
</g>
<defs>
<clipPath id="clip0">
<rect width="351.625" height="300" fill="white"/>
</clipPath>
</defs>
</svg>
