<svg width="24" height="24" viewBox="0 0 24 24" fill="none" xmlns="http://www.w3.org/2000/svg">
<path d="M11.9253 11.2463L11.6652 11.5029L11.4039 11.2463C10.9184 10.7669 10.2636 10.4981 9.58127 10.4981C8.89899 10.4981 8.24417 10.7669 7.75864 11.2463C7.51766 11.4781 7.32596 11.7562 7.19502 12.0638C7.06408 12.3715 6.99658 12.7025 6.99658 13.0368C6.99658 13.3712 7.06408 13.7022 7.19502 14.0098C7.32596 14.3175 7.51766 14.5956 7.75864 14.8274L11.6652 18.664L15.5718 14.8274C15.8127 14.5956 16.0044 14.3175 16.1354 14.0098C16.2663 13.7022 16.3338 13.3712 16.3338 13.0368C16.3338 12.7025 16.2663 12.3715 16.1354 12.0638C16.0044 11.7562 15.8127 11.4781 15.5718 11.2463C15.086 10.7669 14.431 10.498 13.7485 10.498C13.0661 10.498 12.4111 10.7669 11.9253 11.2463Z" fill="#FCD9D9"/>
<path d="M22.9877 10.8404L12.4893 0.342016C12.3811 0.233596 12.2525 0.147581 12.111 0.0888943C11.9695 0.0302075 11.8178 0 11.6646 0C11.5114 0 11.3597 0.0302075 11.2182 0.0888943C11.0767 0.147581 10.9482 0.233596 10.8399 0.342016L0.341532 10.8404C0.178446 11.0035 0.0673892 11.2114 0.0224006 11.4376C-0.022588 11.6639 0.000512026 11.8984 0.0887802 12.1115C0.177048 12.3246 0.326522 12.5068 0.518304 12.6349C0.710086 12.7631 0.935566 12.8316 1.16624 12.8316H2.33273V20.997C2.33273 22.2837 3.37907 23.33 4.6657 23.33H18.6636C19.9502 23.33 20.9965 22.2837 20.9965 20.997V12.8316H22.163C22.3937 12.8316 22.6192 12.7631 22.811 12.6349C23.0027 12.5068 23.1522 12.3246 23.2405 12.1115C23.3287 11.8984 23.3518 11.6639 23.3069 11.4376C23.2619 11.2114 23.1508 11.0035 22.9877 10.8404ZM18.6647 20.997H4.6657V9.81623L11.6646 2.8173L18.6636 9.81623V15.1646L18.6647 20.997Z" fill="#FCD9D9"/>
</svg>
