<svg width="70" height="70" viewBox="0 0 70 70" fill="none" xmlns="http://www.w3.org/2000/svg">
<path d="M36.1307 34.0997L36.1308 34.0997C37.4946 32.7535 39.3338 31.9988 41.25 31.9988C43.1663 31.9988 45.0054 32.7535 46.3692 34.0997L46.3692 34.0997L46.3738 34.1041C47.0483 34.753 47.5849 35.5314 47.9515 36.3927C48.318 37.2539 48.507 38.1803 48.507 39.1162C48.507 40.0522 48.318 40.9786 47.9515 41.8398C47.5849 42.7011 47.0483 43.4795 46.3738 44.1284L46.3738 44.1283L46.3701 44.132L34.9991 55.2993L23.628 44.132L23.6281 44.1319L23.6243 44.1284C22.9498 43.4795 22.4132 42.7011 22.0467 41.8398C21.6801 40.9786 21.4912 40.0522 21.4912 39.1162C21.4912 38.1803 21.6801 37.2539 22.0467 36.3927C22.4132 35.5314 22.9498 34.753 23.6243 34.1041L23.6244 34.1042L23.629 34.0996C24.9922 32.7537 26.8307 31.9991 28.7464 31.9991C30.662 31.9991 32.5006 32.7537 33.8638 34.0996L33.8647 34.1005L34.6487 34.8705L34.9999 35.2154L35.3502 34.8697L36.1307 34.0997Z" fill="url(#paint0_linear)" stroke="black"/>
<path d="M37.1195 1.37945L37.1198 1.37975L68.6195 32.8794C68.6195 32.8794 68.6195 32.8794 68.6195 32.8794C69.0389 33.299 69.3245 33.8334 69.4402 34.4153C69.5559 34.9971 69.4965 35.6002 69.2695 36.1483C69.0425 36.6964 68.6581 37.1649 68.1648 37.4945C67.6716 37.8242 67.0917 38.0002 66.4986 38.0003H62.9986H62.4986V38.5003V63.0001C62.4986 66.5844 59.583 69.5 55.9987 69.5H13.9991C10.4148 69.5 7.49918 66.5844 7.49918 63.0001V38.5003V38.0003H6.99918H3.49933C3.49929 38.0003 3.49925 38.0003 3.49922 38.0003C2.90601 38.0002 2.32616 37.8242 1.83297 37.4945C1.33975 37.1649 0.955332 36.6964 0.728325 36.1483C0.501317 35.6002 0.441909 34.9971 0.55761 34.4153C0.673307 33.8334 0.958903 33.299 1.3783 32.8794C1.37832 32.8794 1.37833 32.8794 1.37835 32.8794L32.878 1.37975L32.8783 1.37945C33.1566 1.10066 33.4872 0.879485 33.851 0.72858C34.2149 0.577675 34.605 0.5 34.9989 0.5C35.3928 0.5 35.7829 0.577675 36.1468 0.72858C36.5107 0.879484 36.8412 1.10066 37.1195 1.37945ZM56.0022 63.5001H56.5023L56.5022 63L56.4987 45.5003V45.5002V29.4529V29.2458L56.3523 29.0994L35.3525 8.09957L34.9989 7.74601L34.6454 8.09957L13.6456 29.0994L13.4991 29.2458V29.4529V63.0001V63.5001H13.9991H56.0022Z" fill="#F78A7B" stroke="black"/>
<defs>
<linearGradient id="paint0_linear" x1="49.0004" y1="31.0559" x2="38.5551" y2="57.4095" gradientUnits="userSpaceOnUse">
<stop stop-color="#FCD9D9"/>
<stop offset="0.83538" stop-color="#FFE3E3"/>
</linearGradient>
</defs>
</svg>
