<svg width="21" height="20" viewBox="0 0 21 20" fill="none" xmlns="http://www.w3.org/2000/svg">
<path d="M19.6845 9.66624L10.7627 0.748556C10.6984 0.684174 10.6221 0.633096 10.5381 0.598245C10.4541 0.563395 10.3641 0.545456 10.2731 0.545456C10.1822 0.545456 10.0922 0.563395 10.0082 0.598245C9.92417 0.633096 9.84787 0.684174 9.78362 0.748556L0.861772 9.66624C0.601849 9.92623 0.454559 10.2794 0.454559 10.6477C0.454559 11.4125 1.07621 12.0343 1.84081 12.0343H2.78087V18.3976C2.78087 18.7811 3.09061 19.0909 3.474 19.0909H8.88689V14.2377H11.3128V19.0909H17.0723C17.4557 19.0909 17.7654 18.7811 17.7654 18.3976V12.0343H18.7055C19.0737 12.0343 19.4268 11.8892 19.6867 11.627C20.226 11.0854 20.226 10.2079 19.6845 9.66624Z" fill="#235952"/>
</svg>
