<svg width="110" height="31" viewBox="0 0 110 31" fill="none" xmlns="http://www.w3.org/2000/svg">
<path d="M1.65995 13.156C2.78752 12.9542 3.88968 13.5766 4.12388 14.5483C4.22806 14.9801 4.47615 15.3748 4.84143 15.6895C5.87045 16.5758 7.54477 16.5758 8.57399 15.6895C9.60302 14.8029 9.60302 13.3606 8.57399 12.4743C7.54148 11.5849 5.87393 11.5847 4.84143 12.4743C4.02425 13.178 2.69874 13.1754 1.88547 12.4665C1.07501 11.7595 1.10149 10.6105 1.92562 9.90936C3.2088 8.81783 4.90633 8.21731 6.70742 8.21731C6.71431 8.21731 6.72127 8.21731 6.72804 8.21731C7.3763 8.21899 8.01053 8.29824 8.61674 8.45031C7.09634 7.141 5.34282 5.63088 4.61158 5.001C3.79917 4.3012 3.79917 3.16241 4.61158 2.46261C5.42399 1.76299 6.74581 1.76299 7.55824 2.46261C8.50886 3.28151 10.9945 5.42204 12.8199 6.99384L10.1691 1.48105C9.97569 1.07721 9.52182 0.816211 9.01332 0.815837C8.58095 0.815837 8.14188 1.01289 7.90985 1.38776C7.80323 1.56145 7.55299 1.63062 7.34639 1.53658C7.13934 1.44197 7.06769 1.22304 7.17362 1.05123C7.52719 0.475565 8.2313 0.0979004 9.01332 0.0979004H9.01439C9.8513 0.0979004 10.6134 0.529971 10.9391 1.2064L14.3436 8.28631C14.3431 6.50475 14.3429 4.45395 14.3429 3.73171C14.3429 3.04369 13.6004 2.53085 12.8201 2.68042C12.5954 2.7236 12.3728 2.60152 12.3228 2.40801C12.2729 2.21451 12.4145 2.02269 12.6391 1.97968C13.9433 1.73009 15.1764 2.58843 15.1764 3.73171C15.1764 5.1429 15.1774 23.7659 15.1774 24.2445C15.1774 24.4427 14.991 24.6035 14.7607 24.6035C14.5304 24.6035 14.344 24.4427 14.344 24.2445V11.2726C14.344 11.2418 14.344 11.0537 14.344 10.7561C14.3429 9.82875 13.9197 8.95603 13.1637 8.30502C11.3791 6.76851 8.09584 3.94092 6.96891 2.97021C6.48147 2.55048 5.68835 2.55048 5.20086 2.97021C4.71359 3.39013 4.71359 4.07347 5.20086 4.49321C6.40393 5.52954 10.3738 8.94816 11.5206 9.93567C11.6834 10.0759 11.6837 10.3033 11.5208 10.4435C11.3583 10.5835 11.0943 10.5837 10.9316 10.4435C8.61699 8.44973 4.8397 8.43941 2.51143 10.4201C2.01417 10.8432 1.99291 11.5383 2.47844 11.9618C2.96571 12.3864 3.76119 12.3894 4.25215 11.9665C5.60609 10.8002 7.80937 10.8002 9.16351 11.9665C10.5175 13.1329 10.5175 15.0306 9.16351 16.1971C7.80671 17.3656 5.61043 17.3671 4.25215 16.1971C3.77182 15.7833 3.44539 15.2636 3.30799 14.6943C3.16735 14.1115 2.50622 13.7378 1.82969 13.8589C1.15467 13.9797 0.719702 14.551 0.859917 15.1323C1.09672 16.1139 1.65843 17.0087 2.48408 17.7201C3.11352 18.2623 3.85105 18.6671 4.67648 18.9234C6.14068 19.3783 8.05682 18.9866 8.05682 20.3437V24.2445C8.05682 24.4429 7.73968 24.6035 7.50961 24.6035C7.27929 24.6035 7.17621 24.4429 7.17621 24.2445V20.607C7.17621 19.5514 5.52861 19.9515 4.39366 19.5989C3.45212 19.3063 2.61149 18.8451 1.8948 18.2277C0.953897 17.4172 0.313826 16.3973 0.043819 15.2785C-0.189941 14.3095 0.534997 13.3573 1.65995 13.156Z" fill="#FCD9D9"/>
<path d="M21.52 22.6998C21.0748 22.6998 20.7004 22.5554 20.3969 22.2665C20.1136 21.9569 19.9719 21.5751 19.9719 21.1211V7.34641C19.9719 6.87178 20.1136 6.49001 20.3969 6.2011C20.7004 5.91219 21.0748 5.76774 21.52 5.76774C21.9855 5.76774 22.3598 5.91219 22.6432 6.2011C22.9265 6.49001 23.0681 6.85114 23.0681 7.2845C23.5943 6.74796 24.2216 6.33523 24.9501 6.04633C25.6787 5.73678 26.4679 5.58201 27.3179 5.58201C29.4427 5.58201 31.0413 6.39714 32.1139 8.02741C32.7008 7.26387 33.4496 6.66541 34.3602 6.23205C35.2709 5.79869 36.2928 5.58201 37.426 5.58201C39.1664 5.58201 40.583 6.15983 41.6757 7.31546C42.7685 8.47109 43.3149 10.122 43.3149 12.2682V21.1211C43.3149 21.5751 43.1732 21.9569 42.8899 22.2665C42.6066 22.5554 42.2322 22.6998 41.7668 22.6998C41.3216 22.6998 40.9472 22.5554 40.6437 22.2665C40.3604 21.9569 40.2187 21.5751 40.2187 21.1211V12.2682C40.2187 10.9681 39.905 10.0085 39.2777 9.38941C38.6504 8.74968 37.8308 8.42982 36.8189 8.42982C35.7666 8.42982 34.8965 8.80127 34.2084 9.54418C33.5406 10.2871 33.2067 11.2364 33.2067 12.392V21.1211C33.2067 21.5751 33.0651 21.9569 32.7817 22.2665C32.4984 22.5554 32.1241 22.6998 31.6586 22.6998C31.2134 22.6998 30.839 22.5554 30.5355 22.2665C30.2522 21.9569 30.1105 21.5751 30.1105 21.1211V12.2682C30.1105 10.9681 29.7969 10.0085 29.1695 9.38941C28.5422 8.74968 27.7226 8.42982 26.7107 8.42982C25.6585 8.42982 24.7883 8.80127 24.1003 9.54418C23.4121 10.2871 23.0681 11.2364 23.0681 12.392V21.1211C23.0681 21.5751 22.9265 21.9569 22.6432 22.2665C22.3598 22.5554 21.9855 22.6998 21.52 22.6998ZM51.5858 22.7927C49.9467 22.7927 48.4998 22.4315 47.2451 21.7093C45.9904 20.9664 44.9988 19.9552 44.2703 18.6757C43.562 17.3757 43.2079 15.8898 43.2079 14.2183C43.2079 12.5261 43.562 11.0403 44.2703 9.76086C44.9988 8.46077 45.9904 7.44959 47.2451 6.72732C48.4998 5.98442 49.9467 5.61296 51.5858 5.61296C53.2048 5.61296 54.6416 5.98442 55.8962 6.72732C57.1509 7.44959 58.1324 8.46077 58.8407 9.76086C59.5692 11.0403 59.9334 12.5261 59.9334 14.2183C59.9334 15.8898 59.5793 17.3757 58.871 18.6757C58.1627 19.9552 57.1813 20.9664 55.9266 21.7093C54.6719 22.4315 53.225 22.7927 51.5858 22.7927ZM51.5858 20.0068C52.6381 20.0068 53.569 19.7591 54.3785 19.2639C55.188 18.7686 55.8153 18.0876 56.2605 17.2209C56.7259 16.3542 56.9587 15.3533 56.9587 14.2183C56.9587 13.0833 56.7259 12.0824 56.2605 11.2157C55.8153 10.3284 55.188 9.63704 54.3785 9.14177C53.569 8.6465 52.6381 8.39886 51.5858 8.39886C50.5335 8.39886 49.6027 8.6465 48.7932 9.14177C47.9837 9.63704 47.3463 10.3284 46.8808 11.2157C46.4154 12.0824 46.1827 13.0833 46.1827 14.2183C46.1827 15.3533 46.4154 16.3542 46.8808 17.2209C47.3463 18.0876 47.9837 18.7686 48.7932 19.2639C49.6027 19.7591 50.5335 20.0068 51.5858 20.0068Z" fill="#FCD9D9"/>
<path d="M61.8345 29.9122C61.3893 29.9122 61.0149 29.7574 60.7113 29.4479C60.428 29.159 60.2864 28.7875 60.2864 28.3335V14.2183C60.3066 12.588 60.681 11.1228 61.4095 9.82275C62.138 8.52266 63.1296 7.50117 64.3843 6.75826C65.639 5.99472 67.0555 5.61295 68.634 5.61295C70.2327 5.61295 71.6594 5.99472 72.914 6.75826C74.1687 7.50117 75.1603 8.52266 75.8888 9.82275C76.6376 11.1228 77.012 12.588 77.012 14.2183C77.012 15.8486 76.6679 17.3137 75.9799 18.6138C75.3121 19.8933 74.3913 20.9148 73.2176 21.6783C72.0439 22.4212 70.7184 22.7927 69.2411 22.7927C68.0471 22.7927 66.9442 22.545 65.9324 22.0498C64.9408 21.5339 64.0909 20.8425 63.3826 19.9758V28.3335C63.3826 28.7875 63.2409 29.159 62.9576 29.4479C62.6743 29.7574 62.2999 29.9122 61.8345 29.9122ZM68.634 20.0068C69.6661 20.0068 70.5868 19.7591 71.3963 19.2639C72.2058 18.748 72.8432 18.0566 73.3087 17.1899C73.7943 16.3025 74.0372 15.312 74.0372 14.2183C74.0372 13.1039 73.7943 12.1134 73.3087 11.2467C72.8432 10.3593 72.2058 9.66798 71.3963 9.17271C70.5868 8.6568 69.6661 8.39885 68.634 8.39885C67.6222 8.39885 66.7014 8.6568 65.8717 9.17271C65.0622 9.66798 64.4248 10.3593 63.9593 11.2467C63.4939 12.1134 63.2612 13.1039 63.2612 14.2183C63.2612 15.312 63.4939 16.3025 63.9593 17.1899C64.4248 18.0566 65.0622 18.748 65.8717 19.2639C66.7014 19.7591 67.6222 20.0068 68.634 20.0068ZM79.687 29.9122C79.2418 29.9122 78.8674 29.7574 78.5639 29.4479C78.2805 29.159 78.1389 28.7875 78.1389 28.3335V14.2183C78.1591 12.588 78.5335 11.1228 79.262 9.82275C79.9905 8.52266 80.9821 7.50117 82.2368 6.75826C83.4915 5.99472 84.908 5.61295 86.4865 5.61295C88.0852 5.61295 89.5119 5.99472 90.7666 6.75826C92.0212 7.50117 93.0128 8.52266 93.7413 9.82275C94.4901 11.1228 94.8645 12.588 94.8645 14.2183C94.8645 15.8486 94.5205 17.3137 93.8324 18.6138C93.1646 19.8933 92.2438 20.9148 91.0701 21.6783C89.8964 22.4212 88.5709 22.7927 87.0936 22.7927C85.8996 22.7927 84.7968 22.545 83.7849 22.0498C82.7933 21.5339 81.9434 20.8425 81.2351 19.9758V28.3335C81.2351 28.7875 81.0934 29.159 80.8101 29.4479C80.5268 29.7574 80.1524 29.9122 79.687 29.9122ZM86.4865 20.0068C87.5186 20.0068 88.4393 19.7591 89.2488 19.2639C90.0583 18.748 90.6957 18.0566 91.1612 17.1899C91.6468 16.3025 91.8897 15.312 91.8897 14.2183C91.8897 13.1039 91.6468 12.1134 91.1612 11.2467C90.6957 10.3593 90.0583 9.66798 89.2488 9.17271C88.4393 8.6568 87.5186 8.39885 86.4865 8.39885C85.4747 8.39885 84.5539 8.6568 83.7242 9.17271C82.9147 9.66798 82.2773 10.3593 81.8118 11.2467C81.3464 12.1134 81.1137 13.1039 81.1137 14.2183C81.1137 15.312 81.3464 16.3025 81.8118 17.1899C82.2773 18.0566 82.9147 18.748 83.7242 19.2639C84.5539 19.7591 85.4747 20.0068 86.4865 20.0068Z" fill="#FCD9D9"/>
<path d="M99.3406 30.0979C99.1383 30.0979 98.8954 30.036 98.6121 29.9122C97.7217 29.4994 97.4789 28.8494 97.8836 27.962L100.919 20.9973L94.0892 7.77975C93.8868 7.38766 93.8565 7.01621 93.9981 6.66539C94.16 6.29394 94.4332 6.02567 94.8177 5.86058C95.2022 5.69549 95.5665 5.68517 95.9105 5.82963C96.2545 5.95344 96.5176 6.2114 96.6997 6.60349L102.255 17.8709L107.142 6.63444C107.547 5.76772 108.184 5.52008 109.054 5.89153C109.965 6.28362 110.218 6.93367 109.813 7.84166L100.524 29.1383C100.282 29.778 99.887 30.0979 99.3406 30.0979Z" fill="#FCD9D9"/>
</svg>
