<svg width="20" height="23" viewBox="0 0 20 23" fill="none" xmlns="http://www.w3.org/2000/svg">
<path d="M14.4444 16.6667V13.3333H6.66667V8.88889H14.4444V5.55556L20 11.1111L14.4444 16.6667ZM12.2222 0C12.8116 0 13.3768 0.234126 13.7936 0.650874C14.2103 1.06762 14.4444 1.63285 14.4444 2.22222V4.44444H12.2222V2.22222H2.22222V20H12.2222V17.7778H14.4444V20C14.4444 20.5894 14.2103 21.1546 13.7936 21.5713C13.3768 21.9881 12.8116 22.2222 12.2222 22.2222H2.22222C1.63285 22.2222 1.06762 21.9881 0.650874 21.5713C0.234126 21.1546 0 20.5894 0 20V2.22222C0 1.63285 0.234126 1.06762 0.650874 0.650874C1.06762 0.234126 1.63285 0 2.22222 0H12.2222Z" fill="#393939"/>
</svg>
