<svg width="110" height="30" viewBox="0 0 110 30" fill="none" xmlns="http://www.w3.org/2000/svg">
<path d="M1.65996 13.0581C2.78752 12.8563 3.8897 13.4787 4.12389 14.4504C4.22807 14.8822 4.47616 15.2769 4.84145 15.5915C5.87047 16.4779 7.5448 16.4779 8.57402 15.5915C9.60306 14.705 9.60306 13.2627 8.57402 12.3763C7.54151 11.487 5.87395 11.4868 4.84145 12.3763C4.02426 13.0801 2.69875 13.0775 1.88548 12.3685C1.07502 11.6616 1.10149 10.5126 1.92563 9.81145C3.20881 8.71992 4.90635 8.11941 6.70744 8.11941C6.71434 8.11941 6.72129 8.11941 6.72806 8.11941C7.37633 8.12108 8.01056 8.20034 8.61677 8.3524C7.09637 7.0431 5.34283 5.53297 4.61159 4.90309C3.79919 4.20329 3.79919 3.06451 4.61159 2.3647C5.42401 1.66509 6.74583 1.66509 7.55827 2.3647C8.50888 3.1836 10.9945 5.32414 12.8199 6.89593L10.1691 1.38315C9.97573 0.979314 9.52186 0.71831 9.01335 0.717936C8.58098 0.717936 8.14191 0.914993 7.90988 1.28986C7.80326 1.46354 7.55302 1.53272 7.34641 1.43868C7.13937 1.34407 7.06772 1.12514 7.17364 0.953325C7.52722 0.377664 8.23133 0 9.01335 0H9.01442C9.85133 0 10.6134 0.432071 10.9392 1.1085L14.3436 8.18841C14.3432 6.40684 14.3429 4.35605 14.3429 3.63381C14.3429 2.94578 13.6004 2.43295 12.8201 2.58251C12.5955 2.6257 12.3728 2.50362 12.3229 2.31011C12.273 2.1166 12.4145 1.92478 12.6391 1.88178C13.9434 1.63219 15.1764 2.49053 15.1764 3.63381C15.1764 5.045 15.1775 23.668 15.1775 24.1466C15.1775 24.3448 14.9911 24.5056 14.7607 24.5056C14.5305 24.5056 14.3441 24.3448 14.3441 24.1466V11.1747C14.3441 11.1439 14.3441 10.9558 14.3441 10.6582C14.3429 9.73084 13.9197 8.85812 13.1637 8.20711C11.3791 6.67061 8.09587 3.84302 6.96894 2.8723C6.48149 2.45258 5.68837 2.45258 5.20088 2.8723C4.71361 3.29223 4.71361 3.97557 5.20088 4.39531C6.40396 5.43164 10.3738 8.85025 11.5207 9.83776C11.6834 9.97803 11.6837 10.2053 11.5209 10.3456C11.3583 10.4856 11.0944 10.4858 10.9316 10.3456C8.61702 8.35182 4.83971 8.3415 2.51144 10.3222C2.01418 10.7453 1.99291 11.4404 2.47845 11.8639C2.96572 12.2885 3.7612 12.2915 4.25217 11.8686C5.60611 10.7023 7.80939 10.7023 9.16354 11.8686C10.5175 13.035 10.5175 14.9327 9.16354 16.0992C7.80674 17.2677 5.61045 17.2692 4.25217 16.0992C3.77184 15.6854 3.4454 15.1657 3.30801 14.5964C3.16736 14.0136 2.50623 13.6399 1.82969 13.761C1.15467 13.8818 0.719705 14.4531 0.85992 15.0344C1.09672 16.0159 1.65844 16.9108 2.48409 17.6222C3.11353 18.1644 3.85106 18.5692 4.6765 18.8254C6.1407 19.2803 8.05685 18.8886 8.05685 20.2458V24.1466C8.05685 24.345 7.7397 24.5056 7.50964 24.5056C7.27932 24.5056 7.17624 24.345 7.17624 24.1466V20.509C7.17624 19.4535 5.52863 19.8536 4.39368 19.501C3.45213 19.2084 2.6115 18.7472 1.8948 18.1298C0.9539 17.3193 0.313827 16.2994 0.0438191 15.1806C-0.189942 14.2116 0.534999 13.2594 1.65996 13.0581Z" fill="#235952"/>
<path d="M21.5186 22.6019C21.0734 22.6019 20.699 22.4574 20.3954 22.1685C20.1121 21.859 19.9705 21.4772 19.9705 21.0232V7.24851C19.9705 6.77387 20.1121 6.3921 20.3954 6.10319C20.699 5.81428 21.0734 5.66983 21.5186 5.66983C21.984 5.66983 22.3584 5.81428 22.6417 6.10319C22.925 6.3921 23.0667 6.75324 23.0667 7.1866C23.5928 6.65005 24.2202 6.23733 24.9487 5.94842C25.6773 5.63888 26.4665 5.4841 27.3164 5.4841C29.4413 5.4841 31.0399 6.29924 32.1125 7.9295C32.6994 7.16596 33.4481 6.56751 34.3588 6.13415C35.2694 5.70079 36.2914 5.4841 37.4246 5.4841C39.165 5.4841 40.5816 6.06192 41.6743 7.21755C42.7671 8.37318 43.3135 10.0241 43.3135 12.1703V21.0232C43.3135 21.4772 43.1718 21.859 42.8885 22.1685C42.6052 22.4574 42.2308 22.6019 41.7654 22.6019C41.3202 22.6019 40.9458 22.4574 40.6423 22.1685C40.359 21.859 40.2173 21.4772 40.2173 21.0232V12.1703C40.2173 10.8702 39.9036 9.91059 39.2763 9.2915C38.649 8.65177 37.8294 8.33191 36.8175 8.33191C35.7652 8.33191 34.8951 8.70336 34.207 9.44627C33.5392 10.1892 33.2053 11.1384 33.2053 12.2941V21.0232C33.2053 21.4772 33.0636 21.859 32.7803 22.1685C32.497 22.4574 32.1226 22.6019 31.6572 22.6019C31.212 22.6019 30.8376 22.4574 30.5341 22.1685C30.2507 21.859 30.1091 21.4772 30.1091 21.0232V12.1703C30.1091 10.8702 29.7954 9.91059 29.168 9.2915C28.5407 8.65177 27.7212 8.33191 26.7093 8.33191C25.657 8.33191 24.7868 8.70336 24.0988 9.44627C23.4107 10.1892 23.0667 11.1384 23.0667 12.2941V21.0232C23.0667 21.4772 22.925 21.859 22.6417 22.1685C22.3584 22.4574 21.984 22.6019 21.5186 22.6019ZM51.5845 22.6948C49.9453 22.6948 48.4984 22.3336 47.2437 21.6114C45.989 20.8685 44.9974 19.8573 44.2689 18.5778C43.5606 17.2777 43.2065 15.7919 43.2065 14.1204C43.2065 12.4282 43.5606 10.9424 44.2689 9.66295C44.9974 8.36287 45.989 7.35169 47.2437 6.62942C48.4984 5.88651 49.9453 5.51506 51.5845 5.51506C53.2034 5.51506 54.6402 5.88651 55.8949 6.62942C57.1496 7.35169 58.131 8.36287 58.8393 9.66295C59.5678 10.9424 59.9321 12.4282 59.9321 14.1204C59.9321 15.7919 59.578 17.2777 58.8697 18.5778C58.1614 19.8573 57.1799 20.8685 55.9252 21.6114C54.6706 22.3336 53.2236 22.6948 51.5845 22.6948ZM51.5845 19.9089C52.6368 19.9089 53.5677 19.6612 54.3771 19.166C55.1866 18.6707 55.8139 17.9897 56.2591 17.123C56.7246 16.2562 56.9573 15.2554 56.9573 14.1204C56.9573 12.9854 56.7246 11.9845 56.2591 11.1178C55.8139 10.2304 55.1866 9.53913 54.3771 9.04386C53.5677 8.54859 52.6368 8.30096 51.5845 8.30096C50.5322 8.30096 49.6013 8.54859 48.7918 9.04386C47.9824 9.53913 47.3449 10.2304 46.8795 11.1178C46.414 11.9845 46.1813 12.9854 46.1813 14.1204C46.1813 15.2554 46.414 16.2562 46.8795 17.123C47.3449 17.9897 47.9824 18.6707 48.7918 19.166C49.6013 19.6612 50.5322 19.9089 51.5845 19.9089Z" fill="#235952"/>
<path d="M61.8335 29.8143C61.3883 29.8143 61.0139 29.6596 60.7104 29.35C60.4271 29.0611 60.2854 28.6897 60.2854 28.2357V14.1204C60.3056 12.4902 60.68 11.025 61.4085 9.72489C62.1371 8.4248 63.1287 7.40331 64.3833 6.6604C65.638 5.89686 67.0546 5.51508 68.633 5.51508C70.2317 5.51508 71.6584 5.89686 72.9131 6.6604C74.1678 7.40331 75.1594 8.4248 75.8879 9.72489C76.6367 11.025 77.011 12.4902 77.011 14.1204C77.011 15.7507 76.667 17.2159 75.979 18.516C75.3112 19.7954 74.3904 20.8169 73.2167 21.5805C72.0429 22.3234 70.7174 22.6948 69.2401 22.6948C68.0462 22.6948 66.9433 22.4472 65.9314 21.9519C64.9398 21.436 64.0899 20.7447 63.3816 19.878V28.2357C63.3816 28.6897 63.24 29.0611 62.9566 29.35C62.6733 29.6596 62.299 29.8143 61.8335 29.8143ZM68.633 19.9089C69.6651 19.9089 70.5859 19.6613 71.3954 19.166C72.2048 18.6501 72.8423 17.9588 73.3077 17.0921C73.7934 16.2047 74.0362 15.2142 74.0362 14.1204C74.0362 13.0061 73.7934 12.0155 73.3077 11.1488C72.8423 10.2614 72.2048 9.57012 71.3954 9.07485C70.5859 8.55894 69.6651 8.30099 68.633 8.30099C67.6212 8.30099 66.7004 8.55894 65.8707 9.07485C65.0613 9.57012 64.4238 10.2614 63.9584 11.1488C63.4929 12.0155 63.2602 13.0061 63.2602 14.1204C63.2602 15.2142 63.4929 16.2047 63.9584 17.0921C64.4238 17.9588 65.0613 18.6501 65.8707 19.166C66.7004 19.6613 67.6212 19.9089 68.633 19.9089ZM79.6861 29.8143C79.2409 29.8143 78.8665 29.6596 78.563 29.35C78.2796 29.0611 78.138 28.6897 78.138 28.2357V14.1204C78.1582 12.4902 78.5326 11.025 79.2611 9.72489C79.9896 8.4248 80.9812 7.40331 82.2359 6.6604C83.4906 5.89686 84.9072 5.51508 86.4856 5.51508C88.0843 5.51508 89.511 5.89686 90.7657 6.6604C92.0204 7.40331 93.012 8.4248 93.7405 9.72489C94.4892 11.025 94.8636 12.4902 94.8636 14.1204C94.8636 15.7507 94.5196 17.2159 93.8316 18.516C93.1637 19.7954 92.243 20.8169 91.0692 21.5805C89.8955 22.3234 88.57 22.6948 87.0927 22.6948C85.8988 22.6948 84.7959 22.4472 83.784 21.9519C82.7924 21.436 81.9425 20.7447 81.2342 19.878V28.2357C81.2342 28.6897 81.0925 29.0611 80.8092 29.35C80.5259 29.6596 80.1515 29.8143 79.6861 29.8143ZM86.4856 19.9089C87.5177 19.9089 88.4385 19.6613 89.2479 19.166C90.0574 18.6501 90.6949 17.9588 91.1603 17.0921C91.646 16.2047 91.8888 15.2142 91.8888 14.1204C91.8888 13.0061 91.646 12.0155 91.1603 11.1488C90.6949 10.2614 90.0574 9.57012 89.2479 9.07485C88.4385 8.55894 87.5177 8.30099 86.4856 8.30099C85.4738 8.30099 84.553 8.55894 83.7233 9.07485C82.9138 9.57012 82.2764 10.2614 81.8109 11.1488C81.3455 12.0155 81.1128 13.0061 81.1128 14.1204C81.1128 15.2142 81.3455 16.2047 81.8109 17.0921C82.2764 17.9588 82.9138 18.6501 83.7233 19.166C84.553 19.6613 85.4738 19.9089 86.4856 19.9089Z" fill="#235952"/>
<path d="M99.3406 30C99.1383 30 98.8954 29.9381 98.6121 29.8143C97.7217 29.4015 97.4789 28.7515 97.8836 27.8641L100.919 20.8994L94.0892 7.68185C93.8868 7.28976 93.8565 6.91831 93.9981 6.56749C94.16 6.19604 94.4332 5.92777 94.8177 5.76268C95.2022 5.59759 95.5665 5.58727 95.9105 5.73172C96.2545 5.85554 96.5176 6.1135 96.6997 6.50559L102.255 17.773L107.142 6.53654C107.547 5.66982 108.184 5.42218 109.054 5.79363C109.965 6.18572 110.218 6.83577 109.813 7.74376L100.524 29.0404C100.282 29.6801 99.887 30 99.3406 30Z" fill="#235952"/>
</svg>
