<svg width="255" height="508" viewBox="0 0 255 508" fill="none" xmlns="http://www.w3.org/2000/svg">
<rect x="15.3945" y="8.6207" width="223.522" height="480.295" fill="url(#paint0_linear)"/>
<path d="M38.6626 34.3062C38.6626 35.2261 38.4897 35.9204 38.144 36.3892C37.8013 36.855 37.2783 37.0879 36.5752 37.0879C35.8838 37.0879 35.3623 36.8608 35.0107 36.4067C34.6621 35.9497 34.4834 35.2744 34.4746 34.3809V33.2734C34.4746 32.3535 34.646 31.6636 34.9888 31.2036C35.3345 30.7437 35.8604 30.5137 36.5664 30.5137C37.2666 30.5137 37.7881 30.7378 38.1309 31.186C38.4766 31.6343 38.6538 32.3052 38.6626 33.1987V34.3062ZM37.5947 33.1108C37.5947 32.5103 37.5127 32.0708 37.3486 31.7925C37.1846 31.5112 36.9238 31.3706 36.5664 31.3706C36.2178 31.3706 35.9614 31.5039 35.7974 31.7705C35.6333 32.0342 35.5469 32.4473 35.5381 33.0098V34.46C35.5381 35.0576 35.6216 35.5029 35.7886 35.7959C35.9556 36.0889 36.2178 36.2354 36.5752 36.2354C36.918 36.2354 37.1714 36.1006 37.3354 35.8311C37.4995 35.5586 37.5859 35.1338 37.5947 34.5566V33.1108ZM43.6372 32.2891C43.6372 32.6025 43.5566 32.8823 43.3955 33.1284C43.2344 33.3716 43.0146 33.5635 42.7363 33.7041C43.0703 33.8594 43.3267 34.0718 43.5054 34.3413C43.687 34.6108 43.7778 34.9155 43.7778 35.2554C43.7778 35.8179 43.5874 36.2646 43.2065 36.5957C42.8257 36.9238 42.3188 37.0879 41.686 37.0879C41.0503 37.0879 40.5405 36.9224 40.1567 36.5913C39.7759 36.2603 39.5854 35.8149 39.5854 35.2554C39.5854 34.9126 39.6763 34.605 39.8579 34.3325C40.0396 34.0601 40.2944 33.8506 40.6226 33.7041C40.3472 33.5635 40.1289 33.3716 39.9678 33.1284C39.8096 32.8823 39.7305 32.6025 39.7305 32.2891C39.7305 31.7441 39.9062 31.312 40.2578 30.9927C40.6094 30.6733 41.084 30.5137 41.6816 30.5137C42.2822 30.5137 42.7583 30.6733 43.1099 30.9927C43.4614 31.312 43.6372 31.7441 43.6372 32.2891ZM42.71 35.2026C42.71 34.8862 42.6147 34.6313 42.4243 34.438C42.2368 34.2417 41.9878 34.1436 41.6772 34.1436C41.3667 34.1436 41.1177 34.2402 40.9302 34.4336C40.7456 34.627 40.6533 34.8833 40.6533 35.2026C40.6533 35.5161 40.7441 35.7666 40.9258 35.9541C41.1104 36.1416 41.3638 36.2354 41.686 36.2354C42.0083 36.2354 42.2588 36.1445 42.4375 35.9629C42.6191 35.7812 42.71 35.5278 42.71 35.2026ZM42.5737 32.3286C42.5737 32.0503 42.4932 31.8218 42.332 31.6431C42.1709 31.4614 41.9541 31.3706 41.6816 31.3706C41.4092 31.3706 41.1938 31.457 41.0356 31.6299C40.8774 31.7998 40.7983 32.0327 40.7983 32.3286C40.7983 32.6216 40.8774 32.8545 41.0356 33.0273C41.1968 33.2002 41.4136 33.2866 41.686 33.2866C41.9585 33.2866 42.1738 33.2002 42.332 33.0273C42.4932 32.8545 42.5737 32.6216 42.5737 32.3286ZM45.4565 35.875C45.6558 35.875 45.8096 35.9321 45.918 36.0464C46.0264 36.1577 46.0806 36.2983 46.0806 36.4683C46.0806 36.6353 46.0264 36.7744 45.918 36.8857C45.8096 36.9941 45.6558 37.0483 45.4565 37.0483C45.2661 37.0483 45.1152 36.9941 45.0039 36.8857C44.8926 36.7773 44.8369 36.6382 44.8369 36.4683C44.8369 36.2983 44.8911 36.1577 44.9995 36.0464C45.1079 35.9321 45.2603 35.875 45.4565 35.875ZM51.5386 37H47.2363V36.2661L49.3677 33.9414C49.6753 33.5986 49.8936 33.313 50.0225 33.0845C50.1543 32.853 50.2202 32.6216 50.2202 32.3901C50.2202 32.0854 50.1338 31.8394 49.9609 31.6519C49.791 31.4644 49.561 31.3706 49.271 31.3706C48.9253 31.3706 48.6572 31.4761 48.4668 31.687C48.2764 31.8979 48.1812 32.1865 48.1812 32.5527H47.1133C47.1133 32.1631 47.2012 31.813 47.377 31.5024C47.5557 31.189 47.8091 30.9458 48.1372 30.7729C48.4683 30.6001 48.8491 30.5137 49.2798 30.5137C49.9009 30.5137 50.3901 30.6704 50.7476 30.9839C51.1079 31.2944 51.2881 31.7251 51.2881 32.2759C51.2881 32.5952 51.1973 32.9307 51.0156 33.2822C50.8369 33.6309 50.5425 34.0278 50.1323 34.4731L48.5679 36.1475H51.5386V37ZM55.6738 30.5708V31.4541H55.542C54.9443 31.4629 54.4668 31.627 54.1094 31.9463C53.752 32.2656 53.5396 32.7183 53.4722 33.3042C53.8149 32.9438 54.2529 32.7637 54.7861 32.7637C55.3516 32.7637 55.7969 32.9629 56.1221 33.3613C56.4502 33.7598 56.6143 34.2739 56.6143 34.9038C56.6143 35.5542 56.4224 36.0815 56.0386 36.4858C55.6577 36.8872 55.1567 37.0879 54.5356 37.0879C53.897 37.0879 53.3784 36.8521 52.98 36.3804C52.5845 35.9087 52.3867 35.2905 52.3867 34.5259V34.1611C52.3867 33.0391 52.6592 32.1602 53.2041 31.5244C53.752 30.8887 54.5386 30.5708 55.564 30.5708H55.6738ZM54.5269 33.625C54.2925 33.625 54.0771 33.6909 53.8809 33.8228C53.6875 33.9546 53.5454 34.1304 53.4546 34.3501V34.6753C53.4546 35.1499 53.5542 35.5278 53.7534 35.8091C53.9526 36.0874 54.2104 36.2266 54.5269 36.2266C54.8433 36.2266 55.0938 36.1079 55.2783 35.8706C55.4629 35.6333 55.5552 35.3213 55.5552 34.9346C55.5552 34.5479 55.4614 34.2329 55.2739 33.9897C55.0864 33.7466 54.8374 33.625 54.5269 33.625Z" fill="black"/>
<path d="M208.888 35.7192H209.683V36.5762H208.888V38H207.82V36.5762H205.056L205.025 35.9258L207.785 31.6016H208.888V35.7192ZM206.146 35.7192H207.82V33.0474L207.741 33.188L206.146 35.7192ZM215.467 37.1694C215.235 37.4712 214.914 37.6997 214.504 37.855C214.094 38.0103 213.628 38.0879 213.107 38.0879C212.571 38.0879 212.096 37.9663 211.683 37.7231C211.27 37.48 210.951 37.1328 210.725 36.6816C210.502 36.2275 210.387 35.6987 210.378 35.0952V34.5942C210.378 33.6274 210.609 32.873 211.072 32.3311C211.535 31.7861 212.181 31.5137 213.01 31.5137C213.722 31.5137 214.287 31.6895 214.706 32.041C215.125 32.3926 215.377 32.8994 215.462 33.5615H214.372C214.249 32.791 213.803 32.4058 213.032 32.4058C212.534 32.4058 212.155 32.5859 211.894 32.9463C211.636 33.3037 211.503 33.8296 211.494 34.5239V35.0161C211.494 35.7075 211.639 36.2451 211.929 36.6289C212.222 37.0098 212.628 37.2002 213.146 37.2002C213.715 37.2002 214.119 37.0713 214.359 36.8135V35.561H213.041V34.7173H215.467V37.1694Z" fill="black"/>
<rect x="218.556" y="31.9444" width="12.4444" height="5.11111" rx="2.5" fill="#FCD9D9" stroke="#C4C4C4"/>
<rect x="219.278" y="32.6666" width="9.16667" height="3.66667" rx="1" fill="black"/>
<rect x="193" y="35.1111" width="1.83333" height="2.44444" fill="black"/>
<rect x="193" y="35.1111" width="1.83333" height="2.44444" fill="black"/>
<rect x="196.056" y="33.8889" width="1.83333" height="3.66667" fill="black"/>
<rect x="196.056" y="33.8889" width="1.83333" height="3.66667" fill="black"/>
<rect x="198.5" y="32.6666" width="1.83333" height="4.88889" fill="black"/>
<rect x="198.5" y="32.6666" width="1.83333" height="4.88889" fill="black"/>
<path d="M187.811 273.823C187.811 273.823 185.686 277.74 176.998 278.846C174.511 279.067 172.499 279.216 170.718 279.205C166.194 279.057 164.005 278.152 164.005 278.152L162.579 271.303L155.715 237.395V237.393C155.717 237.379 155.747 236.845 158.435 235.938C160.753 235.196 164.895 234.115 172.348 232.837L185.301 267.162L187.811 273.823Z" fill="url(#paint1_linear)"/>
<path d="M172.344 232.839C164.891 234.117 160.748 235.198 158.43 235.94C155.743 236.847 155.712 237.381 155.71 237.396L154.249 229.969C154.621 229.594 154.998 229.232 155.377 228.881L155.511 229.052C155.511 229.052 155.729 228.881 156.257 228.559C158.213 227.65 163.089 225.485 166.187 226.011L166.162 225.823C168.497 225.995 169.991 226.529 169.991 226.529L172.344 232.839Z" fill="url(#paint2_linear)"/>
<path d="M170.714 279.204C166.19 279.056 164 278.151 164 278.151L162.575 271.302L155.711 237.394V237.392L154.249 229.966C154.622 229.591 154.998 229.229 155.378 228.878L155.511 229.049C155.511 229.049 155.73 228.878 156.257 228.556C156.782 230.163 157.518 232.824 158.43 235.937C162.546 249.827 169.626 275.259 170.714 279.204Z" fill="url(#paint3_linear)"/>
<path d="M166.187 226.01C164.37 225.674 161.873 226.36 159.855 227.092C157.363 227.983 155.511 229.052 155.511 229.052L155.377 228.881L147.083 197.052L148.831 196.606L154.475 195.068L166.162 225.823L166.187 226.01Z" fill="url(#paint4_linear)"/>
<path d="M159.855 227.091C157.363 227.982 155.511 229.051 155.511 229.051L155.377 228.88L147.083 197.051L148.831 196.605L159.855 227.091Z" fill="url(#paint5_linear)"/>
<path d="M192.684 279.615C192.366 279.762 189.097 283.747 176.303 284.637C176.109 284.642 175.916 284.646 175.725 284.652C163.475 285.377 160.587 282.863 160.587 282.863C160.587 282.863 159.698 278.671 159.352 275.776C159.132 272.937 160.602 271.835 162.577 271.303L164.002 278.152C164.002 278.152 166.005 279.029 170.153 279.198C171.973 279.222 174.292 279.198 176.995 278.846C185.683 277.74 187.808 273.823 187.808 273.823L185.297 267.162C190.188 265.668 192.884 279.588 192.684 279.615Z" fill="#F78A7B"/>
<path d="M175.725 284.652C163.475 285.377 160.587 282.863 160.587 282.863C160.587 282.863 159.698 278.672 159.352 275.776C159.132 272.937 160.602 271.836 162.577 271.303L164.002 278.152C164.002 278.152 166.005 279.029 170.153 279.198C171.766 281.363 173.589 283.353 175.725 284.652Z" fill="#C64228"/>
<path d="M141.652 283.562L140.751 284.464L140.022 285.196C140.022 285.196 132.905 276.866 128.301 269.851C123.698 262.837 122.422 253.948 125.033 248.21C125.033 248.21 116.743 220.431 115.467 216.245C114.132 211.941 114.132 213.017 114.132 213.017L111.88 213.177C111.88 213.177 106.918 222.942 103.391 234.101C99.8638 245.141 88.2456 283.363 88.2456 283.363L87.6166 283.561L86.353 284.08C86.353 284.08 83.7441 267.659 83.7441 259.167C83.7441 250.562 85.5356 247.095 91.2147 241.355C91.2147 241.355 91.9323 221.307 95.2598 209.75C96.8942 203.97 98.4289 199.666 99.5257 196.866C100.681 194.067 101.397 192.711 101.397 192.711C101.401 192.708 103.381 191.003 105.277 188.012C105.302 187.859 105.382 187.764 105.464 187.669C105.914 186.942 106.361 186.132 106.738 185.237C106.827 185.058 106.916 184.872 107.007 184.687C107.015 184.608 107.084 184.587 107.092 184.509C107.175 184.337 107.259 184.224 107.283 184.049C107.351 183.97 107.361 183.952 107.369 183.874C107.46 183.621 107.552 183.427 107.646 183.233C107.712 183.158 107.718 183.142 107.724 183.068C107.812 182.883 107.901 182.697 107.99 182.511C107.999 182.43 108.067 182.347 108.078 182.265C108.091 182.174 108.165 182.08 108.179 181.987C108.255 181.889 108.271 181.791 108.347 181.633C108.353 181.618 108.359 181.545 108.366 181.53C108.519 181.264 108.616 180.998 108.713 180.728C108.721 180.71 108.729 180.631 108.797 180.553C108.887 180.36 108.977 180.165 109.067 179.91C109.075 179.828 109.085 179.808 109.152 179.725C109.348 179.179 109.601 178.569 109.799 178.016C109.805 177.935 109.872 177.916 109.88 177.836C109.972 177.575 110.063 177.372 110.155 177.109C110.162 177.032 110.169 177.013 110.235 176.937C110.332 176.655 110.43 176.376 110.526 176.035C110.528 176.03 110.53 176.028 110.532 176.025C110.686 175.749 110.78 175.476 110.873 175.203C110.881 175.121 110.888 175.039 110.956 174.958C111.048 174.751 111.138 174.484 111.227 174.217C111.233 174.144 111.237 174.133 111.24 174.122C111.336 173.783 111.428 173.504 111.522 173.226C111.585 173.15 111.593 173.132 111.598 173.057C111.684 172.798 111.771 172.596 111.856 172.335C111.864 172.253 111.871 172.23 111.879 172.149C111.969 171.877 112.058 171.605 112.145 171.333C112.147 171.332 112.147 171.332 112.147 171.33C112.861 170.807 114.043 170.06 114.569 169.895C114.569 169.895 113.776 168.721 113.14 167.537C113.14 167.535 113.14 167.535 113.14 167.475C113.223 167.181 113.303 166.831 113.319 166.549C113.32 166.479 113.32 166.469 113.322 166.461C113.329 166.299 113.395 166.196 113.4 166.096C113.406 165.926 113.411 165.757 113.414 165.651C113.764 161.332 113.666 157.358 113.658 156.821C113.658 156.809 113.658 156.803 113.658 156.803C113.658 156.803 123.238 155.454 128.201 155.74C128.201 155.74 129.193 157.988 130.542 160.957C131.891 163.865 133.601 167.555 134.976 170.434C134.975 170.451 134.708 177.664 133.162 186.316C132.99 187.199 132.88 188.113 132.715 189.115C132.715 189.119 132.714 189.184 132.714 189.188C132.707 189.284 132.702 189.381 132.698 189.477C132.43 191.378 132.173 193.544 131.985 195.872C131.18 204.879 130.894 215.888 131.442 222.026C132.246 230.686 136.42 269.493 141.652 283.562Z" fill="#235952"/>
<path d="M111.41 212.677C111.41 212.677 115.744 210.864 117.637 210.684L111.41 212.677Z" fill="#7E332F"/>
<path d="M132.717 189.188C132.71 189.285 132.706 189.382 132.701 189.478C132.434 191.379 132.176 193.545 131.988 195.872C129.563 195.609 124.322 193.971 120.259 191.562C115.485 188.837 110.958 184.77 108.182 181.988C108.257 181.89 108.274 181.792 108.349 181.634C108.356 181.62 108.362 181.546 108.368 181.531C108.522 181.265 108.619 180.999 108.716 180.73C108.724 180.712 108.732 180.632 108.8 180.554C108.89 180.361 108.979 180.166 109.069 179.911C109.078 179.83 109.087 179.809 109.155 179.727C109.351 179.181 109.604 178.57 109.801 178.017C109.808 177.937 109.875 177.918 109.883 177.837C109.975 177.576 110.066 177.374 110.158 177.11C110.165 177.033 110.171 177.014 110.237 176.938C110.335 176.656 110.433 176.377 110.529 176.036C110.531 176.031 110.532 176.029 110.535 176.026C110.689 175.75 110.782 175.477 110.875 175.204C110.883 175.122 110.891 175.04 110.959 174.959C111.051 174.752 111.141 174.485 111.23 174.218C111.235 174.145 111.239 174.134 111.243 174.123C111.338 173.784 111.431 173.505 111.524 173.227C111.588 173.151 111.596 173.134 111.601 173.058C111.687 172.799 111.774 172.597 111.859 172.336C111.867 172.254 111.873 172.231 111.881 172.15C111.972 171.878 112.061 171.606 112.147 171.334C112.149 171.333 112.149 171.333 112.149 171.331C112.863 170.808 114.045 170.061 114.571 169.896C114.571 169.896 113.779 168.722 113.143 167.538C113.143 167.536 113.143 167.536 113.143 167.476C113.226 167.182 113.306 166.832 113.322 166.55C113.323 166.48 113.323 166.47 113.325 166.462C113.331 166.3 113.398 166.197 113.403 166.098C113.409 165.927 113.413 165.758 113.416 165.652C113.767 161.333 113.669 157.359 113.66 156.822C114.388 159.777 115.024 169.897 115.024 169.897C115.024 169.897 119.014 175.398 123.069 179.912C127.124 184.426 130.734 189.466 130.734 189.466L132.717 189.188Z" fill="#13332E"/>
<path d="M140.753 284.46L140.023 285.192C140.023 285.192 132.906 276.863 128.302 269.848C123.699 262.834 122.423 253.945 125.034 248.207C125.034 248.207 116.745 220.428 115.468 216.242C114.133 211.938 114.133 213.014 114.133 213.014L111.882 213.174C111.882 213.174 106.92 222.938 103.392 234.098C99.8653 245.138 88.2472 283.359 88.2472 283.359L87.6182 283.558C87.8925 281.569 88.8697 275.282 90.6002 269.848C91.3165 267.669 91.5755 266.809 91.5755 266.783C91.4855 266.944 90.7632 268.963 90.6634 269.314C90.9364 268.4 95.4456 253.225 97.613 245.496C99.8649 237.566 109.447 213.572 109.447 213.572C109.447 213.572 117.003 210.104 117.641 209.029C117.641 209.029 118.726 214.431 121.084 225.818C123.5 237.206 126.669 250.358 126.669 250.358C126.669 250.358 125.234 255.98 128.303 264.228C130.826 270.909 138.21 281.03 140.753 284.46Z" fill="#13332E"/>
<path d="M144.143 169.437L144.142 169.439C144.018 169.445 143.241 170.44 141.255 171.968C140.578 172.418 140.04 172.961 139.646 173.505C138.565 174.771 137.862 176.04 137.844 176.131C137.118 175.22 136.4 173.781 135.864 172.6C135.329 171.418 134.975 170.435 134.975 170.435C134.788 170.061 134.6 169.624 134.41 169.181V169.179C131.626 163.492 128.198 155.741 128.198 155.741C123.236 155.455 113.655 156.804 113.655 156.804C113.655 156.804 113.77 161.048 113.412 165.652C113.408 165.758 113.404 165.927 113.398 166.098C113.392 166.197 113.326 166.3 113.32 166.462C113.318 166.47 113.318 166.48 113.317 166.55C113.301 166.832 113.221 167.182 113.138 167.476C113.138 167.536 113.138 167.536 113.138 167.538C113.773 168.722 114.567 169.896 114.567 169.896C114.041 170.062 112.858 170.808 112.144 171.331C112.144 171.333 112.144 171.333 112.142 171.334C112.056 171.606 111.967 171.878 111.876 172.15C111.869 172.231 111.862 172.254 111.854 172.336C111.769 172.597 111.682 172.8 111.596 173.058C111.591 173.134 111.584 173.151 111.519 173.227C111.426 173.505 111.333 173.784 111.238 174.123C111.235 174.134 111.23 174.145 111.225 174.218C111.135 174.485 111.045 174.752 110.954 174.959C110.886 175.04 110.878 175.122 110.871 175.204C110.788 175.385 110.706 175.567 110.684 175.749C110.613 175.84 110.602 175.933 110.53 176.026C110.527 176.029 110.526 176.032 110.524 176.037C110.428 176.377 110.33 176.656 110.232 176.939C110.166 177.014 110.159 177.034 110.153 177.11C110.061 177.374 109.97 177.577 109.878 177.838C109.87 177.918 109.802 177.937 109.796 178.017C109.599 178.571 109.346 179.181 109.15 179.727C109.082 179.809 109.073 179.83 109.064 179.911C108.974 180.166 108.884 180.362 108.795 180.554C108.727 180.633 108.718 180.712 108.711 180.73C108.615 180.999 108.517 181.266 108.363 181.531C108.357 181.546 108.351 181.62 108.344 181.634C108.254 181.886 108.164 182.077 108.076 182.267C108.065 182.348 107.996 182.432 107.987 182.513C107.898 182.699 107.81 182.884 107.721 183.07C107.715 183.144 107.709 183.16 107.643 183.235C107.549 183.429 107.458 183.623 107.366 183.876C107.364 183.878 107.364 183.88 107.363 183.884C107.354 183.959 107.346 183.975 107.281 184.051C107.256 184.227 107.173 184.34 107.089 184.511C107.081 184.59 107.012 184.61 107.004 184.689C106.914 184.874 106.824 185.06 106.735 185.239C105.651 187.588 104.302 189.472 103.222 190.737C102.204 192.003 101.397 192.712 101.395 192.713L104.387 179.375L105.282 175.494C102.3 171.618 99.2436 166.39 98.5047 160.331C97.993 156.711 97.8858 153.566 98.6049 150.78C99.0667 148.955 99.9595 147.244 101.397 145.63C103.485 143.28 105.545 142.022 107.63 141.379C107.908 141.287 108.244 141.201 108.524 141.119C109.087 140.948 109.713 140.854 110.343 140.77C110.892 140.746 111.503 140.673 112.058 140.663C115.671 140.481 121.873 140.588 126.944 141.403C127.732 141.562 128.454 141.666 129.105 141.837C129.721 141.94 130.27 142.106 130.81 142.218C131.074 142.3 131.279 142.389 131.54 142.48C136.493 144.356 138.989 149.874 140.2 153.834C141.095 156.803 144.143 169.437 144.143 169.437Z" fill="#F78A7B"/>
<path d="M110.684 175.749C110.613 175.84 110.602 175.933 110.53 176.026C110.527 176.029 110.526 176.032 110.524 176.036C110.428 176.377 110.33 176.656 110.232 176.938C110.166 177.014 110.159 177.033 110.153 177.11C110.061 177.374 109.97 177.577 109.878 177.837C109.87 177.918 109.802 177.937 109.796 178.017C109.599 178.57 109.346 179.181 109.15 179.727C109.082 179.809 109.073 179.83 109.064 179.911C108.974 180.166 108.884 180.361 108.795 180.554C108.727 180.632 108.718 180.712 108.711 180.73C108.615 180.999 108.517 181.266 108.363 181.531C108.357 181.546 108.351 181.62 108.344 181.634C108.254 181.885 108.164 182.077 108.076 182.267C108.065 182.348 107.996 182.431 107.987 182.513C107.898 182.699 107.81 182.884 107.721 183.069C107.715 183.143 107.709 183.16 107.643 183.235C107.549 183.429 107.458 183.622 107.366 183.875C107.364 183.878 107.364 183.88 107.363 183.884C106.472 182.523 105.381 180.808 104.387 179.374L105.282 175.494C102.3 171.618 99.2436 166.39 98.5047 160.331C97.993 156.711 97.8858 153.566 98.6049 150.78L99.3434 155.281C99.3434 155.281 101.582 163.77 103.475 167.19C105.368 170.608 108.722 174.588 108.722 174.588L110.684 175.749Z" fill="#F78A7B"/>
<path d="M139.646 173.503C138.565 174.769 137.862 176.038 137.844 176.129C137.117 175.217 136.4 173.779 135.864 172.598C135.329 171.416 134.974 170.433 134.974 170.433C134.788 170.059 134.599 169.621 134.41 169.179V169.177L135.502 165.306L136.317 168.359C136.317 168.359 138.229 171.531 139.646 173.503Z" fill="#D35A49"/>
<path d="M131.545 142.48C128.931 143.2 125.125 144.098 120.907 144.467C113.873 145.168 110.442 143.292 108.53 141.119C109.093 140.948 109.719 140.854 110.349 140.77C110.898 140.746 111.509 140.673 112.064 140.663C115.677 140.481 121.878 140.588 126.949 141.403C127.738 141.562 128.46 141.666 129.111 141.836C129.727 141.94 130.276 142.106 130.815 142.218C131.079 142.299 131.285 142.388 131.545 142.48Z" fill="#F78A7B"/>
<path d="M127.026 126.229C127.026 126.229 124.86 128.215 119.812 129.205C117.019 129.747 114.837 129.735 113.227 129.379C111.956 129.106 111.067 128.584 110.692 128.042C110.692 128.042 109.808 125.404 109.532 121.732C109.258 118.118 109.349 116.039 109.532 115.754C109.605 115.673 109.711 115.569 109.906 115.394C110.796 114.685 112.967 113.33 115.309 112.697C118.265 111.893 120.457 111.967 120.975 112.239C121.424 112.506 121.812 113.162 121.888 113.252C122.706 114.858 123.795 117.485 124.416 119.454C125.232 122.082 127.026 126.229 127.026 126.229Z" fill="#F0B5AB"/>
<path d="M109.531 127.949C109.528 128.05 109.449 128.221 109.359 128.397C109.077 128.943 108.363 129.658 107.715 129.84C107.446 129.926 107.177 129.924 106.92 129.764C106.004 129.295 105.121 124.609 105.931 123.517C106.007 123.435 106.025 123.359 106.103 123.345C106.555 123.063 107.015 123.155 107.464 123.44C108.086 123.881 108.63 124.695 108.994 125.441C109.343 126.153 109.61 127.232 109.531 127.949Z" fill="#F0B5AB"/>
<path d="M108.993 125.442C109.342 126.153 109.609 127.231 109.53 127.949C109.526 128.051 109.447 128.221 109.357 128.397C109.076 128.943 108.362 129.659 107.713 129.84C107.37 127.941 106.822 125.277 105.93 123.517C106.005 123.436 106.023 123.359 106.102 123.345C106.554 123.063 107.014 123.156 107.463 123.441C108.086 123.881 108.629 124.695 108.993 125.442Z" fill="#F6958E"/>
<path d="M113.227 129.378C111.956 129.105 111.067 128.582 110.692 128.041C110.692 128.041 109.808 125.403 109.532 121.731C109.258 118.117 109.349 116.037 109.532 115.752C109.605 115.672 109.711 115.568 109.906 115.393C110.166 118.553 110.964 125.594 113.227 129.378Z" fill="#F6958E"/>
<path d="M143.266 197.557C143.266 197.557 145.969 206.312 149.954 207.945L151.006 211.741C151.006 211.741 142.917 207.942 141.272 198.39L143.266 197.557Z" fill="#13332E"/>
<path d="M158.248 194.604C158.248 194.604 160.933 203.438 158.755 206.151L160.042 209.613C160.042 209.613 163.681 202.176 160.415 194.083L158.248 194.604Z" fill="#13332E"/>
<path d="M108.717 180.683C108.723 180.669 108.729 180.61 108.779 180.551C108.729 180.609 108.723 180.669 108.717 180.683Z" fill="#8F3F37"/>
<path d="M107.009 184.642C107.015 184.583 107.066 184.569 107.072 184.51C107.066 184.569 107.015 184.583 107.009 184.642Z" fill="#8F3F37"/>
<path d="M108.35 181.607C108.354 181.597 108.358 181.542 108.363 181.531C108.359 181.542 108.354 181.597 108.35 181.607Z" fill="#8F3F37"/>
<path d="M107.993 182.516C108.003 182.433 108.015 182.348 108.084 182.264C108.015 182.348 108.004 182.433 107.993 182.516Z" fill="#8F3F37"/>
<path d="M107.284 184.006C107.335 183.947 107.341 183.934 107.348 183.874C107.341 183.934 107.335 183.947 107.284 184.006Z" fill="#8F3F37"/>
<path d="M107.646 183.191C107.695 183.135 107.7 183.123 107.705 183.068C107.7 183.123 107.695 183.135 107.646 183.191Z" fill="#8F3F37"/>
<path d="M111.854 172.341C111.861 172.257 111.868 172.234 111.876 172.149C111.868 172.234 111.861 172.257 111.854 172.341Z" fill="#8F3F37"/>
<path d="M109.064 179.864C109.071 179.804 109.077 179.787 109.128 179.727C109.077 179.787 109.071 179.804 109.064 179.864Z" fill="#8F3F37"/>
<path d="M111.523 173.184C111.572 173.127 111.576 173.114 111.58 173.057C111.576 173.114 111.572 173.127 111.523 173.184Z" fill="#8F3F37"/>
<path d="M113.405 166.107C113.411 165.933 113.416 165.761 113.419 165.652C113.416 165.76 113.411 165.933 113.405 166.107Z" fill="#8F3F37"/>
<path d="M113.322 166.521C113.323 166.469 113.324 166.463 113.325 166.456C113.324 166.463 113.323 166.469 113.322 166.521Z" fill="#8F3F37"/>
<path d="M109.802 177.97C109.808 177.91 109.858 177.896 109.863 177.836C109.858 177.896 109.808 177.91 109.802 177.97Z" fill="#8F3F37"/>
<path d="M111.225 174.189C111.228 174.135 111.231 174.126 111.234 174.117C111.231 174.126 111.228 174.135 111.225 174.189Z" fill="#8F3F37"/>
<path d="M110.16 177.064C110.165 177.007 110.17 176.993 110.219 176.936C110.17 176.993 110.165 177.007 110.16 177.064Z" fill="#8F3F37"/>
<path d="M110.878 175.208C110.887 175.124 110.894 175.041 110.963 174.957C110.894 175.041 110.887 175.124 110.878 175.208Z" fill="#8F3F37"/>
<path d="M110.529 176.033C110.53 176.029 110.531 176.027 110.532 176.025C110.531 176.027 110.53 176.029 110.529 176.033Z" fill="#8F3F37"/>
<path d="M164.385 190.451C164.563 189.643 164.712 188.927 164.712 188.927C164.712 188.927 164.541 189.643 164.385 190.451Z" fill="#F0B5AB"/>
<path d="M111.043 120.452C111.243 119.835 112.405 118.917 113.395 118.233C114.385 117.569 116.019 117.468 116.019 117.468C116.019 117.468 115.461 118.744 113.502 119.72C111.602 120.638 111.043 120.452 111.043 120.452Z" fill="#5D2813"/>
<path d="M119.902 116.761C119.531 117.031 121.722 118.109 123.874 118.023C123.874 118.023 121.695 115.517 119.902 116.761Z" fill="#5D2813"/>
<path d="M121.89 141.042L121.344 142.747C120.344 143.196 118.096 143.109 116.217 142.92C114.775 142.745 113.59 142.482 113.401 142.375C112.941 142.03 112.696 140.134 112.696 140.134C112.696 140.134 113.684 140.215 115.752 140.585C116.098 140.663 116.392 140.744 116.756 140.771C119.54 141.376 121.89 141.042 121.89 141.042Z" fill="#F0B5AB"/>
<path d="M116.217 142.92C114.775 142.745 113.59 142.482 113.401 142.375C112.941 142.03 112.696 140.134 112.696 140.134C112.696 140.134 113.684 140.215 115.752 140.585C115.851 141.395 116.032 142.2 116.217 142.92Z" fill="#F6958E"/>
<path d="M86.3545 284.081V285.702H96.3641C96.3646 285.702 90.6001 280.827 86.3545 284.081Z" fill="#D65028"/>
<path d="M140.023 285.193H149.975C149.975 285.193 142.747 279.932 140.023 285.193Z" fill="#D65028"/>
<path d="M115.588 156.537L113.662 156.803C113.662 156.803 109.986 145.651 107.637 141.378C108.535 141.103 109.437 140.926 110.349 140.769C111.517 143.383 115.12 151.838 115.588 156.537Z" fill="#13332E"/>
<path d="M129.111 141.835L128.204 155.74L126.57 155.723C126.57 155.723 126.769 145.545 126.949 141.401C127.737 141.561 128.46 141.665 129.111 141.835Z" fill="#13332E"/>
<path d="M129.481 133.911C129.468 136.693 127.402 139.75 121.894 141.038C116.387 142.385 112.616 140.407 111.139 139.031C109.546 137.597 109.633 134.987 109.536 131.818C109.518 130.379 109.511 129.306 109.361 128.392C109.451 128.216 109.53 128.046 109.533 127.944C109.612 127.227 109.345 126.148 108.996 125.437C108.632 124.691 108.088 123.876 107.466 123.436C106.636 121.893 105.835 120.374 105.644 118.38C105.478 117.04 105.844 115.95 106.36 115.144C106.821 114.327 107.376 113.862 107.559 113.789C107.984 113.704 107.712 112.513 108.55 110.807C109.446 109.099 110.422 107.093 112.948 105.298C115.471 103.506 116.919 104.006 117.82 104.681C118.637 105.382 120.631 108.363 121.262 109.724C121.339 109.82 121.352 109.915 121.363 110.002C121.809 111.179 121.894 113.316 121.894 113.316C121.894 113.316 121.893 113.255 121.891 113.255C121.815 113.164 121.427 112.508 120.978 112.241C120.46 111.969 118.268 111.894 115.312 112.699C112.415 113.504 109.719 115.409 109.535 115.756C109.352 116.041 109.261 118.12 109.535 121.735C109.623 122.806 109.728 123.79 109.894 124.614C110.251 126.691 110.695 128.044 110.695 128.044C111.598 129.292 114.766 130.196 119.816 129.206C124.864 128.215 127.029 126.23 127.029 126.23C128.218 127.058 129.465 130.913 129.479 133.633C129.481 133.727 129.481 133.819 129.481 133.911Z" fill="#723417"/>
<path d="M128.846 163.476L128.833 163.116L128.66 161.598C128.659 161.58 128.65 161.505 128.575 161.495C128.561 161.426 128.483 161.422 128.466 161.428C123.967 162.597 115.04 162.681 114.95 162.681C114.934 162.681 114.858 162.686 114.848 162.757C114.836 162.77 114.77 162.846 114.77 162.862L114.852 165.007L114.855 165.306L115.109 172.6C115.111 172.69 115.134 172.775 115.224 172.776C116.308 172.872 117.467 172.952 118.634 172.952C124.605 172.952 129.538 171.433 129.555 171.429C129.642 171.42 129.719 171.333 129.657 171.245L128.846 163.476ZM118.634 172.594C117.549 172.594 116.471 172.518 115.466 172.424L115.214 165.299L115.211 164.942L115.132 163.039C116.399 163.032 124.14 162.866 128.369 161.858L128.477 163.213L128.55 163.571L129.295 171.148C128.473 171.35 123.978 172.594 118.634 172.594Z" fill="#A8DEEB"/>
<path d="M128.848 163.472C128.749 163.485 128.651 163.497 128.552 163.567C124.429 164.754 117.55 165.199 115.217 165.294C115.112 165.296 114.951 165.3 114.858 165.302L114.854 165.003C114.947 164.943 115.108 164.94 115.213 164.938C117.55 164.839 124.495 164.394 128.479 163.209C128.579 163.137 128.738 163.125 128.835 163.113L128.848 163.472Z" fill="#A8DEEB"/>
<path d="M135.33 171.513C135.325 171.513 135.322 171.513 135.318 171.512C135.142 171.44 134.797 171.261 134.797 170.812C134.797 170.782 134.87 170.439 134.96 169.726C135.251 167.184 136.049 161.146 135.774 157.725C135.771 157.631 135.855 157.543 135.948 157.541C136.042 157.538 136.129 157.622 136.132 157.715C136.408 161.148 135.608 167.195 135.318 169.801C135.234 170.344 135.156 170.79 135.156 170.812C135.156 171.081 135.339 171.154 135.341 171.155C135.493 171.162 135.514 171.253 135.507 171.346C135.502 171.435 135.418 171.513 135.33 171.513Z" fill="#924138"/>
<path d="M113.508 164.391C113.419 164.391 113.336 164.309 113.329 164.22C112.232 156.547 109.252 151.409 109.182 151.392C109.165 151.303 109.175 151.206 109.263 151.131C109.351 151.055 109.447 151.123 109.524 151.212C109.534 151.23 112.585 156.445 113.687 164.203C113.692 164.297 113.668 164.386 113.575 164.391C113.515 164.391 113.511 164.391 113.508 164.391Z" fill="#924138"/>
<path d="M132.71 189.114C132.704 189.275 132.698 189.376 132.693 189.477C128.55 190.268 124.767 190.541 121.441 190.541C117.997 190.541 115.029 190.201 112.759 189.837C109.075 189.282 106.466 188.463 105.272 188.013C105.296 187.859 105.376 187.764 105.459 187.669C108.426 188.742 118.553 191.727 132.71 189.114Z" fill="#A8DEEB"/>
<path d="M106.825 124.859C106.748 124.791 106.723 124.794 106.65 124.871C106.637 124.89 106.641 124.975 106.719 125.047C106.722 125.048 107.094 125.325 107.533 125.789C107.267 126.419 106.911 127.414 107.189 127.658C107.263 127.669 107.28 127.673 107.358 127.673C107.632 127.673 108.005 127.314 108.268 127.047C108.349 127.22 108.366 127.395 108.437 127.574C108.44 127.592 108.458 127.665 108.535 127.665C108.538 127.665 108.541 127.665 108.543 127.664C108.625 127.659 108.64 127.58 108.635 127.498C108.349 125.947 106.907 124.878 106.825 124.859ZM107.355 127.414C107.268 127.32 107.442 126.687 107.65 126.04C107.831 126.238 108.009 126.508 108.175 126.848C107.805 127.226 107.379 127.49 107.355 127.414Z" fill="#993322"/>
<path d="M119.98 128.207C119.638 128.207 119.356 128.136 119.076 128.113C118.995 128.048 118.922 128.025 118.986 127.945C118.992 127.863 119.013 127.85 119.094 127.855C120.168 128.118 121.423 127.853 122.145 127.232C122.351 127.041 122.69 126.684 122.623 126.232C122.605 125.147 120.893 125.055 120.887 125.055C120.816 125.054 120.806 125.049 120.799 124.983C119.988 124.059 119.443 119.272 119.467 119.023C119.533 119.003 119.557 118.931 119.636 118.954C119.715 119.005 119.726 119.023 119.723 119.102C119.719 119.456 120.189 123.876 120.91 124.796C121.257 124.866 122.803 125.048 122.882 126.228C122.89 126.675 122.698 127.055 122.256 127.412C121.7 127.936 120.812 128.207 119.98 128.207Z" fill="#993322"/>
<path d="M114.314 131.994C114.314 131.994 120.712 130.649 122.784 130.39C122.784 130.39 122.515 133.18 119.904 133.919C117.293 134.714 114.314 131.994 114.314 131.994Z" fill="white"/>
<path d="M116.201 122.444C116.104 123.241 115.745 123.797 115.396 123.78C115.107 123.705 114.928 123.064 115.026 122.267C115.123 121.529 115.483 120.915 115.832 120.99C116.121 121.007 116.298 121.708 116.201 122.444Z" fill="#1E1725"/>
<path d="M123.335 121.719C123.238 122.512 122.878 123.072 122.589 122.997C122.24 122.98 122.062 122.339 122.16 121.542C122.317 120.805 122.617 120.19 122.966 120.266C123.314 120.282 123.492 120.983 123.335 121.719Z" fill="#1E1725"/>
<path d="M192.685 279.615C192.367 279.76 189.098 283.746 176.305 284.636C163.63 285.526 160.588 282.861 160.588 282.861L161.133 288.222C161.133 288.222 178.127 290.401 192.69 286.243L192.685 279.615Z" fill="#5C261F"/>
<path d="M165.666 277.222C165.648 277.222 165.631 277.096 165.627 277.072L164.909 274.206C164.903 274.181 164.917 274.16 164.938 274.154C165.079 274.148 165.101 274.162 165.106 274.184L165.823 277.053C165.829 277.074 165.815 277.216 165.794 277.221C165.672 277.222 165.669 277.222 165.666 277.222Z" fill="url(#paint6_linear)"/>
<path d="M168.88 277.223C168.873 277.223 168.867 277.221 168.862 277.218C168.725 277.093 168.716 277.071 168.722 277.051C168.723 276.874 168.35 275.779 167.979 274.727C167.971 274.707 167.982 274.564 168.002 274.556C168.142 274.548 168.165 274.559 168.173 274.698C169.069 276.893 169.044 277.066 168.916 277.082C168.909 277.215 168.895 277.223 168.88 277.223Z" fill="url(#paint7_linear)"/>
<path d="M171.403 277.223C171.387 277.223 171.253 277.212 171.247 277.078L170.33 274.727C170.322 274.707 170.332 274.564 170.353 274.556C170.492 274.548 170.516 274.558 170.524 274.697L171.441 277.049C171.568 277.07 171.439 277.206 171.418 277.221C171.413 277.222 171.408 277.223 171.403 277.223Z" fill="url(#paint8_linear)"/>
<path d="M174.298 276.704C174.282 276.704 174.147 276.693 174.141 276.678L173.369 274.324C173.243 274.185 173.374 274.163 173.394 274.155C173.415 274.147 173.557 274.158 173.564 274.179L174.454 276.531C174.462 276.671 174.335 276.693 174.311 276.701C174.307 276.703 174.302 276.704 174.298 276.704Z" fill="url(#paint9_linear)"/>
<path d="M172.479 279.57C167.644 279.57 164.003 278.316 163.986 278.31C163.854 278.307 163.844 278.29 163.841 278.163L162.416 271.311C162.412 271.289 162.545 271.269 162.566 271.264C162.587 271.251 162.729 271.272 162.733 271.295L164.034 278.123C164.729 278.311 170.12 279.933 175.947 279.049C182.771 278.122 186.194 275.418 187.64 273.814L184.771 266.238C184.764 266.217 184.774 266.074 184.913 266.067C184.935 266.059 184.958 266.07 184.966 266.21L187.843 273.809C187.849 273.823 187.846 273.84 187.835 273.97C186.391 275.459 182.952 278.314 176.077 279.248C174.826 279.427 173.582 279.57 172.479 279.57Z" fill="url(#paint10_linear)"/>
<path d="M166.74 192.71L146.189 197.236L133.797 200.024L133.166 197.558L144.515 195.057L166.383 190.11L166.74 192.71Z" fill="#235952"/>
<path d="M146.188 197.239L133.795 200.026L133.165 197.56L144.513 195.059C145.079 195.797 145.777 196.609 146.188 197.239Z" fill="#13332E"/>
<path d="M164.348 191.722C164.349 191.349 164.364 190.836 164.384 190.451C164.213 191.176 164.016 191.988 163.679 192.432C164.384 190.361 164.531 188.036 164.531 188.026C164.533 187.935 164.561 187.852 164.713 187.85C164.745 187.852 164.891 187.938 164.891 188.032C164.888 188.126 164.748 189.906 164.348 191.722Z" fill="#924138"/>
<path d="M129.481 133.917C129.468 136.698 127.402 139.755 121.894 141.044C116.387 142.391 112.616 140.412 111.139 139.037C109.546 137.603 109.633 134.992 109.536 131.823C109.518 130.385 109.511 129.311 109.361 128.398C109.451 128.222 109.53 128.051 109.533 127.95C109.612 127.232 109.345 126.154 108.996 125.443C108.632 124.696 108.088 123.882 107.466 123.441C106.636 121.899 105.835 120.38 105.644 118.385C105.478 117.045 105.844 115.955 106.36 115.15C108.072 115.852 109.157 114.784 109.157 114.784C109.157 114.784 109.705 113.982 113.146 112.519C116.646 110.999 119.371 111.084 119.829 110.913C120.161 110.822 120.797 110.271 121.263 109.73C121.339 109.826 121.352 109.921 121.364 110.008C121.809 111.185 121.894 113.322 121.894 113.322C121.894 113.322 121.893 113.261 121.891 113.261C121.816 113.17 121.428 112.514 120.979 112.247C120.461 111.975 118.268 111.9 115.313 112.705C112.415 113.51 109.72 115.415 109.536 115.762C109.353 116.047 109.261 118.126 109.536 121.741C109.623 122.812 109.729 123.796 109.894 124.621C109.882 125.229 109.816 125.772 109.815 126.241C109.809 130.01 112.7 135.351 112.7 135.351C112.7 135.351 114.408 138.245 118.193 138.133C121.977 137.96 127.919 136.067 128.849 134.805C129.112 134.456 129.36 134.081 129.479 133.639C129.481 133.733 129.481 133.825 129.481 133.917Z" fill="#5D2813"/>
<path d="M141.121 197.138C140.4 197.489 140.578 196.062 140.727 195.517C140.564 196.132 140.194 197.675 139.51 197.675C138.988 197.675 138.988 196.522 139.004 195.955V195.954C139.072 195.698 139.106 195.523 139.106 195.523L138.665 195.88C138.665 195.88 138.665 195.88 138.663 195.882L137.848 196.599C137.848 196.599 136.311 198.212 135.875 198.001C135.775 197.875 135.698 197.728 135.694 197.56C135.686 197.221 135.863 196.692 135.872 196.605C135.866 196.674 135.793 196.699 135.772 196.791C135.77 196.794 135.769 196.856 135.767 196.858C135.503 197.233 134.962 198.043 134.618 197.91C134.601 197.904 134.526 197.867 134.519 197.732C134.334 197.051 134.618 194.606 134.618 194.606C134.618 194.606 132.984 195.143 129.737 194.147C126.489 193.092 121.167 189.744 116.663 186.038C112.218 182.331 107.716 178.186 106.739 176.471C106.739 176.471 107.541 175.392 108.816 174.057C109.266 173.604 109.799 173.143 110.347 172.684C112.579 170.812 114.571 169.896 114.571 169.896C114.571 169.896 121.269 178.007 124.225 182.15C127.122 186.297 130.913 190.639 130.913 190.639C130.913 190.639 136.134 189.565 139.107 190.741C142.016 191.916 142.016 196.699 141.121 197.138Z" fill="#F0B5AB"/>
<path d="M136.95 194.165C136.95 194.25 136.946 195.704 135.694 197.558C135.686 197.219 135.863 196.69 135.871 196.603C135.866 196.672 135.793 196.697 135.772 196.789C136.585 195.327 136.592 194.171 136.592 194.166C136.592 194.073 136.68 193.987 136.771 193.987H136.772C136.864 193.986 136.95 194.073 136.95 194.165Z" fill="#924138"/>
<path d="M139.005 195.952C139.074 195.696 139.108 195.521 139.108 195.521L138.667 195.878C139.161 194.886 139.109 194.237 139.108 194.234C139.078 194.083 139.125 193.993 139.264 193.986C139.312 193.983 139.453 194.064 139.466 194.157C139.469 194.17 139.508 194.889 139.005 195.952Z" fill="#924138"/>
<path d="M135.695 193.17C135.695 193.17 134.874 195.78 134.52 197.73C134.334 197.049 134.619 194.605 134.619 194.605C134.619 194.605 132.985 195.141 129.737 194.146C126.49 193.09 121.168 189.742 116.664 186.036C112.219 182.329 107.716 178.184 106.74 176.47C106.74 176.47 107.541 175.39 108.817 174.055C111.612 178.017 112.76 179.824 116.758 184.048C121.261 188.666 130.183 194.17 131.185 193.987C132.247 193.8 135.695 193.17 135.695 193.17Z" fill="#F6958E"/>
<path d="M166.53 191.632C166.39 191.633 166.375 191.628 166.362 191.557C166.208 191.528 166.196 191.273 166.193 191.001C166.19 190.359 166.38 189.37 166.522 189.032C166.348 189.64 165.448 192.63 164.715 192.707C164.382 192.714 164.351 192.27 164.354 191.718C164.355 191.345 164.37 190.832 164.39 190.447C164.558 189.745 164.585 189.188 164.594 189.003C164.578 189.188 164.538 189.745 164.39 190.447C164.219 191.172 164.022 191.984 163.685 192.428C163.64 192.61 163.472 192.707 163.301 192.707C163.109 192.707 162.946 192.439 162.922 192.066C162.731 190.821 162.962 188.384 162.962 188.384C162.962 188.384 161.468 190.018 158.24 190.097C155.013 190.176 150.487 187.746 146.682 184.856C142.757 181.966 138.949 177.841 137.851 176.127C137.851 176.127 138.498 174.843 139.654 173.499C140.047 172.955 140.586 172.413 141.262 171.962C143.247 170.434 144.024 169.439 144.149 169.433C144.149 169.433 144.149 169.431 144.149 169.431C144.149 169.431 146.9 173.232 149.432 176.481C151.962 179.731 160.564 185.68 160.564 185.68C160.564 185.68 161.689 184.677 164.715 183.954C167.627 183.232 168.145 184.038 168.701 186.49C169.26 189 167.107 191.552 166.53 191.632Z" fill="#F0B5AB"/>
<path d="M167.283 187.499C167.257 188.218 166.932 190.118 166.358 191.561C166.203 191.532 166.191 191.277 166.189 191.005C166.712 189.724 166.9 188.119 166.923 187.497C166.926 187.405 167.074 187.309 167.106 187.311L167.104 187.49L167.283 187.499Z" fill="#924138"/>
<path d="M163.684 187.312C163.666 187.494 163.275 190.189 162.921 192.071C162.73 190.826 162.962 188.389 162.962 188.389C162.962 188.389 161.468 190.023 158.24 190.102C155.012 190.181 150.487 187.751 146.682 184.861C142.756 181.971 138.949 177.845 137.85 176.132C137.85 176.132 138.497 174.848 139.654 173.504C142.181 177.035 145.799 181.805 150.668 185.238C156.234 189.186 159.356 189.213 161.309 188.467C163.142 187.664 163.827 187.045 163.684 187.312Z" fill="#F6958E"/>
<path d="M187.811 273.823C187.811 273.823 185.686 277.74 176.998 278.846C174.511 279.067 172.499 279.216 170.718 279.205C166.194 279.057 164.005 278.152 164.005 278.152L162.579 271.303L155.715 237.395V237.393C155.717 237.379 155.747 236.845 158.435 235.938C160.753 235.196 164.895 234.115 172.348 232.837L185.301 267.162L187.811 273.823Z" fill="url(#paint11_linear)"/>
<path d="M172.344 232.839C164.891 234.117 160.748 235.198 158.43 235.94C155.743 236.847 155.712 237.381 155.71 237.396L154.249 229.969C154.621 229.594 154.998 229.232 155.377 228.881L155.511 229.052C155.511 229.052 155.729 228.881 156.257 228.559C158.213 227.65 163.089 225.485 166.187 226.011L166.162 225.823C168.497 225.995 169.991 226.529 169.991 226.529L172.344 232.839Z" fill="url(#paint12_linear)"/>
<path d="M170.714 279.204C166.19 279.056 164 278.151 164 278.151L162.575 271.302L155.711 237.394V237.392L154.249 229.966C154.622 229.591 154.998 229.229 155.378 228.878L155.511 229.049C155.511 229.049 155.73 228.878 156.257 228.556C156.782 230.163 157.518 232.824 158.43 235.937C162.546 249.827 169.626 275.259 170.714 279.204Z" fill="url(#paint13_linear)"/>
<path d="M166.187 226.01C164.37 225.674 161.873 226.36 159.855 227.092C157.363 227.983 155.511 229.052 155.511 229.052L155.377 228.881L147.083 197.052L148.831 196.606L154.475 195.068L166.162 225.823L166.187 226.01Z" fill="url(#paint14_linear)"/>
<path d="M159.855 227.091C157.363 227.982 155.511 229.051 155.511 229.051L155.377 228.88L147.083 197.051L148.831 196.605L159.855 227.091Z" fill="url(#paint15_linear)"/>
<path d="M192.684 279.615C192.366 279.762 189.097 283.747 176.303 284.637C176.109 284.642 175.916 284.646 175.725 284.652C163.475 285.377 160.587 282.863 160.587 282.863C160.587 282.863 159.698 278.671 159.352 275.776C159.132 272.937 160.602 271.835 162.577 271.303L164.002 278.152C164.002 278.152 166.005 279.029 170.153 279.198C171.973 279.222 174.292 279.198 176.995 278.846C185.683 277.74 187.808 273.823 187.808 273.823L185.297 267.162C190.188 265.668 192.884 279.588 192.684 279.615Z" fill="#F78A7B"/>
<path d="M175.725 284.652C163.475 285.377 160.587 282.863 160.587 282.863C160.587 282.863 159.698 278.672 159.352 275.776C159.132 272.937 160.602 271.836 162.577 271.303L164.002 278.152C164.002 278.152 166.005 279.029 170.153 279.198C171.766 281.363 173.589 283.353 175.725 284.652Z" fill="#C64228"/>
<path d="M141.652 283.562L140.751 284.464L140.022 285.196C140.022 285.196 132.905 276.866 128.301 269.851C123.698 262.837 122.422 253.948 125.033 248.21C125.033 248.21 116.743 220.431 115.467 216.245C114.132 211.941 114.132 213.017 114.132 213.017L111.88 213.177C111.88 213.177 106.918 222.942 103.391 234.101C99.8638 245.141 88.2456 283.363 88.2456 283.363L87.6166 283.561L86.353 284.08C86.353 284.08 83.7441 267.659 83.7441 259.167C83.7441 250.562 85.5356 247.095 91.2147 241.355C91.2147 241.355 91.9323 221.307 95.2598 209.75C96.8942 203.97 98.4289 199.666 99.5257 196.866C100.681 194.067 101.397 192.711 101.397 192.711C101.401 192.708 103.381 191.003 105.277 188.012C105.302 187.859 105.382 187.764 105.464 187.669C105.914 186.942 106.361 186.132 106.738 185.237C106.827 185.058 106.916 184.872 107.007 184.687C107.015 184.608 107.084 184.587 107.092 184.509C107.175 184.337 107.259 184.224 107.283 184.049C107.351 183.97 107.361 183.952 107.369 183.874C107.46 183.621 107.552 183.427 107.646 183.233C107.712 183.158 107.718 183.142 107.724 183.068C107.812 182.883 107.901 182.697 107.99 182.511C107.999 182.43 108.067 182.347 108.078 182.265C108.091 182.174 108.165 182.08 108.179 181.987C108.255 181.889 108.271 181.791 108.347 181.633C108.353 181.618 108.359 181.545 108.366 181.53C108.519 181.264 108.616 180.998 108.713 180.728C108.721 180.71 108.729 180.631 108.797 180.553C108.887 180.36 108.977 180.165 109.067 179.91C109.075 179.828 109.085 179.808 109.152 179.725C109.348 179.179 109.601 178.569 109.799 178.016C109.805 177.935 109.872 177.916 109.88 177.836C109.972 177.575 110.063 177.372 110.155 177.109C110.162 177.032 110.169 177.013 110.235 176.937C110.332 176.655 110.43 176.376 110.526 176.035C110.528 176.03 110.53 176.028 110.532 176.025C110.686 175.749 110.78 175.476 110.873 175.203C110.881 175.121 110.888 175.039 110.956 174.958C111.048 174.751 111.138 174.484 111.227 174.217C111.233 174.144 111.237 174.133 111.24 174.122C111.336 173.783 111.428 173.504 111.522 173.226C111.585 173.15 111.593 173.132 111.598 173.057C111.684 172.798 111.771 172.596 111.856 172.335C111.864 172.253 111.871 172.23 111.879 172.149C111.969 171.877 112.058 171.605 112.145 171.333C112.147 171.332 112.147 171.332 112.147 171.33C112.861 170.807 114.043 170.06 114.569 169.895C114.569 169.895 113.776 168.721 113.14 167.537C113.14 167.535 113.14 167.535 113.14 167.475C113.223 167.181 113.303 166.831 113.319 166.549C113.32 166.479 113.32 166.469 113.322 166.461C113.329 166.299 113.395 166.196 113.4 166.096C113.406 165.926 113.411 165.757 113.414 165.651C113.764 161.332 113.666 157.358 113.658 156.821C113.658 156.809 113.658 156.803 113.658 156.803C113.658 156.803 123.238 155.454 128.201 155.74C128.201 155.74 129.193 157.988 130.542 160.957C131.891 163.865 133.601 167.555 134.976 170.434C134.975 170.451 134.708 177.664 133.162 186.316C132.99 187.199 132.88 188.113 132.715 189.115C132.715 189.119 132.714 189.184 132.714 189.188C132.707 189.284 132.702 189.381 132.698 189.477C132.43 191.378 132.173 193.544 131.985 195.872C131.18 204.879 130.894 215.888 131.442 222.026C132.246 230.686 136.42 269.493 141.652 283.562Z" fill="#235952"/>
<path d="M111.41 212.677C111.41 212.677 115.744 210.864 117.637 210.684L111.41 212.677Z" fill="#7E332F"/>
<path d="M132.717 189.188C132.71 189.285 132.706 189.382 132.701 189.478C132.434 191.379 132.176 193.545 131.988 195.872C129.563 195.609 124.322 193.971 120.259 191.562C115.485 188.837 110.958 184.77 108.182 181.988C108.257 181.89 108.274 181.792 108.349 181.634C108.356 181.62 108.362 181.546 108.368 181.531C108.522 181.265 108.619 180.999 108.716 180.73C108.724 180.712 108.732 180.632 108.8 180.554C108.89 180.361 108.979 180.166 109.069 179.911C109.078 179.83 109.087 179.809 109.155 179.727C109.351 179.181 109.604 178.57 109.801 178.017C109.808 177.937 109.875 177.918 109.883 177.837C109.975 177.576 110.066 177.374 110.158 177.11C110.165 177.033 110.171 177.014 110.237 176.938C110.335 176.656 110.433 176.377 110.529 176.036C110.531 176.031 110.532 176.029 110.535 176.026C110.689 175.75 110.782 175.477 110.875 175.204C110.883 175.122 110.891 175.04 110.959 174.959C111.051 174.752 111.141 174.485 111.23 174.218C111.235 174.145 111.239 174.134 111.243 174.123C111.338 173.784 111.431 173.505 111.524 173.227C111.588 173.151 111.596 173.134 111.601 173.058C111.687 172.799 111.774 172.597 111.859 172.336C111.867 172.254 111.873 172.231 111.881 172.15C111.972 171.878 112.061 171.606 112.147 171.334C112.149 171.333 112.149 171.333 112.149 171.331C112.863 170.808 114.045 170.061 114.571 169.896C114.571 169.896 113.779 168.722 113.143 167.538C113.143 167.536 113.143 167.536 113.143 167.476C113.226 167.182 113.306 166.832 113.322 166.55C113.323 166.48 113.323 166.47 113.325 166.462C113.331 166.3 113.398 166.197 113.403 166.098C113.409 165.927 113.413 165.758 113.416 165.652C113.767 161.333 113.669 157.359 113.66 156.822C114.388 159.777 115.024 169.897 115.024 169.897C115.024 169.897 119.014 175.398 123.069 179.912C127.124 184.426 130.734 189.466 130.734 189.466L132.717 189.188Z" fill="#13332E"/>
<path d="M140.753 284.46L140.023 285.192C140.023 285.192 132.906 276.863 128.302 269.848C123.699 262.834 122.423 253.945 125.034 248.207C125.034 248.207 116.745 220.428 115.468 216.242C114.133 211.938 114.133 213.014 114.133 213.014L111.882 213.174C111.882 213.174 106.92 222.938 103.392 234.098C99.8653 245.138 88.2472 283.359 88.2472 283.359L87.6182 283.558C87.8925 281.569 88.8697 275.282 90.6002 269.848C91.3165 267.669 91.5755 266.809 91.5755 266.783C91.4855 266.944 90.7632 268.963 90.6634 269.314C90.9364 268.4 95.4456 253.225 97.613 245.496C99.8649 237.566 109.447 213.572 109.447 213.572C109.447 213.572 117.003 210.104 117.641 209.029C117.641 209.029 118.726 214.431 121.084 225.818C123.5 237.206 126.669 250.358 126.669 250.358C126.669 250.358 125.234 255.98 128.303 264.228C130.826 270.909 138.21 281.03 140.753 284.46Z" fill="#13332E"/>
<path d="M144.143 169.437L144.142 169.439C144.018 169.445 143.241 170.44 141.255 171.968C140.578 172.418 140.04 172.961 139.646 173.505C138.565 174.771 137.862 176.04 137.844 176.131C137.118 175.22 136.4 173.781 135.864 172.6C135.329 171.418 134.975 170.435 134.975 170.435C134.788 170.061 134.6 169.624 134.41 169.181V169.179C131.626 163.492 128.198 155.741 128.198 155.741C123.236 155.455 113.655 156.804 113.655 156.804C113.655 156.804 113.77 161.048 113.412 165.652C113.408 165.758 113.404 165.927 113.398 166.098C113.392 166.197 113.326 166.3 113.32 166.462C113.318 166.47 113.318 166.48 113.317 166.55C113.301 166.832 113.221 167.182 113.138 167.476C113.138 167.536 113.138 167.536 113.138 167.538C113.773 168.722 114.567 169.896 114.567 169.896C114.041 170.062 112.858 170.808 112.144 171.331C112.144 171.333 112.144 171.333 112.142 171.334C112.056 171.606 111.967 171.878 111.876 172.15C111.869 172.231 111.862 172.254 111.854 172.336C111.769 172.597 111.682 172.8 111.596 173.058C111.591 173.134 111.584 173.151 111.519 173.227C111.426 173.505 111.333 173.784 111.238 174.123C111.235 174.134 111.23 174.145 111.225 174.218C111.135 174.485 111.045 174.752 110.954 174.959C110.886 175.04 110.878 175.122 110.871 175.204C110.788 175.385 110.706 175.567 110.684 175.749C110.613 175.84 110.602 175.933 110.53 176.026C110.527 176.029 110.526 176.032 110.524 176.037C110.428 176.377 110.33 176.656 110.232 176.939C110.166 177.014 110.159 177.034 110.153 177.11C110.061 177.374 109.97 177.577 109.878 177.838C109.87 177.918 109.802 177.937 109.796 178.017C109.599 178.571 109.346 179.181 109.15 179.727C109.082 179.809 109.073 179.83 109.064 179.911C108.974 180.166 108.884 180.362 108.795 180.554C108.727 180.633 108.718 180.712 108.711 180.73C108.615 180.999 108.517 181.266 108.363 181.531C108.357 181.546 108.351 181.62 108.344 181.634C108.254 181.886 108.164 182.077 108.076 182.267C108.065 182.348 107.996 182.432 107.987 182.513C107.898 182.699 107.81 182.884 107.721 183.07C107.715 183.144 107.709 183.16 107.643 183.235C107.549 183.429 107.458 183.623 107.366 183.876C107.364 183.878 107.364 183.88 107.363 183.884C107.354 183.959 107.346 183.975 107.281 184.051C107.256 184.227 107.173 184.34 107.089 184.511C107.081 184.59 107.012 184.61 107.004 184.689C106.914 184.874 106.824 185.06 106.735 185.239C105.651 187.588 104.302 189.472 103.222 190.737C102.204 192.003 101.397 192.712 101.395 192.713L104.387 179.375L105.282 175.494C102.3 171.618 99.2436 166.39 98.5047 160.331C97.993 156.711 97.8858 153.566 98.6049 150.78C99.0667 148.955 99.9595 147.244 101.397 145.63C103.485 143.28 105.545 142.022 107.63 141.379C107.908 141.287 108.244 141.201 108.524 141.119C109.087 140.948 109.713 140.854 110.343 140.77C110.892 140.746 111.503 140.673 112.058 140.663C115.671 140.481 121.873 140.588 126.944 141.403C127.732 141.562 128.454 141.666 129.105 141.837C129.721 141.94 130.27 142.106 130.81 142.218C131.074 142.3 131.279 142.389 131.54 142.48C136.493 144.356 138.989 149.874 140.2 153.834C141.095 156.803 144.143 169.437 144.143 169.437Z" fill="#F78A7B"/>
<path d="M110.684 175.749C110.613 175.84 110.602 175.933 110.53 176.026C110.527 176.029 110.526 176.032 110.524 176.036C110.428 176.377 110.33 176.656 110.232 176.938C110.166 177.014 110.159 177.033 110.153 177.11C110.061 177.374 109.97 177.577 109.878 177.837C109.87 177.918 109.802 177.937 109.796 178.017C109.599 178.57 109.346 179.181 109.15 179.727C109.082 179.809 109.073 179.83 109.064 179.911C108.974 180.166 108.884 180.361 108.795 180.554C108.727 180.632 108.718 180.712 108.711 180.73C108.615 180.999 108.517 181.266 108.363 181.531C108.357 181.546 108.351 181.62 108.344 181.634C108.254 181.885 108.164 182.077 108.076 182.267C108.065 182.348 107.996 182.431 107.987 182.513C107.898 182.699 107.81 182.884 107.721 183.069C107.715 183.143 107.709 183.16 107.643 183.235C107.549 183.429 107.458 183.622 107.366 183.875C107.364 183.878 107.364 183.88 107.363 183.884C106.472 182.523 105.381 180.808 104.387 179.374L105.282 175.494C102.3 171.618 99.2436 166.39 98.5047 160.331C97.993 156.711 97.8858 153.566 98.6049 150.78L99.3434 155.281C99.3434 155.281 101.582 163.77 103.475 167.19C105.368 170.608 108.722 174.588 108.722 174.588L110.684 175.749Z" fill="#F78A7B"/>
<path d="M139.646 173.503C138.565 174.769 137.862 176.038 137.844 176.129C137.117 175.217 136.4 173.779 135.864 172.598C135.329 171.416 134.974 170.433 134.974 170.433C134.788 170.059 134.599 169.621 134.41 169.179V169.177L135.502 165.306L136.317 168.359C136.317 168.359 138.229 171.531 139.646 173.503Z" fill="#D35A49"/>
<path d="M131.545 142.48C128.931 143.2 125.125 144.098 120.907 144.467C113.873 145.168 110.442 143.292 108.53 141.119C109.093 140.948 109.719 140.854 110.349 140.77C110.898 140.746 111.509 140.673 112.064 140.663C115.677 140.481 121.878 140.588 126.949 141.403C127.738 141.562 128.46 141.666 129.111 141.836C129.727 141.94 130.276 142.106 130.815 142.218C131.079 142.299 131.285 142.388 131.545 142.48Z" fill="#F78A7B"/>
<path d="M127.026 126.229C127.026 126.229 124.86 128.215 119.812 129.205C117.019 129.747 114.837 129.735 113.227 129.379C111.956 129.106 111.067 128.584 110.692 128.042C110.692 128.042 109.808 125.404 109.532 121.732C109.258 118.118 109.349 116.039 109.532 115.754C109.605 115.673 109.711 115.569 109.906 115.394C110.796 114.685 112.967 113.33 115.309 112.697C118.265 111.893 120.457 111.967 120.975 112.239C121.424 112.506 121.812 113.162 121.888 113.252C122.706 114.858 123.795 117.485 124.416 119.454C125.232 122.082 127.026 126.229 127.026 126.229Z" fill="#F0B5AB"/>
<path d="M109.531 127.949C109.528 128.05 109.449 128.221 109.359 128.397C109.077 128.943 108.363 129.658 107.715 129.84C107.446 129.926 107.177 129.924 106.92 129.764C106.004 129.295 105.121 124.609 105.931 123.517C106.007 123.435 106.025 123.359 106.103 123.345C106.555 123.063 107.015 123.155 107.464 123.44C108.086 123.881 108.63 124.695 108.994 125.441C109.343 126.153 109.61 127.232 109.531 127.949Z" fill="#F0B5AB"/>
<path d="M108.993 125.442C109.342 126.153 109.609 127.231 109.53 127.949C109.526 128.051 109.447 128.221 109.357 128.397C109.076 128.943 108.362 129.659 107.713 129.84C107.37 127.941 106.822 125.277 105.93 123.517C106.005 123.436 106.023 123.359 106.102 123.345C106.554 123.063 107.014 123.156 107.463 123.441C108.086 123.881 108.629 124.695 108.993 125.442Z" fill="#F6958E"/>
<path d="M113.227 129.378C111.956 129.105 111.067 128.582 110.692 128.041C110.692 128.041 109.808 125.403 109.532 121.731C109.258 118.117 109.349 116.037 109.532 115.752C109.605 115.672 109.711 115.568 109.906 115.393C110.166 118.553 110.964 125.594 113.227 129.378Z" fill="#F6958E"/>
<path d="M143.266 197.557C143.266 197.557 145.969 206.312 149.954 207.945L151.006 211.741C151.006 211.741 142.917 207.942 141.272 198.39L143.266 197.557Z" fill="#13332E"/>
<path d="M158.248 194.604C158.248 194.604 160.933 203.438 158.755 206.151L160.042 209.613C160.042 209.613 163.681 202.176 160.415 194.083L158.248 194.604Z" fill="#13332E"/>
<path d="M108.717 180.683C108.723 180.669 108.729 180.61 108.779 180.551C108.729 180.609 108.723 180.669 108.717 180.683Z" fill="#8F3F37"/>
<path d="M107.009 184.642C107.015 184.583 107.066 184.569 107.072 184.51C107.066 184.569 107.015 184.583 107.009 184.642Z" fill="#8F3F37"/>
<path d="M108.35 181.607C108.354 181.597 108.358 181.542 108.363 181.531C108.359 181.542 108.354 181.597 108.35 181.607Z" fill="#8F3F37"/>
<path d="M107.993 182.516C108.003 182.433 108.015 182.348 108.084 182.264C108.015 182.348 108.004 182.433 107.993 182.516Z" fill="#8F3F37"/>
<path d="M107.284 184.006C107.335 183.947 107.341 183.934 107.348 183.874C107.341 183.934 107.335 183.947 107.284 184.006Z" fill="#8F3F37"/>
<path d="M107.646 183.191C107.695 183.135 107.7 183.123 107.705 183.068C107.7 183.123 107.695 183.135 107.646 183.191Z" fill="#8F3F37"/>
<path d="M111.854 172.341C111.861 172.257 111.868 172.234 111.876 172.149C111.868 172.234 111.861 172.257 111.854 172.341Z" fill="#8F3F37"/>
<path d="M109.064 179.864C109.071 179.804 109.077 179.787 109.128 179.727C109.077 179.787 109.071 179.804 109.064 179.864Z" fill="#8F3F37"/>
<path d="M111.523 173.184C111.572 173.127 111.576 173.114 111.58 173.057C111.576 173.114 111.572 173.127 111.523 173.184Z" fill="#8F3F37"/>
<path d="M113.405 166.107C113.411 165.933 113.416 165.761 113.419 165.652C113.416 165.76 113.411 165.933 113.405 166.107Z" fill="#8F3F37"/>
<path d="M113.322 166.521C113.323 166.469 113.324 166.463 113.325 166.456C113.324 166.463 113.323 166.469 113.322 166.521Z" fill="#8F3F37"/>
<path d="M109.802 177.97C109.808 177.91 109.858 177.896 109.863 177.836C109.858 177.896 109.808 177.91 109.802 177.97Z" fill="#8F3F37"/>
<path d="M111.225 174.189C111.228 174.135 111.231 174.126 111.234 174.117C111.231 174.126 111.228 174.135 111.225 174.189Z" fill="#8F3F37"/>
<path d="M110.16 177.064C110.165 177.007 110.17 176.993 110.219 176.936C110.17 176.993 110.165 177.007 110.16 177.064Z" fill="#8F3F37"/>
<path d="M110.878 175.208C110.887 175.124 110.894 175.041 110.963 174.957C110.894 175.041 110.887 175.124 110.878 175.208Z" fill="#8F3F37"/>
<path d="M110.529 176.033C110.53 176.029 110.531 176.027 110.532 176.025C110.531 176.027 110.53 176.029 110.529 176.033Z" fill="#8F3F37"/>
<path d="M164.385 190.451C164.563 189.643 164.712 188.927 164.712 188.927C164.712 188.927 164.541 189.643 164.385 190.451Z" fill="#F0B5AB"/>
<path d="M111.043 120.452C111.243 119.835 112.405 118.917 113.395 118.233C114.385 117.569 116.019 117.468 116.019 117.468C116.019 117.468 115.461 118.744 113.502 119.72C111.602 120.638 111.043 120.452 111.043 120.452Z" fill="#5D2813"/>
<path d="M119.902 116.761C119.531 117.031 121.722 118.109 123.874 118.023C123.874 118.023 121.695 115.517 119.902 116.761Z" fill="#5D2813"/>
<path d="M121.89 141.042L121.344 142.747C120.344 143.196 118.096 143.109 116.217 142.92C114.775 142.745 113.59 142.482 113.401 142.375C112.941 142.03 112.696 140.134 112.696 140.134C112.696 140.134 113.684 140.215 115.752 140.585C116.098 140.663 116.392 140.744 116.756 140.771C119.54 141.376 121.89 141.042 121.89 141.042Z" fill="#F0B5AB"/>
<path d="M116.217 142.92C114.775 142.745 113.59 142.482 113.401 142.375C112.941 142.03 112.696 140.134 112.696 140.134C112.696 140.134 113.684 140.215 115.752 140.585C115.851 141.395 116.032 142.2 116.217 142.92Z" fill="#F6958E"/>
<path d="M86.3545 284.081V285.702H96.3641C96.3646 285.702 90.6001 280.827 86.3545 284.081Z" fill="#D65028"/>
<path d="M140.023 285.193H149.975C149.975 285.193 142.747 279.932 140.023 285.193Z" fill="#D65028"/>
<path d="M115.588 156.537L113.662 156.803C113.662 156.803 109.986 145.651 107.637 141.378C108.535 141.103 109.437 140.926 110.349 140.769C111.517 143.383 115.12 151.838 115.588 156.537Z" fill="#13332E"/>
<path d="M129.111 141.835L128.204 155.74L126.57 155.723C126.57 155.723 126.769 145.545 126.949 141.401C127.737 141.561 128.46 141.665 129.111 141.835Z" fill="#13332E"/>
<path d="M129.481 133.911C129.468 136.693 127.402 139.75 121.894 141.038C116.387 142.385 112.616 140.407 111.139 139.031C109.546 137.597 109.633 134.987 109.536 131.818C109.518 130.379 109.511 129.306 109.361 128.392C109.451 128.216 109.53 128.046 109.533 127.944C109.612 127.227 109.345 126.148 108.996 125.437C108.632 124.691 108.088 123.876 107.466 123.436C106.636 121.893 105.835 120.374 105.644 118.38C105.478 117.04 105.844 115.95 106.36 115.144C106.821 114.327 107.376 113.862 107.559 113.789C107.984 113.704 107.712 112.513 108.55 110.807C109.446 109.099 110.422 107.093 112.948 105.298C115.471 103.506 116.919 104.006 117.82 104.681C118.637 105.382 120.631 108.363 121.262 109.724C121.339 109.82 121.352 109.915 121.363 110.002C121.809 111.179 121.894 113.316 121.894 113.316C121.894 113.316 121.893 113.255 121.891 113.255C121.815 113.164 121.427 112.508 120.978 112.241C120.46 111.969 118.268 111.894 115.312 112.699C112.415 113.504 109.719 115.409 109.535 115.756C109.352 116.041 109.261 118.12 109.535 121.735C109.623 122.806 109.728 123.79 109.894 124.614C110.251 126.691 110.695 128.044 110.695 128.044C111.598 129.292 114.766 130.196 119.816 129.206C124.864 128.215 127.029 126.23 127.029 126.23C128.218 127.058 129.465 130.913 129.479 133.633C129.481 133.727 129.481 133.819 129.481 133.911Z" fill="#723417"/>
<path d="M128.846 163.476L128.833 163.116L128.66 161.598C128.659 161.58 128.65 161.505 128.575 161.495C128.561 161.426 128.483 161.422 128.466 161.428C123.967 162.597 115.04 162.681 114.95 162.681C114.934 162.681 114.858 162.686 114.848 162.757C114.836 162.77 114.77 162.846 114.77 162.862L114.852 165.007L114.855 165.306L115.109 172.6C115.111 172.69 115.134 172.775 115.224 172.776C116.308 172.872 117.467 172.952 118.634 172.952C124.605 172.952 129.538 171.433 129.555 171.429C129.642 171.42 129.719 171.333 129.657 171.245L128.846 163.476ZM118.634 172.594C117.549 172.594 116.471 172.518 115.466 172.424L115.214 165.299L115.211 164.942L115.132 163.039C116.399 163.032 124.14 162.866 128.369 161.858L128.477 163.213L128.55 163.571L129.295 171.148C128.473 171.35 123.978 172.594 118.634 172.594Z" fill="#A8DEEB"/>
<path d="M128.848 163.472C128.749 163.485 128.651 163.497 128.552 163.567C124.429 164.754 117.55 165.199 115.217 165.294C115.112 165.296 114.951 165.3 114.858 165.302L114.854 165.003C114.947 164.943 115.108 164.94 115.213 164.938C117.55 164.839 124.495 164.394 128.479 163.209C128.579 163.137 128.738 163.125 128.835 163.113L128.848 163.472Z" fill="#A8DEEB"/>
<path d="M135.33 171.513C135.325 171.513 135.322 171.513 135.318 171.512C135.142 171.44 134.797 171.261 134.797 170.812C134.797 170.782 134.87 170.439 134.96 169.726C135.251 167.184 136.049 161.146 135.774 157.725C135.771 157.631 135.855 157.543 135.948 157.541C136.042 157.538 136.129 157.622 136.132 157.715C136.408 161.148 135.608 167.195 135.318 169.801C135.234 170.344 135.156 170.79 135.156 170.812C135.156 171.081 135.339 171.154 135.341 171.155C135.493 171.162 135.514 171.253 135.507 171.346C135.502 171.435 135.418 171.513 135.33 171.513Z" fill="#924138"/>
<path d="M113.508 164.391C113.419 164.391 113.336 164.309 113.329 164.22C112.232 156.547 109.252 151.409 109.182 151.392C109.165 151.303 109.175 151.206 109.263 151.131C109.351 151.055 109.447 151.123 109.524 151.212C109.534 151.23 112.585 156.445 113.687 164.203C113.692 164.297 113.668 164.386 113.575 164.391C113.515 164.391 113.511 164.391 113.508 164.391Z" fill="#924138"/>
<path d="M132.71 189.114C132.704 189.275 132.698 189.376 132.693 189.477C128.55 190.268 124.767 190.541 121.441 190.541C117.997 190.541 115.029 190.201 112.759 189.837C109.075 189.282 106.466 188.463 105.272 188.013C105.296 187.859 105.376 187.764 105.459 187.669C108.426 188.742 118.553 191.727 132.71 189.114Z" fill="#A8DEEB"/>
<path d="M106.825 124.859C106.748 124.791 106.723 124.794 106.65 124.871C106.637 124.89 106.641 124.975 106.719 125.047C106.722 125.048 107.094 125.325 107.533 125.789C107.267 126.419 106.911 127.414 107.189 127.658C107.263 127.669 107.28 127.673 107.358 127.673C107.632 127.673 108.005 127.314 108.268 127.047C108.349 127.22 108.366 127.395 108.437 127.574C108.44 127.592 108.458 127.665 108.535 127.665C108.538 127.665 108.541 127.665 108.543 127.664C108.625 127.659 108.64 127.58 108.635 127.498C108.349 125.947 106.907 124.878 106.825 124.859ZM107.355 127.414C107.268 127.32 107.442 126.687 107.65 126.04C107.831 126.238 108.009 126.508 108.175 126.848C107.805 127.226 107.379 127.49 107.355 127.414Z" fill="#993322"/>
<path d="M119.98 128.207C119.638 128.207 119.356 128.136 119.076 128.113C118.995 128.048 118.922 128.025 118.986 127.945C118.992 127.863 119.013 127.85 119.094 127.855C120.168 128.118 121.423 127.853 122.145 127.232C122.351 127.041 122.69 126.684 122.623 126.232C122.605 125.147 120.893 125.055 120.887 125.055C120.816 125.054 120.806 125.049 120.799 124.983C119.988 124.059 119.443 119.272 119.467 119.023C119.533 119.003 119.557 118.931 119.636 118.954C119.715 119.005 119.726 119.023 119.723 119.102C119.719 119.456 120.189 123.876 120.91 124.796C121.257 124.866 122.803 125.048 122.882 126.228C122.89 126.675 122.698 127.055 122.256 127.412C121.7 127.936 120.812 128.207 119.98 128.207Z" fill="#993322"/>
<path d="M114.314 131.994C114.314 131.994 120.712 130.649 122.784 130.39C122.784 130.39 122.515 133.18 119.904 133.919C117.293 134.714 114.314 131.994 114.314 131.994Z" fill="white"/>
<path d="M116.201 122.444C116.104 123.241 115.745 123.797 115.396 123.78C115.107 123.705 114.928 123.064 115.026 122.267C115.123 121.529 115.483 120.915 115.832 120.99C116.121 121.007 116.298 121.708 116.201 122.444Z" fill="#1E1725"/>
<path d="M123.335 121.719C123.238 122.512 122.878 123.072 122.589 122.997C122.24 122.98 122.062 122.339 122.16 121.542C122.317 120.805 122.617 120.19 122.966 120.266C123.314 120.282 123.492 120.983 123.335 121.719Z" fill="#1E1725"/>
<path d="M192.685 279.615C192.367 279.76 189.098 283.746 176.305 284.636C163.63 285.526 160.588 282.861 160.588 282.861L161.133 288.222C161.133 288.222 178.127 290.401 192.69 286.243L192.685 279.615Z" fill="#5C261F"/>
<path d="M165.666 277.222C165.648 277.222 165.631 277.096 165.627 277.072L164.909 274.206C164.903 274.181 164.917 274.16 164.938 274.154C165.079 274.148 165.101 274.162 165.106 274.184L165.823 277.053C165.829 277.074 165.815 277.216 165.794 277.221C165.672 277.222 165.669 277.222 165.666 277.222Z" fill="url(#paint16_linear)"/>
<path d="M168.88 277.223C168.873 277.223 168.867 277.221 168.862 277.218C168.725 277.093 168.716 277.071 168.722 277.051C168.723 276.874 168.35 275.779 167.979 274.727C167.971 274.707 167.982 274.564 168.002 274.556C168.142 274.548 168.165 274.559 168.173 274.698C169.069 276.893 169.044 277.066 168.916 277.082C168.909 277.215 168.895 277.223 168.88 277.223Z" fill="url(#paint17_linear)"/>
<path d="M171.403 277.223C171.387 277.223 171.253 277.212 171.247 277.078L170.33 274.727C170.322 274.707 170.332 274.564 170.353 274.556C170.492 274.548 170.516 274.558 170.524 274.697L171.441 277.049C171.568 277.07 171.439 277.206 171.418 277.221C171.413 277.222 171.408 277.223 171.403 277.223Z" fill="url(#paint18_linear)"/>
<path d="M174.298 276.704C174.282 276.704 174.147 276.693 174.141 276.678L173.369 274.324C173.243 274.185 173.374 274.163 173.394 274.155C173.415 274.147 173.557 274.158 173.564 274.179L174.454 276.531C174.462 276.671 174.335 276.693 174.311 276.701C174.307 276.703 174.302 276.704 174.298 276.704Z" fill="url(#paint19_linear)"/>
<path d="M172.479 279.57C167.644 279.57 164.003 278.316 163.986 278.31C163.854 278.307 163.844 278.29 163.841 278.163L162.416 271.311C162.412 271.289 162.545 271.269 162.566 271.264C162.587 271.251 162.729 271.272 162.733 271.295L164.034 278.123C164.729 278.311 170.12 279.933 175.947 279.049C182.771 278.122 186.194 275.418 187.64 273.814L184.771 266.238C184.764 266.217 184.774 266.074 184.913 266.067C184.935 266.059 184.958 266.07 184.966 266.21L187.843 273.809C187.849 273.823 187.846 273.84 187.835 273.97C186.391 275.459 182.952 278.314 176.077 279.248C174.826 279.427 173.582 279.57 172.479 279.57Z" fill="url(#paint20_linear)"/>
<path d="M166.74 192.71L146.189 197.236L133.797 200.024L133.166 197.558L144.515 195.057L166.383 190.11L166.74 192.71Z" fill="#235952"/>
<path d="M146.188 197.239L133.795 200.026L133.165 197.56L144.513 195.059C145.079 195.797 145.777 196.609 146.188 197.239Z" fill="#13332E"/>
<path d="M164.348 191.722C164.349 191.349 164.364 190.836 164.384 190.451C164.213 191.176 164.016 191.988 163.679 192.432C164.384 190.361 164.531 188.036 164.531 188.026C164.533 187.935 164.561 187.852 164.713 187.85C164.745 187.852 164.891 187.938 164.891 188.032C164.888 188.126 164.748 189.906 164.348 191.722Z" fill="#924138"/>
<path d="M129.481 133.917C129.468 136.698 127.402 139.755 121.894 141.044C116.387 142.391 112.616 140.412 111.139 139.037C109.546 137.603 109.633 134.992 109.536 131.823C109.518 130.385 109.511 129.311 109.361 128.398C109.451 128.222 109.53 128.051 109.533 127.95C109.612 127.232 109.345 126.154 108.996 125.443C108.632 124.696 108.088 123.882 107.466 123.441C106.636 121.899 105.835 120.38 105.644 118.385C105.478 117.045 105.844 115.955 106.36 115.15C108.072 115.852 109.157 114.784 109.157 114.784C109.157 114.784 109.705 113.982 113.146 112.519C116.646 110.999 119.371 111.084 119.829 110.913C120.161 110.822 120.797 110.271 121.263 109.73C121.339 109.826 121.352 109.921 121.364 110.008C121.809 111.185 121.894 113.322 121.894 113.322C121.894 113.322 121.893 113.261 121.891 113.261C121.816 113.17 121.428 112.514 120.979 112.247C120.461 111.975 118.268 111.9 115.313 112.705C112.415 113.51 109.72 115.415 109.536 115.762C109.353 116.047 109.261 118.126 109.536 121.741C109.623 122.812 109.729 123.796 109.894 124.621C109.882 125.229 109.816 125.772 109.815 126.241C109.809 130.01 112.7 135.351 112.7 135.351C112.7 135.351 114.408 138.245 118.193 138.133C121.977 137.96 127.919 136.067 128.849 134.805C129.112 134.456 129.36 134.081 129.479 133.639C129.481 133.733 129.481 133.825 129.481 133.917Z" fill="#5D2813"/>
<path d="M141.121 197.138C140.4 197.489 140.578 196.062 140.727 195.517C140.564 196.132 140.194 197.675 139.51 197.675C138.988 197.675 138.988 196.522 139.004 195.955V195.954C139.072 195.698 139.106 195.523 139.106 195.523L138.665 195.88C138.665 195.88 138.665 195.88 138.663 195.882L137.848 196.599C137.848 196.599 136.311 198.212 135.875 198.001C135.775 197.875 135.698 197.728 135.694 197.56C135.686 197.221 135.863 196.692 135.872 196.605C135.866 196.674 135.793 196.699 135.772 196.791C135.77 196.794 135.769 196.856 135.767 196.858C135.503 197.233 134.962 198.043 134.618 197.91C134.601 197.904 134.526 197.867 134.519 197.732C134.334 197.051 134.618 194.606 134.618 194.606C134.618 194.606 132.984 195.143 129.737 194.147C126.489 193.092 121.167 189.744 116.663 186.038C112.218 182.331 107.716 178.186 106.739 176.471C106.739 176.471 107.541 175.392 108.816 174.057C109.266 173.604 109.799 173.143 110.347 172.684C112.579 170.812 114.571 169.896 114.571 169.896C114.571 169.896 121.269 178.007 124.225 182.15C127.122 186.297 130.913 190.639 130.913 190.639C130.913 190.639 136.134 189.565 139.107 190.741C142.016 191.916 142.016 196.699 141.121 197.138Z" fill="#F0B5AB"/>
<path d="M136.95 194.165C136.95 194.25 136.946 195.704 135.694 197.558C135.686 197.219 135.863 196.69 135.871 196.603C135.866 196.672 135.793 196.697 135.772 196.789C136.585 195.327 136.592 194.171 136.592 194.166C136.592 194.073 136.68 193.987 136.771 193.987H136.772C136.864 193.986 136.95 194.073 136.95 194.165Z" fill="#FF7768"/>
<path d="M139.005 195.952C139.074 195.696 139.108 195.521 139.108 195.521L138.667 195.878C139.161 194.886 139.109 194.237 139.108 194.234C139.078 194.083 139.125 193.993 139.264 193.986C139.312 193.983 139.453 194.064 139.466 194.157C139.469 194.17 139.508 194.889 139.005 195.952Z" fill="#FF7768"/>
<path d="M135.695 193.17C135.695 193.17 134.874 195.78 134.52 197.73C134.334 197.049 134.619 194.605 134.619 194.605C134.619 194.605 132.985 195.141 129.737 194.146C126.49 193.09 121.168 189.742 116.664 186.036C112.219 182.329 107.716 178.184 106.74 176.47C106.74 176.47 107.541 175.39 108.817 174.055C111.612 178.017 112.76 179.824 116.758 184.048C121.261 188.666 130.183 194.17 131.185 193.987C132.247 193.8 135.695 193.17 135.695 193.17Z" fill="#F6958E"/>
<path d="M166.53 191.632C166.39 191.633 166.375 191.628 166.362 191.557C166.208 191.528 166.196 191.273 166.193 191.001C166.19 190.359 166.38 189.37 166.522 189.032C166.348 189.64 165.448 192.63 164.715 192.707C164.382 192.714 164.351 192.27 164.354 191.718C164.355 191.345 164.37 190.832 164.39 190.447C164.558 189.745 164.585 189.188 164.594 189.003C164.578 189.188 164.538 189.745 164.39 190.447C164.219 191.172 164.022 191.984 163.685 192.428C163.64 192.61 163.472 192.707 163.301 192.707C163.109 192.707 162.946 192.439 162.922 192.066C162.731 190.821 162.962 188.384 162.962 188.384C162.962 188.384 161.468 190.018 158.24 190.097C155.013 190.176 150.487 187.746 146.682 184.856C142.757 181.966 138.949 177.841 137.851 176.127C137.851 176.127 138.498 174.843 139.654 173.499C140.047 172.955 140.586 172.413 141.262 171.962C143.247 170.434 144.024 169.439 144.149 169.433C144.149 169.433 144.149 169.431 144.149 169.431C144.149 169.431 146.9 173.232 149.432 176.481C151.962 179.731 160.564 185.68 160.564 185.68C160.564 185.68 161.689 184.677 164.715 183.954C167.627 183.232 168.145 184.038 168.701 186.49C169.26 189 167.107 191.552 166.53 191.632Z" fill="#F0B5AB"/>
<path d="M167.283 187.499C167.257 188.218 166.932 190.118 166.358 191.561C166.203 191.532 166.191 191.277 166.189 191.005C166.712 189.724 166.9 188.119 166.923 187.497C166.926 187.405 167.074 187.309 167.106 187.311L167.104 187.49L167.283 187.499Z" fill="#924138"/>
<path d="M163.684 187.312C163.666 187.494 163.275 190.189 162.921 192.071C162.73 190.826 162.962 188.389 162.962 188.389C162.962 188.389 161.468 190.023 158.24 190.102C155.012 190.181 150.487 187.751 146.682 184.861C142.756 181.971 138.949 177.845 137.85 176.132C137.85 176.132 138.497 174.848 139.654 173.504C142.181 177.035 145.799 181.805 150.668 185.238C156.234 189.186 159.356 189.213 161.309 188.467C163.142 187.664 163.827 187.045 163.684 187.312Z" fill="#F6958E"/>
<path fill-rule="evenodd" clip-rule="evenodd" d="M215.177 0H40.1716C19.5305 0 2.7976 16.3638 2.7976 36.5495V461.22C2.7976 481.406 19.5305 497.77 40.1716 497.77H215.177C235.818 497.77 252.551 481.406 252.551 461.22V172.304C253.533 172.304 254.33 171.507 254.33 170.524V116.069C254.33 115.086 253.533 114.29 252.551 114.289V36.5495C252.551 16.3638 235.818 0 215.177 0ZM5.76379 36.5495C5.76379 17.9658 21.1687 2.90075 40.1716 2.90075H215.177C234.18 2.90075 249.584 17.9658 249.584 36.5495V461.22C249.584 479.804 234.18 494.869 215.177 494.869H40.1716C21.1687 494.869 5.76379 479.804 5.76379 461.22V36.5495ZM2.79729 85.2825V66.7176C1.81438 66.7176 1.01758 67.5144 1.01758 68.4973V83.5027C1.01758 84.4857 1.81438 85.2825 2.79729 85.2825ZM2.79729 102.687V138.656C1.81438 138.656 1.01758 137.86 1.01758 136.877V104.467C1.01758 103.484 1.81438 102.687 2.79729 102.687ZM2.79729 183.907V147.938C1.81438 147.938 1.01758 148.735 1.01758 149.717V182.127C1.01758 183.11 1.81438 183.907 2.79729 183.907Z" fill="#AABBCC"/>
<g filter="url(#filter0_d)">
<path fill-rule="evenodd" clip-rule="evenodd" d="M238.907 36.276C238.907 23.3035 228.288 12.7963 215.178 12.7963H194.118C191.497 12.7963 189.372 14.8988 189.372 17.4923V18.0793C189.372 25.2406 183.558 30.9931 176.321 30.9931H79.0295C71.792 30.9931 65.9783 25.2406 65.9783 18.0793V17.4923C65.9783 14.8988 63.8535 12.7963 61.2324 12.7963H40.1724C27.0619 12.7963 16.4429 23.3035 16.4429 36.276V465.954C16.4429 478.927 27.0619 489.434 40.1724 489.434H215.178C228.288 489.434 238.907 478.927 238.907 465.954V36.276ZM40.1724 2.23047H215.178C234.161 2.23047 249.585 17.4923 249.585 36.276V465.954C249.585 484.738 234.161 500 215.178 500H40.1724C21.1888 500 5.76465 484.738 5.76465 465.954V36.276C5.76465 17.4923 21.1888 2.23047 40.1724 2.23047Z" fill="#333333"/>
<path opacity="0.6" fill-rule="evenodd" clip-rule="evenodd" d="M88.2246 481.803C88.2246 480.993 88.8886 480.336 89.7077 480.336H166.235C167.054 480.336 167.718 480.993 167.718 481.803C167.718 482.614 167.054 483.271 166.235 483.271H89.7077C88.8886 483.271 88.2246 482.614 88.2246 481.803Z" fill="#333333"/>
<path d="M158.523 18.0791C158.523 20.3484 156.664 22.188 154.371 22.188C152.077 22.188 150.218 20.3484 150.218 18.0791C150.218 15.8098 152.077 13.9701 154.371 13.9701C156.664 13.9701 158.523 15.8098 158.523 18.0791Z" fill="#4F4F4F"/>
<path d="M114.327 16.3181C113.344 16.3181 112.547 17.1065 112.547 18.0791C112.547 19.0516 113.344 19.8401 114.327 19.8401H140.43C141.412 19.8401 142.209 19.0516 142.209 18.0791C142.209 17.1065 141.412 16.3181 140.43 16.3181H114.327Z" fill="#4F4F4F"/>
</g>
<path d="M29 428.882C29 420.598 35.7157 413.882 44 413.882H127.684H211.368C219.652 413.882 226.368 420.598 226.368 428.882V440C226.368 448.284 219.652 455 211.368 455H44C35.7157 455 29 448.284 29 440V428.882Z" fill="#13332E"/>
<path d="M81.06 441.16C79.6333 441.16 78.4067 440.874 77.38 440.3C76.3667 439.714 75.5867 438.88 75.04 437.8C74.5067 436.707 74.24 435.394 74.24 433.86C74.24 432.34 74.5067 431.04 75.04 429.96C75.5867 428.867 76.36 428.034 77.36 427.46C78.3733 426.887 79.5667 426.6 80.94 426.6C81.9267 426.6 82.8333 426.754 83.66 427.06C84.5 427.354 85.2267 427.8 85.84 428.4L85.2 429.66C84.5067 429.074 83.8267 428.654 83.16 428.4C82.4933 428.134 81.7533 428 80.94 428C79.3267 428 78.0867 428.507 77.22 429.52C76.3667 430.52 75.94 431.967 75.94 433.86C75.94 435.794 76.38 437.267 77.26 438.28C78.14 439.28 79.42 439.78 81.1 439.78C81.7933 439.78 82.4667 439.72 83.12 439.6C83.7867 439.467 84.3867 439.294 84.92 439.08L84.52 439.92V434.88H80.98V433.58H86.02V440.18C85.6467 440.38 85.1867 440.554 84.64 440.7C84.1067 440.847 83.5267 440.96 82.9 441.04C82.2867 441.12 81.6733 441.16 81.06 441.16ZM97.4289 439.8C96.9889 440.214 96.4222 440.54 95.7289 440.78C95.0489 441.02 94.3489 441.14 93.6289 441.14C92.5889 441.14 91.6889 440.934 90.9289 440.52C90.1822 440.107 89.6022 439.514 89.1889 438.74C88.7889 437.954 88.5889 437.02 88.5889 435.94C88.5889 434.9 88.7889 433.987 89.1889 433.2C89.5889 432.414 90.1422 431.8 90.8489 431.36C91.5689 430.92 92.3956 430.7 93.3289 430.7C94.2222 430.7 94.9889 430.9 95.6289 431.3C96.2689 431.687 96.7556 432.247 97.0889 432.98C97.4356 433.714 97.6089 434.594 97.6089 435.62V435.92H90.0089V434.86H96.6889L96.1689 435.6C96.1956 434.427 95.9622 433.527 95.4689 432.9C94.9889 432.274 94.2822 431.96 93.3489 431.96C92.3756 431.96 91.6089 432.307 91.0489 433C90.5022 433.68 90.2289 434.627 90.2289 435.84C90.2289 437.147 90.5156 438.134 91.0889 438.8C91.6756 439.467 92.5289 439.8 93.6489 439.8C94.2356 439.8 94.7956 439.707 95.3289 439.52C95.8756 439.32 96.3956 439.02 96.8889 438.62L97.4289 439.8ZM98.5892 432.22V430.94H105.049V432.22H98.5892ZM105.009 439.56V440.94C104.783 441.007 104.556 441.054 104.329 441.08C104.116 441.12 103.876 441.14 103.609 441.14C102.676 441.14 101.929 440.874 101.369 440.34C100.823 439.807 100.549 439.007 100.549 437.94V428.36L102.169 427.78V437.72C102.169 438.254 102.243 438.667 102.389 438.96C102.549 439.254 102.763 439.46 103.029 439.58C103.296 439.687 103.596 439.74 103.929 439.74C104.129 439.74 104.309 439.727 104.469 439.7C104.629 439.674 104.809 439.627 105.009 439.56ZM115.616 441.14C113.923 441.14 112.583 440.707 111.596 439.84L112.136 438.64C112.67 439.054 113.216 439.36 113.776 439.56C114.35 439.747 114.983 439.84 115.676 439.84C116.436 439.84 117.01 439.714 117.396 439.46C117.796 439.194 117.996 438.814 117.996 438.32C117.996 437.92 117.863 437.607 117.596 437.38C117.33 437.14 116.89 436.947 116.276 436.8L114.576 436.4C113.736 436.214 113.083 435.88 112.616 435.4C112.163 434.92 111.936 434.347 111.936 433.68C111.936 433.094 112.096 432.58 112.416 432.14C112.736 431.687 113.183 431.334 113.756 431.08C114.33 430.827 115.01 430.7 115.796 430.7C116.503 430.7 117.17 430.814 117.796 431.04C118.423 431.267 118.95 431.594 119.376 432.02L118.836 433.2C118.356 432.8 117.863 432.507 117.356 432.32C116.863 432.12 116.343 432.02 115.796 432.02C115.076 432.02 114.516 432.16 114.116 432.44C113.73 432.72 113.536 433.1 113.536 433.58C113.536 433.994 113.656 434.32 113.896 434.56C114.15 434.8 114.55 434.987 115.096 435.12L116.796 435.54C117.743 435.74 118.436 436.074 118.876 436.54C119.33 436.994 119.556 437.574 119.556 438.28C119.556 439.147 119.203 439.84 118.496 440.36C117.79 440.88 116.83 441.14 115.616 441.14ZM120.62 432.22V430.94H127.08V432.22H120.62ZM127.04 439.56V440.94C126.814 441.007 126.587 441.054 126.36 441.08C126.147 441.12 125.907 441.14 125.64 441.14C124.707 441.14 123.96 440.874 123.4 440.34C122.854 439.807 122.58 439.007 122.58 437.94V428.36L124.2 427.78V437.72C124.2 438.254 124.274 438.667 124.42 438.96C124.58 439.254 124.794 439.46 125.06 439.58C125.327 439.687 125.627 439.74 125.96 439.74C126.16 439.74 126.34 439.727 126.5 439.7C126.66 439.674 126.84 439.627 127.04 439.56ZM132.893 441.14C131.999 441.14 131.213 440.934 130.533 440.52C129.866 440.094 129.346 439.494 128.973 438.72C128.613 437.934 128.433 437.014 128.433 435.96C128.433 434.907 128.619 433.987 128.993 433.2C129.366 432.414 129.886 431.8 130.553 431.36C131.233 430.92 132.013 430.7 132.893 430.7C133.813 430.7 134.593 430.927 135.233 431.38C135.873 431.834 136.306 432.48 136.533 433.32L136.293 433.48V430.94H137.893V441H136.293V438.4L136.533 438.52C136.306 439.36 135.873 440.007 135.233 440.46C134.593 440.914 133.813 441.14 132.893 441.14ZM133.213 439.8C134.199 439.8 134.959 439.467 135.493 438.8C136.026 438.12 136.293 437.16 136.293 435.92C136.293 434.68 136.019 433.727 135.473 433.06C134.939 432.394 134.186 432.06 133.213 432.06C132.226 432.06 131.453 432.407 130.893 433.1C130.346 433.78 130.073 434.734 130.073 435.96C130.073 437.187 130.346 438.134 130.893 438.8C131.453 439.467 132.226 439.8 133.213 439.8ZM141.025 441V433.76C141.025 433.294 141.012 432.827 140.985 432.36C140.972 431.88 140.932 431.407 140.865 430.94H142.405L142.625 433.42L142.405 433.36C142.592 432.48 142.992 431.82 143.605 431.38C144.232 430.927 144.932 430.7 145.705 430.7C145.878 430.7 146.038 430.714 146.185 430.74C146.345 430.754 146.492 430.78 146.625 430.82L146.585 432.3C146.278 432.194 145.925 432.14 145.525 432.14C144.832 432.14 144.272 432.294 143.845 432.6C143.432 432.907 143.125 433.3 142.925 433.78C142.738 434.247 142.645 434.74 142.645 435.26V441H141.025ZM147.652 432.22V430.94H154.112V432.22H147.652ZM154.072 439.56V440.94C153.845 441.007 153.618 441.054 153.392 441.08C153.178 441.12 152.938 441.14 152.672 441.14C151.738 441.14 150.992 440.874 150.432 440.34C149.885 439.807 149.612 439.007 149.612 437.94V428.36L151.232 427.78V437.72C151.232 438.254 151.305 438.667 151.452 438.96C151.612 439.254 151.825 439.46 152.092 439.58C152.358 439.687 152.658 439.74 152.992 439.74C153.192 439.74 153.372 439.727 153.532 439.7C153.692 439.674 153.872 439.627 154.072 439.56ZM164.304 439.8C163.864 440.214 163.297 440.54 162.604 440.78C161.924 441.02 161.224 441.14 160.504 441.14C159.464 441.14 158.564 440.934 157.804 440.52C157.057 440.107 156.477 439.514 156.064 438.74C155.664 437.954 155.464 437.02 155.464 435.94C155.464 434.9 155.664 433.987 156.064 433.2C156.464 432.414 157.017 431.8 157.724 431.36C158.444 430.92 159.271 430.7 160.204 430.7C161.097 430.7 161.864 430.9 162.504 431.3C163.144 431.687 163.631 432.247 163.964 432.98C164.311 433.714 164.484 434.594 164.484 435.62V435.92H156.884V434.86H163.564L163.044 435.6C163.071 434.427 162.837 433.527 162.344 432.9C161.864 432.274 161.157 431.96 160.224 431.96C159.251 431.96 158.484 432.307 157.924 433C157.377 433.68 157.104 434.627 157.104 435.84C157.104 437.147 157.391 438.134 157.964 438.8C158.551 439.467 159.404 439.8 160.524 439.8C161.111 439.8 161.671 439.707 162.204 439.52C162.751 439.32 163.271 439.02 163.764 438.62L164.304 439.8ZM175.803 441H174.203V438.3L174.443 438.52C174.216 439.36 173.783 440.007 173.143 440.46C172.503 440.914 171.723 441.14 170.803 441.14C169.923 441.14 169.143 440.927 168.463 440.5C167.796 440.06 167.276 439.447 166.903 438.66C166.529 437.86 166.343 436.934 166.343 435.88C166.343 434.827 166.523 433.914 166.883 433.14C167.256 432.367 167.776 431.767 168.443 431.34C169.123 430.914 169.909 430.7 170.803 430.7C171.723 430.7 172.503 430.934 173.143 431.4C173.783 431.854 174.216 432.494 174.443 433.32L174.183 433.52V426.28H175.803V441ZM171.123 439.8C172.096 439.8 172.849 439.467 173.383 438.8C173.929 438.12 174.203 437.16 174.203 435.92C174.203 434.694 173.936 433.747 173.403 433.08C172.869 432.4 172.109 432.06 171.123 432.06C170.136 432.06 169.363 432.394 168.803 433.06C168.256 433.727 167.983 434.667 167.983 435.88C167.983 437.12 168.256 438.087 168.803 438.78C169.363 439.46 170.136 439.8 171.123 439.8Z" fill="white"/>
<path d="M53.3997 369.286C55.0298 368.973 56.6232 369.94 56.9618 371.449C57.1123 372.12 57.471 372.733 57.9991 373.222C59.4867 374.599 61.9072 374.599 63.3951 373.222C64.8828 371.845 64.8828 369.604 63.3951 368.227C61.9025 366.845 59.4918 366.845 57.9991 368.227C56.8177 369.32 54.9015 369.316 53.7258 368.215C52.5541 367.117 52.5924 365.332 53.7838 364.242C55.6389 362.547 58.0929 361.614 60.6967 361.614C60.7067 361.614 60.7167 361.614 60.7265 361.614C61.6637 361.616 62.5806 361.739 63.4569 361.976C61.259 359.942 58.724 357.596 57.6668 356.617C56.4924 355.53 56.4924 353.761 57.6668 352.674C58.8413 351.587 60.7522 351.587 61.9267 352.674C63.301 353.946 66.8943 357.271 69.5333 359.713L65.7011 351.149C65.4215 350.521 64.7654 350.116 64.0302 350.115C63.4052 350.115 62.7704 350.421 62.435 351.004C62.2809 351.274 61.9191 351.381 61.6205 351.235C61.3211 351.088 61.2176 350.748 61.3707 350.481C61.8818 349.587 62.8997 349 64.0302 349H64.0318C65.2417 349 66.3434 349.671 66.8143 350.722L71.736 361.721C71.7354 358.953 71.735 355.767 71.735 354.645C71.735 353.576 70.6616 352.78 69.5336 353.012C69.2088 353.079 68.8869 352.889 68.8147 352.589C68.7425 352.288 68.9472 351.99 69.2719 351.923C71.1575 351.536 72.94 352.869 72.94 354.645C72.94 356.838 72.9415 385.769 72.9415 386.513C72.9415 386.82 72.672 387.07 72.3391 387.07C72.0062 387.07 71.7366 386.82 71.7366 386.513V366.36C71.7366 366.312 71.7366 366.02 71.7366 365.558C71.735 364.117 71.1232 362.761 70.0302 361.75C67.4504 359.363 62.7039 354.97 61.0747 353.462C60.37 352.81 59.2235 352.81 58.5187 353.462C57.8143 354.115 57.8143 355.176 58.5187 355.828C60.258 357.438 65.997 362.749 67.655 364.283C67.8903 364.501 67.8907 364.854 67.6553 365.072C67.4203 365.29 67.0387 365.29 66.8034 365.072C63.4573 361.975 57.9966 361.959 54.6307 365.036C53.9118 365.693 53.8811 366.773 54.583 367.431C55.2874 368.091 56.4374 368.095 57.1472 367.438C59.1046 365.626 62.2898 365.626 64.2474 367.438C66.2048 369.25 66.2048 372.199 64.2474 374.011C62.2859 375.826 59.1108 375.828 57.1472 374.011C56.4528 373.368 55.9809 372.56 55.7823 371.676C55.5789 370.771 54.6232 370.19 53.6451 370.378C52.6693 370.566 52.0405 371.453 52.2432 372.357C52.5855 373.881 53.3975 375.271 54.5912 376.377C55.5011 377.219 56.5674 377.848 57.7606 378.246C59.8774 378.953 62.6474 378.344 62.6474 380.453V386.513C62.6474 386.821 62.189 387.07 61.8564 387.07C61.5235 387.07 61.3744 386.821 61.3744 386.513V380.861C61.3744 379.222 58.9925 379.843 57.3518 379.295C55.9906 378.841 54.7753 378.124 53.7392 377.165C52.379 375.906 51.4537 374.322 51.0633 372.584C50.7254 371.078 51.7734 369.599 53.3997 369.286Z" fill="#235952"/>
<path d="M78.9182 385.018C78.2746 385.018 77.7333 384.793 77.2945 384.344C76.885 383.864 76.6802 383.271 76.6802 382.565V361.166C76.6802 360.428 76.885 359.835 77.2945 359.386C77.7333 358.938 78.2746 358.713 78.9182 358.713C79.5911 358.713 80.1323 358.938 80.5419 359.386C80.9515 359.835 81.1562 360.396 81.1562 361.07C81.9169 360.236 82.8238 359.595 83.877 359.146C84.9303 358.665 86.0713 358.425 87.3 358.425C90.3718 358.425 92.6829 359.691 94.2334 362.224C95.082 361.037 96.1645 360.108 97.481 359.435C98.7972 358.761 100.275 358.425 101.913 358.425C104.429 358.425 106.477 359.322 108.056 361.118C109.636 362.913 110.426 365.478 110.426 368.812V382.565C110.426 383.271 110.221 383.864 109.812 384.344C109.403 384.793 108.861 385.018 108.188 385.018C107.545 385.018 107.003 384.793 106.565 384.344C106.155 383.864 105.951 383.271 105.951 382.565V368.812C105.951 366.792 105.497 365.301 104.59 364.34C103.683 363.346 102.498 362.849 101.035 362.849C99.5141 362.849 98.256 363.426 97.2611 364.58C96.296 365.734 95.8134 367.209 95.8134 369.004V382.565C95.8134 383.271 95.6086 383.864 95.199 384.344C94.7894 384.793 94.2481 385.018 93.5753 385.018C92.9316 385.018 92.3904 384.793 91.9516 384.344C91.542 383.864 91.3373 383.271 91.3373 382.565V368.812C91.3373 366.792 90.8838 365.301 89.9768 364.34C89.0699 363.346 87.8851 362.849 86.4222 362.849C84.901 362.849 83.6431 363.426 82.6484 364.58C81.6536 365.734 81.1562 367.209 81.1562 369.004V382.565C81.1562 383.271 80.9515 383.864 80.5419 384.344C80.1323 384.793 79.5911 385.018 78.9182 385.018ZM122.383 385.162C120.014 385.162 117.922 384.601 116.108 383.479C114.294 382.325 112.861 380.754 111.808 378.766C110.783 376.746 110.272 374.438 110.272 371.841C110.272 369.213 110.783 366.904 111.808 364.917C112.861 362.897 114.294 361.326 116.108 360.204C117.922 359.05 120.014 358.473 122.383 358.473C124.724 358.473 126.801 359.05 128.615 360.204C130.429 361.326 131.847 362.897 132.872 364.917C133.925 366.904 134.451 369.213 134.451 371.841C134.451 374.438 133.94 376.746 132.916 378.766C131.891 380.754 130.473 382.325 128.659 383.479C126.845 384.601 124.753 385.162 122.383 385.162ZM122.383 380.834C123.905 380.834 125.251 380.449 126.421 379.68C127.591 378.91 128.498 377.852 129.142 376.506C129.815 375.159 130.151 373.605 130.151 371.841C130.151 370.078 129.815 368.523 129.142 367.177C128.498 365.798 127.591 364.724 126.421 363.955C125.251 363.185 123.905 362.801 122.383 362.801C120.862 362.801 119.517 363.185 118.346 363.955C117.176 364.724 116.254 365.798 115.581 367.177C114.909 368.523 114.572 370.078 114.572 371.841C114.572 373.605 114.909 375.159 115.581 376.506C116.254 377.852 117.176 378.91 118.346 379.68C119.517 380.449 120.862 380.834 122.383 380.834Z" fill="#235952"/>
<path d="M136.111 396.398C135.468 396.398 134.926 396.158 134.488 395.677C134.078 395.228 133.873 394.651 133.873 393.946V372.018C133.903 369.485 134.444 367.209 135.497 365.189C136.55 363.169 137.984 361.582 139.797 360.428C141.611 359.242 143.659 358.649 145.941 358.649C148.252 358.649 150.315 359.242 152.129 360.428C153.943 361.582 155.376 363.169 156.429 365.189C157.512 367.209 158.053 369.485 158.053 372.018C158.053 374.55 157.556 376.826 156.561 378.846C155.595 380.834 154.264 382.421 152.567 383.607C150.87 384.761 148.954 385.338 146.819 385.338C145.093 385.338 143.498 384.953 142.036 384.184C140.602 383.383 139.373 382.309 138.35 380.962V393.946C138.35 394.651 138.144 395.228 137.735 395.677C137.325 396.158 136.784 396.398 136.111 396.398ZM145.941 381.01C147.433 381.01 148.764 380.625 149.934 379.856C151.105 379.055 152.026 377.981 152.699 376.634C153.401 375.256 153.752 373.717 153.752 372.018C153.752 370.286 153.401 368.748 152.699 367.401C152.026 366.023 151.105 364.949 149.934 364.179C148.764 363.378 147.433 362.977 145.941 362.977C144.479 362.977 143.148 363.378 141.948 364.179C140.778 364.949 139.856 366.023 139.183 367.401C138.51 368.748 138.174 370.286 138.174 372.018C138.174 373.717 138.51 375.256 139.183 376.634C139.856 377.981 140.778 379.055 141.948 379.856C143.148 380.625 144.479 381.01 145.941 381.01ZM161.92 396.398C161.277 396.398 160.735 396.158 160.296 395.677C159.887 395.228 159.682 394.651 159.682 393.946V372.018C159.711 369.485 160.252 367.209 161.306 365.189C162.359 363.169 163.792 361.582 165.606 360.428C167.42 359.242 169.468 358.649 171.75 358.649C174.061 358.649 176.124 359.242 177.938 360.428C179.751 361.582 181.185 363.169 182.238 365.189C183.321 367.209 183.862 369.485 183.862 372.018C183.862 374.55 183.364 376.826 182.37 378.846C181.404 380.834 180.073 382.421 178.376 383.607C176.679 384.761 174.763 385.338 172.628 385.338C170.901 385.338 169.307 384.953 167.844 384.184C166.411 383.383 165.182 382.309 164.158 380.962V393.946C164.158 394.651 163.953 395.228 163.544 395.677C163.134 396.158 162.593 396.398 161.92 396.398ZM171.75 381.01C173.242 381.01 174.573 380.625 175.743 379.856C176.913 379.055 177.835 377.981 178.508 376.634C179.21 375.256 179.561 373.717 179.561 372.018C179.561 370.286 179.21 368.748 178.508 367.401C177.835 366.023 176.913 364.949 175.743 364.179C174.573 363.378 173.242 362.977 171.75 362.977C170.287 362.977 168.956 363.378 167.757 364.179C166.586 364.949 165.665 366.023 164.992 367.401C164.319 368.748 163.983 370.286 163.983 372.018C163.983 373.717 164.319 375.256 164.992 376.634C165.665 377.981 166.586 379.055 167.757 379.856C168.956 380.625 170.287 381.01 171.75 381.01Z" fill="#235952"/>
<path d="M188.7 396.514C188.407 396.514 188.057 396.418 187.647 396.226C186.36 395.584 186.008 394.574 186.593 393.196L190.982 382.376L181.108 361.842C180.816 361.233 180.772 360.656 180.977 360.111C181.21 359.534 181.605 359.117 182.161 358.861C182.717 358.604 183.244 358.588 183.741 358.812C184.238 359.005 184.619 359.406 184.882 360.015L192.913 377.519L199.978 360.063C200.563 358.716 201.484 358.332 202.743 358.909C204.059 359.518 204.425 360.528 203.84 361.938L190.412 395.023C190.06 396.017 189.49 396.514 188.7 396.514Z" fill="#235952"/>
<defs>
<filter id="filter0_d" x="1.76465" y="2.23047" width="251.821" height="505.77" filterUnits="userSpaceOnUse" color-interpolation-filters="sRGB">
<feFlood flood-opacity="0" result="BackgroundImageFix"/>
<feColorMatrix in="SourceAlpha" type="matrix" values="0 0 0 0 0 0 0 0 0 0 0 0 0 0 0 0 0 0 127 0"/>
<feOffset dy="4"/>
<feGaussianBlur stdDeviation="2"/>
<feColorMatrix type="matrix" values="0 0 0 0 0 0 0 0 0 0 0 0 0 0 0 0 0 0 0.25 0"/>
<feBlend mode="normal" in2="BackgroundImageFix" result="effect1_dropShadow"/>
<feBlend mode="normal" in="SourceGraphic" in2="effect1_dropShadow" result="shape"/>
</filter>
<linearGradient id="paint0_linear" x1="238.864" y1="-0.0611931" x2="-59.9116" y2="306.746" gradientUnits="userSpaceOnUse">
<stop stop-color="#FCD9D9"/>
<stop offset="0.83538" stop-color="#FFE3E3"/>
</linearGradient>
<linearGradient id="paint1_linear" x1="187.804" y1="231.999" x2="161.357" y2="272.392" gradientUnits="userSpaceOnUse">
<stop stop-color="#FCD9D9"/>
<stop offset="0.83538" stop-color="#FFE3E3"/>
</linearGradient>
<linearGradient id="paint2_linear" x1="172.339" y1="225.614" x2="168.488" y2="238.901" gradientUnits="userSpaceOnUse">
<stop stop-color="#FCD9D9"/>
<stop offset="0.83538" stop-color="#FFE3E3"/>
</linearGradient>
<linearGradient id="paint3_linear" x1="170.71" y1="227.64" x2="140.855" y2="249.054" gradientUnits="userSpaceOnUse">
<stop stop-color="#D86A6A"/>
<stop offset="0.83538" stop-color="#FFE3E3"/>
</linearGradient>
<linearGradient id="paint4_linear" x1="166.183" y1="194.453" x2="145.516" y2="220.089" gradientUnits="userSpaceOnUse">
<stop stop-color="#F4D5D5"/>
<stop offset="0.83538" stop-color="#FFE3E3"/>
</linearGradient>
<linearGradient id="paint5_linear" x1="159.852" y1="196.018" x2="139.86" y2="213.383" gradientUnits="userSpaceOnUse">
<stop stop-color="#D78C8C"/>
<stop offset="0.83538" stop-color="#FFE3E3"/>
</linearGradient>
<linearGradient id="paint6_linear" x1="165.824" y1="274.097" x2="164.069" y2="275.254" gradientUnits="userSpaceOnUse">
<stop stop-color="#FCD9D9"/>
<stop offset="0.83538" stop-color="#FFE3E3"/>
</linearGradient>
<linearGradient id="paint7_linear" x1="168.981" y1="274.506" x2="167.348" y2="275.862" gradientUnits="userSpaceOnUse">
<stop stop-color="#FCD9D9"/>
<stop offset="0.83538" stop-color="#FFE3E3"/>
</linearGradient>
<linearGradient id="paint8_linear" x1="171.496" y1="274.506" x2="169.836" y2="276.11" gradientUnits="userSpaceOnUse">
<stop stop-color="#FCD9D9"/>
<stop offset="0.83538" stop-color="#FFE3E3"/>
</linearGradient>
<linearGradient id="paint9_linear" x1="174.454" y1="274.106" x2="172.867" y2="275.671" gradientUnits="userSpaceOnUse">
<stop stop-color="#FCD9D9"/>
<stop offset="0.83538" stop-color="#FFE3E3"/>
</linearGradient>
<linearGradient id="paint10_linear" x1="187.84" y1="265.821" x2="184.016" y2="281.709" gradientUnits="userSpaceOnUse">
<stop stop-color="#FCD9D9"/>
<stop offset="0.83538" stop-color="#FFE3E3"/>
</linearGradient>
<linearGradient id="paint11_linear" x1="187.804" y1="231.999" x2="161.357" y2="272.392" gradientUnits="userSpaceOnUse">
<stop stop-color="#FCD9D9"/>
<stop offset="0.83538" stop-color="#FFE3E3"/>
</linearGradient>
<linearGradient id="paint12_linear" x1="172.339" y1="225.614" x2="168.488" y2="238.901" gradientUnits="userSpaceOnUse">
<stop stop-color="#FCD9D9"/>
<stop offset="0.83538" stop-color="#FFE3E3"/>
</linearGradient>
<linearGradient id="paint13_linear" x1="170.71" y1="227.64" x2="140.855" y2="249.054" gradientUnits="userSpaceOnUse">
<stop stop-color="#D86A6A"/>
<stop offset="0.83538" stop-color="#FFE3E3"/>
</linearGradient>
<linearGradient id="paint14_linear" x1="166.183" y1="194.453" x2="145.516" y2="220.089" gradientUnits="userSpaceOnUse">
<stop stop-color="#F4D5D5"/>
<stop offset="0.83538" stop-color="#FFE3E3"/>
</linearGradient>
<linearGradient id="paint15_linear" x1="159.852" y1="196.018" x2="139.86" y2="213.383" gradientUnits="userSpaceOnUse">
<stop stop-color="#D78C8C"/>
<stop offset="0.83538" stop-color="#FFE3E3"/>
</linearGradient>
<linearGradient id="paint16_linear" x1="165.824" y1="274.097" x2="164.069" y2="275.254" gradientUnits="userSpaceOnUse">
<stop stop-color="#FCD9D9"/>
<stop offset="0.83538" stop-color="#FFE3E3"/>
</linearGradient>
<linearGradient id="paint17_linear" x1="168.981" y1="274.506" x2="167.348" y2="275.862" gradientUnits="userSpaceOnUse">
<stop stop-color="#FCD9D9"/>
<stop offset="0.83538" stop-color="#FFE3E3"/>
</linearGradient>
<linearGradient id="paint18_linear" x1="171.496" y1="274.506" x2="169.836" y2="276.11" gradientUnits="userSpaceOnUse">
<stop stop-color="#FCD9D9"/>
<stop offset="0.83538" stop-color="#FFE3E3"/>
</linearGradient>
<linearGradient id="paint19_linear" x1="174.454" y1="274.106" x2="172.867" y2="275.671" gradientUnits="userSpaceOnUse">
<stop stop-color="#FCD9D9"/>
<stop offset="0.83538" stop-color="#FFE3E3"/>
</linearGradient>
<linearGradient id="paint20_linear" x1="187.84" y1="265.821" x2="184.016" y2="281.709" gradientUnits="userSpaceOnUse">
<stop stop-color="#FCD9D9"/>
<stop offset="0.83538" stop-color="#FFE3E3"/>
</linearGradient>
</defs>
</svg>
