<svg width="50" height="70" viewBox="0 0 50 70" fill="none" xmlns="http://www.w3.org/2000/svg">
<ellipse cx="25.125" cy="61" rx="10.125" ry="6" fill="#FFB9B9"/>
<path d="M7.38281 0.5H41.8359C45.6927 0.5 48.7188 3.26933 48.7188 6.5625V63.4375C48.7188 66.7307 45.6927 69.5 41.8359 69.5H7.38281C3.52604 69.5 0.5 66.7307 0.5 63.4375V6.5625C0.5 3.26933 3.52604 0.5 7.38281 0.5ZM19.1875 61.25C19.1875 63.9998 21.6678 66.125 24.6094 66.125C27.5509 66.125 30.0313 63.9998 30.0313 61.25C30.0313 58.5002 27.5509 56.375 24.6094 56.375C21.6678 56.375 19.1875 58.5002 19.1875 61.25ZM39.9902 53C41.2245 53 42.3359 52.0916 42.3359 50.8594V8.20312C42.3359 6.9709 41.2245 6.0625 39.9902 6.0625H9.22852C7.99423 6.0625 6.88281 6.9709 6.88281 8.20312V50.8594C6.88281 52.0916 7.99423 53 9.22852 53H39.9902Z" fill="#FCD9D9" stroke="black" stroke-linecap="round"/>
</svg>
