<svg width="34" height="26" viewBox="0 0 34 26" fill="none" xmlns="http://www.w3.org/2000/svg">
<path d="M7.83358 10.6668C7.46191 10.6668 7.10524 10.7235 6.75024 10.7751C6.86524 10.3885 6.98358 9.99513 7.17358 9.6418C7.36358 9.12846 7.66024 8.68346 7.95524 8.23513C8.20191 7.75013 8.63691 7.4218 8.95691 7.0068C9.29191 6.60346 9.74858 6.33513 10.1102 6.00013C10.4652 5.65013 10.9302 5.47513 11.3002 5.22846C11.6869 5.0068 12.0236 4.7618 12.3836 4.64513L13.2819 4.27513L14.0719 3.9468L13.2636 0.716797L12.2686 0.956796C11.9502 1.0368 11.5619 1.13013 11.1202 1.2418C10.6686 1.32513 10.1869 1.55346 9.65024 1.7618C9.12024 1.99846 8.50691 2.15846 7.93691 2.53846C7.36358 2.9018 6.70191 3.20513 6.11858 3.6918C5.55358 4.19346 4.87191 4.62846 4.36858 5.2668C3.81858 5.86346 3.27524 6.49013 2.85358 7.20346C2.36524 7.88346 2.03358 8.63013 1.68358 9.36846C1.36691 10.1068 1.11191 10.8618 0.903575 11.5951C0.508575 13.0651 0.331909 14.4618 0.263575 15.6568C0.206909 16.8535 0.240242 17.8485 0.310242 18.5685C0.335242 18.9085 0.381909 19.2385 0.415242 19.4668L0.456909 19.7468L0.500242 19.7368C0.796677 21.1215 1.47908 22.394 2.46851 23.4071C3.45795 24.4202 4.71398 25.1325 6.09131 25.4615C7.46864 25.7906 8.91098 25.723 10.2515 25.2665C11.592 24.8101 12.7759 23.9835 13.6663 22.8823C14.5566 21.7811 15.117 20.4503 15.2826 19.044C15.4482 17.6376 15.2123 16.2131 14.6021 14.9352C13.992 13.6573 13.0325 12.5782 11.8347 11.8229C10.6369 11.0675 9.24967 10.6667 7.83358 10.6668V10.6668ZM26.1669 10.6668C25.7952 10.6668 25.4386 10.7235 25.0836 10.7751C25.1986 10.3885 25.3169 9.99513 25.5069 9.6418C25.6969 9.12846 25.9936 8.68346 26.2886 8.23513C26.5352 7.75013 26.9702 7.4218 27.2902 7.0068C27.6252 6.60346 28.0819 6.33513 28.4436 6.00013C28.7986 5.65013 29.2636 5.47513 29.6336 5.22846C30.0202 5.0068 30.3569 4.7618 30.7169 4.64513L31.6152 4.27513L32.4052 3.9468L31.5969 0.716797L30.6019 0.956796C30.2836 1.0368 29.8952 1.13013 29.4536 1.2418C29.0019 1.32513 28.5202 1.55346 27.9836 1.7618C27.4552 2.00013 26.8402 2.15846 26.2702 2.54013C25.6969 2.90346 25.0352 3.2068 24.4519 3.69346C23.8869 4.19513 23.2052 4.63013 22.7019 5.2668C22.1519 5.86346 21.6086 6.49013 21.1869 7.20346C20.6986 7.88346 20.3669 8.63013 20.0169 9.36846C19.7002 10.1068 19.4452 10.8618 19.2369 11.5951C18.8419 13.0651 18.6652 14.4618 18.5969 15.6568C18.5402 16.8535 18.5736 17.8485 18.6436 18.5685C18.6686 18.9085 18.7152 19.2385 18.7486 19.4668L18.7902 19.7468L18.8336 19.7368C19.13 21.1215 19.8124 22.394 20.8018 23.4071C21.7913 24.4202 23.0473 25.1325 24.4246 25.4615C25.802 25.7906 27.2443 25.723 28.5848 25.2665C29.9253 24.8101 31.1092 23.9835 31.9996 22.8823C32.8899 21.7811 33.4503 20.4503 33.6159 19.044C33.7816 17.6376 33.5456 16.2131 32.9355 14.9352C32.3253 13.6573 31.3658 12.5782 30.168 11.8229C28.9702 11.0675 27.583 10.6667 26.1669 10.6668V10.6668Z" fill="#235952"/>
</svg>
