<svg width="534" height="300" viewBox="0 0 534 300" fill="none" xmlns="http://www.w3.org/2000/svg">
<path opacity="0.1" d="M520.778 278.684C520.299 279.033 519.859 279.373 519.391 279.703C517.662 280.926 515.851 282.03 513.973 283.007C504.131 288.196 491.998 290.73 480.182 292.452C453.679 296.316 426.621 297.067 399.678 297.803C326.879 299.802 253.903 301.796 181.28 297.191C152.587 295.374 123.263 292.332 97.2619 283.007C93.535 281.674 89.8814 280.205 86.3011 278.598C79.0561 275.341 72.098 271.377 66.3116 266.642C60.8742 262.205 56.465 257.107 53.83 251.311C48.3353 239.24 51.2429 225.683 57.5171 213.852C60.1229 209.065 63.0616 204.468 66.3116 200.093C71.1559 193.432 76.4976 186.962 81.3707 180.305C98.7109 156.642 110.026 126.706 94.0196 102.436C89.4191 95.4639 82.7719 89.3427 79.0226 82.0642C74.2404 72.7533 74.6087 62.4142 76.1294 52.3716C76.3271 51.0963 76.5359 49.8338 76.7559 48.5841C79.3526 33.6923 84.24 17.6481 99.3087 8.35147C114.961 -1.30855 137.188 -0.82077 156.614 2.61284C186.823 8.00716 214.689 19.2357 242.851 29.374C271.013 39.5122 300.476 48.7753 331.427 49.77C358.757 50.65 390.635 44.0649 408.774 26.9494C426.391 10.3265 459.508 9.05924 483.376 19.1018C499.76 25.993 511.983 38.4076 517.138 52.3716C518.182 55.175 518.934 58.0789 519.381 61.0369C519.794 63.7402 519.929 66.4788 519.783 69.2096C519.711 70.5582 519.572 71.8925 519.381 73.2123C515.393 100.767 486.685 122.502 469.235 147.116C460.708 159.139 454.688 173.581 460.551 186.546C469.493 206.301 500.592 213.326 519.372 228.026C522.906 230.702 526.017 233.894 528.601 237.495C537.711 250.579 534.349 268.249 520.778 278.684Z" fill="#235952"/>
<path d="M123.296 155.361C123.296 155.361 101.298 116.376 68.1478 105.148C54.2364 100.432 42.0944 91.5663 33.7925 79.4482C29.8623 73.6948 26.4686 67.5926 23.6543 61.2185" stroke="#535461" stroke-width="2" stroke-miterlimit="10"/>
<path d="M2.80882 54.0023C6.58675 57.6511 24.1757 61.4768 24.1757 61.4768C24.1757 61.4768 19.8717 44.0123 16.0842 40.3443C14.2636 38.6203 11.8369 37.6832 9.33007 37.736C6.82325 37.7888 4.43822 38.8274 2.69185 40.6266C0.945487 42.4258 -0.0215307 44.8407 0.000363843 47.348C0.0222584 49.8553 1.0313 52.253 2.80882 54.0214V54.0023Z" fill="#235952"/>
<path d="M12.7605 85.6078C17.9205 86.6312 34.7586 80.2565 34.7586 80.2565C34.7586 80.2565 21.6315 67.9376 16.4667 66.9142C14.0121 66.482 11.4858 67.0285 9.4293 68.4366C7.37278 69.8447 5.94967 72.0024 5.46496 74.4472C4.98025 76.892 5.47252 79.4294 6.83625 81.5156C8.19999 83.6018 10.3267 85.0709 12.7605 85.6078V85.6078Z" fill="#235952"/>
<path d="M48.9856 119.82C53.9591 118.098 65.2451 104.101 65.2451 104.101C65.2451 104.101 47.704 100.088 42.7353 101.81C41.5162 102.189 40.3855 102.808 39.4105 103.633C38.4355 104.457 37.636 105.468 37.0594 106.607C36.4828 107.746 36.141 108.989 36.0541 110.263C35.9672 111.537 36.1371 112.815 36.5536 114.022C36.9702 115.228 37.625 116.339 38.479 117.288C39.3331 118.237 40.3691 119.004 41.5255 119.545C42.682 120.086 43.9353 120.389 45.211 120.436C46.4868 120.483 47.759 120.274 48.9522 119.82H48.9856Z" fill="#235952"/>
<path d="M82.2219 139.517C87.4154 138.657 100.92 126.773 100.92 126.773C100.92 126.773 84.3117 119.853 79.1182 120.709C76.6241 121.121 74.3956 122.506 72.923 124.561C71.4504 126.615 70.8543 129.171 71.2659 131.665C71.6775 134.159 73.063 136.388 75.1176 137.86C77.1723 139.333 79.7277 139.929 82.2219 139.517V139.517Z" fill="#235952"/>
<path d="M49.4112 66.6081C49.4112 71.8685 39.8947 87.1381 39.8947 87.1381C39.8947 87.1381 30.359 71.8781 30.3542 66.6177C30.3258 65.3484 30.5512 64.0863 31.0173 62.9053C31.4833 61.7244 32.1807 60.6485 33.0683 59.7407C33.9559 58.833 35.0159 58.1118 36.1861 57.6194C37.3563 57.1269 38.6131 56.8733 39.8827 56.8733C41.1523 56.8733 42.4091 57.1269 43.5793 57.6194C44.7495 58.1118 45.8095 58.833 46.6971 59.7407C47.5848 60.6485 48.2821 61.7244 48.7482 62.9053C49.2142 64.0863 49.4397 65.3484 49.4112 66.6177V66.6081Z" fill="#235952"/>
<path d="M87.9939 90.17C86.4206 95.1913 72.7674 106.908 72.7674 106.908C72.7674 106.908 68.2339 89.4766 69.7881 84.4314C70.6235 82.1214 72.3184 80.2231 74.5194 79.1325C76.7204 78.0419 79.2575 77.8432 81.6015 78.5778C83.9454 79.3125 85.9153 80.9238 87.1 83.0755C88.2848 85.2273 88.593 87.7535 87.9605 90.127L87.9939 90.17Z" fill="#235952"/>
<path d="M122.349 118.17C121.651 123.387 110.174 137.241 110.174 137.241C110.174 137.241 102.762 120.848 103.479 115.63C103.85 113.156 105.18 110.926 107.181 109.424C109.182 107.921 111.694 107.266 114.174 107.599C116.654 107.932 118.904 109.228 120.437 111.206C121.97 113.183 122.664 115.685 122.368 118.17H122.349Z" fill="#235952"/>
<path opacity="0.25" d="M2.80882 54.0023C6.58675 57.6511 24.1757 61.4768 24.1757 61.4768C24.1757 61.4768 19.8717 44.0123 16.0842 40.3443C14.2636 38.6203 11.8369 37.6832 9.33007 37.736C6.82325 37.7888 4.43822 38.8274 2.69185 40.6266C0.945487 42.4258 -0.0215307 44.8407 0.000363843 47.348C0.0222584 49.8553 1.0313 52.253 2.80882 54.0214V54.0023Z" fill="black"/>
<path opacity="0.25" d="M12.7605 85.6078C17.9205 86.6312 34.7586 80.2565 34.7586 80.2565C34.7586 80.2565 21.6315 67.9376 16.4667 66.9142C14.0121 66.482 11.4858 67.0285 9.4293 68.4366C7.37278 69.8447 5.94967 72.0024 5.46496 74.4472C4.98025 76.892 5.47252 79.4294 6.83625 81.5156C8.19999 83.6018 10.3267 85.0709 12.7605 85.6078V85.6078Z" fill="black"/>
<path opacity="0.25" d="M48.9856 119.82C53.9591 118.098 65.2451 104.101 65.2451 104.101C65.2451 104.101 47.704 100.088 42.7353 101.81C41.5162 102.189 40.3855 102.808 39.4105 103.633C38.4355 104.457 37.636 105.468 37.0594 106.607C36.4828 107.746 36.141 108.989 36.0541 110.263C35.9672 111.537 36.1371 112.815 36.5536 114.022C36.9702 115.228 37.625 116.339 38.479 117.288C39.3331 118.237 40.3691 119.004 41.5255 119.545C42.682 120.086 43.9353 120.389 45.211 120.436C46.4868 120.483 47.759 120.274 48.9522 119.82H48.9856Z" fill="black"/>
<path opacity="0.25" d="M82.2219 139.517C87.4154 138.657 100.92 126.773 100.92 126.773C100.92 126.773 84.3117 119.853 79.1182 120.709C76.6241 121.121 74.3956 122.506 72.923 124.561C71.4504 126.615 70.8543 129.171 71.2659 131.665C71.6775 134.159 73.063 136.388 75.1176 137.86C77.1723 139.333 79.7277 139.929 82.2219 139.517V139.517Z" fill="black"/>
<path opacity="0.25" d="M49.4112 66.6081C49.4112 71.8685 39.8947 87.1381 39.8947 87.1381C39.8947 87.1381 30.359 71.8781 30.3542 66.6177C30.3258 65.3484 30.5512 64.0863 31.0173 62.9053C31.4833 61.7244 32.1807 60.6485 33.0683 59.7407C33.9559 58.833 35.0159 58.1118 36.1861 57.6194C37.3563 57.1269 38.6131 56.8733 39.8827 56.8733C41.1523 56.8733 42.4091 57.1269 43.5793 57.6194C44.7495 58.1118 45.8095 58.833 46.6971 59.7407C47.5848 60.6485 48.2821 61.7244 48.7482 62.9053C49.2142 64.0863 49.4397 65.3484 49.4112 66.6177V66.6081Z" fill="black"/>
<path opacity="0.25" d="M87.9939 90.17C86.4206 95.1913 72.7674 106.908 72.7674 106.908C72.7674 106.908 68.2339 89.4766 69.7881 84.4314C70.6235 82.1214 72.3184 80.2231 74.5194 79.1325C76.7204 78.0419 79.2575 77.8432 81.6015 78.5778C83.9454 79.3125 85.9153 80.9238 87.1 83.0755C88.2848 85.2273 88.593 87.7535 87.9605 90.127L87.9939 90.17Z" fill="black"/>
<path opacity="0.25" d="M122.349 118.17C121.651 123.387 110.174 137.241 110.174 137.241C110.174 137.241 102.762 120.848 103.479 115.63C103.85 113.156 105.18 110.926 107.181 109.424C109.182 107.921 111.694 107.266 114.174 107.599C116.654 107.932 118.904 109.228 120.437 111.206C121.97 113.183 122.664 115.685 122.368 118.17H122.349Z" fill="black"/>
<path d="M122.029 154.586C122.029 154.586 117.725 110.026 91.9585 86.3251C81.1555 76.3782 73.6475 63.3706 70.9646 48.9092C69.7053 42.055 69.0778 35.0996 69.09 28.1306" stroke="#535461" stroke-width="2" stroke-miterlimit="10"/>
<path d="M52.9501 13.1002C54.9204 17.9828 69.463 28.5754 69.463 28.5754C69.463 28.5754 72.5954 10.8574 70.6299 5.97474C69.685 3.62836 67.8467 1.75343 65.5194 0.762431C63.1921 -0.228572 60.5665 -0.254474 58.2201 0.690421C55.8737 1.63532 53.9988 3.47361 53.0078 5.8009C52.0168 8.12818 51.9909 10.7538 52.9358 13.1002H52.9501Z" fill="#235952"/>
<path d="M49.2248 46.0257C53.5288 49.0528 71.4955 50.0427 71.4955 50.0427C71.4955 50.0427 64.5278 33.4677 60.2239 30.4405C58.1571 28.982 55.5956 28.4042 53.1029 28.8342C50.6101 29.2642 48.3903 30.6669 46.9318 32.7336C45.4732 34.8003 44.8954 37.3618 45.3254 39.8546C45.7554 42.3473 47.1581 44.5671 49.2248 46.0257V46.0257Z" fill="#235952"/>
<path d="M68.5018 91.9729C73.7622 92.4176 89.7538 84.197 89.7538 84.197C89.7538 84.197 75.3451 73.4227 70.099 72.9828C68.8368 72.8484 67.5604 72.9675 66.3448 73.3331C65.1292 73.6987 63.9989 74.3035 63.0202 75.1119C62.0415 75.9203 61.2342 76.9161 60.6456 78.0408C60.057 79.1654 59.699 80.3964 59.5926 81.6613C59.4862 82.9262 59.6336 84.1996 60.0261 85.4068C60.4185 86.614 61.0482 87.7307 61.8781 88.6912C62.708 89.6517 63.7214 90.4368 64.8588 91.0003C65.9963 91.5639 67.2348 91.8945 68.5018 91.9729Z" fill="#235952"/>
<path d="M90.9017 123.459C95.9995 124.779 113.163 119.384 113.163 119.384C113.163 119.384 100.782 106.329 95.6886 105.009C93.2575 104.42 90.6923 104.811 88.5464 106.096C86.4006 107.382 84.8461 109.459 84.2185 111.881C83.5908 114.302 83.9403 116.873 85.1915 119.039C86.4427 121.205 88.4953 122.793 90.9064 123.459H90.9017Z" fill="#235952"/>
<path d="M90.4473 43.5101C88.3192 48.321 73.4275 58.4162 73.4275 58.4162C73.4275 58.4162 70.8929 40.6073 73.021 35.7916C73.5138 34.6265 74.2337 33.5712 75.1386 32.6872C76.0436 31.8031 77.1154 31.1081 78.2917 30.6426C79.468 30.1771 80.7252 29.9504 81.99 29.9758C83.2548 30.0012 84.5019 30.2781 85.6586 30.7904C86.8153 31.3027 87.8584 32.0402 88.7271 32.9598C89.5959 33.8794 90.2728 34.9628 90.7186 36.1467C91.1643 37.3306 91.3699 38.5915 91.3233 39.8557C91.2767 41.1199 90.9789 42.3622 90.4473 43.5101V43.5101Z" fill="#235952"/>
<path d="M116.175 80.6583C112.704 84.6132 95.4734 89.7923 95.4734 89.7923C95.4734 89.7923 98.381 72.0408 101.858 68.0859C102.683 67.1458 103.686 66.3775 104.808 65.8248C105.931 65.2722 107.151 64.946 108.399 64.865C109.648 64.7839 110.9 64.9496 112.085 65.3525C113.269 65.7554 114.363 66.3877 115.303 67.2132C116.243 68.0387 117.011 69.0413 117.564 70.1638C118.116 71.2862 118.443 72.5065 118.524 73.755C118.605 75.0035 118.439 76.2557 118.036 77.4402C117.633 78.6247 117.001 79.7182 116.175 80.6583V80.6583Z" fill="#235952"/>
<path d="M136.261 120.202C133.506 124.688 117.4 132.703 117.4 132.703C117.4 132.703 117.266 114.712 120.02 110.227C121.343 108.07 123.468 106.528 125.928 105.939C128.388 105.35 130.982 105.762 133.138 107.085C135.294 108.408 136.836 110.533 137.426 112.993C138.015 115.453 137.603 118.046 136.28 120.202H136.261Z" fill="#235952"/>
<path d="M520.271 279.607V45.6956H65.3169V266.188C71.1273 271.037 78.114 275.116 85.4021 278.469C88.9919 280.123 92.6583 281.636 96.4011 283.007H514.843L520.271 279.607Z" fill="url(#paint0_linear)"/>
<path d="M519.391 279.703V52.3906H66.3115V266.681C72.098 271.396 79.0561 275.36 86.3011 278.636C89.8782 280.23 93.5318 281.7 97.2619 283.045H513.972L519.391 279.703Z" fill="white"/>
<path d="M519.391 46.3604H66.3164V58.3828H519.391V46.3604Z" fill="#5A5773"/>
<path d="M75.3643 55.48C77.081 55.48 78.4727 54.0883 78.4727 52.3716C78.4727 50.6549 77.081 49.2632 75.3643 49.2632C73.6475 49.2632 72.2559 50.6549 72.2559 52.3716C72.2559 54.0883 73.6475 55.48 75.3643 55.48Z" fill="white"/>
<path d="M83.7332 55.48C85.4499 55.48 86.8416 54.0883 86.8416 52.3716C86.8416 50.6549 85.4499 49.2632 83.7332 49.2632C82.0164 49.2632 80.6248 50.6549 80.6248 52.3716C80.6248 54.0883 82.0164 55.48 83.7332 55.48Z" fill="white"/>
<path d="M92.1018 55.48C93.8186 55.48 95.2103 54.0883 95.2103 52.3716C95.2103 50.6549 93.8186 49.2632 92.1018 49.2632C90.3851 49.2632 88.9934 50.6549 88.9934 52.3716C88.9934 54.0883 90.3851 55.48 92.1018 55.48Z" fill="white"/>
<path d="M256.939 84.8044H182.098V131.833H256.939V84.8044Z" fill="#235952"/>
<path opacity="0.2" d="M153.314 84.8044H78.4727V131.833H153.314V84.8044Z" fill="#5A5773"/>
<path opacity="0.2" d="M360.565 84.8044H285.723V131.833H360.565V84.8044Z" fill="#5A5773"/>
<path opacity="0.2" d="M153.314 152.037H78.4727V199.065H153.314V152.037Z" fill="#5A5773"/>
<path opacity="0.2" d="M256.939 152.037H182.098V199.065H256.939V152.037Z" fill="#5A5773"/>
<path opacity="0.2" d="M360.565 152.037H285.723V199.065H360.565V152.037Z" fill="#5A5773"/>
<path opacity="0.2" d="M153.314 219.265H78.4727V266.293H153.314V219.265Z" fill="#5A5773"/>
<path opacity="0.2" d="M256.939 219.265H182.098V266.293H256.939V219.265Z" fill="#5A5773"/>
<path opacity="0.2" d="M360.565 219.265H285.723V266.293H360.565V219.265Z" fill="#5A5773"/>
<path opacity="0.1" d="M395.508 14.4584C395.508 14.4584 377.312 13.3632 379.459 26.1126C379.459 26.1126 379.033 28.365 381.075 29.3884C381.075 29.3884 381.109 28.4319 382.941 28.7619C383.593 28.8717 384.256 28.9038 384.916 28.8575C385.806 28.7958 386.653 28.4449 387.326 27.8581V27.8581C387.326 27.8581 392.438 25.7491 394.427 17.3898C394.427 17.3898 395.9 15.563 395.862 15.0944L392.792 16.4095C392.792 16.4095 393.839 18.6236 393.012 20.4648C393.012 20.4648 392.916 16.486 392.323 16.5816C392.204 16.5816 390.731 17.3468 390.731 17.3468C390.731 17.3468 392.534 21.206 391.171 24.0132C391.171 24.0132 391.687 19.2597 390.166 17.6289L387.995 18.9154C387.995 18.9154 390.104 22.8989 388.674 26.1508C388.674 26.1508 389.043 21.163 387.541 19.2214L385.58 20.7469C385.58 20.7469 387.565 24.654 386.369 27.3511C386.369 27.3511 386.212 21.5408 385.169 21.1056C385.169 21.1056 383.457 22.6168 383.199 23.2385C383.199 23.2385 384.552 26.1078 383.71 27.5903C383.71 27.5903 383.194 23.7262 382.754 23.7071C382.754 23.7071 381.047 26.2704 380.87 28.0111C380.953 26.3868 381.459 24.8124 382.338 23.4441C381.353 23.6305 380.445 24.1029 379.727 24.8022C379.727 24.8022 379.99 22.9898 382.759 22.8272C382.759 22.8272 384.17 20.8856 384.547 20.7661C384.547 20.7661 381.793 20.5365 380.124 21.2778C380.124 21.2778 381.592 19.5657 385.054 20.3213L386.967 18.7432C386.967 18.7432 383.342 18.265 381.802 18.7958C381.802 18.7958 383.572 17.2846 387.488 18.3845L389.593 17.1268C389.593 17.1268 386.503 16.4573 384.662 16.7012C384.662 16.7012 386.604 15.6539 390.209 16.7873L391.716 16.113C391.716 16.113 389.449 15.6682 388.789 15.5965C388.129 15.5248 388.091 15.3431 388.091 15.3431C389.525 15.1044 390.997 15.27 392.342 15.8213C392.342 15.8213 395.561 14.6592 395.508 14.4584Z" fill="#235952"/>
<path opacity="0.1" d="M369.574 4.11914C369.574 4.11914 354.271 14.0231 363.553 23.0184C363.553 23.0184 364.543 25.0843 366.796 24.7017C366.796 24.7017 366.26 23.9174 367.929 23.0901C368.521 22.7922 369.075 22.4245 369.579 21.995C370.26 21.4171 370.735 20.6332 370.932 19.7617V19.7617C370.932 19.7617 373.802 15.0273 370.454 7.11758C370.454 7.11758 370.559 4.7743 370.234 4.42998L368.541 7.2993C368.541 7.2993 370.698 8.46137 371.124 10.4316C371.124 10.4316 368.689 7.28974 368.254 7.71535C368.168 7.80143 367.422 9.27913 367.422 9.27913C367.422 9.27913 371.167 11.3163 371.726 14.3817C371.726 14.3817 369.335 10.2451 367.131 9.83864L366.136 12.1341C366.136 12.1341 370.201 14.0948 370.975 17.5619C370.975 17.5619 368.312 13.3249 365.954 12.6506L365.285 15.0417C365.285 15.0417 369.206 17.0311 369.832 19.9195C369.832 19.9195 366.265 15.3382 365.165 15.6155C365.165 15.6155 364.687 17.844 364.84 18.4848C364.84 18.4848 367.623 19.9769 367.833 21.6889C367.833 21.6889 365.127 18.8818 364.778 19.1161C364.778 19.1161 364.921 22.191 365.815 23.7118C364.921 22.354 364.397 20.7864 364.295 19.1639C363.612 19.8975 363.16 20.8154 362.994 21.8037C362.994 21.8037 362.133 20.1873 364.271 18.4179C364.271 18.4179 364.271 16.0268 364.486 15.6968C364.486 15.6968 362.133 17.1315 361.224 18.7287C361.224 18.7287 361.397 16.4811 364.644 15.056L365.265 12.641C365.265 12.641 362.052 14.3913 361.138 15.7446C361.138 15.7446 361.669 13.4779 365.471 12.0432L366.428 9.78126C366.428 9.78126 363.558 11.0772 362.2 12.3636C362.2 12.3636 363.156 10.3647 366.724 9.14522L367.537 7.71057C367.537 7.71057 365.447 8.6957 364.873 9.03045C364.299 9.36521 364.161 9.24087 364.161 9.24087C365.174 8.19841 366.457 7.45828 367.867 7.10323C367.867 7.10323 369.737 4.25304 369.574 4.11914Z" fill="#235952"/>
<path opacity="0.1" d="M346.285 15.6585C346.285 15.6585 337.137 31.4398 349.489 35.232C349.489 35.232 351.311 36.6236 353.143 35.232C353.143 35.232 352.315 34.7825 353.425 33.2857C353.81 32.7514 354.131 32.1736 354.381 31.5641C354.727 30.7394 354.796 29.8249 354.577 28.9578V28.9578C354.577 28.9578 354.984 23.4391 348.408 17.9061C348.408 17.9061 347.452 15.7733 346.974 15.6155L346.768 18.963C346.768 18.963 349.216 19.0204 350.493 20.5842C350.493 20.5842 346.897 18.8865 346.715 19.4556C346.677 19.5704 346.682 21.225 346.682 21.225C346.682 21.225 350.981 21.3541 352.894 23.8313C352.894 23.8313 348.877 21.2346 346.739 21.8658L346.892 24.3621C346.892 24.3621 351.402 24.2665 353.664 27.0067C353.664 27.0067 349.36 24.4386 346.969 24.9073L347.447 27.3414C347.447 27.3414 351.847 27.3414 353.712 29.6273C353.712 29.6273 348.451 27.1597 347.595 27.8914C347.595 27.8914 348.174 30.1007 348.614 30.6124C348.614 30.6124 351.77 30.6794 352.736 32.1093C352.736 32.1093 349.049 30.8324 348.843 31.2054C348.843 31.2054 350.369 33.8787 351.856 34.8255C350.445 34.0256 349.267 32.8718 348.437 31.478C348.162 32.441 348.175 33.4635 348.475 34.4191C348.475 34.4191 346.974 33.3718 348.073 30.8228C348.073 30.8228 346.974 28.69 347.036 28.3026C347.036 28.3026 345.601 30.6603 345.505 32.4823C345.505 32.4823 344.635 30.402 346.883 27.6618L346.342 25.2229C346.342 25.2229 344.272 28.2405 344.071 29.8616C344.071 29.8616 343.516 27.5997 346.256 24.6012L346.074 22.1575C346.074 22.1575 344.095 24.6203 343.483 26.3754C343.483 26.3754 343.416 24.166 346.051 21.4545L346.122 19.8047C346.122 19.8047 344.688 21.6267 344.348 22.1958C344.009 22.7649 343.808 22.6836 343.808 22.6836C344.239 21.2937 345.047 20.0506 346.141 19.0921C346.141 19.0921 346.486 15.7016 346.285 15.6585Z" fill="#235952"/>
<path d="M424.832 195.555C423.479 195.555 422.156 195.957 421.03 196.709C419.905 197.46 419.028 198.529 418.51 199.78C417.992 201.03 417.857 202.406 418.121 203.734C418.385 205.061 419.036 206.28 419.993 207.237C420.95 208.195 422.17 208.846 423.497 209.11C424.825 209.374 426.201 209.239 427.451 208.721C428.702 208.203 429.77 207.326 430.522 206.2C431.274 205.075 431.676 203.752 431.676 202.399C431.671 200.585 430.948 198.847 429.666 197.565C428.384 196.283 426.646 195.56 424.832 195.555V195.555ZM404.824 141.856V148.699H411.667L423.986 173.653L418.836 182.036C418.273 183.027 417.978 184.148 417.98 185.288C417.98 189.869 421.112 192.131 425.358 192.131H465.371V185.551H426.195C426.081 185.558 425.967 185.54 425.86 185.5C425.753 185.459 425.655 185.397 425.575 185.316C425.494 185.235 425.431 185.138 425.39 185.031C425.35 184.923 425.332 184.809 425.339 184.695C425.43 184.399 425.551 184.113 425.703 183.844L429.122 178.445H454.616C455.848 178.455 457.058 178.125 458.115 177.491C459.171 176.857 460.032 175.945 460.603 174.853L472.927 153.663C473.167 153.125 473.285 152.54 473.271 151.951C473.266 151.511 473.173 151.076 472.997 150.672C472.822 150.269 472.566 149.904 472.247 149.601C471.928 149.298 471.551 149.062 471.139 148.907C470.726 148.752 470.287 148.681 469.847 148.699H419.199L415.947 141.856H404.824ZM458.523 195.555C457.17 195.556 455.847 195.958 454.722 196.711C453.598 197.463 452.721 198.532 452.204 199.783C451.687 201.034 451.552 202.409 451.817 203.737C452.081 205.064 452.733 206.283 453.69 207.239C454.648 208.196 455.867 208.847 457.194 209.111C458.522 209.374 459.897 209.239 461.148 208.72C462.398 208.202 463.466 207.325 464.218 206.2C464.97 205.075 465.371 203.752 465.371 202.399C465.366 200.584 464.643 198.846 463.359 197.563C462.076 196.281 460.337 195.559 458.523 195.555V195.555Z" fill="#235952"/>
<path d="M449.767 160.789H444.028V155.05H439.724V160.789H433.986V165.093H439.724V170.831H444.028V165.093H449.767V160.789Z" fill="white"/>
<defs>
<linearGradient id="paint0_linear" x1="292.791" y1="283.007" x2="292.791" y2="45.6956" gradientUnits="userSpaceOnUse">
<stop stop-color="#808080" stop-opacity="0.25"/>
<stop offset="0.54" stop-color="#808080" stop-opacity="0.12"/>
<stop offset="1" stop-color="#808080" stop-opacity="0.1"/>
</linearGradient>
</defs>
</svg>
