<svg width="278" height="450" viewBox="0 0 278 450" fill="none" xmlns="http://www.w3.org/2000/svg">
<path d="M265.429 413.256C265.429 413.256 260.008 422.791 237.849 425.482C231.507 426.02 226.375 426.383 221.831 426.356C210.294 425.997 204.71 423.794 204.71 423.794L201.075 407.12L183.566 324.577V324.573C183.571 324.537 183.648 323.237 190.504 321.029C196.416 319.223 206.982 316.592 225.991 313.481L259.026 397.04L265.429 413.256Z" fill="url(#paint0_linear)"/>
<path d="M225.975 313.485C206.966 316.596 196.4 319.227 190.488 321.034C183.633 323.242 183.555 324.541 183.551 324.577L179.823 306.499C180.773 305.585 181.733 304.704 182.701 303.85L183.042 304.266C183.042 304.266 183.599 303.85 184.944 303.066C189.934 300.853 202.371 295.583 210.272 296.862L210.208 296.404C216.163 296.825 219.975 298.125 219.975 298.125L225.975 313.485Z" fill="url(#paint1_linear)"/>
<path d="M221.816 426.353C210.279 425.993 204.694 423.791 204.694 423.791L201.059 407.117L183.551 324.574V324.57L179.823 306.492C180.774 305.578 181.734 304.696 182.702 303.843L183.042 304.259C183.042 304.259 183.599 303.843 184.945 303.058C186.283 306.97 188.161 313.449 190.488 321.026C200.985 354.839 219.042 416.751 221.816 426.353Z" fill="url(#paint2_linear)"/>
<path d="M210.272 296.862C205.637 296.042 199.269 297.713 194.12 299.495C187.764 301.664 183.041 304.266 183.041 304.266L182.7 303.85L161.544 226.367L166.002 225.281L180.399 221.536L210.208 296.404L210.272 296.862Z" fill="url(#paint3_linear)"/>
<path d="M194.12 299.492C187.764 301.662 183.041 304.263 183.041 304.263L182.7 303.848L161.544 226.364L166.002 225.278L194.12 299.492Z" fill="url(#paint4_linear)"/>
<path d="M277.854 427.355C277.041 427.712 268.705 437.413 236.073 439.581C235.578 439.592 235.086 439.603 234.598 439.615C203.354 441.382 195.989 435.261 195.989 435.261C195.989 435.261 193.722 425.058 192.839 418.009C192.277 411.098 196.026 408.417 201.064 407.12L204.699 423.794C204.699 423.794 209.806 425.929 220.386 426.339C225.029 426.399 230.945 426.339 237.837 425.481C259.997 422.791 265.417 413.255 265.417 413.255L259.013 397.04C271.486 393.403 278.362 427.289 277.854 427.355Z" fill="#F78A7B"/>
<path d="M234.597 439.616C203.354 441.382 195.989 435.262 195.989 435.262C195.989 435.262 193.722 425.058 192.839 418.009C192.277 411.098 196.026 408.417 201.064 407.121L204.699 423.795C204.699 423.795 209.806 425.93 220.386 426.34C224.502 431.609 229.15 436.454 234.597 439.616Z" fill="#C64228"/>
<path d="M147.695 436.963L145.398 439.158L143.538 440.94C143.538 440.94 125.386 420.663 113.643 403.585C101.903 386.511 98.6484 364.873 105.308 350.904C105.308 350.904 84.1648 283.28 80.9091 273.089C77.505 262.612 77.505 265.232 77.505 265.232L71.7615 265.62C71.7615 265.62 59.1061 289.391 50.1093 316.557C41.1136 343.434 11.481 436.477 11.481 436.477L9.87674 436.96L6.65399 438.223C6.65399 438.223 0 398.25 0 377.577C0 356.629 4.5691 348.188 19.0538 334.216C19.0538 334.216 20.8842 285.412 29.3711 257.277C33.5397 243.207 37.4538 232.73 40.2514 225.914C43.1973 219.101 45.0254 215.799 45.0254 215.799C45.0348 215.792 50.0845 211.641 54.921 204.361C54.9834 203.986 55.1872 203.756 55.3969 203.524C56.5453 201.756 57.6855 199.783 58.6455 197.605C58.8729 197.168 59.1014 196.716 59.3322 196.265C59.3535 196.074 59.529 196.023 59.549 195.832C59.7622 195.414 59.9754 195.14 60.0378 194.712C60.2098 194.519 60.2345 194.477 60.2557 194.286C60.489 193.67 60.7222 193.199 60.9613 192.727C61.1297 192.544 61.1462 192.504 61.1615 192.324C61.3865 191.874 61.6127 191.422 61.8388 190.969C61.8624 190.771 62.0367 190.568 62.065 190.371C62.0968 190.147 62.2864 189.92 62.3218 189.693C62.5149 189.453 62.5562 189.215 62.7494 188.83C62.7658 188.795 62.7812 188.616 62.7976 188.58C63.1899 187.933 63.4373 187.284 63.6846 186.629C63.7046 186.585 63.7247 186.392 63.8978 186.201C64.1275 185.732 64.356 185.256 64.5857 184.636C64.6069 184.438 64.6316 184.387 64.8036 184.187C65.3042 182.858 65.9497 181.372 66.4527 180.025C66.4692 179.83 66.6411 179.783 66.6612 179.588C66.8956 178.953 67.1276 178.459 67.362 177.817C67.3797 177.631 67.3962 177.583 67.5646 177.399C67.8132 176.712 68.0629 176.033 68.3091 175.203C68.3138 175.192 68.3173 175.185 68.3232 175.179C68.7166 174.507 68.9546 173.842 69.1925 173.177C69.2125 172.977 69.2325 172.779 69.4045 172.582C69.6389 172.077 69.8686 171.427 70.0959 170.778C70.1101 170.601 70.1207 170.574 70.1289 170.547C70.3728 169.72 70.6095 169.042 70.8475 168.364C71.01 168.18 71.03 168.137 71.0418 167.953C71.2621 167.323 71.4835 166.831 71.7014 166.196C71.7215 165.996 71.7379 165.941 71.758 165.743C71.9888 165.081 72.215 164.418 72.4364 163.756C72.4412 163.754 72.4411 163.754 72.4411 163.749C74.2622 162.476 77.2776 160.659 78.6193 160.256C78.6193 160.256 76.5968 157.397 74.976 154.516C74.976 154.51 74.976 154.51 74.976 154.364C75.188 153.649 75.3918 152.798 75.4319 152.11C75.4354 151.94 75.4354 151.917 75.4401 151.897C75.4566 151.503 75.625 151.252 75.638 151.009C75.6545 150.594 75.6651 150.183 75.6733 149.926C76.5662 139.411 76.3165 129.736 76.2953 128.43C76.2953 128.401 76.2953 128.385 76.2953 128.385C76.2953 128.385 100.731 125.102 113.387 125.798C113.387 125.798 115.918 131.27 119.361 138.499C122.8 145.577 127.162 154.56 130.67 161.568C130.665 161.609 129.985 179.169 126.042 200.231C125.602 202.38 125.322 204.607 124.902 207.044C124.902 207.055 124.899 207.213 124.899 207.222C124.88 207.457 124.87 207.693 124.858 207.926C124.176 212.554 123.519 217.827 123.039 223.493C120.987 245.42 120.258 272.22 121.654 287.163C123.705 308.245 134.351 402.714 147.695 436.963Z" fill="#235952"/>
<path d="M70.5598 264.404C70.5598 264.404 81.6143 259.989 86.4425 259.552L70.5598 264.404Z" fill="#7E332F"/>
<path d="M124.905 207.224C124.886 207.459 124.875 207.695 124.863 207.928C124.181 212.556 123.524 217.829 123.045 223.495C116.86 222.853 103.493 218.866 93.1307 213.002C80.9523 206.368 69.4064 196.468 62.326 189.696C62.5192 189.456 62.5605 189.218 62.7536 188.833C62.7701 188.798 62.7854 188.619 62.8019 188.583C63.1942 187.936 63.4415 187.287 63.6889 186.632C63.7089 186.588 63.7289 186.395 63.9021 186.204C64.1318 185.735 64.3603 185.259 64.59 184.639C64.6112 184.441 64.6359 184.39 64.8079 184.19C65.3085 182.861 65.954 181.375 66.457 180.028C66.4735 179.833 66.6454 179.786 66.6655 179.591C66.8999 178.956 67.1319 178.462 67.3663 177.82C67.384 177.634 67.4005 177.586 67.5689 177.402C67.8175 176.715 68.0672 176.036 68.3133 175.206C68.3181 175.195 68.3216 175.188 68.3275 175.182C68.7209 174.51 68.9588 173.845 69.1968 173.18C69.2168 172.98 69.2368 172.782 69.4088 172.585C69.6432 172.08 69.8729 171.43 70.1002 170.781C70.1144 170.604 70.125 170.577 70.1332 170.55C70.377 169.723 70.6138 169.045 70.8517 168.367C71.0143 168.183 71.0343 168.14 71.0461 167.956C71.2664 167.326 71.4878 166.834 71.7057 166.199C71.7257 165.999 71.7422 165.944 71.7623 165.746C71.9931 165.084 72.2193 164.421 72.4407 163.759C72.4455 163.757 72.4454 163.757 72.4454 163.752C74.2665 162.479 77.2819 160.662 78.6236 160.259C78.6236 160.259 76.6011 157.4 74.9803 154.519C74.9803 154.513 74.9803 154.513 74.9803 154.367C75.1923 153.652 75.3961 152.801 75.4362 152.113C75.4397 151.943 75.4397 151.92 75.4444 151.899C75.4609 151.506 75.6293 151.255 75.6423 151.012C75.6588 150.596 75.6694 150.186 75.6776 149.929C76.5705 139.414 76.3208 129.739 76.2996 128.433C78.1559 135.626 79.7767 160.26 79.7767 160.26C79.7767 160.26 89.955 173.653 100.296 184.641C110.639 195.631 119.847 207.901 119.847 207.901L124.905 207.224Z" fill="#13332E"/>
<path d="M145.399 439.15L143.539 440.932C143.539 440.932 125.387 420.655 113.644 403.578C101.904 386.504 98.6497 364.866 105.31 350.897C105.31 350.897 84.1662 283.272 80.9105 273.082C77.5064 262.605 77.5064 265.225 77.5064 265.225L71.7629 265.612C71.7629 265.612 59.1076 289.383 50.1108 316.55C41.1151 343.426 11.4827 436.47 11.4827 436.47L9.87842 436.952C10.5781 432.113 13.0705 416.807 17.4841 403.579C19.311 398.275 19.9718 396.179 19.9718 396.117C19.7422 396.509 17.8999 401.425 17.6455 402.278C18.3416 400.052 29.8426 363.113 35.3705 344.297C41.114 324.992 65.5542 266.583 65.5542 266.583C65.5542 266.583 84.8258 258.141 86.4513 255.523C86.4513 255.523 89.2206 268.674 95.2338 296.394C101.395 324.116 109.478 356.133 109.478 356.133C109.478 356.133 105.82 369.819 113.646 389.897C120.082 406.161 138.915 430.801 145.399 439.15Z" fill="#13332E"/>
<path d="M154.049 159.142L154.047 159.146C153.73 159.162 151.749 161.583 146.684 165.304C144.956 166.397 143.584 167.721 142.58 169.045C139.823 172.127 138.03 175.216 137.984 175.438C136.131 173.218 134.301 169.716 132.934 166.842C131.57 163.963 130.666 161.571 130.666 161.571C130.19 160.66 129.709 159.596 129.225 158.518V158.513C122.124 144.668 113.382 125.801 113.382 125.801C100.726 125.104 76.2903 128.388 76.2903 128.388C76.2903 128.388 76.5836 138.719 75.6683 149.928C75.6601 150.186 75.6483 150.597 75.633 151.012C75.6189 151.254 75.4504 151.504 75.4351 151.899C75.4304 151.919 75.4304 151.943 75.4269 152.113C75.3868 152.801 75.183 153.653 74.971 154.367C74.971 154.513 74.971 154.513 74.971 154.519C76.5906 157.4 78.6143 160.259 78.6143 160.259C77.2726 160.662 74.2572 162.479 72.4362 163.752C72.4362 163.757 72.4362 163.757 72.4315 163.759C72.21 164.421 71.9838 165.083 71.753 165.745C71.733 165.943 71.7165 165.999 71.6965 166.198C71.4785 166.834 71.2571 167.327 71.0368 167.956C71.0251 168.14 71.0062 168.183 70.8425 168.367C70.6045 169.045 70.3678 169.723 70.1239 170.549C70.1157 170.575 70.1039 170.602 70.091 170.781C69.8625 171.43 69.6328 172.081 69.3995 172.584C69.2276 172.782 69.2064 172.98 69.1875 173.18C68.9767 173.622 68.767 174.065 68.7116 174.507C68.5314 174.729 68.502 174.955 68.3182 175.182C68.3123 175.189 68.3088 175.196 68.3041 175.207C68.0579 176.036 67.8082 176.716 67.5597 177.403C67.3912 177.587 67.3735 177.634 67.3571 177.821C67.1227 178.463 66.8906 178.957 66.6562 179.592C66.635 179.787 66.463 179.833 66.4477 180.029C65.9447 181.376 65.2993 182.862 64.7987 184.191C64.6267 184.391 64.6019 184.442 64.5807 184.64C64.3499 185.26 64.1214 185.736 63.8929 186.205C63.7197 186.396 63.6985 186.589 63.6797 186.633C63.4335 187.288 63.1849 187.937 62.7927 188.583C62.7762 188.619 62.7609 188.799 62.7444 188.834C62.5135 189.446 62.2838 189.912 62.0588 190.374C62.0318 190.572 61.8562 190.775 61.8327 190.973C61.6065 191.426 61.3804 191.876 61.1554 192.328C61.1389 192.508 61.1236 192.548 60.9552 192.731C60.7149 193.203 60.4828 193.674 60.2496 194.29C60.2449 194.297 60.2449 194.301 60.2402 194.31C60.219 194.493 60.199 194.533 60.0317 194.717C59.9693 195.145 59.756 195.42 59.5428 195.837C59.5228 196.028 59.3462 196.079 59.3261 196.27C59.0953 196.721 58.8667 197.173 58.6394 197.61C55.8749 203.327 52.4342 207.914 49.6803 210.993C47.0842 214.075 45.024 215.802 45.0193 215.804L52.6509 183.333L54.9325 173.887C47.3268 164.45 39.5327 151.725 37.648 136.975C36.3429 128.162 36.0696 120.507 37.9036 113.723C39.0815 109.28 41.3584 105.114 45.024 101.187C50.3493 95.4661 55.6039 92.4036 60.9233 90.8387C61.6313 90.615 62.4876 90.4058 63.2026 90.2057C64.6396 89.7897 66.2357 89.5593 67.8424 89.3558C69.2417 89.2973 70.8001 89.1197 72.2159 89.0949C81.4318 88.652 97.2487 88.9128 110.182 90.896C112.194 91.2839 114.035 91.5368 115.696 91.9517C117.267 92.2035 118.666 92.6071 120.042 92.8803C120.717 93.0793 121.24 93.2963 121.905 93.5189C134.539 98.0856 140.905 111.518 143.994 121.158C146.275 128.386 154.049 159.142 154.049 159.142Z" fill="#F78A7B"/>
<path d="M68.7118 174.506C68.5315 174.729 68.5021 174.954 68.3183 175.182C68.3124 175.188 68.3089 175.195 68.3042 175.206C68.058 176.035 67.8083 176.715 67.5598 177.402C67.3913 177.586 67.3737 177.634 67.3572 177.82C67.1228 178.462 66.8907 178.956 66.6563 179.591C66.6351 179.786 66.4631 179.833 66.4478 180.028C65.9449 181.375 65.2994 182.861 64.7988 184.19C64.6268 184.39 64.6021 184.441 64.5809 184.639C64.35 185.259 64.1215 185.735 63.893 186.204C63.7198 186.395 63.6986 186.588 63.6798 186.632C63.4336 187.287 63.185 187.936 62.7928 188.583C62.7763 188.619 62.761 188.798 62.7445 188.833C62.5136 189.445 62.2839 189.911 62.0589 190.373C62.0319 190.571 61.8563 190.774 61.8328 190.972C61.6066 191.425 61.3805 191.875 61.1555 192.327C61.139 192.507 61.1237 192.547 60.9553 192.73C60.715 193.202 60.4829 193.673 60.2497 194.289C60.245 194.296 60.245 194.3 60.2403 194.309C57.9693 190.996 55.1859 186.822 52.651 183.332L54.9326 173.886C47.3269 164.45 39.5327 151.724 37.648 136.974C36.3429 128.161 36.0696 120.506 37.9036 113.723L39.7871 124.681C39.7871 124.681 45.4976 145.346 50.3258 153.67C55.1541 161.992 63.7068 171.68 63.7068 171.68L68.7118 174.506Z" fill="#F78A7B"/>
<path d="M142.582 169.04C139.825 172.121 138.032 175.211 137.986 175.432C136.133 173.213 134.303 169.711 132.937 166.836C131.573 163.958 130.668 161.566 130.668 161.566C130.192 160.655 129.711 159.59 129.227 158.512V158.508L132.013 149.084L134.092 156.517C134.092 156.517 138.969 164.238 142.582 169.04Z" fill="#D35A49"/>
<path d="M121.921 93.5177C115.254 95.2715 105.547 97.4559 94.7868 98.3564C76.8474 100.062 68.0968 95.4952 63.2191 90.2057C64.6562 89.7897 66.2522 89.5593 67.8589 89.3558C69.2582 89.2973 70.8166 89.1197 72.2324 89.0949C81.4483 88.652 97.2652 88.9128 110.198 90.896C112.21 91.2838 114.051 91.5368 115.712 91.9516C117.284 92.2035 118.683 92.607 120.059 92.8802C120.732 93.0781 121.257 93.294 121.921 93.5177Z" fill="#F78A7B"/>
<path d="M110.39 53.9581C110.39 53.9581 104.868 58.7912 91.9927 61.2028C84.8688 62.5226 79.302 62.4923 75.1958 61.6255C71.9554 60.9622 69.6868 59.6895 68.7315 58.3708C68.7315 58.3708 66.4758 51.9502 65.7726 43.0113C65.073 34.2129 65.3062 29.1504 65.7726 28.4568C65.9587 28.26 66.2297 28.0082 66.7256 27.581C68.9954 25.8564 74.5339 22.5567 80.507 21.0153C88.0456 19.058 93.6383 19.239 94.9587 19.9001C96.1024 20.551 97.0942 22.1486 97.2862 22.3678C99.3734 26.2757 102.15 32.6727 103.735 37.4642C105.817 43.8635 110.39 53.9581 110.39 53.9581Z" fill="#F0B5AB"/>
<path d="M65.767 58.144C65.7588 58.3913 65.5574 58.8061 65.3277 59.2345C64.6103 60.5645 62.7893 62.3059 61.1344 62.7478C60.4489 62.9569 59.7645 62.9524 59.1084 62.5623C56.7715 61.42 54.5182 50.0134 56.5866 47.3556C56.7786 47.1566 56.8245 46.97 57.0247 46.9363C58.1779 46.2494 59.3511 46.4753 60.496 47.169C62.0826 48.2415 63.469 50.2236 64.3972 52.0404C65.2865 53.7729 65.9685 56.398 65.767 58.144Z" fill="#F0B5AB"/>
<path d="M64.3947 52.0413C65.2852 53.7727 65.9661 56.3978 65.7647 58.1449C65.7564 58.3923 65.555 58.8071 65.3253 59.2355C64.608 60.5655 62.7869 62.307 61.132 62.7488C60.2556 58.1258 58.8586 51.64 56.5841 47.3565C56.7761 47.1575 56.822 46.9709 57.0223 46.9371C58.1754 46.2502 59.3486 46.4762 60.4936 47.1699C62.0814 48.2413 63.4666 50.2234 64.3947 52.0413Z" fill="#F6958E"/>
<path d="M75.1958 61.6228C71.9554 60.9595 69.6868 59.6868 68.7315 58.3681C68.7315 58.3681 66.4758 51.9474 65.7726 43.0085C65.073 34.21 65.3062 29.1475 65.7726 28.4538C65.9587 28.2571 66.2297 28.0053 66.7256 27.5781C67.3899 35.2702 69.4253 52.4129 75.1958 61.6228Z" fill="#F6958E"/>
<path d="M151.816 227.596C151.816 227.596 158.709 248.907 168.874 252.885L171.556 262.124C171.556 262.124 150.927 252.876 146.73 229.623L151.816 227.596Z" fill="#13332E"/>
<path d="M190.025 220.407C190.025 220.407 196.872 241.912 191.317 248.516L194.6 256.945C194.6 256.945 203.882 238.841 195.551 219.138L190.025 220.407Z" fill="#13332E"/>
<path d="M63.6969 186.383C63.7056 186.363 63.7143 186.28 63.7888 186.197C63.7148 186.279 63.7056 186.363 63.6969 186.383Z" fill="#8F3F37"/>
<path d="M59.3346 196.02C59.3443 195.937 59.4198 195.917 59.429 195.834C59.4193 195.917 59.3438 195.937 59.3346 196.02Z" fill="#8F3F37"/>
<path d="M62.7556 188.691C62.7628 188.676 62.7684 188.599 62.7755 188.584C62.7689 188.599 62.7628 188.676 62.7556 188.691Z" fill="#8F3F37"/>
<path d="M61.8455 190.844C61.8651 190.687 61.8886 190.526 62.0255 190.366C61.8886 190.526 61.8661 190.687 61.8455 190.844Z" fill="#8F3F37"/>
<path d="M60.0391 194.473C60.1141 194.39 60.1238 194.371 60.1335 194.287C60.1232 194.371 60.1141 194.39 60.0391 194.473Z" fill="#8F3F37"/>
<path d="M60.9601 192.498C61.033 192.42 61.0407 192.403 61.0478 192.325C61.0407 192.403 61.033 192.42 60.9601 192.498Z" fill="#8F3F37"/>
<path d="M71.6973 166.105C71.7123 165.947 71.7263 165.903 71.7413 165.744C71.7263 165.903 71.7113 165.948 71.6973 166.105Z" fill="#8F3F37"/>
<path d="M64.58 184.384C64.5907 184.3 64.5998 184.276 64.6748 184.191C64.5998 184.276 64.5907 184.3 64.58 184.384Z" fill="#8F3F37"/>
<path d="M70.854 168.132C70.9254 168.052 70.932 168.034 70.9382 167.954C70.932 168.034 70.9254 168.052 70.854 168.132Z" fill="#8F3F37"/>
<path d="M75.6488 151.034C75.6633 150.611 75.6753 150.192 75.685 149.926C75.6753 150.191 75.6633 150.611 75.6488 151.034Z" fill="#8F3F37"/>
<path d="M75.4399 151.976C75.4415 151.902 75.4425 151.893 75.4435 151.883C75.442 151.893 75.441 151.902 75.4399 151.976Z" fill="#8F3F37"/>
<path d="M66.458 179.777C66.4672 179.693 66.5412 179.672 66.5494 179.588C66.5412 179.672 66.4672 179.693 66.458 179.777Z" fill="#8F3F37"/>
<path d="M70.0872 170.635C70.0923 170.559 70.0969 170.547 70.1009 170.534C70.0963 170.547 70.0918 170.559 70.0872 170.635Z" fill="#8F3F37"/>
<path d="M67.3724 177.577C67.3796 177.497 67.3872 177.476 67.4602 177.396C67.3877 177.477 67.3796 177.497 67.3724 177.577Z" fill="#8F3F37"/>
<path d="M69.2042 173.054C69.2211 172.895 69.2352 172.737 69.372 172.578C69.2352 172.737 69.2211 172.895 69.2042 173.054Z" fill="#8F3F37"/>
<path d="M68.3159 175.189C68.3172 175.184 68.3185 175.182 68.3194 175.178C68.3185 175.182 68.3172 175.184 68.3159 175.189Z" fill="#8F3F37"/>
<path d="M205.674 210.298C206.128 208.33 206.508 206.587 206.508 206.587C206.508 206.587 206.073 208.33 205.674 210.298Z" fill="#F0B5AB"/>
<path d="M69.6301 39.8934C70.1402 38.3914 73.1038 36.1585 75.6281 34.4913C78.1523 32.8757 82.321 32.6306 82.321 32.6306C82.321 32.6306 80.898 35.737 75.9002 38.1125C71.0542 40.3476 69.6301 39.8934 69.6301 39.8934Z" fill="#5D2813"/>
<path d="M92.2237 30.9094C91.2779 31.5649 96.8671 34.1912 102.356 33.9798C102.356 33.981 96.7987 27.8795 92.2237 30.9094Z" fill="#5D2813"/>
<path d="M97.2925 90.0169L95.9014 94.1676C93.35 95.2614 87.6148 95.0501 82.8231 94.5891C79.1445 94.1631 76.1231 93.5234 75.6414 93.2637C74.467 92.4239 73.8439 87.8067 73.8439 87.8067C73.8439 87.8067 76.3622 88.0056 81.6381 88.905C82.5191 89.0962 83.2695 89.2929 84.1977 89.357C91.2993 90.8308 97.2925 90.0169 97.2925 90.0169Z" fill="#F0B5AB"/>
<path d="M82.823 94.5892C79.1444 94.1631 76.1231 93.5234 75.6413 93.2637C74.467 92.4239 73.8439 87.8067 73.8439 87.8067C73.8439 87.8067 76.3622 88.0056 81.638 88.905C81.8912 90.8781 82.3518 92.8365 82.823 94.5892Z" fill="#F6958E"/>
<path d="M6.65552 438.227V442.172H32.1854C32.1866 442.172 17.484 430.304 6.65552 438.227Z" fill="#D65028"/>
<path d="M143.544 440.933H168.925C168.925 440.933 150.49 428.127 143.544 440.933Z" fill="#D65028"/>
<path d="M81.2162 127.738L76.3043 128.385C76.3043 128.385 66.9283 101.238 60.9363 90.8369C63.2273 90.1668 65.5289 89.7351 67.8553 89.354C70.8318 95.7161 80.023 116.299 81.2162 127.738Z" fill="#13332E"/>
<path d="M115.708 91.948L113.396 125.797L109.227 125.755C109.227 125.755 109.736 100.98 110.194 90.8923C112.205 91.2802 114.047 91.5332 115.708 91.948Z" fill="#13332E"/>
<path d="M116.655 72.6583C116.624 79.4296 111.353 86.8721 97.3049 90.0077C83.2597 93.2871 73.6409 88.4708 69.8728 85.1228C65.8114 81.632 66.0317 75.2766 65.7843 67.5621C65.7408 64.0612 65.7219 61.4473 65.3379 59.2235C65.5676 58.7952 65.769 58.3803 65.7773 58.133C65.9787 56.3859 65.2979 53.7608 64.4074 52.0295C63.4792 50.2127 62.0928 48.2306 60.5062 47.1581C58.3883 43.4031 56.3458 39.7043 55.8582 34.8498C55.4365 31.5873 56.3682 28.9341 57.6839 26.9734C58.8618 24.9846 60.2765 23.8525 60.7441 23.6737C61.8266 23.4668 61.1328 20.5685 63.2719 16.4144C65.5558 12.257 68.0447 7.37323 74.4867 3.00441C80.9227 -1.3588 84.6166 -0.140112 86.9135 1.50241C88.9984 3.2079 94.0846 10.466 95.6936 13.7781C95.8891 14.013 95.9221 14.2424 95.9515 14.4549C97.087 17.3194 97.3038 22.5225 97.3038 22.5225C97.3038 22.5225 97.3014 22.3741 97.2967 22.3729C97.1047 22.1537 96.1141 20.5562 94.9692 19.9052C93.6487 19.2442 88.0561 19.062 80.5175 21.0205C73.1286 22.9812 66.2531 27.6187 65.7832 28.4619C65.3167 29.1566 65.0835 34.218 65.7832 43.0164C66.007 45.6235 66.2755 48.0193 66.6984 50.0272C67.6101 55.0829 68.742 58.3747 68.742 58.3747C71.0448 61.4136 79.1252 63.6148 92.0044 61.2056C104.881 58.7929 110.402 53.9609 110.402 53.9609C113.434 55.9744 116.614 65.3596 116.651 71.9815C116.655 72.2108 116.655 72.4346 116.655 72.6583Z" fill="#723417"/>
<path d="M115.033 144.63L115.002 143.754L114.561 140.058C114.559 140.015 114.534 139.832 114.344 139.808C114.308 139.639 114.11 139.63 114.065 139.644C102.59 142.489 79.8212 142.694 79.5927 142.694C79.5515 142.694 79.3583 142.707 79.3312 142.88C79.3017 142.912 79.1333 143.096 79.1333 143.135L79.343 148.358L79.3512 149.084L79.9991 166.84C80.0038 167.061 80.0615 167.266 80.2912 167.269C83.0569 167.504 86.0123 167.698 88.9888 167.698C104.217 167.698 116.8 164 116.844 163.989C117.065 163.969 117.261 163.758 117.102 163.543L115.033 144.63ZM88.9876 166.826C86.2207 166.826 83.4727 166.641 80.9084 166.412L80.2664 149.067L80.257 148.198L80.0568 143.565C83.2889 143.549 103.031 143.144 113.819 140.691L114.093 143.989L114.28 144.86L116.179 163.307C114.084 163.797 102.618 166.826 88.9876 166.826Z" fill="#A8DEEB"/>
<path d="M115.036 144.619C114.785 144.652 114.535 144.681 114.281 144.851C103.766 147.741 86.221 148.824 80.2691 149.057C80.0017 149.061 79.5917 149.07 79.3538 149.075L79.3456 148.348C79.5823 148.201 79.9923 148.193 80.2596 148.189C86.221 147.947 103.933 146.864 114.095 143.981C114.349 143.805 114.757 143.776 115.003 143.746L115.036 144.619Z" fill="#A8DEEB"/>
<path d="M131.572 164.196C131.561 164.196 131.551 164.196 131.542 164.192C131.093 164.018 130.214 163.581 130.214 162.489C130.214 162.416 130.399 161.581 130.63 159.845C131.371 153.657 133.406 138.957 132.704 130.631C132.697 130.402 132.913 130.186 133.15 130.183C133.39 130.174 133.611 130.38 133.618 130.605C134.322 138.963 132.283 153.683 131.542 160.027C131.329 161.349 131.129 162.434 131.129 162.488C131.129 163.144 131.596 163.321 131.602 163.324C131.988 163.342 132.042 163.563 132.025 163.788C132.012 164.005 131.796 164.196 131.572 164.196Z" fill="#924138"/>
<path d="M75.9113 146.857C75.684 146.857 75.4732 146.66 75.4555 146.441C72.658 127.762 65.056 115.256 64.8793 115.213C64.8358 114.997 64.8593 114.761 65.0843 114.579C65.3093 114.392 65.5543 114.56 65.7498 114.775C65.7769 114.82 73.5579 127.515 76.3672 146.401C76.3801 146.628 76.3212 146.845 76.0833 146.859C75.929 146.857 75.9207 146.857 75.9113 146.857Z" fill="#924138"/>
<path d="M124.892 207.043C124.876 207.434 124.86 207.68 124.849 207.925C114.281 209.852 104.631 210.517 96.1504 210.517C87.3644 210.517 79.7952 209.688 74.0059 208.801C64.6098 207.452 57.9547 205.456 54.9098 204.361C54.9722 203.987 55.176 203.757 55.3857 203.525C62.9548 206.138 88.7838 213.404 124.892 207.043Z" fill="#A8DEEB"/>
<path d="M58.8689 50.6221C58.6722 50.4568 58.6086 50.4647 58.4236 50.6524C58.3895 50.6985 58.4001 50.9043 58.598 51.0796C58.6062 51.083 59.5556 51.7576 60.6746 52.8864C59.9973 54.4199 59.088 56.8416 59.7971 57.4374C59.9855 57.4622 60.0291 57.4723 60.2282 57.4723C60.9266 57.4723 61.8784 56.5998 62.5498 55.95C62.7547 56.3705 62.7983 56.7966 62.9797 57.2317C62.9891 57.2755 63.0339 57.4532 63.2306 57.4532C63.2376 57.4532 63.2447 57.4532 63.2518 57.452C63.4591 57.4397 63.4968 57.2474 63.485 57.0462C62.7559 53.272 59.0774 50.6682 58.8689 50.6221ZM60.2199 56.8427C59.9985 56.6145 60.4425 55.0731 60.9738 53.4968C61.4355 53.9803 61.8878 54.6369 62.313 55.4654C61.3695 56.3851 60.2823 57.0282 60.2199 56.8427Z" fill="#993322"/>
<path d="M92.4193 58.7729C91.5488 58.7729 90.8279 58.5997 90.1142 58.5446C89.9092 58.3861 89.7231 58.3299 89.8856 58.1354C89.901 57.9364 89.9551 57.9027 90.1613 57.9162C92.8987 58.557 96.1001 57.9117 97.9423 56.3984C98.4665 55.9341 99.331 55.0662 99.1614 53.9644C99.1143 51.3236 94.7479 51.0987 94.7338 51.0987C94.5536 51.0965 94.5265 51.0841 94.5088 50.9233C92.4417 48.6748 91.0506 37.022 91.113 36.4161C91.2803 36.3666 91.3403 36.1912 91.5441 36.2474C91.7444 36.3711 91.7726 36.4161 91.7644 36.6072C91.7549 37.4695 92.9528 48.2296 94.7915 50.4703C95.6773 50.6389 99.6196 51.083 99.8222 53.9554C99.8411 55.0426 99.3523 55.969 98.2262 56.838C96.808 58.1129 94.5418 58.7729 92.4193 58.7729Z" fill="#993322"/>
<path d="M77.9729 67.991C77.9729 67.991 94.2903 64.7183 99.5756 64.0876C99.5756 64.0876 98.8889 70.8792 92.2314 72.6781C85.5715 74.614 77.9729 67.991 77.9729 67.991Z" fill="white"/>
<path d="M82.7818 44.7431C82.5332 46.6836 81.618 48.0361 80.7275 47.9957C79.9901 47.8124 79.5354 46.253 79.784 44.3125C80.0325 42.5171 80.9501 41.0218 81.8395 41.2039C82.5768 41.2444 83.0291 42.951 82.7818 44.7431Z" fill="#1E1725"/>
<path d="M100.977 42.9793C100.729 44.9085 99.8123 46.2711 99.075 46.0889C98.1857 46.0485 97.7299 44.488 97.9808 42.5475C98.38 40.7532 99.1456 39.2569 100.035 39.4412C100.923 39.4806 101.378 41.1861 100.977 42.9793Z" fill="#1E1725"/>
<path d="M277.858 427.354C277.047 427.708 268.71 437.411 236.08 439.579C203.753 441.745 195.995 435.256 195.995 435.256L197.384 448.309C197.384 448.309 240.726 453.613 277.871 443.489L277.858 427.354Z" fill="#5C261F"/>
<path d="M208.946 421.529C208.899 421.529 208.857 421.222 208.846 421.165L207.015 414.186C207 414.127 207.034 414.074 207.089 414.062C207.449 414.046 207.504 414.08 207.517 414.134L209.346 421.119C209.36 421.169 209.326 421.514 209.272 421.527C208.961 421.529 208.953 421.529 208.946 421.529Z" fill="url(#paint5_linear)"/>
<path d="M217.137 421.531C217.121 421.531 217.106 421.527 217.093 421.52C216.744 421.215 216.721 421.16 216.737 421.113C216.739 420.683 215.786 418.016 214.841 415.456C214.82 415.405 214.847 415.059 214.9 415.039C215.257 415.019 215.315 415.046 215.335 415.384C217.621 420.728 217.556 421.148 217.23 421.187C217.211 421.511 217.177 421.531 217.137 421.531Z" fill="url(#paint6_linear)"/>
<path d="M223.575 421.531C223.535 421.531 223.192 421.505 223.177 421.178L220.839 415.456C220.818 415.406 220.843 415.059 220.896 415.039C221.251 415.019 221.312 415.043 221.332 415.382L223.672 421.108C223.996 421.159 223.667 421.491 223.613 421.526C223.602 421.529 223.588 421.531 223.575 421.531Z" fill="url(#paint7_linear)"/>
<path d="M230.962 420.269C230.921 420.269 230.576 420.243 230.561 420.205L228.593 414.475C228.272 414.137 228.604 414.082 228.657 414.063C228.71 414.045 229.073 414.07 229.091 414.122L231.361 419.847C231.381 420.188 231.056 420.243 230.997 420.262C230.985 420.265 230.972 420.269 230.962 420.269Z" fill="url(#paint8_linear)"/>
<path d="M226.32 427.245C213.988 427.245 204.7 424.192 204.658 424.178C204.321 424.169 204.294 424.128 204.287 423.818L200.653 407.138C200.641 407.085 200.982 407.036 201.035 407.024C201.089 406.992 201.45 407.045 201.461 407.1L204.779 423.723C206.552 424.179 220.302 428.129 235.163 425.976C252.568 423.721 261.299 417.137 264.988 413.233L257.671 394.789C257.652 394.739 257.678 394.391 258.032 394.374C258.089 394.354 258.146 394.381 258.167 394.722L265.506 413.22C265.52 413.255 265.513 413.294 265.485 413.611C261.802 417.237 253.03 424.187 235.495 426.46C232.304 426.896 229.132 427.245 226.32 427.245Z" fill="url(#paint9_linear)"/>
<path d="M211.682 215.797L159.265 226.815L127.658 233.602L126.049 227.599L154.996 221.51L210.77 209.467L211.682 215.797Z" fill="#235952"/>
<path d="M159.264 226.821L127.657 233.607L126.048 227.603L154.994 221.514C156.437 223.311 158.217 225.289 159.264 226.821Z" fill="#13332E"/>
<path d="M205.581 213.391C205.583 212.484 205.621 211.233 205.673 210.296C205.236 212.062 204.735 214.038 203.874 215.12C205.673 210.077 206.049 204.418 206.049 204.394C206.052 204.171 206.125 203.97 206.512 203.965C206.594 203.97 206.967 204.18 206.965 204.407C206.959 204.637 206.601 208.97 205.581 213.391Z" fill="#924138"/>
<path d="M116.655 72.672C116.624 79.4433 111.353 86.8859 97.3049 90.0214C83.2597 93.3009 73.6409 88.4846 69.8728 85.1365C65.8114 81.6458 66.0317 75.2904 65.7843 67.5758C65.7408 64.0748 65.7219 61.4609 65.3379 59.2372C65.5676 58.8088 65.769 58.394 65.7773 58.1467C65.9787 56.3996 65.2979 53.7745 64.4074 52.0431C63.4792 50.2263 62.0928 48.2443 60.5062 47.1717C58.3883 43.4167 56.3458 39.718 55.8582 34.8634C55.4365 31.6009 56.3682 28.9476 57.6839 26.987C62.0516 28.6958 64.8185 26.0965 64.8185 26.0965C64.8185 26.0965 66.2166 24.1449 74.992 20.5832C83.9193 16.8822 90.8701 17.0891 92.0386 16.672C92.8843 16.4516 94.5062 15.1104 95.6947 13.7927C95.8903 14.0277 95.9233 14.2571 95.9527 14.4696C97.0882 17.3341 97.3049 22.5372 97.3049 22.5372C97.3049 22.5372 97.3026 22.3888 97.2979 22.3876C97.1059 22.1684 96.1153 20.5708 94.9703 19.9199C93.6499 19.2588 88.0573 19.0767 80.5187 21.0352C73.1297 22.9959 66.2543 27.6334 65.7843 28.4766C65.3179 29.1714 65.0847 34.2327 65.7843 43.0311C66.0081 45.6383 66.2767 48.034 66.6996 50.042C66.6678 51.5226 66.5005 52.8458 66.497 53.9858C66.4828 63.1608 73.8553 76.1628 73.8553 76.1628C73.8553 76.1628 78.2112 83.2096 87.8653 82.9353C97.517 82.5159 112.672 77.9065 115.043 74.835C115.714 73.9862 116.348 73.0733 116.652 71.9963C116.655 72.2245 116.655 72.4483 116.655 72.672Z" fill="#5D2813"/>
<path d="M146.341 226.575C144.502 227.43 144.955 223.956 145.336 222.629C144.921 224.127 143.978 227.883 142.232 227.883C140.9 227.883 140.9 225.075 140.942 223.697V223.692C141.117 223.069 141.203 222.643 141.203 222.643L140.078 223.512C140.078 223.512 140.078 223.512 140.073 223.517L137.993 225.264C137.993 225.264 134.074 229.19 132.961 228.676C132.706 228.37 132.51 228.013 132.5 227.603C132.479 226.777 132.931 225.49 132.953 225.277C132.939 225.446 132.752 225.508 132.699 225.73C132.695 225.737 132.69 225.889 132.685 225.895C132.012 226.806 130.633 228.778 129.756 228.455C129.712 228.44 129.521 228.35 129.503 228.022C129.03 226.363 129.756 220.413 129.756 220.413C129.756 220.413 125.588 221.719 117.306 219.295C109.023 216.726 95.4484 208.575 83.9616 199.554C72.6243 190.529 61.1399 180.439 58.6498 176.266C58.6498 176.266 60.6934 173.637 63.9468 170.388C65.0952 169.286 66.4533 168.163 67.8527 167.047C73.5454 162.489 78.6257 160.257 78.6257 160.257C78.6257 160.257 95.7076 180.003 103.248 190.088C110.637 200.184 120.306 210.755 120.306 210.755C120.306 210.755 133.622 208.139 141.204 211.004C148.625 213.864 148.625 225.507 146.341 226.575Z" fill="#F0B5AB"/>
<path d="M135.705 219.339C135.705 219.546 135.693 223.085 132.501 227.599C132.48 226.772 132.932 225.485 132.953 225.273C132.939 225.441 132.753 225.503 132.7 225.726C134.774 222.166 134.792 219.353 134.792 219.34C134.792 219.115 135.015 218.905 135.247 218.905H135.249C135.483 218.904 135.705 219.114 135.705 219.339Z" fill="#924138"/>
<path d="M140.948 223.688C141.123 223.065 141.209 222.639 141.209 222.639L140.084 223.508C141.344 221.093 141.213 219.515 141.209 219.506C141.133 219.139 141.253 218.919 141.608 218.903C141.729 218.894 142.088 219.092 142.124 219.319C142.131 219.35 142.231 221.101 140.948 223.688Z" fill="#924138"/>
<path d="M132.501 216.915C132.501 216.915 130.408 223.271 129.504 228.017C129.031 226.359 129.757 220.408 129.757 220.408C129.757 220.408 125.589 221.715 117.306 219.291C109.023 216.722 95.4493 208.571 83.9624 199.55C72.625 190.525 61.1405 180.435 58.6504 176.261C58.6504 176.261 60.6941 173.633 63.9474 170.384C71.0773 180.028 74.0055 184.427 84.2015 194.71C95.6884 205.952 118.444 219.351 120.999 218.904C123.708 218.45 132.501 216.915 132.501 216.915Z" fill="#F6958E"/>
<path d="M211.146 213.172C210.79 213.174 210.751 213.163 210.719 212.99C210.325 212.919 210.294 212.299 210.288 211.636C210.28 210.073 210.763 207.666 211.126 206.843C210.682 208.323 208.388 215.603 206.518 215.789C205.668 215.805 205.59 214.725 205.597 213.381C205.599 212.474 205.637 211.224 205.688 210.286C206.116 208.58 206.187 207.224 206.208 206.773C206.169 207.224 206.067 208.579 205.688 210.286C205.251 212.052 204.751 214.029 203.89 215.11C203.774 215.553 203.348 215.789 202.912 215.789C202.421 215.789 202.006 215.136 201.944 214.229C201.456 211.199 202.048 205.265 202.048 205.265C202.048 205.265 198.237 209.243 190.003 209.436C181.771 209.627 170.229 203.713 160.524 196.677C150.512 189.643 140.801 179.599 137.999 175.428C137.999 175.428 139.649 172.302 142.599 169.031C143.6 167.706 144.977 166.387 146.699 165.289C151.764 161.569 153.745 159.148 154.062 159.132C154.064 159.132 154.064 159.127 154.064 159.127C154.064 159.127 161.08 168.381 167.538 176.29C173.991 184.2 195.93 198.683 195.93 198.683C195.93 198.683 198.799 196.241 206.518 194.482C213.944 192.724 215.265 194.686 216.684 200.654C218.111 206.764 212.619 212.977 211.146 213.172Z" fill="#F0B5AB"/>
<path d="M213.068 203.112C213.003 204.861 212.174 209.487 210.71 212.999C210.315 212.928 210.284 212.307 210.279 211.645C211.613 208.528 212.091 204.621 212.15 203.106C212.159 202.883 212.535 202.648 212.617 202.653L212.612 203.09L213.068 203.112Z" fill="#924138"/>
<path d="M203.889 202.655C203.843 203.1 202.847 209.658 201.943 214.241C201.455 211.211 202.047 205.277 202.047 205.277C202.047 205.277 198.236 209.255 190.003 209.448C181.77 209.639 170.228 203.725 160.523 196.689C150.511 189.655 140.801 179.61 137.998 175.44C137.998 175.44 139.649 172.314 142.598 169.042C149.043 177.639 158.271 189.25 170.69 197.606C184.888 207.217 192.85 207.283 197.83 205.468C202.507 203.513 204.254 202.004 203.889 202.655Z" fill="#F6958E"/>
<defs>
<linearGradient id="paint0_linear" x1="229.654" y1="329.538" x2="328.353" y2="297.11" gradientUnits="userSpaceOnUse">
<stop stop-color="#FCD9D9"/>
<stop offset="0.83538"/>
</linearGradient>
<linearGradient id="paint1_linear" x1="234.329" y1="306.813" x2="217.205" y2="322.891" gradientUnits="userSpaceOnUse">
<stop stop-color="#EBCCCC"/>
<stop offset="0.630208" stop-color="#FFDBDB"/>
</linearGradient>
<linearGradient id="paint2_linear" x1="221.806" y1="300.83" x2="148.109" y2="356.215" gradientUnits="userSpaceOnUse">
<stop stop-color="#D86A6A"/>
<stop offset="0.83538" stop-color="#FFE3E3"/>
</linearGradient>
<linearGradient id="paint3_linear" x1="297.822" y1="262.701" x2="208.261" y2="301.466" gradientUnits="userSpaceOnUse">
<stop stop-color="#F4D5D5"/>
<stop offset="1" stop-opacity="0"/>
</linearGradient>
<linearGradient id="paint4_linear" x1="194.113" y1="223.85" x2="145.179" y2="268.382" gradientUnits="userSpaceOnUse">
<stop stop-color="#D78C8C"/>
<stop offset="0.83538" stop-color="#FFE3E3"/>
</linearGradient>
<linearGradient id="paint5_linear" x1="209.349" y1="413.923" x2="205.001" y2="416.925" gradientUnits="userSpaceOnUse">
<stop stop-color="#FCD9D9"/>
<stop offset="0.83538" stop-color="#FFE3E3"/>
</linearGradient>
<linearGradient id="paint6_linear" x1="217.396" y1="414.916" x2="213.392" y2="418.402" gradientUnits="userSpaceOnUse">
<stop stop-color="#FCD9D9"/>
<stop offset="0.83538" stop-color="#FFE3E3"/>
</linearGradient>
<linearGradient id="paint7_linear" x1="223.812" y1="414.916" x2="219.769" y2="419.009" gradientUnits="userSpaceOnUse">
<stop stop-color="#FCD9D9"/>
<stop offset="0.83538" stop-color="#FFE3E3"/>
</linearGradient>
<linearGradient id="paint8_linear" x1="231.361" y1="413.945" x2="227.497" y2="417.934" gradientUnits="userSpaceOnUse">
<stop stop-color="#FCD9D9"/>
<stop offset="0.83538" stop-color="#FFE3E3"/>
</linearGradient>
<linearGradient id="paint9_linear" x1="265.498" y1="393.775" x2="256.57" y2="432.64" gradientUnits="userSpaceOnUse">
<stop stop-color="#FCD9D9"/>
<stop offset="0.83538" stop-color="#FFE3E3"/>
</linearGradient>
</defs>
</svg>
