<svg width="200" height="135" viewBox="0 0 200 135" fill="none" xmlns="http://www.w3.org/2000/svg">
<path d="M188.094 32.8103C188.673 32.0745 189.2 31.2988 189.67 30.4888L178.548 28.664L190.577 28.7524C191.731 26.2418 192.361 23.522 192.428 20.7595C192.494 17.997 191.996 15.2499 190.964 12.6866L174.827 21.0581L189.71 10.1187C188.315 7.70953 186.439 5.6133 184.2 3.96058C181.96 2.30786 179.403 1.13406 176.69 0.512286C173.977 -0.109486 171.165 -0.165908 168.429 0.346535C165.692 0.858977 163.091 1.92931 160.787 3.49085C158.482 5.0524 156.524 7.07172 155.034 9.42301C153.544 11.7743 152.554 14.4072 152.126 17.1577C151.698 19.9083 151.841 22.7175 152.546 25.4104C153.251 28.1033 154.503 30.6222 156.223 32.8103C155.323 33.9561 154.547 35.1955 153.911 36.5069L168.348 44.0075L152.956 38.8415C151.874 42.0365 151.606 45.4508 152.177 48.7753C152.747 52.0998 154.137 55.2297 156.222 57.8816C154.067 60.6217 152.655 63.871 152.121 67.3159C151.588 70.7608 151.952 74.2849 153.178 77.5481C154.404 80.8113 156.451 83.7034 159.12 85.9452C161.789 88.187 164.992 89.7028 168.418 90.3463C168.149 91.1024 168.014 91.8993 168.017 92.7016C168.005 93.8887 168.31 95.0575 168.899 96.0878C168.321 97.1227 168.017 98.2885 168.017 99.4741C168.017 100.66 168.321 101.825 168.899 102.86C168.321 103.895 168.017 105.061 168.017 106.247C168.017 107.432 168.321 108.598 168.899 109.633C168.321 110.668 168.017 111.833 168.017 113.019C168.017 114.205 168.321 115.37 168.899 116.405C168.31 117.436 168.005 118.604 168.017 119.792C168.017 122.852 169.911 125.332 172.25 125.332C174.588 125.332 176.483 122.852 176.483 119.792C176.494 118.604 176.189 117.435 175.598 116.405C176.178 115.371 176.482 114.205 176.482 113.019C176.482 111.833 176.178 110.667 175.598 109.633C176.178 108.598 176.482 107.432 176.482 106.247C176.482 105.061 176.178 103.895 175.598 102.86C176.178 101.826 176.482 100.66 176.482 99.4741C176.482 98.2883 176.178 97.1223 175.598 96.0878C176.189 95.0577 176.494 93.8888 176.483 92.7016C176.485 91.8879 176.346 91.08 176.071 90.3143C179.476 89.6441 182.653 88.1108 185.297 85.8612C187.94 83.6116 189.962 80.7211 191.169 77.4664C192.375 74.2117 192.726 70.7018 192.188 67.2726C191.649 63.8435 190.24 60.61 188.094 57.8816C190.905 54.308 192.434 49.893 192.434 45.346C192.434 40.7989 190.905 36.3839 188.094 32.8103Z" fill="#F2F2F2"/>
<path d="M121.048 54.3882C120.662 53.8956 120.31 53.3771 119.994 52.8362L127.431 51.6152L119.389 51.6736C118.617 49.9949 118.196 48.1764 118.151 46.3294C118.106 44.4823 118.439 42.6456 119.129 40.9316L129.922 46.5302L119.97 39.2141C120.901 37.5999 122.154 36.1949 123.652 35.0868C125.15 33.9787 126.861 33.1913 128.677 32.7738C130.493 32.3562 132.375 32.3174 134.207 32.6599C136.038 33.0023 137.78 33.7186 139.322 34.7641C140.865 35.8096 142.175 37.1618 143.171 38.7362C144.168 40.3107 144.829 42.0737 145.114 43.9152C145.399 45.7566 145.301 47.637 144.826 49.4389C144.352 51.2409 143.511 52.9257 142.357 54.3882C142.96 55.1539 143.478 55.9827 143.903 56.8601L134.249 61.8755L144.546 58.4197C145.27 60.5563 145.449 62.8397 145.068 65.063C144.686 67.2863 143.755 69.3792 142.36 71.152C143.802 72.9839 144.747 75.1567 145.104 77.4603C145.461 79.764 145.218 82.1207 144.398 84.303C143.578 86.4854 142.21 88.4195 140.425 89.9187C138.64 91.4178 136.498 92.4314 134.207 92.8616C134.386 93.3672 134.476 93.8998 134.474 94.4362C134.481 95.2278 134.277 96.0069 133.884 96.6937C134.271 97.3854 134.474 98.1649 134.474 98.9577C134.474 99.7505 134.271 100.53 133.884 101.222C134.271 101.914 134.474 102.694 134.474 103.487C134.474 104.28 134.271 105.06 133.884 105.752C134.271 106.444 134.474 107.223 134.474 108.016C134.474 108.809 134.271 109.588 133.884 110.28C134.277 110.967 134.481 111.746 134.474 112.538C134.474 114.582 133.208 116.242 131.652 116.242C130.097 116.242 128.831 114.582 128.831 112.538C128.824 111.746 129.028 110.967 129.421 110.28C129.034 109.588 128.83 108.809 128.83 108.016C128.83 107.223 129.034 106.444 129.421 105.752C129.034 105.06 128.83 104.28 128.83 103.487C128.83 102.694 129.034 101.914 129.421 101.222C129.034 100.53 128.83 99.7505 128.83 98.9577C128.83 98.1649 129.034 97.3854 129.421 96.6937C129.027 96.0069 128.824 95.2278 128.831 94.4362C128.829 93.8917 128.922 93.3511 129.107 92.839C126.83 92.391 124.705 91.3659 122.937 89.8618C121.169 88.3577 119.817 86.425 119.01 84.2487C118.203 82.0723 117.968 79.7252 118.328 77.4321C118.688 75.139 119.63 72.9766 121.065 71.152C119.186 68.7622 118.164 65.8102 118.164 62.7701C118.164 59.7299 119.186 56.778 121.065 54.3882H121.048Z" fill="#F2F2F2"/>
<path d="M105.778 134.524C157.815 134.524 200 129.217 200 122.672C200 116.126 157.815 110.82 105.778 110.82C53.7403 110.82 11.5556 116.126 11.5556 122.672C11.5556 129.217 53.7403 134.524 105.778 134.524Z" fill="#F2F2F2"/>
<path d="M134.713 96.0144C134.713 96.3907 134.702 96.7669 134.681 97.1281C134.681 97.1827 134.681 97.2354 134.681 97.2899C134.581 98.8792 134.292 100.451 133.822 101.972C133.808 102.019 133.791 102.07 133.776 102.117C133.294 103.632 132.647 105.088 131.846 106.461L131.765 106.596C130.905 108.043 129.896 109.396 128.755 110.634L128.639 110.758C127.356 112.134 125.936 113.374 124.4 114.46C124.348 114.5 124.293 114.539 124.24 114.575C122.631 115.701 120.92 116.674 119.129 117.479C118.883 117.59 118.634 117.7 118.377 117.807L118.151 117.901C115.41 119.029 112.539 119.808 109.604 120.22L109.245 120.269C107.597 120.487 105.937 120.596 104.275 120.595C91.9563 120.595 81.3461 114.684 76.5583 106.179C76.236 105.611 75.9419 105.031 75.676 104.441L75.5669 104.198C74.5505 101.886 73.972 99.405 73.8606 96.8817C73.8606 96.8196 73.8606 96.7594 73.8606 96.6936C73.8606 96.4678 73.8512 96.2402 73.8512 96.0126C73.8504 94.2537 74.0806 92.5023 74.536 90.8034C74.5491 90.7507 74.5623 90.6999 74.5774 90.6491C75.0558 88.9181 75.7511 87.2544 76.6467 85.6977C76.6712 85.6544 76.6956 85.6093 76.722 85.566C77.6045 84.0583 78.6492 82.6516 79.8373 81.3708C79.8685 81.332 79.9018 81.295 79.937 81.2598L79.9521 81.2448C80.1007 81.0868 80.2512 80.9269 80.4055 80.7707L80.6368 80.5374C80.7892 80.3851 80.9454 80.2364 81.1015 80.0859H81.1109C81.4872 79.7323 81.8703 79.3893 82.2604 79.0569C82.8022 78.5979 83.3684 78.1558 83.9535 77.7306L84.0795 77.6366C85.6329 76.5287 87.2839 75.5647 89.0121 74.7564C89.0629 74.7319 89.1156 74.7056 89.1664 74.6849C91.1137 73.7857 93.1412 73.0714 95.2221 72.5516C95.288 72.5328 95.3519 72.5177 95.4103 72.5026C97.9877 71.8736 100.625 71.5236 103.278 71.4586C103.366 71.4586 103.454 71.4586 103.545 71.4586C103.786 71.4586 104.028 71.4492 104.271 71.4492C116.478 71.4492 127.008 77.2566 131.858 85.6337C131.901 85.709 131.942 85.7842 131.985 85.8576L132.174 86.1868C132.277 86.3749 132.375 86.5631 132.473 86.7625C132.518 86.8528 132.561 86.9412 132.604 87.0315C132.631 87.0842 132.659 87.1369 132.683 87.1914C133.393 88.6672 133.925 90.2219 134.269 91.823C134.284 91.8851 134.296 91.9453 134.309 92.0112C134.577 93.3287 134.712 94.6699 134.713 96.0144V96.0144Z" fill="#6C63FF"/>
<g opacity="0.2">
<path opacity="0.2" d="M131.991 85.8407C130.6 85.3139 129.221 84.7659 127.852 84.1965C119.314 80.6619 111.097 76.3963 103.293 71.4473H103.56C112.507 77.0946 121.991 81.8434 131.873 85.6243C131.908 85.6977 131.95 85.7673 131.991 85.8407Z" fill="#F2F2F2"/>
</g>
<g opacity="0.2">
<path opacity="0.2" d="M134.307 91.9887C130.921 90.8599 127.57 89.6058 124.255 88.2262C115.629 84.6577 107.331 80.3433 99.4549 75.3321C97.97 74.3878 96.5591 73.4565 95.2221 72.5385L95.4103 72.4915C96.7158 73.3832 98.0954 74.2912 99.549 75.2155C110.414 82.1193 122.071 87.6903 134.267 91.8081C134.282 91.8683 134.294 91.9285 134.307 91.9887Z" fill="#F2F2F2"/>
</g>
<g opacity="0.2">
<path opacity="0.2" d="M134.681 97.1281C134.681 97.1827 134.681 97.2372 134.681 97.2899C129.954 95.8489 125.286 94.1758 120.675 92.2707C112.048 88.6994 103.748 84.3819 95.8712 79.3673C93.3785 77.7814 91.0909 76.2275 89.0178 74.7451L89.1721 74.6717C91.2283 76.1409 93.4989 77.6817 95.9634 79.2506C108.014 86.9113 121.035 92.9239 134.681 97.1281V97.1281Z" fill="#F2F2F2"/>
</g>
<g opacity="0.2">
<path opacity="0.2" d="M133.812 101.97C133.799 102.021 133.782 102.07 133.767 102.119C128.097 100.501 122.525 98.5601 117.077 96.3061C108.45 92.7359 100.151 88.419 92.2761 83.4045C89.1796 81.4348 86.401 79.5122 83.9535 77.7194L84.0795 77.6272C86.5252 79.4125 89.2868 81.3257 92.3683 83.2879C105.221 91.4609 119.177 97.7523 133.812 101.97V101.97Z" fill="#F2F2F2"/>
</g>
<g opacity="0.2">
<path opacity="0.2" d="M131.837 106.461L131.756 106.597C125.542 104.896 119.44 102.807 113.487 100.343C104.86 96.772 96.5614 92.4551 88.6848 87.4417C85.3663 85.3291 82.409 83.2691 79.843 81.3672C79.8731 81.3314 79.9069 81.2938 79.9427 81.2581C82.5124 83.1581 85.4679 85.2087 88.7845 87.3251C98.6366 93.599 113.393 101.404 131.837 106.461Z" fill="#F2F2F2"/>
</g>
<g opacity="0.2">
<path opacity="0.2" d="M128.748 110.634L128.631 110.758C122.256 109.036 115.999 106.906 109.898 104.38C101.271 100.81 92.9718 96.4927 85.0954 91.4789C81.95 89.4735 79.1281 87.5188 76.6467 85.6978C76.6712 85.6545 76.6956 85.6113 76.722 85.568C79.2033 87.3909 82.0327 89.3512 85.1876 91.3603C95.1356 97.6945 110.071 105.583 128.748 110.634Z" fill="#F2F2F2"/>
</g>
<g opacity="0.2">
<path opacity="0.2" d="M124.393 114.46C124.34 114.5 124.286 114.539 124.233 114.575C118.138 112.891 112.152 110.835 106.308 108.418C97.6811 104.847 89.3822 100.53 81.506 95.516C78.9663 93.8981 76.6354 92.3178 74.5303 90.8034C74.5435 90.7526 74.5567 90.7019 74.5717 90.6511C76.6919 92.1692 79.0378 93.7683 81.6001 95.3993C91.4108 101.645 106.073 109.401 124.393 114.46Z" fill="#F2F2F2"/>
</g>
<g opacity="0.2">
<path opacity="0.2" d="M118.375 117.807L118.149 117.901C112.914 116.359 107.765 114.541 102.723 112.455C97.8314 110.432 93.0135 108.15 88.3142 105.635C84.7775 103.739 81.3128 101.712 77.9203 99.5531C76.5019 98.6501 75.1511 97.7596 73.8681 96.8817C73.8681 96.8196 73.8681 96.7594 73.8681 96.6936C75.1825 97.5903 76.5677 98.5034 78.0238 99.4327C81.1147 101.402 84.689 103.521 88.7074 105.66C98.1614 110.699 108.101 114.769 118.375 117.807V117.807Z" fill="#F2F2F2"/>
</g>
<g opacity="0.2">
<path opacity="0.2" d="M109.604 120.22L109.245 120.269C105.837 119.129 102.464 117.87 99.1239 116.49C91.897 113.498 84.8994 109.98 78.1875 105.964C77.3497 105.463 76.5157 104.955 75.6854 104.441L75.5763 104.198C76.4906 104.767 77.4425 105.347 78.4321 105.938C88.2819 111.8 98.7325 116.588 109.604 120.22V120.22Z" fill="#F2F2F2"/>
</g>
<path opacity="0.1" d="M119.121 117.48C118.875 117.591 118.627 117.7 118.369 117.807L118.143 117.901C115.405 119.028 112.536 119.808 109.604 120.221L109.245 120.269C107.597 120.487 105.937 120.596 104.275 120.595C91.9563 120.595 81.3461 114.684 76.5583 106.179C77.0964 106.096 77.6363 106.026 78.1781 105.964L78.4226 105.938C79.8787 105.784 81.3461 105.697 82.8097 105.635C84.6408 105.539 86.4756 105.539 88.3067 105.635C88.4346 105.635 88.5625 105.65 88.6829 105.662C89.9306 105.75 91.17 105.931 92.3909 106.203C96.1063 107.046 99.5114 108.877 102.886 110.643C108.099 113.363 113.429 116.016 119.121 117.48Z" fill="black"/>
<path opacity="0.1" d="M131.865 85.6168C127.015 77.2396 116.486 71.4322 104.278 71.4322C104.036 71.4322 103.793 71.4322 103.552 71.4322H103.285C100.633 71.4963 97.9951 71.8463 95.4178 72.4763L95.2297 72.5233C93.1492 73.0449 91.1219 73.7591 89.1739 74.6567L89.0197 74.73C87.291 75.5383 85.6399 76.503 84.087 77.6121L83.961 77.7043C82.5155 78.7463 81.1754 79.927 79.9596 81.2297C79.8016 82.8344 79.5307 84.4053 78.8309 85.852C78.338 86.8678 77.8281 87.8461 78.5261 88.862C78.9945 89.5448 80.0085 90.4102 80.872 90.4441C83.2443 90.54 84.563 87.3682 85.6805 85.788C87.3924 83.3687 89.9302 81.6888 92.4097 80.0653C93.4688 79.3711 94.5393 78.6713 95.7338 78.2555C96.7412 77.9295 97.7891 77.7452 98.8473 77.7081C101.731 77.5463 104.679 77.9846 107.313 79.1792C110.323 80.5431 112.994 82.8946 116.279 83.2201C117.767 83.3668 119.289 83.079 120.747 83.4195C123.337 84.0272 125.134 86.4709 127.655 87.325C129.286 87.8781 131.041 87.7012 132.7 87.1594C132.486 86.7079 132.256 86.2633 132.01 85.8256C131.95 85.7673 131.908 85.6977 131.865 85.6168Z" fill="black"/>
<path d="M58.0845 95.0438C57.1928 95.9844 56.1919 96.8103 55.272 97.7227C51.8651 101.109 49.681 105.509 46.6183 109.198C45.7924 110.193 44.8951 111.149 44.2799 112.285C43.6647 113.422 43.3562 114.804 43.7964 116.02C44.1727 117.062 45.0399 117.843 45.8827 118.563C46.4026 119.04 46.9735 119.459 47.5852 119.81C48.9999 120.563 50.6742 120.604 52.2771 120.629C53.1613 120.642 54.2392 120.542 54.6173 119.743C53.1846 119.06 51.8649 118.161 50.7043 117.079C50.0403 116.458 49.4138 115.747 49.1448 114.88C48.6858 113.401 49.3649 111.791 50.3262 110.577C51.2875 109.364 52.5273 108.391 53.466 107.161C54.4048 105.931 55.0105 104.518 56.1411 103.513C56.9237 102.819 57.8963 102.384 58.7749 101.807C60.0579 100.962 61.117 99.8259 62.1611 98.7009L67.7108 92.7317C67.8447 92.6175 67.9367 92.4619 67.9723 92.2896C67.9949 92.0658 67.8293 91.8701 67.6713 91.7083C66.4635 90.4686 64.1872 88.292 62.528 89.9249C60.9289 91.4976 59.6327 93.4108 58.0845 95.0438Z" fill="#A0616A"/>
<path opacity="0.1" d="M58.0845 95.0438C57.1928 95.9844 56.1919 96.8103 55.272 97.7227C51.8651 101.109 49.681 105.509 46.6183 109.198C45.7924 110.193 44.8951 111.149 44.2799 112.285C43.6647 113.422 43.3562 114.804 43.7964 116.02C44.1727 117.062 45.0399 117.843 45.8827 118.563C46.4026 119.04 46.9735 119.459 47.5852 119.81C48.9999 120.563 50.6742 120.604 52.2771 120.629C53.1613 120.642 54.2392 120.542 54.6173 119.743C53.1846 119.06 51.8649 118.161 50.7043 117.079C50.0403 116.458 49.4138 115.747 49.1448 114.88C48.6858 113.401 49.3649 111.791 50.3262 110.577C51.2875 109.364 52.5273 108.391 53.466 107.161C54.4048 105.931 55.0105 104.518 56.1411 103.513C56.9237 102.819 57.8963 102.384 58.7749 101.807C60.0579 100.962 61.117 99.8259 62.1611 98.7009L67.7108 92.7317C67.8447 92.6175 67.9367 92.4619 67.9723 92.2896C67.9949 92.0658 67.8293 91.8701 67.6713 91.7083C66.4635 90.4686 64.1872 88.292 62.528 89.9249C60.9289 91.4976 59.6327 93.4108 58.0845 95.0438Z" fill="black"/>
<path d="M66.0158 84.1928C67.1351 83.9557 68.341 84.5521 69.4227 84.1815C70.036 83.9708 70.5045 83.4816 70.9466 83.0076L72.7525 81.083C73.2624 80.5394 73.7816 79.9844 74.0958 79.3072C74.3742 78.7089 74.472 78.0486 74.6075 77.4015C74.9386 75.746 75.5048 74.0491 76.7483 72.909C78.2985 71.4831 80.6876 71.2159 82.678 71.8969C84.6684 72.578 86.2881 74.098 87.4789 75.8363C86.4142 77.1155 85.2214 78.2969 84.1585 79.5762C83.8188 80.0241 83.4194 80.4235 82.9715 80.7632C82.4758 81.0656 81.9427 81.3015 81.3856 81.4649C79.4724 82.1422 77.435 83.1223 76.6467 84.9942C76.3721 85.6451 76.2705 86.3543 76.12 87.0447C75.8303 88.3503 75.3016 89.6427 74.346 90.5777C73.3903 91.5127 71.9474 92.0244 70.6738 91.6199C69.2647 91.1722 68.4012 89.7913 67.6751 88.5046C66.903 87.1614 66.3433 85.707 66.0158 84.1928V84.1928Z" fill="#A0616A"/>
<path opacity="0.1" d="M66.0158 84.1928C67.1351 83.9557 68.341 84.5521 69.4227 84.1815C70.036 83.9708 70.5045 83.4816 70.9466 83.0076L72.7525 81.083C73.2624 80.5394 73.7816 79.9844 74.0958 79.3072C74.3742 78.7089 74.472 78.0486 74.6075 77.4015C74.9386 75.746 75.5048 74.0491 76.7483 72.909C78.2985 71.4831 80.6876 71.2159 82.678 71.8969C84.6684 72.578 86.2881 74.098 87.4789 75.8363C86.4142 77.1155 85.2214 78.2969 84.1585 79.5762C83.8188 80.0241 83.4194 80.4235 82.9715 80.7632C82.4758 81.0656 81.9427 81.3015 81.3856 81.4649C79.4724 82.1422 77.435 83.1223 76.6467 84.9942C76.3721 85.6451 76.2705 86.3543 76.12 87.0447C75.8303 88.3503 75.3016 89.6427 74.346 90.5777C73.3903 91.5127 71.9474 92.0244 70.6738 91.6199C69.2647 91.1722 68.4012 89.7913 67.6751 88.5046C66.903 87.1614 66.3433 85.707 66.0158 84.1928V84.1928Z" fill="black"/>
<path d="M115.024 76.7204C122.094 79.2507 129.122 82.2475 134.965 86.9732C137.64 89.1385 140.024 91.6368 142.567 93.9564C143.899 95.1716 145.275 96.3361 146.65 97.5025L156.412 105.78C157.619 106.805 158.833 107.832 160.174 108.69C163.329 110.718 167.091 111.749 170.18 113.93C170.175 115.055 170.359 116.174 170.726 117.239C170.866 117.631 171.13 117.966 171.479 118.193C171.828 118.42 172.241 118.527 172.656 118.497C177.521 118.217 182.454 120.578 187.354 119.983C187.496 119.968 187.632 119.92 187.751 119.843C187.871 119.767 187.971 119.663 188.045 119.541C188.374 118.966 187.811 118.428 187.318 118.083L180.665 113.425C179.568 112.658 178.471 111.89 177.354 111.155C173.313 108.498 168.997 106.243 165.251 103.193C164.452 102.542 163.683 101.858 162.911 101.171C158.833 97.5477 154.752 93.9206 150.886 90.0716C145.267 84.4749 139.953 78.231 134.382 72.5854C133.853 72.0223 133.282 71.4997 132.674 71.0221C132.08 70.5987 131.457 70.2172 130.81 69.8802L123.738 65.9954C122.668 65.4066 121.481 64.799 120.286 65.0303C119.99 64.9575 119.681 64.9588 119.385 65.0343C119.09 65.1098 118.818 65.2571 118.593 65.463C118.138 65.8826 117.84 66.4375 117.539 66.9812C117.146 67.6395 116.837 68.3441 116.618 69.0788C116.365 70.0777 116.448 71.1482 116.157 72.1302C115.969 72.7792 115.619 73.3718 115.382 74.0114C115.071 74.8786 114.949 75.8022 115.024 76.7204V76.7204Z" fill="#A0616A"/>
<path opacity="0.1" d="M115.024 76.7204C122.094 79.2507 129.122 82.2475 134.965 86.9732C137.64 89.1385 140.024 91.6368 142.567 93.9564C143.899 95.1716 145.275 96.3361 146.65 97.5025L156.412 105.78C157.619 106.805 158.833 107.832 160.174 108.69C163.329 110.718 167.091 111.749 170.18 113.93C170.175 115.055 170.359 116.174 170.726 117.239C170.866 117.631 171.13 117.966 171.479 118.193C171.828 118.42 172.241 118.527 172.656 118.497C177.521 118.217 182.454 120.578 187.354 119.983C187.496 119.968 187.632 119.92 187.751 119.843C187.871 119.767 187.971 119.663 188.045 119.541C188.374 118.966 187.811 118.428 187.318 118.083L180.665 113.425C179.568 112.658 178.471 111.89 177.354 111.155C173.313 108.498 168.997 106.243 165.251 103.193C164.452 102.542 163.683 101.858 162.911 101.171C158.833 97.5477 154.752 93.9206 150.886 90.0716C145.267 84.4749 139.953 78.231 134.382 72.5854C133.853 72.0223 133.282 71.4997 132.674 71.0221C132.08 70.5987 131.457 70.2172 130.81 69.8802L123.738 65.9954C122.668 65.4066 121.481 64.799 120.286 65.0303C119.99 64.9575 119.681 64.9588 119.385 65.0343C119.09 65.1098 118.818 65.2571 118.593 65.463C118.138 65.8826 117.84 66.4375 117.539 66.9812C117.146 67.6395 116.837 68.3441 116.618 69.0788C116.365 70.0777 116.448 71.1482 116.157 72.1302C115.969 72.7792 115.619 73.3718 115.382 74.0114C115.071 74.8786 114.949 75.8022 115.024 76.7204V76.7204Z" fill="black"/>
<path d="M67.0561 98.8232C71.4521 98.8232 75.0157 95.2596 75.0157 90.8637C75.0157 86.4677 71.4521 82.9041 67.0561 82.9041C62.6602 82.9041 59.0966 86.4677 59.0966 90.8637C59.0966 95.2596 62.6602 98.8232 67.0561 98.8232Z" fill="#A0616A"/>
<path d="M115.494 62.122C116.606 62.1408 117.869 62.2273 118.568 63.0908C119.268 63.9543 119.11 65.1376 118.933 66.2024C118.38 69.5679 117.805 72.9937 116.266 76.0376C116.158 76.3122 115.966 76.5459 115.718 76.7054C115.276 76.933 114.751 76.6659 114.328 76.4044C111.245 74.4893 108.161 72.4274 104.647 71.5132C104.435 71.4859 104.241 71.3822 104.1 71.2216C104.052 71.1206 104.024 71.0111 104.018 70.8993C104.013 70.7876 104.03 70.6759 104.068 70.5707C104.418 69.0111 104.86 67.4704 105.134 65.8939C105.3 64.9533 104.993 62.6958 105.827 62.1126C106.709 61.4918 109.251 62.0166 110.295 62.0336L115.494 62.122Z" fill="#A0616A"/>
<path d="M119.238 77.6573C126.308 80.1875 133.336 83.1844 139.17 87.9082C141.845 90.0754 144.229 92.5737 146.772 94.8932C148.104 96.1085 149.479 97.273 150.854 98.4375L160.616 106.715C161.824 107.738 163.037 108.767 164.379 109.623C167.547 111.659 171.309 112.686 174.387 114.857C174.381 115.984 174.566 117.103 174.932 118.168C175.073 118.56 175.337 118.895 175.686 119.122C176.034 119.349 176.448 119.456 176.863 119.427C181.727 119.144 186.66 121.507 191.561 120.913C191.702 120.897 191.838 120.849 191.958 120.772C192.078 120.695 192.178 120.591 192.251 120.469C192.58 119.904 192.018 119.355 191.525 119.011L184.871 114.355C183.774 113.587 182.677 112.82 181.56 112.084C177.527 109.428 173.211 107.172 169.465 104.125C168.666 103.474 167.897 102.787 167.125 102.102C163.047 98.4789 158.966 94.8518 155.098 91.0028C149.481 85.4061 144.166 79.1623 138.596 73.5072C138.064 72.9516 137.491 72.436 136.882 71.9646C136.288 71.5425 135.665 71.1616 135.018 70.8246L127.946 66.9398C126.876 66.351 125.689 65.7433 124.494 65.9747C124.198 65.9011 123.889 65.9019 123.594 65.9771C123.298 66.0523 123.026 66.1995 122.801 66.4055C122.346 66.8251 122.049 67.3819 121.748 67.9256C121.355 68.5834 121.045 69.2873 120.826 70.0213C120.574 71.0202 120.657 72.0907 120.365 73.0745C120.177 73.7236 119.827 74.3162 119.59 74.9558C119.282 75.821 119.162 76.742 119.238 77.6573V77.6573Z" fill="#A0616A"/>
<path d="M121.584 78.2405L121.808 74.984C121.872 74.0735 121.936 73.1517 122.216 72.2845C122.534 71.3006 123.114 70.4258 123.702 69.5755C124.017 69.0796 124.396 68.6284 124.831 68.2341C125.473 67.6942 126.302 67.4007 126.9 66.8157C127.072 66.6482 127.232 66.4018 127.13 66.1855C127.083 66.1047 127.019 66.0353 126.942 65.9823C125.467 64.7726 123.699 63.9863 121.953 63.2131L118.653 61.7532C117.265 63.6345 115.852 65.574 115.137 67.8052C115.029 68.2016 114.894 68.59 114.733 68.9678C114.309 69.8501 113.506 70.4935 112.996 71.3288C112.516 72.1151 112.317 73.0351 112.127 73.9362C112.014 74.4648 111.905 75.0292 112.095 75.5352C112.306 76.0996 112.848 76.4646 113.34 76.7938C115.525 78.2254 117.831 79.7022 120.436 79.9054C120.914 79.9411 121.55 80.18 121.703 79.7173C121.81 79.4069 121.56 78.6205 121.584 78.2405Z" fill="#3F3D56"/>
<path d="M56.382 87.3909C55.558 88.4952 56.1111 90.1036 56.9651 91.1854C57.8192 92.2671 58.9611 93.1738 59.439 94.4662C60.5847 97.5571 57.3884 100.674 57.4975 103.963C57.5954 106.894 60.1858 109.018 62.3888 110.965C67.0693 115.104 71.0688 120.871 70.5421 127.102C72.6713 126.478 74.5108 125.121 75.7343 123.27C76.4489 124.838 76.7507 126.562 76.611 128.28C81.5173 124.922 84.3109 118.714 83.5716 112.816C83.2198 110.024 82.1437 107.302 82.3112 104.495C82.4015 102.973 82.8548 101.5 83.1822 100.01C83.5992 98.0894 83.8073 96.129 83.803 94.1634C83.803 91.9209 83.3872 89.4302 81.6189 88.0512C80.1139 86.8792 78.0445 86.8397 76.1369 86.8491C74.1221 86.8623 72.1073 86.8717 70.0962 86.9977C68.0438 87.1256 65.9274 87.8029 63.9069 87.8537C61.657 87.9101 58.4871 84.569 56.382 87.3909Z" fill="#3F3D56"/>
<path d="M86.4649 72.6664C85.1345 73.1054 83.9367 73.8735 82.9827 74.8994C82.3826 75.5503 81.886 76.2934 81.2633 76.9236C80.5221 77.6761 79.6172 78.2405 78.7499 78.8425C77.0926 79.9901 75.5405 81.2787 73.9904 82.5655L66.3525 88.9053C65.1579 89.8967 63.9634 90.89 62.8365 91.9585C61.4462 93.2754 60.1632 94.7127 58.6789 95.9261C57.8098 96.6372 56.8748 97.2712 56.0772 98.0632C55.3247 98.8157 54.7152 99.6829 54.0981 100.543C51.5844 104.032 48.884 107.383 46.0088 110.581C44.7878 111.941 43.5255 113.281 42.0412 114.343C38.9635 116.561 36.627 119.882 33.9218 122.544C33.6922 122.77 33.4402 123.091 33.5813 123.383C33.6653 123.523 33.8001 123.624 33.9575 123.667C35.9366 124.404 37.641 121.193 39.7028 121.648C40.6434 121.855 41.221 122.745 41.8945 123.424C42.568 124.103 43.723 124.604 44.4266 123.955C44.1856 122.066 44.431 120.146 45.1396 118.379C46.2928 115.517 48.5804 113.262 51.0223 111.373C53.4641 109.484 56.1223 107.874 58.4156 105.806C62.2627 102.339 65.0733 97.6098 69.6372 95.1623C71.4244 94.2029 73.3997 93.6423 75.1812 92.6602C78.6295 90.7527 81.0413 87.3928 82.9263 83.9369C83.1483 83.463 83.4484 83.0299 83.8142 82.6558C84.2077 82.346 84.6452 82.0969 85.1123 81.9165C87.5362 80.7977 89.7112 79.2043 91.5085 77.2303C90.9442 76.8258 90.4155 76.3931 89.853 75.9868C89.3952 75.6837 88.9763 75.3254 88.6058 74.9201C88.2295 74.4761 87.985 73.9437 87.6652 73.4584C87.3453 72.973 87.0105 72.8413 86.4649 72.6664Z" fill="#A0616A"/>
<path d="M107.018 73.2476C106.521 72.8488 106.504 72.1189 106.528 71.4736C106.61 69.4946 106.69 67.5161 106.769 65.5383C106.824 64.1443 106.957 62.5829 108.009 61.6686C104.968 61.0578 101.901 60.5894 98.8097 60.2633C97.5831 60.1335 96.3396 60.0263 95.1168 60.205C93.6438 60.4194 92.263 61.0365 90.9047 61.6479C89.3997 62.3251 87.8853 63.008 86.5364 63.9581C86.0171 64.3593 85.4758 64.7311 84.9148 65.0718C83.8914 65.6361 82.7156 65.8243 81.6132 66.2005C79.0659 67.0673 76.9361 68.8575 75.644 71.2177C74.3519 73.5779 73.9915 76.3367 74.6338 78.9497C75.0101 77.9771 75.2734 76.9593 75.7136 76.0131C76.1539 75.0668 76.8029 74.1732 77.7266 73.6897C78.6898 73.1893 79.8524 73.1931 80.9002 73.4809C81.9481 73.7688 82.8906 74.3237 83.8312 74.8843C85.9269 76.1542 88.0678 77.6366 89.063 79.8734C91.1323 78.3345 93.2487 76.8634 95.3219 75.317C96.2211 74.6492 97.1335 73.9757 98.1757 73.5712C99.5453 73.0388 101.048 73.0069 102.518 72.9786C103.987 72.9504 105.58 72.8676 107.018 73.2476Z" fill="#FF6584"/>
<path d="M74.6263 78.7691L74.3761 82.24L75.2791 81.495L74.8276 78.4248L74.6263 78.7691Z" fill="#FF6584"/>
<path d="M40.7187 34.1968L37.799 36.0479L39.5712 32.8347C39.0689 32.4339 38.4472 32.2121 37.8047 32.2045H37.7576C37.5548 32.2075 37.352 32.1924 37.1519 32.1594L36.1623 32.7877L36.5875 32.0164C35.886 31.7713 35.2801 31.3103 34.8567 30.6995L33.0846 31.8283L34.204 29.7947C33.1674 28.5512 31.7715 27.7892 30.2364 27.7892C28.3947 27.7892 26.7542 28.8841 25.6951 30.5904C25.3814 31.1024 24.9375 31.5221 24.4087 31.8066C23.88 32.0912 23.2852 32.2304 22.6851 32.2102H22.5854C20.5518 32.2102 18.9038 34.5147 18.9038 37.3591C18.9038 40.2036 20.5518 42.5081 22.5854 42.5081C23.0327 42.506 23.473 42.3956 23.8684 42.1864C24.5603 41.8501 25.3171 41.6681 26.0863 41.6532C26.8555 41.6382 27.6187 41.7907 28.3232 42.0999C28.9192 42.3665 29.5647 42.5043 30.2176 42.5043C30.8705 42.5043 31.516 42.3665 32.112 42.0999C32.8114 41.7967 33.5679 41.6475 34.33 41.6624C35.0922 41.6773 35.8422 41.856 36.5292 42.1864C36.9205 42.3912 37.3554 42.499 37.7971 42.5006C39.8308 42.5006 41.4787 40.1942 41.4787 37.3516C41.4949 36.2528 41.2335 35.1677 40.7187 34.1968Z" fill="#F2F2F2"/>
<path opacity="0.03" d="M35.2161 41.7311C34.1538 41.5289 33.0554 41.6481 32.0612 42.0735C31.4644 42.3381 30.8186 42.474 30.1658 42.4724C29.513 42.4707 28.8679 42.3316 28.2724 42.0641C27.5678 41.7552 26.8045 41.6031 26.0353 41.6184C25.2661 41.6336 24.5094 41.8159 23.8176 42.1525C23.422 42.361 22.9818 42.4707 22.5346 42.4724C20.7286 42.4724 19.2255 40.6532 18.9132 38.2527C19.2741 37.9898 19.5807 37.6595 19.8162 37.2801C20.8735 35.5738 22.5158 34.4771 24.3575 34.4771C26.1993 34.4771 27.819 35.5588 28.8725 37.2481C29.1892 37.7593 29.6329 38.1798 30.1604 38.4686C30.6879 38.7574 31.2812 38.9047 31.8825 38.8961H31.9295C33.3649 38.8961 34.6103 40.0493 35.2161 41.7311Z" fill="black"/>
<path d="M92.8236 45.0873L91.3675 46.0035L92.2517 44.3969C92.0016 44.1966 91.6916 44.086 91.3713 44.0827H91.3562C91.2554 44.0838 91.1547 44.0762 91.0552 44.0602L90.5604 44.3724L90.773 43.9962C90.423 43.8742 90.1206 43.6444 89.9095 43.3396L89.0253 43.904L89.5897 42.89C89.3534 42.5839 89.0513 42.3348 88.7059 42.1609C88.3604 41.987 87.9804 41.8929 87.5937 41.8854C86.6757 41.8854 85.8573 42.431 85.3362 43.2832C85.1794 43.539 84.9574 43.7486 84.6929 43.8904C84.4285 44.0322 84.1311 44.1012 83.8312 44.0903H83.7823C82.7683 44.0903 81.9462 45.2397 81.9462 46.6582C81.9462 48.0766 82.7683 49.2261 83.7823 49.2261C84.0053 49.2251 84.2247 49.1703 84.4219 49.0662C84.7667 48.8975 85.1442 48.8062 85.528 48.7987C85.9118 48.7913 86.2926 48.8678 86.6437 49.0229C86.9397 49.1552 87.2601 49.2244 87.5843 49.2261C87.9084 49.2263 88.2288 49.1584 88.5249 49.0267C88.8737 48.8753 89.251 48.8009 89.6311 48.8084C90.0112 48.8158 90.3853 48.905 90.7279 49.0699C90.9236 49.172 91.1411 49.2255 91.3619 49.2261C92.3758 49.2261 93.1979 48.0766 93.1979 46.6582C93.207 46.1114 93.0783 45.5712 92.8236 45.0873V45.0873Z" fill="#F2F2F2"/>
<path opacity="0.03" d="M90.0789 48.846C89.5493 48.7453 89.0017 48.805 88.5061 49.0172C88.2096 49.1476 87.8894 49.2155 87.5655 49.2166C87.238 49.217 86.9142 49.1477 86.6155 49.0135C86.264 48.8596 85.8832 48.784 85.4996 48.7918C85.116 48.7996 84.7387 48.8906 84.3937 49.0586C84.1966 49.1629 83.9771 49.2178 83.7541 49.2185C82.853 49.2185 82.1042 48.3099 81.9481 47.1134C82.1277 46.982 82.2804 46.8172 82.3977 46.628C82.9263 45.7758 83.7447 45.2303 84.6552 45.2303C85.5657 45.2303 86.3822 45.7702 86.9127 46.6111C87.0711 46.8667 87.293 47.0769 87.5567 47.2212C87.8205 47.3656 88.1171 47.4393 88.4177 47.4351H88.4403C89.1552 47.4313 89.7779 48.007 90.0789 48.846Z" fill="black"/>
<path d="M99.8218 16.1556L102.16 17.6399L100.74 15.057C101.142 14.7365 101.64 14.5592 102.155 14.5528H102.192C102.355 14.5543 102.517 14.5423 102.678 14.517L103.471 15.0193L103.125 14.3985C103.687 14.2028 104.172 13.8348 104.512 13.3469L105.932 14.2461L105.035 12.617C105.864 11.6199 106.984 11.0104 108.214 11.0104C109.691 11.0104 111.004 11.8871 111.852 13.2547C112.103 13.664 112.458 13.9995 112.881 14.2272C113.303 14.4549 113.779 14.5665 114.258 14.5509H114.337C115.967 14.5509 117.287 16.3964 117.287 18.6765C117.287 20.9566 115.97 22.8002 114.337 22.8002C113.979 22.799 113.627 22.7112 113.31 22.5443C112.755 22.2738 112.148 22.1274 111.531 22.1154C110.914 22.1034 110.301 22.226 109.736 22.4747C109.256 22.6886 108.736 22.7995 108.21 22.8002C107.692 22.7999 107.179 22.6909 106.705 22.4804C106.145 22.2377 105.539 22.1184 104.928 22.1304C104.318 22.1424 103.717 22.2855 103.167 22.55C102.852 22.7131 102.503 22.7988 102.149 22.8002C100.52 22.8002 99.1991 20.9547 99.1991 18.6765C99.1922 17.7973 99.4063 16.9305 99.8218 16.1556V16.1556Z" fill="#F2F2F2"/>
<path opacity="0.03" d="M104.224 22.1925C105.075 22.0304 105.956 22.126 106.752 22.4672C107.23 22.6805 107.747 22.7907 108.27 22.7907C108.792 22.7907 109.309 22.6805 109.787 22.4672C110.352 22.2194 110.964 22.0974 111.582 22.1094C112.199 22.1214 112.806 22.2672 113.361 22.5368C113.677 22.7051 114.03 22.7936 114.388 22.7945C115.835 22.7945 117.039 21.3366 117.291 19.4083C117.001 19.1975 116.755 18.9323 116.567 18.6276C115.718 17.2618 114.403 16.3832 112.928 16.3832C111.454 16.3832 110.154 17.2505 109.305 18.6031C109.052 19.011 108.697 19.3465 108.276 19.5772C107.855 19.8079 107.381 19.926 106.901 19.92H106.863C105.708 19.9219 104.713 20.8456 104.224 22.1925Z" fill="black"/>
<path d="M61.0192 58.3087C60.9214 58.1601 60.4417 58.3087 59.9488 58.6304C59.8623 58.6887 59.7795 58.7489 59.7042 58.8091C59.3612 58.631 58.9914 58.5103 58.6093 58.4517L58.63 58.4366C59.1275 58.1106 59.5885 57.7322 60.0052 57.3079H58.9461L60.4831 56.7171C60.6712 56.418 60.7314 56.1678 60.6279 56.0117C60.3495 55.594 59.0063 55.9966 57.6179 56.9147C56.9923 57.3135 56.4299 57.8037 55.9493 58.3689C54.8205 58.5006 54.0285 58.8317 54.0285 59.2173C54.0285 59.4845 54.4048 59.7253 55.0162 59.8927L54.9804 59.9153C53.5996 60.8314 52.7041 61.915 52.9825 62.3327C53.2271 62.7089 54.2994 62.4305 55.4997 61.7325L54.7039 61.3563L55.9587 61.4428L55.985 61.4259C56.1186 61.3375 56.2465 61.2472 56.3707 61.1569L55.43 60.7204L56.809 60.8145C57.07 60.5984 57.3141 60.3626 57.5389 60.109C58.8238 60.0413 59.8284 59.7328 60.0034 59.334C60.1102 59.2854 60.2144 59.2314 60.3156 59.1722C60.4925 59.0572 60.6565 58.9235 60.8048 58.7733H60.4285L60.976 58.5626C61.0362 58.4535 61.0568 58.3651 61.0192 58.3087Z" fill="#F2F2F2"/>
<path d="M24.4742 115.453C24.4786 116.097 24.4155 116.74 24.286 117.37C24.2597 117.489 24.2334 117.606 24.207 117.718C23.5053 120.531 21.5262 122.589 19.1653 122.721C19.0863 122.721 19.0073 122.721 18.9245 122.721C16.4281 122.721 14.3173 120.567 13.6194 117.6C13.6006 117.521 13.5836 117.442 13.5648 117.363C13.4322 116.733 13.366 116.09 13.3673 115.446C13.3673 111.428 15.8562 108.171 18.9245 108.171C21.9928 108.171 24.4742 111.435 24.4742 115.453Z" fill="#3F3D56"/>
<path opacity="0.1" d="M24.4742 115.453C24.4786 116.097 24.4155 116.74 24.286 117.37C24.2597 117.489 24.2334 117.606 24.207 117.718C24.1224 117.718 24.0415 117.718 23.9568 117.709C23.3453 117.675 22.7375 117.591 22.1395 117.459C21.6091 117.625 21.0671 117.75 20.5179 117.835C20.0972 117.899 19.6732 117.938 19.2481 117.954C19.1051 117.954 18.9621 117.954 18.8191 117.954C18.3101 117.954 17.8016 117.92 17.2972 117.852C16.4819 117.744 15.6812 117.545 14.9099 117.259C14.4868 117.4 14.0559 117.515 13.6194 117.606C13.6006 117.527 13.5836 117.448 13.5648 117.369C13.4322 116.738 13.366 116.096 13.3673 115.452C13.3673 111.433 15.8562 108.177 18.9245 108.177C21.9928 108.177 24.4742 111.435 24.4742 115.453Z" fill="black"/>
<path d="M36.3298 101.901C36.3306 100.136 35.9162 98.3963 35.1201 96.8215L28.5828 98.8551L34.3206 95.4801C33.3588 94.0895 32.0969 92.9327 30.628 92.0953C29.1591 91.2578 27.5209 90.761 25.8343 90.6416C25.5649 90.229 25.2689 89.8343 24.9482 89.4602L15.5533 92.3817L23.2551 87.863C21.7834 86.7325 20.0556 85.9824 18.2247 85.679C16.3939 85.3756 14.5165 85.5283 12.7587 86.1235C11.001 86.7188 9.41712 87.7383 8.14739 89.0918C6.87765 90.4452 5.96122 92.0908 5.47922 93.883L13.5215 103.139L4.78881 96.8328C2.57057 98.3962 0.98928 100.706 0.334137 103.339C-0.321005 105.973 -0.00620856 108.754 1.22095 111.175C2.44811 113.595 4.50562 115.493 7.01716 116.521C9.5287 117.55 12.3264 117.639 14.8986 116.774C17.2223 117.625 19.7608 117.693 22.1264 116.966C23.7767 117.329 25.4874 117.317 27.1326 116.931C28.7778 116.546 30.3156 115.796 31.6331 114.738C32.9505 113.68 34.0141 112.34 34.7454 110.817C35.4768 109.294 35.8575 107.626 35.8595 105.936C35.8595 105.684 35.85 105.436 35.8331 105.184C36.1598 104.12 36.3271 103.014 36.3298 101.901V101.901Z" fill="#57B894"/>
<path opacity="0.1" d="M36.1341 103.997C32.6826 103.343 29.1434 103.298 25.6763 103.863C21.752 104.514 17.7412 105.942 13.9034 104.898C11.6459 104.284 9.70073 102.868 7.5072 102.076C5.38223 101.336 3.09337 101.202 0.896507 101.688C0.0585416 103.691 -0.184993 105.892 0.195022 108.029C0.575036 110.166 1.56252 112.149 3.0394 113.74C4.51629 115.33 6.42008 116.462 8.52315 117C10.6262 117.537 12.8396 117.457 14.8986 116.77C17.2219 117.623 19.7603 117.691 22.1264 116.966C23.7767 117.329 25.4874 117.317 27.1326 116.931C28.7778 116.546 30.3156 115.796 31.6331 114.738C32.9505 113.68 34.014 112.34 34.7454 110.817C35.4768 109.294 35.8575 107.626 35.8594 105.936C35.8594 105.684 35.85 105.436 35.8331 105.184C35.9558 104.794 36.0563 104.398 36.1341 103.997Z" fill="black"/>
</svg>
