<svg width="385" height="394" viewBox="0 0 385 394" fill="none" xmlns="http://www.w3.org/2000/svg">
<g opacity="0.54">
<g clip-path="url(#clip0)">
<path d="M429.579 396.428C429.579 410.632 333.415 443 214.79 443C96.1646 443 0 410.632 0 396.428C0 382.223 96.1646 391.562 214.79 391.562C333.415 391.562 429.579 382.223 429.579 396.428Z" fill="#3F3D56"/>
<path opacity="0.1" d="M429.579 396.428C429.579 410.632 333.415 443 214.79 443C96.1646 443 0 410.632 0 396.428C0 382.223 96.1646 391.562 214.79 391.562C333.415 391.562 429.579 382.223 429.579 396.428Z" fill="black"/>
<path d="M61.1698 207.357C66.1605 207.357 70.2063 203.311 70.2063 198.321C70.2063 193.33 66.1605 189.284 61.1698 189.284C56.1791 189.284 52.1333 193.33 52.1333 198.321C52.1333 203.311 56.1791 207.357 61.1698 207.357Z" fill="#00211D"/>
<path d="M100.791 281.734C105.782 281.734 109.828 277.689 109.828 272.698C109.828 267.707 105.782 263.661 100.791 263.661C95.8007 263.661 91.7549 267.707 91.7549 272.698C91.7549 277.689 95.8007 281.734 100.791 281.734Z" fill="#001E1A"/>
<path d="M70.2064 262.966C75.1971 262.966 79.2429 258.92 79.2429 253.929C79.2429 248.939 75.1971 244.893 70.2064 244.893C65.2157 244.893 61.1699 248.939 61.1699 253.929C61.1699 258.92 65.2157 262.966 70.2064 262.966Z" fill="#001D19"/>
<path d="M73.0885 382.193C72.929 381.932 69.1676 375.652 67.8636 362.61C66.6675 350.645 67.4366 330.477 77.8959 302.345C97.7107 249.05 73.3295 206.049 73.0803 205.621L74.2832 204.923C74.3463 205.031 80.6376 215.995 84.3542 233.453C89.2649 256.599 87.4767 280.664 79.1992 302.83C59.4184 356.034 74.1243 381.22 74.275 381.468L73.0885 382.193Z" fill="#CFCCE0"/>
<path d="M65.3405 203.187C63.4158 203.187 61.5343 202.616 59.9339 201.546C58.3336 200.477 57.0862 198.957 56.3497 197.179C55.6131 195.401 55.4204 193.444 55.7959 191.556C56.1714 189.669 57.0982 187.935 58.4592 186.574C59.8202 185.213 61.5542 184.286 63.4419 183.91C65.3297 183.535 67.2864 183.728 69.0646 184.464C70.8428 185.201 72.3627 186.448 73.432 188.048C74.5013 189.649 75.0721 191.53 75.0721 193.455C75.0692 196.035 74.0429 198.509 72.2186 200.333C70.3942 202.157 67.9206 203.184 65.3405 203.187ZM65.3405 185.114C63.6907 185.114 62.078 185.603 60.7063 186.519C59.3345 187.436 58.2654 188.739 57.6341 190.263C57.0027 191.787 56.8375 193.464 57.1594 195.082C57.4813 196.7 58.2757 198.187 59.4423 199.353C60.6088 200.52 62.0951 201.314 63.7132 201.636C65.3312 201.958 67.0084 201.793 68.5326 201.161C70.0568 200.53 71.3595 199.461 72.2761 198.089C73.1926 196.717 73.6819 195.105 73.6819 193.455C73.6793 191.243 72.7997 189.123 71.2359 187.56C69.6722 185.996 67.552 185.116 65.3405 185.114Z" fill="#CFCCE0"/>
<path d="M93.8402 235.857C98.8309 235.857 102.877 231.811 102.877 226.82C102.877 221.83 98.8309 217.784 93.8402 217.784C88.8495 217.784 84.8037 221.83 84.8037 226.82C84.8037 231.811 88.8495 235.857 93.8402 235.857Z" fill="#CFCCE0"/>
<path d="M74.3771 258.795C72.4524 258.795 70.5708 258.225 68.9705 257.155C67.3701 256.086 66.1228 254.566 65.3863 252.788C64.6497 251.01 64.457 249.053 64.8325 247.165C65.208 245.278 66.1348 243.544 67.4958 242.183C68.8568 240.822 70.5908 239.895 72.4786 239.519C74.3663 239.144 76.323 239.336 78.1012 240.073C79.8795 240.81 81.3993 242.057 82.4686 243.657C83.538 245.258 84.1087 247.139 84.1087 249.064C84.1058 251.644 83.0796 254.118 81.2552 255.942C79.4308 257.766 76.9572 258.793 74.3771 258.795ZM74.3771 240.723C72.7273 240.723 71.1146 241.212 69.7429 242.128C68.3711 243.045 67.302 244.348 66.6707 245.872C66.0393 247.396 65.8741 249.073 66.196 250.691C66.5178 252.309 67.3123 253.796 68.4788 254.962C69.6454 256.129 71.1317 256.923 72.7498 257.245C74.3678 257.567 76.045 257.402 77.5692 256.77C79.0934 256.139 80.3961 255.07 81.3127 253.698C82.2292 252.326 82.7185 250.714 82.7185 249.064C82.716 246.852 81.8364 244.732 80.2726 243.168C78.7088 241.605 76.5886 240.725 74.3771 240.723V240.723Z" fill="#CFCCE0"/>
<path d="M98.0109 277.564C96.0862 277.564 94.2047 276.993 92.6043 275.924C91.004 274.854 89.7566 273.335 89.0201 271.556C88.2835 269.778 88.0908 267.821 88.4663 265.934C88.8418 264.046 89.7686 262.312 91.1296 260.951C92.4906 259.59 94.2246 258.663 96.1124 258.288C98.0001 257.912 99.9568 258.105 101.735 258.841C103.513 259.578 105.033 260.825 106.102 262.426C107.172 264.026 107.743 265.907 107.743 267.832C107.74 270.412 106.713 272.886 104.889 274.71C103.065 276.535 100.591 277.561 98.0109 277.564ZM98.0109 259.491C96.3611 259.491 94.7484 259.98 93.3767 260.897C92.005 261.813 90.9358 263.116 90.3045 264.64C89.6731 266.164 89.508 267.841 89.8298 269.46C90.1517 271.078 90.9461 272.564 92.1127 273.73C93.2792 274.897 94.7655 275.691 96.3836 276.013C98.0017 276.335 99.6788 276.17 101.203 275.539C102.727 274.907 104.03 273.838 104.947 272.466C105.863 271.095 106.352 269.482 106.352 267.832C106.35 265.621 105.47 263.5 103.906 261.937C102.343 260.373 100.222 259.493 98.0109 259.491Z" fill="#CFCCE0"/>
<path d="M67.4256 306.063C72.4163 306.063 76.462 302.017 76.462 297.026C76.462 292.036 72.4163 287.99 67.4256 287.99C62.4349 287.99 58.3892 292.036 58.3892 297.026C58.3892 302.017 62.4349 306.063 67.4256 306.063Z" fill="#CFCCE0"/>
<path d="M78.5479 382.525C78.5479 382.525 69.5114 360.282 96.6208 343.599L78.5479 382.525Z" fill="#CFCCE0"/>
<path d="M67.4344 382.122C67.4344 382.122 63.3218 358.468 31.4912 358.67L67.4344 382.122Z" fill="#CFCCE0"/>
<path d="M393.668 390.867H239.858C239.858 390.867 236.74 345.139 255.187 344.62C273.634 344.1 271.555 364.885 294.679 336.306C317.802 307.726 345.862 309.285 349.499 326.173C353.137 343.061 342.484 356.571 361.97 352.414C381.457 348.257 409.517 359.169 393.668 390.867Z" fill="#FF7E74"/>
<path d="M314.167 390.877L313.647 390.856C314.858 360.75 321.163 341.406 326.24 330.48C331.751 318.617 337.062 313.815 337.115 313.768L337.461 314.156C337.408 314.203 332.159 318.957 326.692 330.74C321.643 341.62 315.373 360.884 314.167 390.877Z" fill="#F2F2F2"/>
<path d="M369.835 390.939L369.336 390.794C375.343 370.177 389.487 357.16 389.63 357.031L389.979 357.415C389.838 357.544 375.799 370.469 369.835 390.939Z" fill="#F2F2F2"/>
<path d="M264.084 390.902L263.569 390.831C265.607 376.133 261.926 364.73 258.479 357.752C254.746 350.196 250.487 346.07 250.445 346.029L250.804 345.654C250.848 345.695 255.172 349.885 258.944 357.522C262.424 364.565 266.14 376.074 264.084 390.902Z" fill="#F2F2F2"/>
<path d="M414.543 391.562H223.268L223.224 390.914C223.114 389.302 220.674 351.282 232.993 337.716C235.747 334.683 239.065 333.091 242.853 332.985C250.883 332.756 255.929 335.764 260 338.178C267.671 342.729 272.739 345.736 291.166 322.961C311.128 298.288 332.667 292.98 345.048 295.932C353.048 297.839 358.562 303.23 360.176 310.722C361.704 317.817 361.217 324.483 360.826 329.839C360.408 335.57 360.077 340.097 362.431 342.148C364.396 343.86 368.318 344.015 374.773 342.638C387.902 339.837 406.222 342.234 415.417 354.114C420.364 360.506 424.261 372.125 414.735 391.178L414.543 391.562ZM224.573 390.172H413.682C420.781 375.769 421.003 363.603 414.318 354.965C405.882 344.066 388.185 341.198 375.062 343.997C368.05 345.494 363.871 345.247 361.518 343.196C358.64 340.689 358.993 335.856 359.439 329.738C359.824 324.47 360.303 317.914 358.817 311.015C357.32 304.067 352.185 299.063 344.726 297.284C332.739 294.424 311.803 299.666 292.247 323.835C273.065 347.544 267.287 344.117 259.291 339.374C255.17 336.93 250.492 334.159 242.892 334.374C239.496 334.47 236.512 335.909 234.022 338.65C222.95 350.842 224.302 385.032 224.573 390.172Z" fill="#CFCCE0"/>
<path d="M214.79 422.147C333.415 422.147 429.579 410.632 429.579 396.428C429.579 382.224 333.415 370.709 214.79 370.709C96.1646 370.709 0 382.224 0 396.428C0 410.632 96.1646 422.147 214.79 422.147Z" fill="black"/>
<path d="M219.513 59.9764C219.513 59.9764 208.775 56.1414 201.872 71.4814C194.969 86.8215 184.23 103.696 184.23 103.696L190.367 105.23C190.367 105.23 191.9 94.4915 195.736 92.9575L194.202 106.764C194.202 106.764 240.222 122.871 260.931 105.23L260.164 99.8606C260.164 99.8606 263.232 100.628 263.232 105.23L265.533 102.929C265.533 102.929 263.232 98.3266 256.329 92.1905C251.798 88.1631 250.241 80.501 249.706 75.7105C249.305 71.7104 247.705 67.9248 245.115 64.8502C240.527 59.5337 232.168 53.883 219.513 59.9764Z" fill="#2F2E41"/>
<path d="M208.186 120.121L197.064 106.219L188.723 77.719L220.698 43.6585C220.698 43.6585 227.649 17.2443 221.393 18.6346C215.137 20.0248 213.747 39.4879 213.747 39.4879L173.43 70.7679C173.43 70.7679 177.601 114.56 189.418 129.852L198.454 158.352L208.186 120.121Z" fill="#FFB9B9"/>
<path d="M238.771 120.121L249.893 106.219L258.234 77.719L226.259 43.6585C226.259 43.6585 219.308 17.2443 225.564 18.6346C231.82 20.0248 233.21 39.4879 233.21 39.4879L273.526 70.7679C273.526 70.7679 269.356 114.56 257.539 129.852L248.502 158.352L238.771 120.121Z" fill="#FFB9B9"/>
<path d="M223.479 108.304C233.46 108.304 241.552 100.212 241.552 90.2311C241.552 80.2497 233.46 72.1582 223.479 72.1582C213.497 72.1582 205.406 80.2497 205.406 90.2311C205.406 100.212 213.497 108.304 223.479 108.304Z" fill="#FFB9B9"/>
<path d="M215.137 99.9624C215.137 99.9624 215.832 114.56 211.662 119.426C207.491 124.291 203.32 149.315 223.479 150.01C243.637 150.706 241.552 129.157 241.552 129.157L237.381 117.34C237.381 117.34 231.125 108.304 233.21 99.9624H215.137Z" fill="#FFB9B9"/>
<path d="M196.369 261.924L211.314 266.442C211.314 266.442 223.479 259.143 223.479 266.094C223.479 273.046 219.308 282.082 220.698 288.338C222.088 294.594 224.869 309.886 220.698 309.886C216.527 309.886 208.186 282.777 208.186 282.777L194.284 275.131L196.369 261.924Z" fill="#FFB9B9"/>
<path d="M215.137 359.239L209.576 380.788C209.576 380.788 204.71 387.044 209.576 389.824C211.859 391.129 213.53 393.811 214.661 396.291C215.646 398.524 217.295 400.4 219.384 401.663C221.473 402.927 223.899 403.517 226.335 403.353C228.707 403.156 230.706 402.219 231.192 399.781C231.327 399.016 231.3 398.231 231.115 397.477C230.93 396.723 230.59 396.016 230.116 395.4C224.988 388.471 223.826 383.916 223.826 383.916L225.911 359.587L215.137 359.239Z" fill="#FFB9B9"/>
<path d="M201.677 93.4408C201.677 93.4408 207.813 85.0037 213.182 83.4697C218.551 81.9357 219.318 74.2657 219.318 74.2657C219.318 74.2657 233.124 89.6057 241.561 90.3727C249.998 91.1397 242.328 71.9647 242.328 71.9647L226.988 68.1296L212.415 69.6637L200.91 77.3337L201.677 93.4408Z" fill="#2F2E41"/>
<path d="M190.113 209.095L187.333 214.656C187.333 214.656 119.907 236.204 125.468 256.363C131.028 276.521 162.309 270.96 162.309 270.96L197.064 277.216L200.54 261.923L176.211 255.667L217.917 240.375L219.308 311.276L213.747 362.02L227.649 363.41C227.649 363.41 242.941 316.837 240.856 297.374C240.856 297.374 266.575 218.131 251.978 206.315C237.381 194.498 190.113 209.095 190.113 209.095Z" fill="#2F2E41"/>
<path d="M224.293 129.167L213.447 116.058L206.1 119.426L198.454 143.754C198.454 143.754 192.198 155.571 199.844 168.083C199.844 168.083 201.235 176.425 199.149 178.51C197.064 180.595 196.369 193.803 196.369 193.803L187.333 211.18C187.333 211.18 238.771 220.217 254.063 207.705C254.063 207.705 246.039 178.12 250.904 169.083C255.77 160.047 256.465 146.194 250.904 139.938C245.344 133.682 239.466 117.34 239.466 117.34L236.099 115.187L224.293 129.167Z" fill="#CFCCE0"/>
<path d="M264.844 25.385H258.177V18.7183H257.572V25.385H250.905V25.9907H257.572V32.6574H258.177V25.9907H264.844V25.385Z" fill="#CFCCE0"/>
<path d="M201.484 11.4457H194.817V4.77905H194.212V11.4457H187.545V12.0515H194.212V18.7182H194.817V12.0515H201.484V11.4457Z" fill="#CFCCE0"/>
</g>
</g>
<defs>
<clipPath id="clip0">
<rect y="-25" width="429.579" height="468" fill="white"/>
</clipPath>
</defs>
</svg>
